<?xml version="1.0" encoding="utf-8"?>
<!-- Generator: Adobe Illustrator 17.1.0, SVG Export Plug-In . SVG Version: 6.00 Build 0)  -->
<!DOCTYPE svg PUBLIC "-//W3C//DTD SVG 1.1//EN" "http://www.w3.org/Graphics/SVG/1.1/DTD/svg11.dtd">
<svg version="1.1" xmlns="http://www.w3.org/2000/svg" xmlns:xlink="http://www.w3.org/1999/xlink" x="0px" y="0px"
	 viewBox="-51.7 0 500 600" enable-background="new -51.7 0 500 600" xml:space="preserve">
<g id="Layer_6">
	<text transform="matrix(1 0 0 1 384.2265 65.6756)" font-family="'Helvetica-Bold'" font-size="7.353">[ bank ]</text>
	<text transform="matrix(1 0 0 1 385.848 75.009)" enable-background="new    "><tspan x="0" y="0" font-family="'Helvetica-Light'" font-size="7">savings</tspan><tspan x="-6.2" y="8.4" font-family="'Helvetica-Light'" font-size="7">commercial</tspan><tspan x="-4.9" y="16.8" font-family="'Helvetica-Light'" font-size="7">investment</tspan></text>
	<text transform="matrix(1 0 0 1 379.5195 56.6516)" font-family="'Helvetica-Light'" font-size="10">“admin”</text>
	<text transform="matrix(1 0 0 1 375.2362 148.1729)" font-family="'Helvetica-Bold'" font-size="7.353">[ consumer ]</text>
	<text transform="matrix(1 0 0 1 372.0374 157.5064)" enable-background="new    "><tspan x="0" y="0" font-family="'Helvetica-Light'" font-size="7">typical customer</tspan><tspan x="2.7" y="8.4" font-family="'Helvetica-Light'" font-size="7">small business</tspan><tspan x="13.6" y="16.8" font-family="'Helvetica-Light'" font-size="7">investor</tspan></text>
	<path fill="none" stroke="#5C9BAA" stroke-width="0.75" stroke-miterlimit="10" d="M406.7,44.5c0,0,0-3.3-1.9-4.4
		c-1.8-1.1-3.1-1.3-3.1-1.3l-1-0.4l-0.7-0.4l-0.2-0.6v-0.4c0,0-0.1-1,0.3-1.4c0.4-0.4,1.1-2.5,1.1-2.5s0.2-3.9-0.3-4.7
		c-0.5-0.8-1.3-2-2.9-1.8h-0.2c-1.7-0.1-2.4,1.1-2.9,1.8c-0.5,0.8-0.3,4.7-0.3,4.7s0.7,2,1.1,2.5c0.4,0.5,0.3,1.4,0.3,1.4v0.4
		l-0.2,0.6l-0.7,0.4l-1,0.4c0,0-1.3,0.2-3.1,1.3c-1.8,1.1-1.9,4.4-1.9,4.4H406.7z"/>
	<path fill="#5C9BAA" d="M406.7,127c0,0,0-3.3-1.9-4.4c-1.8-1.1-3.1-1.3-3.1-1.3l-1-0.4l-0.7-0.4l-0.2-0.6v-0.4c0,0-0.1-1,0.3-1.4
		c0.4-0.4,1.1-2.5,1.1-2.5s0.2-3.9-0.3-4.7c-0.5-0.8-1.3-2-2.9-1.8h-0.2c-1.7-0.1-2.4,1.1-2.9,1.8c-0.5,0.8-0.3,4.7-0.3,4.7
		s0.7,2,1.1,2.5c0.4,0.5,0.3,1.4,0.3,1.4v0.4l-0.2,0.6l-0.7,0.4l-1,0.4c0,0-1.3,0.2-3.1,1.3c-1.8,1.1-1.9,4.4-1.9,4.4H406.7z"/>
	<text transform="matrix(1 0 0 1 373.6787 139.1492)" font-family="'Helvetica-Light'" font-size="10">“end user”</text>
	<rect x="222.3" y="27.7" fill="none" stroke="#A3A3A3" stroke-width="0.5" stroke-miterlimit="10" width="50.4" height="50.4"/>
	<rect x="222.3" y="80.5" fill="none" stroke="#A3A3A3" stroke-width="0.5" stroke-miterlimit="10" width="50.4" height="50.4"/>
	<rect x="222.3" y="133.2" fill="none" stroke="#A3A3A3" stroke-width="0.5" stroke-miterlimit="10" width="50.4" height="50.4"/>
	<rect x="169.5" y="27.7" fill="none" stroke="#A3A3A3" stroke-width="0.5" stroke-miterlimit="10" width="50.4" height="50.4"/>
	<rect x="275" y="27.7" fill="none" stroke="#A3A3A3" stroke-width="0.5" stroke-miterlimit="10" width="50.4" height="50.4"/>
	<rect x="169.5" y="80.5" fill="none" stroke="#A3A3A3" stroke-width="0.5" stroke-miterlimit="10" width="50.4" height="50.4"/>
	<rect x="275" y="80.5" fill="none" stroke="#A3A3A3" stroke-width="0.5" stroke-miterlimit="10" width="50.4" height="50.4"/>
	<rect x="169.5" y="133.2" fill="none" stroke="#A3A3A3" stroke-width="0.5" stroke-miterlimit="10" width="50.4" height="50.4"/>
	<rect x="275" y="133.2" fill="none" stroke="#A3A3A3" stroke-width="0.5" stroke-miterlimit="10" width="50.4" height="50.4"/>
	<text transform="matrix(1 0 0 1 177.5852 195.416)" font-family="'Helvetica-Light'" font-size="8">MANAGE</text>
	<text transform="matrix(0 1 -1 0 155.3343 141.5308)" font-family="'Helvetica-Light'" font-size="8">BROWSE</text>
	<text transform="matrix(0 1 -1 0 155.3323 36.9224)" font-family="'Helvetica-Light'" font-size="8">SEARCH</text>
	<text transform="matrix(1 0 0 1 286.4143 195.416)" font-family="'Helvetica-Light'" font-size="8">PROFIT</text>
	<g>
		<path fill="none" stroke="#FCFCFC" stroke-width="0.25" stroke-miterlimit="10" d="M143.8,148.5"/>
	</g>
	<g>
		<g>
			<g>
				<g>
					<polygon fill="#71A8B5" points="151.4,114.9 157.8,119.7 163.8,114.9 161.9,114.9 161.9,114 161.9,110.3 153.2,110.3 
						153.2,114 153.2,114.9 					"/>
				</g>
			</g>
		</g>
	</g>
	<g>
		<g>
			<g>
				<g>
					<polygon fill="#71A8B5" points="163.8,96.4 157.4,91.6 151.4,96.4 153.2,96.4 153.2,97.3 153.2,101.1 161.9,101.1 161.9,97.3 
						161.9,96.4 					"/>
				</g>
			</g>
		</g>
	</g>
	<g>
		<g>
			<g>
				<g>
					<g>
						<polygon fill="#71A8B5" points="238.2,186.8 233.4,193.2 238.2,199.2 238.2,197.3 239.1,197.3 242.8,197.3 242.8,188.6 
							239.1,188.6 238.2,188.6 						"/>
					</g>
				</g>
			</g>
		</g>
		<g>
			<g>
				<g>
					<g>
						<polygon fill="#71A8B5" points="256.7,199.2 261.5,192.8 256.7,186.8 256.7,188.6 255.8,188.6 252,188.6 252,197.3 
							255.8,197.3 256.7,197.3 						"/>
					</g>
				</g>
			</g>
		</g>
	</g>
	<rect x="222.3" y="320" fill="none" stroke="#A3A3A3" stroke-width="0.5" stroke-miterlimit="10" width="50.4" height="50.4"/>
	<g>
		<g>
			<g>
				<g>
					<polygon fill="#71A8B5" points="151.4,301.7 157.8,306.5 163.8,301.7 161.9,301.7 161.9,300.8 161.9,297 153.2,297 
						153.2,300.8 153.2,301.7 					"/>
				</g>
			</g>
		</g>
	</g>
	<g>
		<g>
			<g>
				<g>
					<polygon fill="#71A8B5" points="163.8,283.1 157.4,278.3 151.4,283.1 153.2,283.1 153.2,284 153.2,287.8 161.9,287.8 
						161.9,284 161.9,283.1 					"/>
				</g>
			</g>
		</g>
	</g>
	<g>
		<g>
			<g>
				<g>
					<g>
						<polygon fill="#71A8B5" points="238.2,373.5 233.4,380 238.2,386 238.2,384.1 239.1,384.1 242.8,384.1 242.8,375.4 
							239.1,375.4 238.2,375.4 						"/>
					</g>
				</g>
			</g>
		</g>
		<g>
			<g>
				<g>
					<g>
						<polygon fill="#71A8B5" points="256.7,386 261.5,379.5 256.7,373.5 256.7,375.4 255.8,375.4 252,375.4 252,384.1 255.8,384.1 
							256.7,384.1 						"/>
					</g>
				</g>
			</g>
		</g>
	</g>
	<g>
		<g>
			<g>
				<g>
					<polygon fill="#71A8B5" points="151.4,487.7 157.8,492.5 163.8,487.7 161.9,487.7 161.9,486.8 161.9,483 153.2,483 
						153.2,486.8 153.2,487.7 					"/>
				</g>
			</g>
		</g>
	</g>
	<g>
		<g>
			<g>
				<g>
					<polygon fill="#71A8B5" points="163.8,469.2 157.4,464.4 151.4,469.2 153.2,469.2 153.2,470.1 153.2,473.8 161.9,473.8 
						161.9,470.1 161.9,469.2 					"/>
				</g>
			</g>
		</g>
	</g>
	<g>
		<g>
			<g>
				<g>
					<g>
						<polygon fill="#71A8B5" points="238.2,559.5 233.4,566 238.2,572 238.2,570.1 239.1,570.1 242.8,570.1 242.8,561.4 
							239.1,561.4 238.2,561.4 						"/>
					</g>
				</g>
			</g>
		</g>
		<g>
			<g>
				<g>
					<g>
						<polygon fill="#71A8B5" points="256.7,572 261.5,565.5 256.7,559.5 256.7,561.4 255.8,561.4 252,561.4 252,570.1 255.8,570.1 
							256.7,570.1 						"/>
					</g>
				</g>
			</g>
		</g>
	</g>
	<rect x="222.3" y="214.5" fill="none" stroke="#A3A3A3" stroke-width="0.5" stroke-miterlimit="10" width="50.4" height="50.4"/>
	<rect x="222.3" y="267.2" fill="none" stroke="#A3A3A3" stroke-width="0.5" stroke-miterlimit="10" width="50.4" height="50.4"/>
	<rect x="169.5" y="214.5" fill="none" stroke="#A3A3A3" stroke-width="0.5" stroke-miterlimit="10" width="50.4" height="50.4"/>
	<rect x="275" y="214.5" fill="none" stroke="#A3A3A3" stroke-width="0.5" stroke-miterlimit="10" width="50.4" height="50.4"/>
	<rect x="169.5" y="267.2" fill="none" stroke="#A3A3A3" stroke-width="0.5" stroke-miterlimit="10" width="50.4" height="50.4"/>
	<rect x="275" y="267.2" fill="none" stroke="#A3A3A3" stroke-width="0.5" stroke-miterlimit="10" width="50.4" height="50.4"/>
	<rect x="169.5" y="320" fill="none" stroke="#A3A3A3" stroke-width="0.5" stroke-miterlimit="10" width="50.4" height="50.4"/>
	<rect x="275" y="320" fill="none" stroke="#A3A3A3" stroke-width="0.5" stroke-miterlimit="10" width="50.4" height="50.4"/>
	<text transform="matrix(1 0 0 1 168.9095 382.1421)" font-family="'Helvetica-Light'" font-size="8">TRADITIONAL</text>
	<text transform="matrix(0 1 -1 0 155.3343 324.2583)" font-family="'Helvetica-Light'" font-size="8">FREQUENT</text>
	<text transform="matrix(0 1 -1 0 155.3323 229.1997)" font-family="'Helvetica-Light'" font-size="8">RARE</text>
	<text transform="matrix(1 0 0 1 275.3108 382.1421)" font-family="'Helvetica-Light'" font-size="8">TECH-BASED</text>
	<g>
		<path fill="none" stroke="#FCFCFC" stroke-width="0.25" stroke-miterlimit="10" d="M143.8,335.2"/>
	</g>
	<text transform="matrix(1 0 0 1 92.0262 35.49)" font-family="'Helvetica-Bold'" font-size="9.0133">[ intention ]</text>
	<text transform="matrix(1 0 0 1 97.4983 44.49)"><tspan x="0" y="0" font-family="'Helvetica'" font-size="7">what does the</tspan><tspan x="-8.2" y="8.4" font-family="'Helvetica'" font-size="7">user want to do?</tspan></text>
	<text transform="matrix(1 0 0 1 81.9432 230.616)"><tspan x="0" y="0" font-family="'Helvetica'" font-size="7">what are the user’s</tspan><tspan x="10.1" y="8.4" font-family="'Helvetica'" font-size="7">banking habits?</tspan></text>
	<text transform="matrix(1 0 0 1 92.5057 221.6159)" font-family="'Helvetica-Bold'" font-size="9.0133">[ behavior ]</text>
	<text transform="matrix(1 0 0 1 108.012 416.7415)"><tspan x="0" y="0" font-family="'Helvetica'" font-size="7">how is info</tspan><tspan x="-3.1" y="8.4" font-family="'Helvetica'" font-size="7">processed?</tspan></text>
	<text transform="matrix(1 0 0 1 89.011 407.7415)" font-family="'Helvetica-Bold'" font-size="9.0133">[ operation ]</text>
	<rect x="222.3" y="400.6" fill="none" stroke="#A3A3A3" stroke-width="0.5" stroke-miterlimit="10" width="50.4" height="50.4"/>
	<rect x="222.3" y="453.3" fill="none" stroke="#A3A3A3" stroke-width="0.5" stroke-miterlimit="10" width="50.4" height="50.4"/>
	<rect x="222.3" y="506.1" fill="none" stroke="#A3A3A3" stroke-width="0.5" stroke-miterlimit="10" width="50.4" height="50.4"/>
	<rect x="169.5" y="400.6" fill="none" stroke="#A3A3A3" stroke-width="0.5" stroke-miterlimit="10" width="50.4" height="50.4"/>
	<rect x="275" y="400.6" fill="none" stroke="#A3A3A3" stroke-width="0.5" stroke-miterlimit="10" width="50.4" height="50.4"/>
	<rect x="169.5" y="453.3" fill="none" stroke="#A3A3A3" stroke-width="0.5" stroke-miterlimit="10" width="50.4" height="50.4"/>
	<rect x="275" y="453.3" fill="none" stroke="#A3A3A3" stroke-width="0.5" stroke-miterlimit="10" width="50.4" height="50.4"/>
	<rect x="169.5" y="506.1" fill="none" stroke="#A3A3A3" stroke-width="0.5" stroke-miterlimit="10" width="50.4" height="50.4"/>
	<rect x="275" y="506.1" fill="none" stroke="#A3A3A3" stroke-width="0.5" stroke-miterlimit="10" width="50.4" height="50.4"/>
	<text transform="matrix(1 0 0 1 182.0252 568.2671)" font-family="'Helvetica-Light'" font-size="8">#/TEXT</text>
	<text transform="matrix(0 1 -1 0 155.3343 503.2671)" font-family="'Helvetica-Light'" font-size="8">QUANTITATIVE</text>
	<text transform="matrix(0 1 -1 0 155.3323 399.5415)" font-family="'Helvetica-Light'" font-size="8">QUALITIATIVE</text>
	<text transform="matrix(1 0 0 1 282.4182 568.2671)" font-family="'Helvetica-Light'" font-size="8">GRAPHIC</text>
	<g>
		<path fill="none" stroke="#FCFCFC" stroke-width="0.25" stroke-miterlimit="10" d="M143.8,521.3"/>
	</g>
	<text transform="matrix(1 0 0 1 183.0301 50.6518)"><tspan x="0" y="0" font-family="'Helvetica'" font-size="7">simplify</tspan><tspan x="0.6" y="8.4" font-family="'Helvetica'" font-size="7">system</tspan></text>
	<text transform="matrix(1 0 0 1 182.2488 156.4239)"><tspan x="0" y="0" font-family="'Helvetica'" font-size="7">improve</tspan><tspan x="-7.2" y="8.4" font-family="'Helvetica'" font-size="7">performance</tspan></text>
	<text transform="matrix(1 0 0 1 283.8536 50.6515)"><tspan x="0" y="0" font-family="'Helvetica'" font-size="7">coordinate</tspan><tspan x="-0.8" y="8.4" font-family="'Helvetica'" font-size="7">and launch</tspan></text>
	<text transform="matrix(1 0 0 1 288.1349 156.4237)"><tspan x="0" y="0" font-family="'Helvetica'" font-size="7">seeking</tspan><tspan x="-5.3" y="8.4" font-family="'Helvetica'" font-size="7">opportunity</tspan></text>
	<text transform="matrix(1 0 0 1 176.2058 237.5128)"><tspan x="0" y="0" font-family="'Helvetica'" font-size="7">unengaged/</tspan><tspan x="3.3" y="8.4" font-family="'Helvetica'" font-size="7">unfamiliar</tspan></text>
	<text transform="matrix(1 0 0 1 177.3797 342.2849)"><tspan x="0" y="0" font-family="'Helvetica'" font-size="7">has routine</tspan><tspan x="2.7" y="8.4" font-family="'Helvetica'" font-size="7">operation</tspan></text>
	<text transform="matrix(1 0 0 1 286.9708 237.5129)"><tspan x="0" y="0" font-family="'Helvetica'" font-size="7">may use</tspan><tspan x="-2.5" y="8.4" font-family="'Helvetica'" font-size="7">third-party</tspan></text>
	<text transform="matrix(1 0 0 1 282.8849 342.2847)"><tspan x="0" y="0" font-family="'Helvetica'" font-size="7">information</tspan><tspan x="7.8" y="8.4" font-family="'Helvetica'" font-size="7">driven</tspan></text>
	<text transform="matrix(1 0 0 1 180.1092 427.3047)" font-family="'Helvetica'" font-size="7">simplified</text>
	<text transform="matrix(1 0 0 1 176.6043 528.4102)"><tspan x="0" y="0" font-family="'Helvetica'" font-size="7">data centric</tspan><tspan x="10.1" y="8.4" font-family="'Helvetica'" font-size="7">utility</tspan></text>
	<text transform="matrix(1 0 0 1 284.2472 423.6378)"><tspan x="0" y="0" font-family="'Helvetica'" font-size="7">interactive</tspan><tspan x="-3.1" y="8.4" font-family="'Helvetica'" font-size="7">components</tspan></text>
	<text transform="matrix(1 0 0 1 282.8829 528.41)"><tspan x="0" y="0" font-family="'Helvetica'" font-size="7">charts and </tspan><tspan x="0.2" y="8.4" font-family="'Helvetica'" font-size="7">end results</tspan></text>
</g>
<g id="Layer_1" display="none">
	<polygon display="inline" fill="#0A2C54" points="56,67.4 56,0 -39,0 -39,67.4 8.5,87.2 	"/>
	<g display="inline">
		<g>
			<polyline fill="none" stroke="#5C9BAA" stroke-linecap="round" stroke-miterlimit="10" points="430.6,182.5 430.6,182.7 
				430.3,182.7 			"/>
			
				<line fill="none" stroke="#5C9BAA" stroke-linecap="round" stroke-miterlimit="10" stroke-dasharray="0.5026,2.0103" x1="428.3" y1="182.7" x2="366.5" y2="182.7"/>
			<polyline fill="none" stroke="#5C9BAA" stroke-linecap="round" stroke-miterlimit="10" points="365.5,182.7 365.2,182.7 
				365.2,182.5 			"/>
			
				<line fill="none" stroke="#5C9BAA" stroke-linecap="round" stroke-miterlimit="10" stroke-dasharray="0.4949,1.9795" x1="365.2" y1="180.5" x2="365.2" y2="102.3"/>
			<polyline fill="none" stroke="#5C9BAA" stroke-linecap="round" stroke-miterlimit="10" points="365.2,101.3 365.2,101.1 
				365.5,101.1 			"/>
			
				<line fill="none" stroke="#5C9BAA" stroke-linecap="round" stroke-miterlimit="10" stroke-dasharray="0.5026,2.0103" x1="367.5" y1="101.1" x2="429.3" y2="101.1"/>
			<polyline fill="none" stroke="#5C9BAA" stroke-linecap="round" stroke-miterlimit="10" points="430.3,101.1 430.6,101.1 
				430.6,101.3 			"/>
			
				<line fill="none" stroke="#5C9BAA" stroke-linecap="round" stroke-miterlimit="10" stroke-dasharray="0.4949,1.9795" x1="430.6" y1="103.3" x2="430.6" y2="181.5"/>
		</g>
	</g>
	<g display="inline">
		<g>
			<polyline fill="none" stroke="#5C9BAA" stroke-linecap="round" stroke-miterlimit="10" points="430.6,352.2 430.6,352.5 
				430.3,352.5 			"/>
			
				<line fill="none" stroke="#5C9BAA" stroke-linecap="round" stroke-miterlimit="10" stroke-dasharray="0.5026,2.0103" x1="428.3" y1="352.5" x2="366.5" y2="352.5"/>
			<polyline fill="none" stroke="#5C9BAA" stroke-linecap="round" stroke-miterlimit="10" points="365.5,352.5 365.2,352.5 
				365.2,352.2 			"/>
			
				<line fill="none" stroke="#5C9BAA" stroke-linecap="round" stroke-miterlimit="10" stroke-dasharray="0.4985,1.9938" x1="365.2" y1="350.3" x2="365.2" y2="194.2"/>
			<polyline fill="none" stroke="#5C9BAA" stroke-linecap="round" stroke-miterlimit="10" points="365.2,193.2 365.2,193 365.5,193 
							"/>
			
				<line fill="none" stroke="#5C9BAA" stroke-linecap="round" stroke-miterlimit="10" stroke-dasharray="0.5026,2.0103" x1="367.5" y1="193" x2="429.3" y2="193"/>
			<polyline fill="none" stroke="#5C9BAA" stroke-linecap="round" stroke-miterlimit="10" points="430.3,193 430.6,193 430.6,193.2 
							"/>
			
				<line fill="none" stroke="#5C9BAA" stroke-linecap="round" stroke-miterlimit="10" stroke-dasharray="0.4985,1.9938" x1="430.6" y1="195.2" x2="430.6" y2="351.3"/>
		</g>
	</g>
	
		<text transform="matrix(1 0 0 1 -25.5777 62.5364)" display="inline" fill="#FFFFFF" font-family="'Helvetica'" font-size="9.3592">application store</text>
	<g display="inline">
		<text transform="matrix(1 0 0 1 -0.3926 163.7986)" fill="#0A2C54" font-family="'Helvetica'" font-size="8">store</text>
	</g>
	<g display="inline">
		<text transform="matrix(1 0 0 1 6.164 150.7937)" fill="#0A2C54" font-family="'Helvetica-Bold'" font-size="8">+</text>
	</g>
	<g display="inline">
		<text transform="matrix(1 0 0 1 -8.4004 111.9635)" fill="#0A2C54" font-family="'Helvetica'" font-size="8">highlights</text>
	</g>
	<g display="inline">
		<text transform="matrix(1 0 0 1 -5.5098 222.1363)" fill="#0A2C54" font-family="'Helvetica'" font-size="8">account</text>
	</g>
	<g display="inline">
		<text transform="matrix(1 0 0 1 6.164 209.1314)" fill="#0A2C54" font-family="'Helvetica-Bold'" font-size="8">+</text>
	</g>
	
		<text transform="matrix(1 0 0 1 -26.0015 49.7732)" display="inline" fill="#FFFFFF" font-family="'Helvetica-Bold'" font-size="18">banking</text>
	
		<line display="inline" fill="none" stroke="#5C9BAA" stroke-linecap="round" stroke-miterlimit="10" stroke-dasharray="0.5,2" x1="397.9" y1="193" x2="397.9" y2="182.7"/>
	<text transform="matrix(1 0 0 1 367.8886 255.5051)" display="inline" font-family="'Helvetica-Bold'" font-size="7.353">[ proto-persona ]</text>
	<text transform="matrix(1 0 0 1 387.7943 264.8386)" display="inline" enable-background="new    "><tspan x="0" y="0" font-family="'Helvetica-Light'" font-size="7">broker</tspan><tspan x="-9.5" y="8.4" font-family="'Helvetica-Light'" font-size="7">35-years-old</tspan><tspan x="-6.8" y="16.8" font-family="'Helvetica-Light'" font-size="7">tech-savvy</tspan><tspan x="-9.3" y="25.2" font-family="'Helvetica-Light'" font-size="7">high-income</tspan><tspan x="-10.1" y="33.6" font-family="'Helvetica-Light'" font-size="7">lives in soma</tspan><tspan x="-15.8" y="42" font-family="'Helvetica-Light'" font-size="7">busy with clients</tspan><tspan x="0.8" y="50.4" font-family="'Helvetica-Light'" font-size="7">single</tspan><tspan x="-9" y="58.8" font-family="'Helvetica-Light'" font-size="7">travels often</tspan><tspan x="-7.2" y="67.2" font-family="'Helvetica-Light'" font-size="7">instagrams</tspan></text>
	<text transform="matrix(1 0 0 1 381.1787 245.6537)" display="inline" font-family="'Helvetica-Light'" font-size="10">“jonah”</text>
	
		<image display="inline" overflow="visible" width="288" height="288" xlink:href="DEDABA9B9A4A7561.jpg"  transform="matrix(0.1151 0 0 0.1151 380.7238 200)">
	</image>
	<g display="inline">
		<circle fill="none" stroke="#0A2C54" stroke-miterlimit="10" cx="265" cy="96.3" r="3.8"/>
		<circle fill="#0A2C54" cx="265" cy="96.3" r="1.5"/>
	</g>
	<g display="inline">
		<g>
			<g>
				<circle fill="none" stroke="#0A2C54" stroke-miterlimit="10" cx="397.3" cy="342.3" r="3.8"/>
			</g>
			<g>
				<circle fill="#0A2C54" cx="397.3" cy="342.3" r="1.5"/>
			</g>
		</g>
	</g>
	<g display="inline">
		<g>
			<g>
				<circle fill="none" stroke="#0A2C54" stroke-miterlimit="10" cx="317.8" cy="310" r="3.8"/>
			</g>
			<g>
				<circle fill="#0A2C54" cx="317.8" cy="310" r="1.5"/>
			</g>
		</g>
	</g>
	<g display="inline">
		<g>
			<g>
				<circle fill="none" stroke="#0A2C54" stroke-miterlimit="10" cx="304" cy="460.6" r="3.8"/>
			</g>
			<g>
				<circle fill="#0A2C54" cx="304" cy="460.6" r="1.5"/>
			</g>
		</g>
	</g>
	<text transform="matrix(1 0 0 1 -27.9547 413.5582)" display="inline" font-family="'Helvetica-Bold'" font-size="8">existing app stores</text>
	<text transform="matrix(1 0 0 1 1.16 421.9371)" display="inline" font-family="'Helvetica'" font-size="6">apple</text>
	<text transform="matrix(1 0 0 1 -11.3498 428.9371)" display="inline" font-family="'Helvetica'" font-size="6">google android</text>
	<text transform="matrix(1 0 0 1 -3.6754 435.5723)" display="inline" font-family="'Helvetica'" font-size="6">facebook</text>
	<text transform="matrix(1 0 0 1 -3.0045 442.2502)" display="inline" font-family="'Helvetica'" font-size="6">windows</text>
	<text transform="matrix(1 0 0 1 -2.1725 449.0663)" display="inline" font-family="'Helvetica'" font-size="6">amazon</text>
	<text transform="matrix(1 0 0 1 -19.0661 470.0832)" display="inline" font-family="'Helvetica-Bold'" font-size="8">typical display</text>
	<text transform="matrix(1 0 0 1 -6.0075 478.4621)" display="inline" font-family="'Helvetica'" font-size="6">large icons</text>
	<text transform="matrix(1 0 0 1 -5.341 485.4621)" display="inline" font-family="'Helvetica'" font-size="6">categories</text>
	<text transform="matrix(1 0 0 1 -0.5041 492.0973)" display="inline" font-family="'Helvetica'" font-size="6">ratings</text>
	<text transform="matrix(1 0 0 1 -3.6725 498.6504)" display="inline" font-family="'Helvetica'" font-size="6">searches</text>
	<text transform="matrix(1 0 0 1 -10.5119 505.6504)" display="inline" font-family="'Helvetica'" font-size="6">getting started</text>
	<text transform="matrix(1 0 0 1 -7.5075 512.2856)" display="inline" font-family="'Helvetica'" font-size="6">descriptions</text>
	<text transform="matrix(1 0 0 1 0.8304 518.6929)" display="inline" font-family="'Helvetica'" font-size="6">install</text>
	<text transform="matrix(1 0 0 1 -1.1676 525.6929)" display="inline" font-family="'Helvetica'" font-size="6">wishlist</text>
	<text transform="matrix(1 0 0 1 -7.5045 532.3281)" display="inline" font-family="'Helvetica'" font-size="6">similar apps</text>
	<text transform="matrix(1 0 0 1 0.4979 538.8812)" display="inline" font-family="'Helvetica'" font-size="6">prices</text>
	<text transform="matrix(1 0 0 1 -15.3444 545.8812)" display="inline" font-family="'Helvetica'" font-size="6">recommendations</text>
	<text transform="matrix(1 0 0 1 -7.6745 552.5164)" display="inline" font-family="'Helvetica'" font-size="6">screenshots</text>
	<rect x="80.5" y="27.7" display="inline" opacity="0.8" fill="#FFFFFF" width="63.3" height="50.4"/>
	<rect x="80.5" y="214.1" display="inline" opacity="0.8" fill="#FFFFFF" width="63.3" height="50.8"/>
	<rect x="80.5" y="400.6" display="inline" opacity="0.8" fill="#FFFFFF" width="63.3" height="50.4"/>
	<text transform="matrix(1 0 0 1 -21.0678 122.7399)" display="inline"><tspan x="0" y="0" font-family="'Helvetica-Light'" font-size="7">updates on what is</tspan><tspan x="-0.8" y="8.4" font-family="'Helvetica-Light'" font-size="7">featured &amp; trending</tspan></text>
	<text transform="matrix(1 0 0 1 -13.6689 174.5751)" display="inline"><tspan x="0" y="0" font-family="'Helvetica-Light'" font-size="7">grid format for</tspan><tspan x="-4.3" y="8.4" font-family="'Helvetica-Light'" font-size="7">easy reading but</tspan><tspan x="0.6" y="16.8" font-family="'Helvetica-Light'" font-size="7">detail on click</tspan></text>
	<text transform="matrix(1 0 0 1 -12.8954 232.913)" display="inline"><tspan x="0" y="0" font-family="'Helvetica-Light'" font-size="7">sign in or up, </tspan><tspan x="-2.3" y="8.4" font-family="'Helvetica-Light'" font-size="7">see own library</tspan><tspan x="7" y="16.8" font-family="'Helvetica-Light'" font-size="7">and sync</tspan></text>
</g>
<g id="Layer_2" display="none">
</g>
<g id="Layer_3">
</g>
<g id="Layer_4">
</g>
<g id="Layer_5">
</g>
</svg>
