<?xml version="1.0" encoding="utf-8"?>
<!-- Generator: Adobe Illustrator 17.1.0, SVG Export Plug-In . SVG Version: 6.00 Build 0)  -->
<!DOCTYPE svg PUBLIC "-//W3C//DTD SVG 1.1//EN" "http://www.w3.org/Graphics/SVG/1.1/DTD/svg11.dtd">
<svg version="1.1" xmlns="http://www.w3.org/2000/svg" xmlns:xlink="http://www.w3.org/1999/xlink" x="0px" y="0px"
	 viewBox="-51.7 0 500 600" enable-background="new -51.7 0 500 600" xml:space="preserve">
<g id="Layer_6" display="none">
	<text transform="matrix(1 0 0 1 384.2265 65.6756)" display="inline" font-family="'Helvetica-Bold'" font-size="7.353">[ bank ]</text>
	<text transform="matrix(1 0 0 1 385.848 75.009)" display="inline" enable-background="new    "><tspan x="0" y="0" font-family="'Helvetica-Light'" font-size="7">savings</tspan><tspan x="-6.2" y="8.4" font-family="'Helvetica-Light'" font-size="7">commercial</tspan><tspan x="-4.9" y="16.8" font-family="'Helvetica-Light'" font-size="7">investment</tspan></text>
	<text transform="matrix(1 0 0 1 379.5195 56.6516)" display="inline" font-family="'Helvetica-Light'" font-size="10">“admin”</text>
	<text transform="matrix(1 0 0 1 375.2362 148.1729)" display="inline" font-family="'Helvetica-Bold'" font-size="7.353">[ consumer ]</text>
	<text transform="matrix(1 0 0 1 372.0374 157.5064)" display="inline" enable-background="new    "><tspan x="0" y="0" font-family="'Helvetica-Light'" font-size="7">typical customer</tspan><tspan x="2.7" y="8.4" font-family="'Helvetica-Light'" font-size="7">small business</tspan><tspan x="13.6" y="16.8" font-family="'Helvetica-Light'" font-size="7">investor</tspan></text>
	<path display="inline" fill="none" stroke="#5C9BAA" stroke-width="0.75" stroke-miterlimit="10" d="M406.7,44.5c0,0,0-3.3-1.9-4.4
		c-1.8-1.1-3.1-1.3-3.1-1.3l-1-0.4l-0.7-0.4l-0.2-0.6v-0.4c0,0-0.1-1,0.3-1.4c0.4-0.4,1.1-2.5,1.1-2.5s0.2-3.9-0.3-4.7
		c-0.5-0.8-1.3-2-2.9-1.8h-0.2c-1.7-0.1-2.4,1.1-2.9,1.8c-0.5,0.8-0.3,4.7-0.3,4.7s0.7,2,1.1,2.5c0.4,0.5,0.3,1.4,0.3,1.4v0.4
		l-0.2,0.6l-0.7,0.4l-1,0.4c0,0-1.3,0.2-3.1,1.3c-1.8,1.1-1.9,4.4-1.9,4.4H406.7z"/>
	<path display="inline" fill="#5C9BAA" d="M406.7,127c0,0,0-3.3-1.9-4.4c-1.8-1.1-3.1-1.3-3.1-1.3l-1-0.4l-0.7-0.4l-0.2-0.6v-0.4
		c0,0-0.1-1,0.3-1.4c0.4-0.4,1.1-2.5,1.1-2.5s0.2-3.9-0.3-4.7c-0.5-0.8-1.3-2-2.9-1.8h-0.2c-1.7-0.1-2.4,1.1-2.9,1.8
		c-0.5,0.8-0.3,4.7-0.3,4.7s0.7,2,1.1,2.5c0.4,0.5,0.3,1.4,0.3,1.4v0.4l-0.2,0.6l-0.7,0.4l-1,0.4c0,0-1.3,0.2-3.1,1.3
		c-1.8,1.1-1.9,4.4-1.9,4.4H406.7z"/>
	<text transform="matrix(1 0 0 1 373.6787 139.1492)" display="inline" font-family="'Helvetica-Light'" font-size="10">“end user”</text>
	
		<rect x="222.3" y="27.7" display="inline" fill="none" stroke="#A3A3A3" stroke-width="0.5" stroke-miterlimit="10" width="50.4" height="50.4"/>
	
		<rect x="222.3" y="80.5" display="inline" fill="none" stroke="#A3A3A3" stroke-width="0.5" stroke-miterlimit="10" width="50.4" height="50.4"/>
	
		<rect x="222.3" y="133.2" display="inline" fill="none" stroke="#A3A3A3" stroke-width="0.5" stroke-miterlimit="10" width="50.4" height="50.4"/>
	
		<rect x="169.5" y="27.7" display="inline" fill="none" stroke="#A3A3A3" stroke-width="0.5" stroke-miterlimit="10" width="50.4" height="50.4"/>
	
		<rect x="275" y="27.7" display="inline" fill="none" stroke="#A3A3A3" stroke-width="0.5" stroke-miterlimit="10" width="50.4" height="50.4"/>
	
		<rect x="169.5" y="80.5" display="inline" fill="none" stroke="#A3A3A3" stroke-width="0.5" stroke-miterlimit="10" width="50.4" height="50.4"/>
	
		<rect x="275" y="80.5" display="inline" fill="none" stroke="#A3A3A3" stroke-width="0.5" stroke-miterlimit="10" width="50.4" height="50.4"/>
	
		<rect x="169.5" y="133.2" display="inline" fill="none" stroke="#A3A3A3" stroke-width="0.5" stroke-miterlimit="10" width="50.4" height="50.4"/>
	
		<rect x="275" y="133.2" display="inline" fill="none" stroke="#A3A3A3" stroke-width="0.5" stroke-miterlimit="10" width="50.4" height="50.4"/>
	<text transform="matrix(1 0 0 1 177.5852 195.416)" display="inline" font-family="'Helvetica-Light'" font-size="8">MANAGE</text>
	<text transform="matrix(0 1 -1 0 155.3343 141.5308)" display="inline" font-family="'Helvetica-Light'" font-size="8">BROWSE</text>
	<text transform="matrix(0 1 -1 0 155.3323 36.9224)" display="inline" font-family="'Helvetica-Light'" font-size="8">SEARCH</text>
	<text transform="matrix(1 0 0 1 286.4143 195.416)" display="inline" font-family="'Helvetica-Light'" font-size="8">PROFIT</text>
	<g display="inline">
		<path fill="none" stroke="#FCFCFC" stroke-width="0.25" stroke-miterlimit="10" d="M143.8,148.5"/>
	</g>
	<g display="inline">
		<g>
			<g>
				<g>
					<polygon fill="#71A8B5" points="151.4,114.9 157.8,119.7 163.8,114.9 161.9,114.9 161.9,114 161.9,110.3 153.2,110.3 
						153.2,114 153.2,114.9 					"/>
				</g>
			</g>
		</g>
	</g>
	<g display="inline">
		<g>
			<g>
				<g>
					<polygon fill="#71A8B5" points="163.8,96.4 157.4,91.6 151.4,96.4 153.2,96.4 153.2,97.3 153.2,101.1 161.9,101.1 161.9,97.3 
						161.9,96.4 					"/>
				</g>
			</g>
		</g>
	</g>
	<g display="inline">
		<g>
			<g>
				<g>
					<g>
						<polygon fill="#71A8B5" points="238.2,186.8 233.4,193.2 238.2,199.2 238.2,197.3 239.1,197.3 242.8,197.3 242.8,188.6 
							239.1,188.6 238.2,188.6 						"/>
					</g>
				</g>
			</g>
		</g>
		<g>
			<g>
				<g>
					<g>
						<polygon fill="#71A8B5" points="256.7,199.2 261.5,192.8 256.7,186.8 256.7,188.6 255.8,188.6 252,188.6 252,197.3 
							255.8,197.3 256.7,197.3 						"/>
					</g>
				</g>
			</g>
		</g>
	</g>
	
		<rect x="222.3" y="320" display="inline" fill="none" stroke="#A3A3A3" stroke-width="0.5" stroke-miterlimit="10" width="50.4" height="50.4"/>
	<g display="inline">
		<g>
			<g>
				<g>
					<polygon fill="#71A8B5" points="151.4,301.7 157.8,306.5 163.8,301.7 161.9,301.7 161.9,300.8 161.9,297 153.2,297 
						153.2,300.8 153.2,301.7 					"/>
				</g>
			</g>
		</g>
	</g>
	<g display="inline">
		<g>
			<g>
				<g>
					<polygon fill="#71A8B5" points="163.8,283.1 157.4,278.3 151.4,283.1 153.2,283.1 153.2,284 153.2,287.8 161.9,287.8 
						161.9,284 161.9,283.1 					"/>
				</g>
			</g>
		</g>
	</g>
	<g display="inline">
		<g>
			<g>
				<g>
					<g>
						<polygon fill="#71A8B5" points="238.2,373.5 233.4,380 238.2,386 238.2,384.1 239.1,384.1 242.8,384.1 242.8,375.4 
							239.1,375.4 238.2,375.4 						"/>
					</g>
				</g>
			</g>
		</g>
		<g>
			<g>
				<g>
					<g>
						<polygon fill="#71A8B5" points="256.7,386 261.5,379.5 256.7,373.5 256.7,375.4 255.8,375.4 252,375.4 252,384.1 255.8,384.1 
							256.7,384.1 						"/>
					</g>
				</g>
			</g>
		</g>
	</g>
	<g display="inline">
		<g>
			<g>
				<g>
					<polygon fill="#71A8B5" points="151.4,487.7 157.8,492.5 163.8,487.7 161.9,487.7 161.9,486.8 161.9,483 153.2,483 
						153.2,486.8 153.2,487.7 					"/>
				</g>
			</g>
		</g>
	</g>
	<g display="inline">
		<g>
			<g>
				<g>
					<polygon fill="#71A8B5" points="163.8,469.2 157.4,464.4 151.4,469.2 153.2,469.2 153.2,470.1 153.2,473.8 161.9,473.8 
						161.9,470.1 161.9,469.2 					"/>
				</g>
			</g>
		</g>
	</g>
	<g display="inline">
		<g>
			<g>
				<g>
					<g>
						<polygon fill="#71A8B5" points="238.2,559.5 233.4,566 238.2,572 238.2,570.1 239.1,570.1 242.8,570.1 242.8,561.4 
							239.1,561.4 238.2,561.4 						"/>
					</g>
				</g>
			</g>
		</g>
		<g>
			<g>
				<g>
					<g>
						<polygon fill="#71A8B5" points="256.7,572 261.5,565.5 256.7,559.5 256.7,561.4 255.8,561.4 252,561.4 252,570.1 255.8,570.1 
							256.7,570.1 						"/>
					</g>
				</g>
			</g>
		</g>
	</g>
	
		<rect x="222.3" y="214.5" display="inline" fill="none" stroke="#A3A3A3" stroke-width="0.5" stroke-miterlimit="10" width="50.4" height="50.4"/>
	
		<rect x="222.3" y="267.2" display="inline" fill="none" stroke="#A3A3A3" stroke-width="0.5" stroke-miterlimit="10" width="50.4" height="50.4"/>
	
		<rect x="169.5" y="214.5" display="inline" fill="none" stroke="#A3A3A3" stroke-width="0.5" stroke-miterlimit="10" width="50.4" height="50.4"/>
	
		<rect x="275" y="214.5" display="inline" fill="none" stroke="#A3A3A3" stroke-width="0.5" stroke-miterlimit="10" width="50.4" height="50.4"/>
	
		<rect x="169.5" y="267.2" display="inline" fill="none" stroke="#A3A3A3" stroke-width="0.5" stroke-miterlimit="10" width="50.4" height="50.4"/>
	
		<rect x="275" y="267.2" display="inline" fill="none" stroke="#A3A3A3" stroke-width="0.5" stroke-miterlimit="10" width="50.4" height="50.4"/>
	
		<rect x="169.5" y="320" display="inline" fill="none" stroke="#A3A3A3" stroke-width="0.5" stroke-miterlimit="10" width="50.4" height="50.4"/>
	
		<rect x="275" y="320" display="inline" fill="none" stroke="#A3A3A3" stroke-width="0.5" stroke-miterlimit="10" width="50.4" height="50.4"/>
	<text transform="matrix(1 0 0 1 168.9095 382.1421)" display="inline" font-family="'Helvetica-Light'" font-size="8">TRADITIONAL</text>
	<text transform="matrix(0 1 -1 0 155.3343 324.2583)" display="inline" font-family="'Helvetica-Light'" font-size="8">FREQUENT</text>
	<text transform="matrix(0 1 -1 0 155.3323 229.1997)" display="inline" font-family="'Helvetica-Light'" font-size="8">RARE</text>
	<text transform="matrix(1 0 0 1 275.3108 382.1421)" display="inline" font-family="'Helvetica-Light'" font-size="8">TECH-BASED</text>
	<g display="inline">
		<path fill="none" stroke="#FCFCFC" stroke-width="0.25" stroke-miterlimit="10" d="M143.8,335.2"/>
	</g>
	<text transform="matrix(1 0 0 1 92.0262 35.49)" display="inline" font-family="'Helvetica-Bold'" font-size="9.0133">[ intention ]</text>
	<text transform="matrix(1 0 0 1 97.4983 44.49)" display="inline"><tspan x="0" y="0" font-family="'Helvetica'" font-size="7">what does the</tspan><tspan x="-8.2" y="8.4" font-family="'Helvetica'" font-size="7">user want to do?</tspan></text>
	<text transform="matrix(1 0 0 1 81.9432 230.616)" display="inline"><tspan x="0" y="0" font-family="'Helvetica'" font-size="7">what are the user’s</tspan><tspan x="10.1" y="8.4" font-family="'Helvetica'" font-size="7">banking habits?</tspan></text>
	<text transform="matrix(1 0 0 1 92.5057 221.6159)" display="inline" font-family="'Helvetica-Bold'" font-size="9.0133">[ behavior ]</text>
	<text transform="matrix(1 0 0 1 108.012 416.7415)" display="inline"><tspan x="0" y="0" font-family="'Helvetica'" font-size="7">how is info</tspan><tspan x="-3.1" y="8.4" font-family="'Helvetica'" font-size="7">processed?</tspan></text>
	<text transform="matrix(1 0 0 1 89.011 407.7415)" display="inline" font-family="'Helvetica-Bold'" font-size="9.0133">[ operation ]</text>
	
		<rect x="222.3" y="400.6" display="inline" fill="none" stroke="#A3A3A3" stroke-width="0.5" stroke-miterlimit="10" width="50.4" height="50.4"/>
	
		<rect x="222.3" y="453.3" display="inline" fill="none" stroke="#A3A3A3" stroke-width="0.5" stroke-miterlimit="10" width="50.4" height="50.4"/>
	
		<rect x="222.3" y="506.1" display="inline" fill="none" stroke="#A3A3A3" stroke-width="0.5" stroke-miterlimit="10" width="50.4" height="50.4"/>
	
		<rect x="169.5" y="400.6" display="inline" fill="none" stroke="#A3A3A3" stroke-width="0.5" stroke-miterlimit="10" width="50.4" height="50.4"/>
	
		<rect x="275" y="400.6" display="inline" fill="none" stroke="#A3A3A3" stroke-width="0.5" stroke-miterlimit="10" width="50.4" height="50.4"/>
	
		<rect x="169.5" y="453.3" display="inline" fill="none" stroke="#A3A3A3" stroke-width="0.5" stroke-miterlimit="10" width="50.4" height="50.4"/>
	
		<rect x="275" y="453.3" display="inline" fill="none" stroke="#A3A3A3" stroke-width="0.5" stroke-miterlimit="10" width="50.4" height="50.4"/>
	
		<rect x="169.5" y="506.1" display="inline" fill="none" stroke="#A3A3A3" stroke-width="0.5" stroke-miterlimit="10" width="50.4" height="50.4"/>
	
		<rect x="275" y="506.1" display="inline" fill="none" stroke="#A3A3A3" stroke-width="0.5" stroke-miterlimit="10" width="50.4" height="50.4"/>
	<text transform="matrix(1 0 0 1 182.0252 568.2671)" display="inline" font-family="'Helvetica-Light'" font-size="8">#/TEXT</text>
	<text transform="matrix(0 1 -1 0 155.3343 503.2671)" display="inline" font-family="'Helvetica-Light'" font-size="8">QUANTITATIVE</text>
	<text transform="matrix(0 1 -1 0 155.3323 399.5415)" display="inline" font-family="'Helvetica-Light'" font-size="8">QUALITIATIVE</text>
	<text transform="matrix(1 0 0 1 282.4182 568.2671)" display="inline" font-family="'Helvetica-Light'" font-size="8">GRAPHIC</text>
	<g display="inline">
		<path fill="none" stroke="#FCFCFC" stroke-width="0.25" stroke-miterlimit="10" d="M143.8,521.3"/>
	</g>
	<text transform="matrix(1 0 0 1 183.0301 50.6518)" display="inline"><tspan x="0" y="0" font-family="'Helvetica'" font-size="7">simplify</tspan><tspan x="0.6" y="8.4" font-family="'Helvetica'" font-size="7">system</tspan></text>
	<text transform="matrix(1 0 0 1 182.2488 156.4239)" display="inline"><tspan x="0" y="0" font-family="'Helvetica'" font-size="7">improve</tspan><tspan x="-7.2" y="8.4" font-family="'Helvetica'" font-size="7">performance</tspan></text>
	<text transform="matrix(1 0 0 1 283.8536 50.6515)" display="inline"><tspan x="0" y="0" font-family="'Helvetica'" font-size="7">coordinate</tspan><tspan x="-0.8" y="8.4" font-family="'Helvetica'" font-size="7">and launch</tspan></text>
	<text transform="matrix(1 0 0 1 288.1349 156.4237)" display="inline"><tspan x="0" y="0" font-family="'Helvetica'" font-size="7">seeking</tspan><tspan x="-5.3" y="8.4" font-family="'Helvetica'" font-size="7">opportunity</tspan></text>
	<text transform="matrix(1 0 0 1 176.2058 237.5128)" display="inline"><tspan x="0" y="0" font-family="'Helvetica'" font-size="7">unengaged/</tspan><tspan x="3.3" y="8.4" font-family="'Helvetica'" font-size="7">unfamiliar</tspan></text>
	<text transform="matrix(1 0 0 1 177.3797 342.2849)" display="inline"><tspan x="0" y="0" font-family="'Helvetica'" font-size="7">has routine</tspan><tspan x="2.7" y="8.4" font-family="'Helvetica'" font-size="7">operation</tspan></text>
	<text transform="matrix(1 0 0 1 286.9708 237.5129)" display="inline"><tspan x="0" y="0" font-family="'Helvetica'" font-size="7">may use</tspan><tspan x="-2.5" y="8.4" font-family="'Helvetica'" font-size="7">third-party</tspan></text>
	<text transform="matrix(1 0 0 1 282.8849 342.2847)" display="inline"><tspan x="0" y="0" font-family="'Helvetica'" font-size="7">information</tspan><tspan x="7.8" y="8.4" font-family="'Helvetica'" font-size="7">driven</tspan></text>
	<text transform="matrix(1 0 0 1 180.1092 427.3047)" display="inline" font-family="'Helvetica'" font-size="7">simplified</text>
	<text transform="matrix(1 0 0 1 176.6043 528.4102)" display="inline"><tspan x="0" y="0" font-family="'Helvetica'" font-size="7">data centric</tspan><tspan x="10.1" y="8.4" font-family="'Helvetica'" font-size="7">utility</tspan></text>
	<text transform="matrix(1 0 0 1 284.2472 423.6378)" display="inline"><tspan x="0" y="0" font-family="'Helvetica'" font-size="7">interactive</tspan><tspan x="-3.1" y="8.4" font-family="'Helvetica'" font-size="7">components</tspan></text>
	<text transform="matrix(1 0 0 1 282.8829 528.41)" display="inline"><tspan x="0" y="0" font-family="'Helvetica'" font-size="7">charts and </tspan><tspan x="0.2" y="8.4" font-family="'Helvetica'" font-size="7">end results</tspan></text>
</g>
<g id="Layer_1">
	<g>
		<g>
			<polyline fill="none" stroke="#5C9BAA" stroke-linecap="round" stroke-miterlimit="10" points="430.6,182.5 430.6,182.7 
				430.3,182.7 			"/>
			
				<line fill="none" stroke="#5C9BAA" stroke-linecap="round" stroke-miterlimit="10" stroke-dasharray="0.5026,2.0103" x1="428.3" y1="182.7" x2="366.5" y2="182.7"/>
			<polyline fill="none" stroke="#5C9BAA" stroke-linecap="round" stroke-miterlimit="10" points="365.5,182.7 365.2,182.7 
				365.2,182.5 			"/>
			
				<line fill="none" stroke="#5C9BAA" stroke-linecap="round" stroke-miterlimit="10" stroke-dasharray="0.4949,1.9795" x1="365.2" y1="180.5" x2="365.2" y2="102.3"/>
			<polyline fill="none" stroke="#5C9BAA" stroke-linecap="round" stroke-miterlimit="10" points="365.2,101.3 365.2,101.1 
				365.5,101.1 			"/>
			
				<line fill="none" stroke="#5C9BAA" stroke-linecap="round" stroke-miterlimit="10" stroke-dasharray="0.5026,2.0103" x1="367.5" y1="101.1" x2="429.3" y2="101.1"/>
			<polyline fill="none" stroke="#5C9BAA" stroke-linecap="round" stroke-miterlimit="10" points="430.3,101.1 430.6,101.1 
				430.6,101.3 			"/>
			
				<line fill="none" stroke="#5C9BAA" stroke-linecap="round" stroke-miterlimit="10" stroke-dasharray="0.4949,1.9795" x1="430.6" y1="103.3" x2="430.6" y2="181.5"/>
		</g>
	</g>
	<g>
		<g>
			<polyline fill="none" stroke="#5C9BAA" stroke-linecap="round" stroke-miterlimit="10" points="430.6,315.7 430.6,316 430.3,316 
							"/>
			
				<line fill="none" stroke="#5C9BAA" stroke-linecap="round" stroke-miterlimit="10" stroke-dasharray="0.5026,2.0103" x1="428.3" y1="316" x2="366.5" y2="316"/>
			<polyline fill="none" stroke="#5C9BAA" stroke-linecap="round" stroke-miterlimit="10" points="365.5,316 365.2,316 365.2,315.7 
							"/>
			
				<line fill="none" stroke="#5C9BAA" stroke-linecap="round" stroke-miterlimit="10" stroke-dasharray="0.502,2.008" x1="365.2" y1="313.7" x2="365.2" y2="194.2"/>
			<polyline fill="none" stroke="#5C9BAA" stroke-linecap="round" stroke-miterlimit="10" points="365.2,193.2 365.2,193 365.5,193 
							"/>
			
				<line fill="none" stroke="#5C9BAA" stroke-linecap="round" stroke-miterlimit="10" stroke-dasharray="0.5026,2.0103" x1="367.5" y1="193" x2="429.3" y2="193"/>
			<polyline fill="none" stroke="#5C9BAA" stroke-linecap="round" stroke-miterlimit="10" points="430.3,193 430.6,193 430.6,193.2 
							"/>
			
				<line fill="none" stroke="#5C9BAA" stroke-linecap="round" stroke-miterlimit="10" stroke-dasharray="0.502,2.008" x1="430.6" y1="195.2" x2="430.6" y2="314.7"/>
		</g>
	</g>
	<g>
		<text transform="matrix(1 0 0 1 -24.27 62.5364)" fill="#0A2C54" font-family="'Helvetica'" font-size="9">application store</text>
	</g>
	<g>
		<text transform="matrix(1 0 0 1 -0.3926 144.8667)" fill="#0A2C54" font-family="'Helvetica'" font-size="8">store</text>
	</g>
	<g>
		<text transform="matrix(1 0 0 1 6.164 131.8618)" fill="#0A2C54" font-family="'Helvetica-Bold'" font-size="8">+</text>
	</g>
	<g>
		<text transform="matrix(1 0 0 1 -8.4004 93.0316)" fill="#0A2C54" font-family="'Helvetica'" font-size="8">highlights</text>
	</g>
	<g>
		<text transform="matrix(1 0 0 1 -5.5098 203.2044)" fill="#0A2C54" font-family="'Helvetica'" font-size="8">account</text>
	</g>
	<g>
		<text transform="matrix(1 0 0 1 6.164 190.1995)" fill="#0A2C54" font-family="'Helvetica-Bold'" font-size="8">+</text>
	</g>
	<g>
		<text transform="matrix(1 0 0 1 -26.0015 52.7732)" fill="#0A2C54" font-family="'Helvetica-Bold'" font-size="18">banking</text>
	</g>
	
		<line fill="none" stroke="#5C9BAA" stroke-linecap="round" stroke-miterlimit="10" stroke-dasharray="0.5,2" x1="397.9" y1="193" x2="397.9" y2="182.7"/>
	<text transform="matrix(1 0 0 1 367.8886 218.9826)" font-family="'Helvetica-Bold'" font-size="7.353">[ proto-persona ]</text>
	<text transform="matrix(1 0 0 1 387.7943 228.3161)" enable-background="new    "><tspan x="0" y="0" font-family="'Helvetica-Light'" font-size="7">broker</tspan><tspan x="-9.5" y="8.4" font-family="'Helvetica-Light'" font-size="7">35-years-old</tspan><tspan x="-6.8" y="16.8" font-family="'Helvetica-Light'" font-size="7">tech-savvy</tspan><tspan x="-9.3" y="25.2" font-family="'Helvetica-Light'" font-size="7">high-income</tspan><tspan x="-10.1" y="33.6" font-family="'Helvetica-Light'" font-size="7">lives in soma</tspan><tspan x="-15.8" y="42" font-family="'Helvetica-Light'" font-size="7">busy with clients</tspan><tspan x="0.8" y="50.4" font-family="'Helvetica-Light'" font-size="7">single</tspan><tspan x="-9" y="58.8" font-family="'Helvetica-Light'" font-size="7">travels often</tspan><tspan x="-7.2" y="67.2" font-family="'Helvetica-Light'" font-size="7">instagrams</tspan></text>
	<text transform="matrix(1 0 0 1 381.1787 209.1312)" font-family="'Helvetica-Light'" font-size="10">“jonah”</text>
	<g>
		<circle fill="none" stroke="#0A2C54" stroke-miterlimit="10" cx="265" cy="96.3" r="3.8"/>
		<circle fill="#0A2C54" cx="265" cy="96.3" r="1.5"/>
	</g>
	<g>
		<g>
			<g>
				<circle fill="none" stroke="#0A2C54" stroke-miterlimit="10" cx="397.3" cy="305.8" r="3.8"/>
			</g>
			<g>
				<circle fill="#0A2C54" cx="397.3" cy="305.8" r="1.5"/>
			</g>
		</g>
	</g>
	<g>
		<g>
			<g>
				<circle fill="none" stroke="#0A2C54" stroke-miterlimit="10" cx="317.8" cy="310" r="3.8"/>
			</g>
			<g>
				<circle fill="#0A2C54" cx="317.8" cy="310" r="1.5"/>
			</g>
		</g>
	</g>
	<g>
		<g>
			<g>
				<circle fill="none" stroke="#0A2C54" stroke-miterlimit="10" cx="304" cy="460.6" r="3.8"/>
			</g>
			<g>
				<circle fill="#0A2C54" cx="304" cy="460.6" r="1.5"/>
			</g>
		</g>
	</g>
	<rect x="80.5" y="27.7" opacity="0.8" fill="#FFFFFF" width="63.3" height="423.2"/>
	<text transform="matrix(1 0 0 1 -21.0678 103.808)"><tspan x="0" y="0" font-family="'Helvetica-Light'" font-size="7">updates on what is</tspan><tspan x="-0.8" y="8.4" font-family="'Helvetica-Light'" font-size="7">featured &amp; trending</tspan></text>
	<text transform="matrix(1 0 0 1 -13.6689 155.6432)"><tspan x="0" y="0" font-family="'Helvetica-Light'" font-size="7">grid format for</tspan><tspan x="-4.3" y="8.4" font-family="'Helvetica-Light'" font-size="7">easy reading but</tspan><tspan x="0.6" y="16.8" font-family="'Helvetica-Light'" font-size="7">detail on click</tspan></text>
	<text transform="matrix(1 0 0 1 -12.8954 213.9811)"><tspan x="0" y="0" font-family="'Helvetica-Light'" font-size="7">sign in or up, </tspan><tspan x="-2.3" y="8.4" font-family="'Helvetica-Light'" font-size="7">see own library</tspan><tspan x="7" y="16.8" font-family="'Helvetica-Light'" font-size="7">and sync</tspan></text>
</g>
<g id="Layer_2" display="none">
	<rect x="-51.6" display="inline" fill="#FFFFFF" width="400" height="600"/>
</g>
<g id="Layer_5" display="none">
	<rect x="-51.6" display="inline" fill="#FFFFFF" width="400" height="600"/>
</g>
<g id="Layer_4" display="none">
	
		<rect x="-51.6" display="inline" fill="#FFFFFF" stroke="#878787" stroke-width="0.5" stroke-miterlimit="10" width="400" height="600"/>
</g>
<g id="Layer_3" display="none">
	<g display="inline">
		<g>
			<polygon fill="#71A8B5" points="228.2,105.9 221.8,101.1 215.8,105.9 217.7,105.9 217.7,315.6 226.4,315.6 226.4,105.9 			"/>
		</g>
	</g>
	
		<line display="inline" fill="none" stroke="#606060" stroke-width="0.5" stroke-miterlimit="10" x1="148.1" y1="267.1" x2="148.1" y2="249.4"/>
	<polyline display="inline" fill="none" stroke="#606060" stroke-width="0.5" stroke-miterlimit="10" points="148.1,282 
		148.1,296.9 44.5,296.9 44.5,315.6 	"/>
	<polyline display="inline" fill="none" stroke="#606060" stroke-width="0.5" stroke-miterlimit="10" points="148.1,296.9 
		290.6,296.9 290.6,315.6 	"/>
	
		<line display="inline" fill="none" stroke="#606060" stroke-width="0.5" stroke-miterlimit="10" x1="174.7" y1="274.6" x2="247.5" y2="274.6"/>
	
		<line display="inline" fill="none" stroke="#606060" stroke-width="0.5" stroke-miterlimit="10" x1="208.8" y1="315.6" x2="208.8" y2="296.9"/>
	<polyline display="inline" fill="none" stroke="#606060" stroke-width="0.5" stroke-miterlimit="10" points="208.6,274.6 
		208.6,241.9 247.5,241.9 	"/>
	<polyline display="inline" fill="none" stroke="#606060" stroke-width="0.5" stroke-miterlimit="10" points="317.2,274.6 
		332.6,274.6 332.6,483.3 235.2,483.3 	"/>
	
		<line display="inline" fill="none" stroke="#606060" stroke-width="0.5" stroke-miterlimit="10" x1="208.6" y1="411.8" x2="208.6" y2="430.8"/>
	
		<line display="inline" fill="none" stroke="#606060" stroke-width="0.5" stroke-miterlimit="10" x1="208.6" y1="462" x2="208.6" y2="475.9"/>
	<polyline display="inline" fill="none" stroke="#606060" stroke-width="0.5" stroke-miterlimit="10" points="291.2,379.4 
		291.2,438.2 235.2,438.2 	"/>
	<polyline display="inline" fill="none" stroke="#606060" stroke-width="0.5" stroke-miterlimit="10" points="126.5,330.5 
		126.5,438.2 165.5,438.2 	"/>
	
		<line display="inline" fill="none" stroke="#606060" stroke-width="0.5" stroke-miterlimit="10" x1="247.4" y1="258.2" x2="208.6" y2="258.2"/>
	<g display="inline">
		<rect x="247.5" y="267.1" fill="#0A2C54" width="15" height="14.9"/>
		<g>
			<text transform="matrix(1 0 0 1 283.0261 276.5573)" font-family="'Helvetica'" font-size="6.3482">log in</text>
		</g>
		<rect x="264" y="267.1" fill="none" stroke="#A3A3A3" stroke-width="0.5" stroke-miterlimit="10" width="53.2" height="14.9"/>
		<text transform="matrix(1 0 0 1 250.6061 276.5573)" fill="#FFFFFF" font-family="'Helvetica'" font-size="6.3482">2.3</text>
	</g>
	<g display="inline">
		<rect x="83.4" y="315.6" fill="#0A2C54" width="15" height="14.9"/>
		<g>
			<text transform="matrix(1 0 0 1 114.8749 325.0792)" font-family="'Helvetica'" font-size="6.3482">featured</text>
		</g>
		<rect x="99.9" y="315.6" fill="none" stroke="#A3A3A3" stroke-width="0.5" stroke-miterlimit="10" width="53.2" height="14.9"/>
		<text transform="matrix(1 0 0 1 86.5135 325.0792)" fill="#FFFFFF" font-family="'Helvetica'" font-size="6.3482">2.5</text>
	</g>
	<g display="inline">
		<rect x="165.5" y="396.9" fill="#5C9BAA" stroke="#5C9BAA" stroke-width="0.2" stroke-miterlimit="10" width="15" height="14.9"/>
		<g>
			<text transform="matrix(1 0 0 1 188.8058 406.3607)" font-family="'Helvetica'" font-size="6.3482">subcategories</text>
		</g>
		<rect x="182" y="396.9" fill="none" stroke="#A3A3A3" stroke-width="0.5" stroke-miterlimit="10" width="53.2" height="14.9"/>
		<text transform="matrix(1 0 0 1 168.5592 406.3602)" fill="#FFFFFF" font-family="'Helvetica'" font-size="6.3482">2.6</text>
	</g>
	<g display="inline">
		<rect x="247.7" y="332" fill="#5C9BAA" stroke="#5C9BAA" stroke-width="0.2" stroke-miterlimit="10" width="15" height="14.9"/>
		<g>
			<text transform="matrix(1 0 0 1 279.4688 341.3906)" font-family="'Helvetica'" font-size="6.3482">top paid</text>
		</g>
		<rect x="264.2" y="332" fill="none" stroke="#A3A3A3" stroke-width="0.5" stroke-miterlimit="10" width="53.2" height="14.9"/>
		<text transform="matrix(1 0 0 1 250.7545 341.3901)" fill="#FFFFFF" font-family="'Helvetica'" font-size="6.3482">2.7</text>
	</g>
	<g display="inline">
		<rect x="165.5" y="430.8" fill="#0A2C54" width="15" height="14.9"/>
		<g>
			<text transform="matrix(1 0 0 1 197.9813 440.2473)" font-family="'Helvetica'" font-size="6.3482">product</text>
		</g>
		<rect x="182" y="430.8" fill="none" stroke="#A3A3A3" stroke-width="0.5" stroke-miterlimit="10" width="53.2" height="14.9"/>
		<text transform="matrix(1 0 0 1 168.5594 440.2473)" fill="#FFFFFF" font-family="'Helvetica'" font-size="6.3482">3.1</text>
	</g>
	<g display="inline">
		<rect x="165.5" y="475.9" fill="#0A2C54" width="15" height="14.9"/>
		<g>
			<text transform="matrix(1 0 0 1 194.9789 485.3401)" font-family="'Helvetica'" font-size="6.3482">download</text>
		</g>
		<rect x="182" y="475.9" fill="none" stroke="#A3A3A3" stroke-width="0.5" stroke-miterlimit="10" width="53.2" height="14.9"/>
		<text transform="matrix(1 0 0 1 168.5594 485.34)" fill="#FFFFFF" font-family="'Helvetica'" font-size="6.3482">4.1</text>
	</g>
	<g display="inline">
		<rect x="1.4" y="315.6" fill="#0A2C54" width="15" height="14.9"/>
		<g>
			<text transform="matrix(1 0 0 1 34.9491 325.0792)" font-family="'Helvetica'" font-size="6.3482">search</text>
		</g>
		<rect x="17.9" y="315.6" fill="none" stroke="#A3A3A3" stroke-width="0.5" stroke-miterlimit="10" width="53.2" height="14.9"/>
		<text transform="matrix(1 0 0 1 4.4672 325.0792)" fill="#FFFFFF" font-family="'Helvetica'" font-size="6.3482">2.4</text>
	</g>
	<g display="inline">
		<rect x="165.5" y="315.6" fill="#0A2C54" width="15" height="79.8"/>
		<g>
			<text transform="matrix(1 0 0 1 193.9234 325.0792)" font-family="'Helvetica'" font-size="6.3482">categories</text>
		</g>
		<rect x="182" y="315.6" fill="none" stroke="#A3A3A3" stroke-width="0.5" stroke-miterlimit="10" width="53.2" height="79.8"/>
		<text transform="matrix(1 0 0 1 168.5596 325.0792)" fill="#FFFFFF" font-family="'Helvetica'" font-size="6.3482">2.6</text>
		<text transform="matrix(1 0 0 1 199.2843 342.1179)" fill="#5B5B5B" font-family="'Helvetica-Light'" font-size="5.6605">finance</text>
		<text transform="matrix(1 0 0 1 197.2438 335.5139)" fill="#5B5B5B" font-family="'Helvetica-Light'" font-size="5.6605">business</text>
		<text transform="matrix(1 0 0 1 202.1202 355.3254)" fill="#5B5B5B" font-family="'Helvetica-Light'" font-size="5.6605">utility</text>
		<text transform="matrix(1 0 0 1 191.8947 348.7214)" fill="#5B5B5B" font-family="'Helvetica-Light'" font-size="5.6605">management</text>
		<text transform="matrix(1 0 0 1 195.9816 368.5344)" fill="#5B5B5B" font-family="'Helvetica-Light'" font-size="5.6605">education</text>
		<text transform="matrix(1 0 0 1 196.4542 361.9299)" fill="#5B5B5B" font-family="'Helvetica-Light'" font-size="5.6605">reference</text>
		<text transform="matrix(1 0 0 1 197.5577 381.9719)" fill="#5B5B5B" font-family="'Helvetica-Light'" font-size="5.6605">personal</text>
		<text transform="matrix(1 0 0 1 201.9615 375.3674)" fill="#5B5B5B" font-family="'Helvetica-Light'" font-size="5.6605">news</text>
		<text transform="matrix(1 0 0 1 201.6476 388.5754)" fill="#5B5B5B" font-family="'Helvetica-Light'" font-size="5.6605">travel</text>
	</g>
	<g display="inline">
		<rect x="165.5" y="447.1" fill="#5C9BAA" stroke="#5C9BAA" stroke-width="0.2" stroke-miterlimit="10" width="15" height="14.9"/>
		<g>
			<text transform="matrix(1 0 0 1 189.5119 456.5585)" font-family="'Helvetica'" font-size="6.3482">product detail</text>
		</g>
		<rect x="182" y="447.1" fill="none" stroke="#A3A3A3" stroke-width="0.5" stroke-miterlimit="10" width="53.2" height="14.9"/>
		<text transform="matrix(1 0 0 1 168.5592 456.558)" fill="#FFFFFF" font-family="'Helvetica'" font-size="6.3482">3.1</text>
	</g>
	<g display="inline">
		<rect x="247.5" y="315.6" fill="#0A2C54" width="15" height="14.9"/>
		<g>
			<text transform="matrix(1 0 0 1 278.4368 325.0792)" font-family="'Helvetica'" font-size="6.3482">top apps</text>
		</g>
		<rect x="264" y="315.6" fill="none" stroke="#A3A3A3" stroke-width="0.5" stroke-miterlimit="10" width="53.2" height="14.9"/>
		<text transform="matrix(1 0 0 1 250.6057 325.0792)" fill="#FFFFFF" font-family="'Helvetica'" font-size="6.3482">2.7</text>
	</g>
	<g display="inline">
		<rect x="247.5" y="250.8" fill="#0A2C54" width="15" height="14.9"/>
		<g>
			<text transform="matrix(1 0 0 1 280.3792 260.2463)" font-family="'Helvetica'" font-size="6.3482">sign up</text>
		</g>
		<rect x="264" y="250.8" fill="none" stroke="#A3A3A3" stroke-width="0.5" stroke-miterlimit="10" width="53.2" height="14.9"/>
		<text transform="matrix(1 0 0 1 250.6053 260.2458)" fill="#FFFFFF" font-family="'Helvetica'" font-size="6.3482">2.2</text>
	</g>
	<g display="inline">
		<rect x="247.4" y="234.5" fill="#0A2C54" width="15" height="14.9"/>
		<g>
			<text transform="matrix(1 0 0 1 273.0024 243.9349)" font-family="'Helvetica'" font-size="6.3482">how it works</text>
		</g>
		<rect x="263.9" y="234.5" fill="none" stroke="#A3A3A3" stroke-width="0.5" stroke-miterlimit="10" width="53.2" height="14.9"/>
		<text transform="matrix(1 0 0 1 250.4565 243.935)" fill="#FFFFFF" font-family="'Helvetica'" font-size="6.3482">2.1</text>
	</g>
	<g display="inline">
		<rect x="247.7" y="348.3" fill="#5C9BAA" stroke="#5C9BAA" stroke-width="0.2" stroke-miterlimit="10" width="15" height="14.9"/>
		<g>
			<text transform="matrix(1 0 0 1 280.0001 357.7017)" font-family="'Helvetica'" font-size="6.3482">top free</text>
		</g>
		<rect x="264.2" y="348.3" fill="none" stroke="#A3A3A3" stroke-width="0.5" stroke-miterlimit="10" width="53.2" height="14.9"/>
		<text transform="matrix(1 0 0 1 250.7545 357.7013)" fill="#FFFFFF" font-family="'Helvetica'" font-size="6.3482">2.7</text>
	</g>
	<g display="inline">
		<rect x="247.5" y="364.6" fill="#5C9BAA" stroke="#5C9BAA" stroke-width="0.2" stroke-miterlimit="10" width="15" height="14.9"/>
		<g>
			<text transform="matrix(1 0 0 1 273.3221 374.0127)" font-family="'Helvetica'" font-size="6.3482">top grossing</text>
		</g>
		<rect x="264" y="364.6" fill="none" stroke="#A3A3A3" stroke-width="0.5" stroke-miterlimit="10" width="53.2" height="14.9"/>
		<text transform="matrix(1 0 0 1 250.6057 374.0128)" fill="#FFFFFF" font-family="'Helvetica'" font-size="6.3482">2.7</text>
	</g>
	
		<line display="inline" fill="none" stroke="#606060" stroke-width="0.5" stroke-miterlimit="10" x1="126.5" y1="315.6" x2="126.5" y2="296.9"/>
	<g display="inline">
		<rect x="105" y="267.1" fill="#0A2C54" width="15" height="14.9"/>
		<g>
			<text transform="matrix(1 0 0 1 132.1752 276.5573)" font-family="'Helvetica'" font-size="6.3482">home page</text>
		</g>
		<rect x="121.5" y="267.1" fill="none" stroke="#A3A3A3" stroke-width="0.5" stroke-miterlimit="10" width="53.2" height="14.9"/>
		<text transform="matrix(1 0 0 1 108.0497 276.5573)" fill="#FFFFFF" font-family="'Helvetica'" font-size="6.3482">1.1</text>
	</g>
	<g display="inline">
		<rect x="105" y="234.5" fill="#0A2C54" width="15" height="14.9"/>
		<g>
			<text transform="matrix(1 0 0 1 139.5878 243.9349)" font-family="'Helvetica'" font-size="6.3482">chase</text>
		</g>
		<rect x="121.5" y="234.5" fill="none" stroke="#A3A3A3" stroke-width="0.5" stroke-miterlimit="10" width="53.2" height="14.9"/>
		<text transform="matrix(1 0 0 1 108.0497 243.9349)" fill="#FFFFFF" font-family="'Helvetica'" font-size="6.3482">0.1</text>
	</g>
	<g display="inline">
		<text transform="matrix(1 0 0 1 224.2127 31.915)" font-family="'Helvetica'" font-size="6.3482">products &amp; services</text>
	</g>
	<g display="inline">
		<text transform="matrix(1 0 0 1 117.9238 65.0652)"><tspan x="0" y="0" font-family="'Helvetica-Bold'" font-size="7.353">[ personal ]</tspan><tspan x="0" y="8.8" font-family="'Helvetica-Bold'" font-size="7.353">[ business ]</tspan><tspan x="0" y="17.6" font-family="'Helvetica-Bold'" font-size="7.353">[ commercial ]</tspan></text>
	</g>
	<g display="inline">
		<text transform="matrix(1 0 0 1 193.8376 50.0384)" fill="#5B5B5B" font-family="'Helvetica-Light'" font-size="5.6605">checking accounts</text>
	</g>
	<g display="inline">
		<text transform="matrix(1 0 0 1 202.6541 43.0381)" fill="#5B5B5B" font-family="'Helvetica-Light'" font-size="5.6605">credit cards</text>
	</g>
	<g display="inline">
		<text transform="matrix(1 0 0 1 199.1956 64.038)" fill="#5B5B5B" font-family="'Helvetica-Light'" font-size="5.6605">savings &amp; CDs</text>
	</g>
	<g display="inline">
		<text transform="matrix(1 0 0 1 186.4539 57.0378)" fill="#5B5B5B" font-family="'Helvetica-Light'" font-size="5.6605">debit &amp; reloadable cards</text>
	</g>
	<g display="inline">
		<text transform="matrix(1 0 0 1 204.8503 78.0388)" fill="#5B5B5B" font-family="'Helvetica-Light'" font-size="5.6605">auto loans</text>
	</g>
	<g display="inline">
		<text transform="matrix(1 0 0 1 199.6594 71.0385)" fill="#5B5B5B" font-family="'Helvetica-Light'" font-size="5.6605">student center</text>
	</g>
	<g display="inline">
		<text transform="matrix(1 0 0 1 202.3372 92.2829)" fill="#5B5B5B" font-family="'Helvetica-Light'" font-size="5.6605">home equity</text>
	</g>
	<g display="inline">
		<text transform="matrix(1 0 0 1 205.6428 85.2826)" fill="#5B5B5B" font-family="'Helvetica-Light'" font-size="5.6605">mortgage</text>
	</g>
	<g display="inline">
		<text transform="matrix(1 0 0 1 268.9178 43.0382)" fill="#5B5B5B" font-family="'Helvetica-Light'" font-size="5.6605">student loans</text>
	</g>
	<g display="inline">
		<text transform="matrix(1 0 0 1 269.7073 50.0384)" fill="#5B5B5B" font-family="'Helvetica-Light'" font-size="5.6605">private client</text>
	</g>
	<g display="inline">
		<text transform="matrix(1 0 0 1 267.347 64.038)" fill="#5B5B5B" font-family="'Helvetica-Light'" font-size="5.6605">online banking</text>
	</g>
	<g display="inline">
		<text transform="matrix(1 0 0 1 256.3372 57.0377)" fill="#5B5B5B" font-family="'Helvetica-Light'" font-size="5.6605">planning &amp; investments</text>
	</g>
	<g display="inline">
		<text transform="matrix(1 0 0 1 263.574 78.0388)" fill="#5B5B5B" font-family="'Helvetica-Light'" font-size="5.6605">business banking</text>
	</g>
	<g display="inline">
		<text transform="matrix(1 0 0 1 266.4075 71.0385)" fill="#5B5B5B" font-family="'Helvetica-Light'" font-size="5.6605">mobile banking</text>
	</g>
	<g display="inline">
		<text transform="matrix(1 0 0 1 262.6287 92.2828)" fill="#5B5B5B" font-family="'Helvetica-Light'" font-size="5.6605">merchant services</text>
	</g>
	<g display="inline">
		<text transform="matrix(1 0 0 1 260.116 85.2826)" fill="#5B5B5B" font-family="'Helvetica-Light'" font-size="5.6605">commercial banking</text>
	</g>
	<g id="layer1" transform="translate(620.34041,-56.426733)" display="inline">
		<g id="logotype" transform="translate(0.4494891,0.3945659)">
			<g id="g17202">
				<g id="logo">
					<path id="logo-ne" fill="#117ACA" d="M-454.1,96.8c-0.3,0-0.5,0.2-0.5,0.5v3.4h8.9l-4.1-3.9L-454.1,96.8"/>
					<path id="logo-se" fill="#117ACA" d="M-445.3,101.7c0-0.3-0.2-0.5-0.5-0.5h-3.4v8.9l3.9-4.1L-445.3,101.7"/>
					<path id="logo-sw" fill="#117ACA" d="M-450.2,110.5c0.3,0,0.5-0.2,0.5-0.5v-3.4h-8.9l4.1,3.9L-450.2,110.5"/>
					<path id="logo-nw" fill="#117ACA" d="M-459,105.6c0,0.3,0.2,0.5,0.5,0.5h3.4v-8.9l-3.9,4.1L-459,105.6"/>
				</g>
				<g id="type">
					<path id="H" fill="#211E1E" d="M-500,98.5v4.1h-5.8v-4.1l-2.1,0v10.4h2.1v-4.5h5.8v4.5h2.1V98.5H-500"/>
					<path id="E" fill="#211E1E" d="M-472.1,98.5v10.4h9.2l-1.2-1.8h-5.9v-2.6h5.7v-1.8h-5.7v-2.4h5.9l1.1-1.8H-472.1"/>
					<path id="C" fill="#211E1E" d="M-515.6,98.5c-2.2,0-3.3,1.3-3.3,3.3v3.9c0,2.2,1.4,3.3,3.3,3.3l6.6,0l-1.2-1.9h-4.9
						c-1.1,0-1.5-0.4-1.5-1.6v-3.5c0-1.1,0.4-1.6,1.5-1.6h5l1.2-1.8H-515.6"/>
					<path id="S" fill="#211E1E" d="M-481.3,98.5c-1.3,0-2.5,0.8-2.5,2.7v0.5c0,2,1.2,2.8,2.5,2.8h4.4c0.5,0,0.8,0.1,0.8,0.8l0,0.9
						c0,0.7-0.4,0.8-0.8,0.8h-5.7l-1.2,1.8h7c1.7,0,2.9-0.8,2.9-2.8v-0.7c0-1.9-1.1-2.8-2.7-2.8h-4.2c-0.5,0-0.8-0.1-0.8-0.8V101
						c0-0.6,0.2-0.8,0.8-0.8l5.5,0l1.1-1.8L-481.3,98.5"/>
					<path id="A" fill="#211E1E" d="M-491.8,98.5l-4.9,10.4h2.3l1-2.1h5.4l1,2.1h2.3l-4.9-10.4H-491.8z M-490.8,100.6l1.9,4.3h-3.8
						L-490.8,100.6"/>
				</g>
			</g>
		</g>
	</g>
	
		<rect x="365.2" y="19.4" display="inline" fill="none" stroke="#5C9BAA" stroke-linecap="round" stroke-miterlimit="10" stroke-dasharray="0.5,2" width="65.3" height="81.7"/>
	
		<rect x="87.9" y="19.4" display="inline" fill="none" stroke="#5C9BAA" stroke-linecap="round" stroke-miterlimit="10" stroke-dasharray="0.5,2" width="244.8" height="81.7"/>
	
		<line display="inline" fill="none" stroke="#5C9BAA" stroke-linecap="round" stroke-miterlimit="10" stroke-dasharray="0.5,2" x1="332.6" y1="60.2" x2="365.2" y2="60.2"/>
	<text transform="matrix(1 0 0 1 -27.9547 413.5582)" display="inline" font-family="'Helvetica-Bold'" font-size="8">existing app stores</text>
	<text transform="matrix(1 0 0 1 1.16 421.9371)" display="inline" font-family="'Helvetica'" font-size="6">apple</text>
	<text transform="matrix(1 0 0 1 -11.3498 428.9371)" display="inline" font-family="'Helvetica'" font-size="6">google android</text>
	<text transform="matrix(1 0 0 1 -3.6754 435.5723)" display="inline" font-family="'Helvetica'" font-size="6">facebook</text>
	<text transform="matrix(1 0 0 1 -3.0045 442.2502)" display="inline" font-family="'Helvetica'" font-size="6">windows</text>
	<text transform="matrix(1 0 0 1 -2.1725 449.0663)" display="inline" font-family="'Helvetica'" font-size="6">amazon</text>
	<text transform="matrix(1 0 0 1 -19.0661 470.0832)" display="inline" font-family="'Helvetica-Bold'" font-size="8">typical display</text>
	<text transform="matrix(1 0 0 1 -6.0075 478.4621)" display="inline" font-family="'Helvetica'" font-size="6">large icons</text>
	<text transform="matrix(1 0 0 1 -5.341 485.4621)" display="inline" font-family="'Helvetica'" font-size="6">categories</text>
	<text transform="matrix(1 0 0 1 -0.5041 492.0973)" display="inline" font-family="'Helvetica'" font-size="6">ratings</text>
	<text transform="matrix(1 0 0 1 -3.6725 498.6504)" display="inline" font-family="'Helvetica'" font-size="6">searches</text>
	<text transform="matrix(1 0 0 1 -10.5119 505.6504)" display="inline" font-family="'Helvetica'" font-size="6">getting started</text>
	<text transform="matrix(1 0 0 1 -7.5075 512.2856)" display="inline" font-family="'Helvetica'" font-size="6">descriptions</text>
	<text transform="matrix(1 0 0 1 0.8304 518.6929)" display="inline" font-family="'Helvetica'" font-size="6">install</text>
	<text transform="matrix(1 0 0 1 -1.1676 525.6929)" display="inline" font-family="'Helvetica'" font-size="6">wishlist</text>
	<text transform="matrix(1 0 0 1 -7.5045 532.3281)" display="inline" font-family="'Helvetica'" font-size="6">similar apps</text>
	<text transform="matrix(1 0 0 1 0.4979 538.8812)" display="inline" font-family="'Helvetica'" font-size="6">prices</text>
	<text transform="matrix(1 0 0 1 -15.3444 545.8812)" display="inline" font-family="'Helvetica'" font-size="6">recommendations</text>
	<text transform="matrix(1 0 0 1 -7.6745 552.5164)" display="inline" font-family="'Helvetica'" font-size="6">screenshots</text>
</g>
<g id="Layer_7" display="none">
	<rect x="-51.6" y="0" display="inline" fill="#ADADAD" width="400" height="29.1"/>
	<g display="inline">
		<rect x="-37.4" y="41.2" fill="none" stroke="#2D2D2D" stroke-width="0.75" stroke-miterlimit="10" width="102.1" height="23.4"/>
		<line fill="none" stroke="#2D2D2D" stroke-width="0.25" stroke-miterlimit="10" x1="-37.4" y1="41.2" x2="64.7" y2="64.6"/>
		<line fill="none" stroke="#2D2D2D" stroke-width="0.25" stroke-miterlimit="10" x1="64.7" y1="41.2" x2="-37.4" y2="64.6"/>
	</g>
	<g display="inline">
		<rect x="-37.4" y="67.7" fill="none" stroke="#2D2D2D" stroke-width="0.75" stroke-miterlimit="10" width="102.1" height="7.3"/>
		<line fill="none" stroke="#2D2D2D" stroke-width="0.25" stroke-miterlimit="10" x1="-37.4" y1="67.7" x2="64.7" y2="75"/>
		<line fill="none" stroke="#2D2D2D" stroke-width="0.25" stroke-miterlimit="10" x1="64.7" y1="67.7" x2="-37.4" y2="75"/>
	</g>
	<rect x="-51.6" y="0" display="inline" fill="#878787" width="400" height="14.3"/>
	<polygon display="inline" fill="#FFFFFF" points="-41.2,24.5 -46,21.8 -41.2,19 	"/>
	<path display="inline" fill="#FFFFFF" d="M123,25.8c0,0.6-0.4,1-1,1H-30c-0.6,0-1-0.4-1-1v-8.1c0-0.6,0.4-1,1-1h152
		c0.6,0,1,0.4,1,1V25.8z"/>
	<path display="inline" fill="#ADADAD" d="M34.1,14.3V6c0-0.6-0.4-1-1-1h-67.3c-0.6,0-1,0.4-1,1v8.3H34.1z"/>
	<path display="inline" opacity="0.6" fill="#ADADAD" d="M103.5,14.3V6c0-0.6-0.4-1-1-1H35.1c-0.6,0-1,0.4-1,1v8.3H103.5z"/>
	<path display="inline" opacity="0.6" fill="#ADADAD" d="M172.8,14.3V6c0-0.6-0.4-1-1-1h-67.3c-0.6,0-1,0.4-1,1v8.3H172.8z"/>
	<g display="inline">
		<path fill="#FFFFFF" d="M338.4,10.9l-1.5-1.5l2.3-2.3l-2.3-2.3l1.5-1.5l2.3,2.3l2.3-2.3l1.5,1.5l-2.3,2.3l2.3,2.3l-1.5,1.5
			l-2.3-2.3L338.4,10.9z"/>
	</g>
</g>
</svg>
