<?xml version="1.0" encoding="utf-8"?>
<!-- Generator: Adobe Illustrator 22.0.0, SVG Export Plug-In . SVG Version: 6.00 Build 0)  -->
<svg version="1.1" id="Layer_1" xmlns="http://www.w3.org/2000/svg" xmlns:xlink="http://www.w3.org/1999/xlink" x="0px" y="0px"
	 viewBox="0 0 1000 600" style="enable-background:new 0 0 1000 600;" xml:space="preserve">
<style type="text/css">
	.st0{fill:#F0EEEE;}
	.st1{fill:#41D3BD;}
	.st2{fill:#820263;}
	.st3{fill:#EF5D60;}
	.bounce {
		animation: bounce 1.1s infinite;
	}
	.b-2 {
		animation-delay: 0.15s;
	}
	.b-3 {
		animation-delay: 0.3s;
	}
	@keyframes bounce {
		0% { transform: translate(0); }
		25% { transform: translateY(-5px); }
		100% { transform: translate(0); }
	}
</style>
<circle class="st0" cx="39" cy="13.2" r="4"/>
<circle class="st0" cx="39" cy="37.5" r="4"/>
<circle class="st0" cx="39" cy="61.7" r="4"/>
<circle class="st0" cx="39" cy="86" r="4"/>
<circle class="st0" cx="39" cy="110.2" r="4"/>
<circle class="st0" cx="39" cy="134.5" r="4"/>
<circle class="st0" cx="39" cy="158.7" r="4"/>
<circle class="st0" cx="39" cy="183" r="4"/>
<circle class="st0" cx="39" cy="207.3" r="4"/>
<circle class="st0" cx="63.3" cy="13.2" r="4"/>
<circle class="st0" cx="87.6" cy="13.2" r="4"/>
<circle class="st0" cx="111.8" cy="13.2" r="4"/>
<circle class="st0" cx="136.1" cy="13.2" r="4"/>
<circle class="st0" cx="160.3" cy="13.2" r="4"/>
<circle class="st0" cx="184.6" cy="13.2" r="4"/>
<circle class="st0" cx="208.8" cy="13.2" r="4"/>
<circle class="st0" cx="233.1" cy="13.2" r="4"/>
<circle class="st0" cx="63.3" cy="37.5" r="4"/>
<circle class="st0" cx="87.6" cy="37.5" r="4"/>
<circle class="st0" cx="111.8" cy="37.5" r="4"/>
<circle class="st0" cx="136.1" cy="37.5" r="4"/>
<circle class="st0" cx="160.3" cy="37.5" r="4"/>
<circle class="st0" cx="184.6" cy="37.5" r="4"/>
<circle class="st0" cx="208.8" cy="37.5" r="4"/>
<circle class="st0" cx="233.1" cy="37.5" r="4"/>
<circle class="st0" cx="63.3" cy="61.7" r="4"/>
<circle class="st0" cx="87.6" cy="61.7" r="4"/>
<circle class="st0" cx="111.8" cy="61.7" r="4"/>
<circle class="st0" cx="136.1" cy="61.7" r="4"/>
<circle class="st0" cx="160.3" cy="61.7" r="4"/>
<circle class="st0" cx="184.6" cy="61.7" r="4"/>
<circle class="st0" cx="208.8" cy="61.7" r="4"/>
<circle class="st0" cx="233.1" cy="61.7" r="4"/>
<circle class="st0" cx="63.3" cy="86" r="4"/>
<circle class="st0" cx="87.6" cy="86" r="4"/>
<circle class="st0" cx="111.8" cy="86" r="4"/>
<circle class="st0" cx="136.1" cy="86" r="4"/>
<circle class="st0" cx="160.3" cy="86" r="4"/>
<circle class="st0" cx="184.6" cy="86" r="4"/>
<circle class="st0" cx="208.8" cy="86" r="4"/>
<circle class="st0" cx="233.1" cy="86" r="4"/>
<circle class="st0" cx="63.3" cy="110.2" r="4"/>
<circle class="st0" cx="87.6" cy="110.2" r="4"/>
<circle class="st0" cx="111.8" cy="110.2" r="4"/>
<circle class="st0" cx="136.1" cy="110.2" r="4"/>
<circle class="st0" cx="160.3" cy="110.2" r="4"/>
<circle class="st0" cx="184.6" cy="110.2" r="4"/>
<circle class="st0" cx="208.8" cy="110.2" r="4"/>
<circle class="st0" cx="233.1" cy="110.2" r="4"/>
<circle class="st0" cx="63.3" cy="134.5" r="4"/>
<circle class="st0" cx="87.6" cy="134.5" r="4"/>
<circle class="st0" cx="111.8" cy="134.5" r="4"/>
<circle class="st0" cx="136.1" cy="134.5" r="4"/>
<circle class="st0" cx="160.3" cy="134.5" r="4"/>
<circle class="st0" cx="184.6" cy="134.5" r="4"/>
<circle class="st0" cx="208.8" cy="134.5" r="4"/>
<circle class="st0" cx="233.1" cy="134.5" r="4"/>
<circle class="st0" cx="63.3" cy="158.7" r="4"/>
<circle class="st0" cx="87.6" cy="158.7" r="4"/>
<circle class="st0" cx="111.8" cy="158.7" r="4"/>
<circle class="st0" cx="136.1" cy="158.7" r="4"/>
<circle class="st0" cx="160.3" cy="158.7" r="4"/>
<circle class="st0" cx="184.6" cy="158.7" r="4"/>
<circle class="st0" cx="208.8" cy="158.7" r="4"/>
<circle class="st0" cx="233.1" cy="158.7" r="4"/>
<circle class="st0" cx="63.3" cy="183" r="4"/>
<circle class="st0" cx="87.6" cy="183" r="4"/>
<circle class="st0" cx="111.8" cy="183" r="4"/>
<circle class="st0" cx="136.1" cy="183" r="4"/>
<circle class="st0" cx="160.3" cy="183" r="4"/>
<circle class="st0" cx="184.6" cy="183" r="4"/>
<circle class="st0" cx="208.8" cy="183" r="4"/>
<circle class="st0" cx="233.1" cy="183" r="4"/>
<circle class="st0" cx="63.3" cy="207.3" r="4"/>
<circle class="st0" cx="87.6" cy="207.3" r="4"/>
<circle class="st0" cx="111.8" cy="207.3" r="4"/>
<circle class="st0" cx="136.1" cy="207.3" r="4"/>
<circle class="st0" cx="160.3" cy="207.3" r="4"/>
<circle class="st0" cx="184.6" cy="207.3" r="4"/>
<circle class="st0" cx="208.8" cy="207.3" r="4"/>
<circle class="st0" cx="233.1" cy="207.3" r="4"/>
<circle class="st0" cx="257.4" cy="13.2" r="4"/>
<circle class="st0" cx="281.6" cy="13.2" r="4"/>
<circle class="st0" cx="305.9" cy="13.2" r="4"/>
<circle class="st0" cx="330.1" cy="13.2" r="4"/>
<circle class="st0" cx="354.4" cy="13.2" r="4"/>
<circle class="st0" cx="378.6" cy="13.2" r="4"/>
<circle class="st0" cx="402.9" cy="13.2" r="4"/>
<circle class="st0" cx="427.2" cy="13.2" r="4"/>
<circle class="st0" cx="257.4" cy="37.5" r="4"/>
<circle class="st0" cx="281.6" cy="37.5" r="4"/>
<circle class="st0" cx="305.9" cy="37.5" r="4"/>
<circle class="st0" cx="330.1" cy="37.5" r="4"/>
<circle class="st0" cx="354.4" cy="37.5" r="4"/>
<circle class="st0" cx="378.6" cy="37.5" r="4"/>
<circle class="st0" cx="402.9" cy="37.5" r="4"/>
<circle class="st0" cx="427.2" cy="37.5" r="4"/>
<circle class="st0" cx="257.4" cy="61.7" r="4"/>
<circle class="st0" cx="281.6" cy="61.7" r="4"/>
<circle class="st0" cx="305.9" cy="61.7" r="4"/>
<circle class="st0" cx="330.1" cy="61.7" r="4"/>
<circle class="st0" cx="354.4" cy="61.7" r="4"/>
<circle class="st0" cx="378.6" cy="61.7" r="4"/>
<circle class="st0" cx="402.9" cy="61.7" r="4"/>
<circle class="st0" cx="427.2" cy="61.7" r="4"/>
<circle class="st0" cx="257.4" cy="86" r="4"/>
<circle class="st0" cx="281.6" cy="86" r="4"/>
<circle class="st0" cx="305.9" cy="86" r="4"/>
<circle class="st0" cx="330.1" cy="86" r="4"/>
<circle class="st0" cx="354.4" cy="86" r="4"/>
<circle class="st0" cx="378.6" cy="86" r="4"/>
<circle class="st0" cx="402.9" cy="86" r="4"/>
<circle class="st0" cx="427.2" cy="86" r="4"/>
<circle class="st0" cx="257.4" cy="110.2" r="4"/>
<circle class="st0" cx="281.6" cy="110.2" r="4"/>
<circle class="st0" cx="305.9" cy="110.2" r="4"/>
<circle class="st0" cx="330.1" cy="110.2" r="4"/>
<circle class="st0" cx="354.4" cy="110.2" r="4"/>
<circle class="st0" cx="378.6" cy="110.2" r="4"/>
<circle class="st0" cx="402.9" cy="110.2" r="4"/>
<circle class="st0" cx="427.2" cy="110.2" r="4"/>
<circle class="st0" cx="257.4" cy="134.5" r="4"/>
<circle class="st0" cx="281.6" cy="134.5" r="4"/>
<circle class="st0" cx="305.9" cy="134.5" r="4"/>
<circle class="st0" cx="330.1" cy="134.5" r="4"/>
<circle class="st0" cx="354.4" cy="134.5" r="4"/>
<circle class="st0" cx="378.6" cy="134.5" r="4"/>
<circle class="st0" cx="402.9" cy="134.5" r="4"/>
<circle class="st0" cx="427.2" cy="134.5" r="4"/>
<circle class="st0" cx="257.4" cy="158.7" r="4"/>
<circle class="st0" cx="281.6" cy="158.7" r="4"/>
<circle class="st0" cx="305.9" cy="158.7" r="4"/>
<circle class="st0" cx="330.1" cy="158.7" r="4"/>
<circle class="st0" cx="354.4" cy="158.7" r="4"/>
<circle class="st0" cx="378.6" cy="158.7" r="4"/>
<circle class="st0" cx="402.9" cy="158.7" r="4"/>
<circle class="st0" cx="427.2" cy="158.7" r="4"/>
<circle class="st0" cx="257.4" cy="183" r="4"/>
<circle class="st0" cx="281.6" cy="183" r="4"/>
<circle class="st0" cx="305.9" cy="183" r="4"/>
<circle class="st0" cx="330.1" cy="183" r="4"/>
<circle class="st0" cx="354.4" cy="183" r="4"/>
<circle class="st0" cx="378.6" cy="183" r="4"/>
<circle class="st0" cx="402.9" cy="183" r="4"/>
<circle class="st0" cx="427.2" cy="183" r="4"/>
<circle class="st0" cx="257.4" cy="207.3" r="4"/>
<circle class="st0" cx="281.6" cy="207.3" r="4"/>
<circle class="st0" cx="305.9" cy="207.3" r="4"/>
<circle class="st0" cx="330.1" cy="207.3" r="4"/>
<circle class="st0" cx="354.4" cy="207.3" r="4"/>
<circle class="st0" cx="378.6" cy="207.3" r="4"/>
<circle class="st0" cx="402.9" cy="207.3" r="4"/>
<circle class="st0" cx="427.2" cy="207.3" r="4"/>
<circle class="st0" cx="451.4" cy="13.2" r="4"/>
<circle class="st0" cx="475.7" cy="13.2" r="4"/>
<circle class="st0" cx="499.9" cy="13.2" r="4"/>
<circle class="st0" cx="524.2" cy="13.2" r="4"/>
<circle class="st0" cx="548.4" cy="13.2" r="4"/>
<circle class="st0" cx="572.7" cy="13.2" r="4"/>
<circle class="st0" cx="597" cy="13.2" r="4"/>
<circle class="st0" cx="621.2" cy="13.2" r="4"/>
<circle class="st0" cx="451.4" cy="37.5" r="4"/>
<circle class="st0" cx="475.7" cy="37.5" r="4"/>
<circle class="st0" cx="499.9" cy="37.5" r="4"/>
<circle class="st0" cx="524.2" cy="37.5" r="4"/>
<circle class="st0" cx="548.4" cy="37.5" r="4"/>
<circle class="st0" cx="572.7" cy="37.5" r="4"/>
<circle class="st0" cx="597" cy="37.5" r="4"/>
<circle class="st0" cx="621.2" cy="37.5" r="4"/>
<circle class="st0" cx="451.4" cy="61.7" r="4"/>
<circle class="st0" cx="475.7" cy="61.7" r="4"/>
<circle class="st0" cx="499.9" cy="61.7" r="4"/>
<circle class="st0" cx="524.2" cy="61.7" r="4"/>
<circle class="st0" cx="548.4" cy="61.7" r="4"/>
<circle class="st0" cx="572.7" cy="61.7" r="4"/>
<circle class="st0" cx="597" cy="61.7" r="4"/>
<circle class="st0" cx="621.2" cy="61.7" r="4"/>
<circle class="st0" cx="451.4" cy="86" r="4"/>
<circle class="st0" cx="475.7" cy="86" r="4"/>
<circle class="st0" cx="499.9" cy="86" r="4"/>
<circle class="st0" cx="524.2" cy="86" r="4"/>
<circle class="st0" cx="548.4" cy="86" r="4"/>
<circle class="st0" cx="572.7" cy="86" r="4"/>
<circle class="st0" cx="597" cy="86" r="4"/>
<circle class="st0" cx="621.2" cy="86" r="4"/>
<circle class="st0" cx="451.4" cy="110.2" r="4"/>
<circle class="st0" cx="475.7" cy="110.2" r="4"/>
<circle class="st0" cx="499.9" cy="110.2" r="4"/>
<circle class="st0" cx="524.2" cy="110.2" r="4"/>
<circle class="st0" cx="548.4" cy="110.2" r="4"/>
<circle class="st0" cx="572.7" cy="110.2" r="4"/>
<circle class="st0" cx="597" cy="110.2" r="4"/>
<circle class="st0" cx="621.2" cy="110.2" r="4"/>
<circle class="st0" cx="451.4" cy="134.5" r="4"/>
<circle class="st0" cx="475.7" cy="134.5" r="4"/>
<circle class="st0" cx="499.9" cy="134.5" r="4"/>
<circle class="st0" cx="524.2" cy="134.5" r="4"/>
<circle class="st0" cx="548.4" cy="134.5" r="4"/>
<circle class="st0" cx="572.7" cy="134.5" r="4"/>
<circle class="st0" cx="597" cy="134.5" r="4"/>
<circle class="st0" cx="621.2" cy="134.5" r="4"/>
<circle class="st0" cx="451.4" cy="158.7" r="4"/>
<circle class="st0" cx="475.7" cy="158.7" r="4"/>
<circle class="st0" cx="499.9" cy="158.7" r="4"/>
<circle class="st0" cx="524.2" cy="158.7" r="4"/>
<circle class="st0" cx="548.4" cy="158.7" r="4"/>
<circle class="st0" cx="572.7" cy="158.7" r="4"/>
<circle class="st0" cx="597" cy="158.7" r="4"/>
<circle class="st0" cx="621.2" cy="158.7" r="4"/>
<circle class="st0" cx="451.4" cy="183" r="4"/>
<circle class="st0" cx="475.7" cy="183" r="4"/>
<circle class="st0" cx="499.9" cy="183" r="4"/>
<circle class="st0" cx="524.2" cy="183" r="4"/>
<circle class="st0" cx="548.4" cy="183" r="4"/>
<circle class="st0" cx="572.7" cy="183" r="4"/>
<circle class="st0" cx="597" cy="183" r="4"/>
<circle class="st0" cx="621.2" cy="183" r="4"/>
<circle class="st0" cx="451.4" cy="207.3" r="4"/>
<circle class="st0" cx="475.7" cy="207.3" r="4"/>
<circle class="st0" cx="499.9" cy="207.3" r="4"/>
<circle class="st0" cx="524.2" cy="207.3" r="4"/>
<circle class="st0" cx="548.4" cy="207.3" r="4"/>
<circle class="st0" cx="572.7" cy="207.3" r="4"/>
<circle class="st0" cx="597" cy="207.3" r="4"/>
<circle class="st0" cx="621.2" cy="207.3" r="4"/>
<circle class="st0" cx="645.5" cy="13.2" r="4"/>
<circle class="st0" cx="669.7" cy="13.2" r="4"/>
<circle class="st0" cx="694" cy="13.2" r="4"/>
<circle class="st0" cx="718.2" cy="13.2" r="4"/>
<circle class="st0" cx="742.5" cy="13.2" r="4"/>
<circle class="st0" cx="766.8" cy="13.2" r="4"/>
<circle class="st0" cx="791" cy="13.2" r="4"/>
<circle class="st0" cx="815.3" cy="13.2" r="4"/>
<circle class="st0" cx="645.5" cy="37.5" r="4"/>
<circle class="st0" cx="669.7" cy="37.5" r="4"/>
<circle class="st0" cx="694" cy="37.5" r="4"/>
<circle class="st0" cx="718.2" cy="37.5" r="4"/>
<circle class="st0" cx="742.5" cy="37.5" r="4"/>
<circle class="st0" cx="766.8" cy="37.5" r="4"/>
<circle class="st0" cx="791" cy="37.5" r="4"/>
<circle class="st0" cx="815.3" cy="37.5" r="4"/>
<circle class="st0" cx="645.5" cy="61.7" r="4"/>
<circle class="st0" cx="669.7" cy="61.7" r="4"/>
<circle class="st0" cx="694" cy="61.7" r="4"/>
<circle class="st0" cx="718.2" cy="61.7" r="4"/>
<circle class="st0" cx="742.5" cy="61.7" r="4"/>
<circle class="st0" cx="766.8" cy="61.7" r="4"/>
<circle class="st0" cx="791" cy="61.7" r="4"/>
<circle class="st0" cx="815.3" cy="61.7" r="4"/>
<circle class="st0" cx="645.5" cy="86" r="4"/>
<circle class="st0" cx="669.7" cy="86" r="4"/>
<circle class="st0" cx="694" cy="86" r="4"/>
<circle class="st0" cx="718.2" cy="86" r="4"/>
<circle class="st0" cx="742.5" cy="86" r="4"/>
<circle class="st0" cx="766.8" cy="86" r="4"/>
<circle class="st0" cx="791" cy="86" r="4"/>
<circle class="st0" cx="815.3" cy="86" r="4"/>
<circle class="st0" cx="645.5" cy="110.2" r="4"/>
<circle class="st0" cx="669.7" cy="110.2" r="4"/>
<circle class="st0" cx="694" cy="110.2" r="4"/>
<circle class="st0" cx="718.2" cy="110.2" r="4"/>
<circle class="st0" cx="742.5" cy="110.2" r="4"/>
<circle class="st0" cx="766.8" cy="110.2" r="4"/>
<circle class="st0" cx="791" cy="110.2" r="4"/>
<circle class="st0" cx="815.3" cy="110.2" r="4"/>
<circle class="st0" cx="645.5" cy="134.5" r="4"/>
<circle class="st0" cx="669.7" cy="134.5" r="4"/>
<circle class="st0" cx="694" cy="134.5" r="4"/>
<circle class="st0" cx="718.2" cy="134.5" r="4"/>
<circle class="st0" cx="742.5" cy="134.5" r="4"/>
<circle class="st0" cx="766.8" cy="134.5" r="4"/>
<circle class="st0" cx="791" cy="134.5" r="4"/>
<circle class="st0" cx="815.3" cy="134.5" r="4"/>
<circle class="st0" cx="645.5" cy="158.7" r="4"/>
<circle class="st0" cx="669.7" cy="158.7" r="4"/>
<circle class="st0" cx="694" cy="158.7" r="4"/>
<circle class="st0" cx="718.2" cy="158.7" r="4"/>
<circle class="st0" cx="742.5" cy="158.7" r="4"/>
<circle class="st0" cx="766.8" cy="158.7" r="4"/>
<circle class="st0" cx="791" cy="158.7" r="4"/>
<circle class="st0" cx="815.3" cy="158.7" r="4"/>
<circle class="st0" cx="645.5" cy="183" r="4"/>
<circle class="st0" cx="669.7" cy="183" r="4"/>
<circle class="st0" cx="694" cy="183" r="4"/>
<circle class="st0" cx="718.2" cy="183" r="4"/>
<circle class="st0" cx="742.5" cy="183" r="4"/>
<circle class="st0" cx="766.8" cy="183" r="4"/>
<circle class="st0" cx="791" cy="183" r="4"/>
<circle class="st0" cx="815.3" cy="183" r="4"/>
<circle class="st0" cx="645.5" cy="207.3" r="4"/>
<circle class="st0" cx="669.7" cy="207.3" r="4"/>
<circle class="st0" cx="694" cy="207.3" r="4"/>
<circle class="st0" cx="718.2" cy="207.3" r="4"/>
<circle class="st0" cx="742.5" cy="207.3" r="4"/>
<circle class="st0" cx="766.8" cy="207.3" r="4"/>
<circle class="st0" cx="791" cy="207.3" r="4"/>
<circle class="st0" cx="815.3" cy="207.3" r="4"/>
<circle class="st0" cx="839.5" cy="13.2" r="4"/>
<circle class="st0" cx="863.8" cy="13.2" r="4"/>
<circle class="st0" cx="888" cy="13.2" r="4"/>
<circle class="st0" cx="839.5" cy="37.5" r="4"/>
<circle class="st0" cx="863.8" cy="37.5" r="4"/>
<circle class="st0" cx="888" cy="37.5" r="4"/>
<circle class="st0" cx="839.5" cy="61.7" r="4"/>
<circle class="st0" cx="863.8" cy="61.7" r="4"/>
<circle class="st0" cx="888" cy="61.7" r="4"/>
<circle class="st0" cx="839.5" cy="86" r="4"/>
<circle class="st0" cx="863.8" cy="86" r="4"/>
<circle class="st0" cx="888" cy="86" r="4"/>
<circle class="st0" cx="839.5" cy="110.2" r="4"/>
<circle class="st0" cx="863.8" cy="110.2" r="4"/>
<circle class="st0" cx="888" cy="110.2" r="4"/>
<circle class="st0" cx="839.5" cy="134.5" r="4"/>
<circle class="st0" cx="863.8" cy="134.5" r="4"/>
<circle class="st0" cx="888" cy="134.5" r="4"/>
<circle class="st0" cx="839.5" cy="158.7" r="4"/>
<circle class="st0" cx="863.8" cy="158.7" r="4"/>
<circle class="st0" cx="888" cy="158.7" r="4"/>
<circle class="st0" cx="839.5" cy="183" r="4"/>
<circle class="st0" cx="863.8" cy="183" r="4"/>
<circle class="st0" cx="888" cy="183" r="4"/>
<circle class="st0" cx="839.5" cy="207.3" r="4"/>
<circle class="st0" cx="863.8" cy="207.3" r="4"/>
<circle class="st0" cx="888" cy="207.3" r="4"/>
<circle class="st0" cx="39" cy="231.5" r="4"/>
<circle class="st0" cx="63.3" cy="231.5" r="4"/>
<circle class="st0" cx="87.6" cy="231.5" r="4"/>
<circle class="st0" cx="111.8" cy="231.5" r="4"/>
<circle class="st0" cx="136.1" cy="231.5" r="4"/>
<circle class="st0" cx="160.3" cy="231.5" r="4"/>
<circle class="st0" cx="184.6" cy="231.5" r="4"/>
<circle class="st0" cx="208.8" cy="231.5" r="4"/>
<circle class="st0" cx="233.1" cy="231.5" r="4"/>
<circle class="st0" cx="257.4" cy="231.5" r="4"/>
<circle class="st0" cx="281.6" cy="231.5" r="4"/>
<circle class="st0" cx="305.9" cy="231.5" r="4"/>
<circle class="st0" cx="330.1" cy="231.5" r="4"/>
<circle class="st0" cx="354.4" cy="231.5" r="4"/>
<circle class="st0" cx="378.6" cy="231.5" r="4"/>
<circle class="st0" cx="402.9" cy="231.5" r="4"/>
<circle class="st0" cx="427.2" cy="231.5" r="4"/>
<circle class="st0" cx="451.4" cy="231.5" r="4"/>
<circle class="st0" cx="475.7" cy="231.5" r="4"/>
<circle class="st0" cx="499.9" cy="231.5" r="4"/>
<circle class="st0" cx="524.2" cy="231.5" r="4"/>
<circle class="st0" cx="548.4" cy="231.5" r="4"/>
<circle class="st0" cx="572.7" cy="231.5" r="4"/>
<circle class="st0" cx="597" cy="231.5" r="4"/>
<circle class="st0" cx="621.2" cy="231.5" r="4"/>
<circle class="st0" cx="645.5" cy="231.5" r="4"/>
<circle class="st0" cx="669.7" cy="231.5" r="4"/>
<circle class="st0" cx="694" cy="231.5" r="4"/>
<circle class="st0" cx="718.2" cy="231.5" r="4"/>
<circle class="st0" cx="742.5" cy="231.5" r="4"/>
<circle class="st0" cx="766.8" cy="231.5" r="4"/>
<circle class="st0" cx="791" cy="231.5" r="4"/>
<circle class="st0" cx="815.3" cy="231.5" r="4"/>
<circle class="st0" cx="839.5" cy="231.5" r="4"/>
<circle class="st0" cx="863.8" cy="231.5" r="4"/>
<circle class="st0" cx="888" cy="231.5" r="4"/>
<circle class="st0" cx="912.3" cy="13.2" r="4"/>
<circle class="st0" cx="912.3" cy="37.5" r="4"/>
<circle class="st0" cx="912.3" cy="61.7" r="4"/>
<circle class="st0" cx="912.3" cy="86" r="4"/>
<circle class="st0" cx="912.3" cy="110.2" r="4"/>
<circle class="st0" cx="912.3" cy="134.5" r="4"/>
<circle class="st0" cx="912.3" cy="158.7" r="4"/>
<circle class="st0" cx="912.3" cy="183" r="4"/>
<circle class="st0" cx="912.3" cy="207.3" r="4"/>
<circle class="st0" cx="912.3" cy="231.5" r="4"/>
<circle class="st0" cx="936.9" cy="13.2" r="4"/>
<circle class="st0" cx="936.9" cy="37.5" r="4"/>
<circle class="st0" cx="936.9" cy="61.7" r="4"/>
<circle class="st0" cx="936.9" cy="86" r="4"/>
<circle class="st0" cx="936.9" cy="110.2" r="4"/>
<circle class="st0" cx="936.9" cy="134.5" r="4"/>
<circle class="st0" cx="936.9" cy="158.7" r="4"/>
<circle class="st0" cx="936.9" cy="183" r="4"/>
<circle class="st0" cx="936.9" cy="207.3" r="4"/>
<circle class="st0" cx="936.9" cy="231.5" r="4"/>
<circle class="st0" cx="961.5" cy="13.2" r="4"/>
<circle class="st0" cx="961.5" cy="37.5" r="4"/>
<circle class="st0" cx="961.5" cy="61.7" r="4"/>
<circle class="st0" cx="961.5" cy="86" r="4"/>
<circle class="st0" cx="961.5" cy="110.2" r="4"/>
<circle class="st0" cx="961.5" cy="134.5" r="4"/>
<circle class="st0" cx="961.5" cy="158.7" r="4"/>
<circle class="st0" cx="961.5" cy="183" r="4"/>
<circle class="st0" cx="961.5" cy="207.3" r="4"/>
<circle class="st0" cx="961.5" cy="231.5" r="4"/>
<circle class="st0" cx="39" cy="255.7" r="4"/>
<circle class="st0" cx="15" cy="13.2" r="4"/>
<circle class="st0" cx="15" cy="37.5" r="4"/>
<circle class="st0" cx="15" cy="61.7" r="4"/>
<circle class="st0" cx="15" cy="86" r="4"/>
<circle class="st0" cx="15" cy="110.2" r="4"/>
<circle class="st0" cx="15" cy="134.5" r="4"/>
<circle class="st0" cx="15" cy="158.7" r="4"/>
<circle class="st0" cx="15" cy="183" r="4"/>
<circle class="st0" cx="15" cy="207.3" r="4"/>
<circle class="st0" cx="15" cy="231.5" r="4"/>
<circle class="st0" cx="15" cy="255.7" r="4"/>
<circle class="st0" cx="63.3" cy="255.7" r="4"/>
<circle class="st0" cx="87.6" cy="255.7" r="4"/>
<circle class="st0" cx="111.8" cy="255.7" r="4"/>
<circle class="st0" cx="136.1" cy="255.7" r="4"/>
<circle class="st0" cx="160.3" cy="255.7" r="4"/>
<circle class="st0" cx="184.6" cy="255.7" r="4"/>
<circle class="st0" cx="208.8" cy="255.7" r="4"/>
<circle class="st0" cx="233.1" cy="255.7" r="4"/>
<circle class="st0" cx="257.4" cy="255.7" r="4"/>
<circle class="st0" cx="281.6" cy="255.7" r="4"/>
<circle class="st0" cx="305.9" cy="255.7" r="4"/>
<circle class="st0" cx="330.1" cy="255.7" r="4"/>
<circle class="st0" cx="354.4" cy="255.7" r="4"/>
<circle class="st0" cx="378.6" cy="255.7" r="4"/>
<circle class="st0" cx="402.9" cy="255.7" r="4"/>
<circle class="st0" cx="427.2" cy="255.7" r="4"/>
<circle class="st0" cx="451.4" cy="255.7" r="4"/>
<circle class="st1 bounce b-1" cx="475.7" cy="255.7" r="4"/>
<circle class="st2 bounce b-2" cx="499.9" cy="255.7" r="4"/>
<circle class="st3 bounce b-3" cx="524.2" cy="255.7" r="4"/>
<circle class="st0" cx="548.4" cy="255.7" r="4"/>
<circle class="st0" cx="572.7" cy="255.7" r="4"/>
<circle class="st0" cx="597" cy="255.7" r="4"/>
<circle class="st0" cx="621.2" cy="255.7" r="4"/>
<circle class="st0" cx="645.5" cy="255.7" r="4"/>
<circle class="st0" cx="669.7" cy="255.7" r="4"/>
<circle class="st0" cx="694" cy="255.7" r="4"/>
<circle class="st0" cx="718.2" cy="255.7" r="4"/>
<circle class="st0" cx="742.5" cy="255.7" r="4"/>
<circle class="st0" cx="766.8" cy="255.7" r="4"/>
<circle class="st0" cx="791" cy="255.7" r="4"/>
<circle class="st0" cx="815.3" cy="255.7" r="4"/>
<circle class="st0" cx="839.5" cy="255.7" r="4"/>
<circle class="st0" cx="863.8" cy="255.7" r="4"/>
<circle class="st0" cx="888" cy="255.7" r="4"/>
<circle class="st0" cx="912.3" cy="255.7" r="4"/>
<circle class="st0" cx="936.9" cy="255.7" r="4"/>
<circle class="st0" cx="961.5" cy="255.7" r="4"/>
<circle class="st0" cx="986.5" cy="13.2" r="4"/>
<circle class="st0" cx="986.5" cy="37.5" r="4"/>
<circle class="st0" cx="986.5" cy="61.7" r="4"/>
<circle class="st0" cx="986.5" cy="86" r="4"/>
<circle class="st0" cx="986.5" cy="110.2" r="4"/>
<circle class="st0" cx="986.5" cy="134.5" r="4"/>
<circle class="st0" cx="986.5" cy="158.7" r="4"/>
<circle class="st0" cx="986.5" cy="183" r="4"/>
<circle class="st0" cx="986.5" cy="207.3" r="4"/>
<circle class="st0" cx="986.5" cy="231.5" r="4"/>
<circle class="st0" cx="986.5" cy="255.7" r="4"/>
</svg>
