<?xml version="1.0" encoding="utf-8"?>
<!-- Generator: Adobe Illustrator 23.0.2, SVG Export Plug-In . SVG Version: 6.00 Build 0)  -->
<svg version="1.1" id="Layer_1" xmlns="http://www.w3.org/2000/svg" xmlns:xlink="http://www.w3.org/1999/xlink" x="0px" y="0px"
	 viewBox="0 0 26 26" style="enable-background:new 0 0 26 26;" xml:space="preserve">
<style type="text/css">
	.st4{fill:#70767C;}
</style>
<title>icon-close</title>
<path class="st4" d="M24.6,25.6c-0.3,0-0.5-0.1-0.7-0.3L0.7,2.1c-0.4-0.4-0.4-1,0-1.4s1-0.4,1.4,0l23.2,23.2c0.4,0.4,0.4,1,0,1.4
	C25.1,25.5,24.9,25.6,24.6,25.6z"/>
<path class="st4" d="M1.4,25.6c-0.3,0-0.5-0.1-0.7-0.3c-0.4-0.4-0.4-1,0-1.4L23.9,0.7c0.4-0.4,1-0.4,1.4,0s0.4,1,0,1.4L2.1,25.3
	C1.9,25.5,1.7,25.6,1.4,25.6z"/>
</svg>
