<svg width="783" height="202" viewBox="0 0 783 202" fill="none" xmlns="http://www.w3.org/2000/svg">
<rect x="1" y="1" width="163" height="42" fill="white" stroke="#68C6A4" stroke-width="2"/>
<path d="M15.5078 16.5781H18.8984C20.4714 16.5781 21.6068 16.8073 22.3047 17.2656C23.0078 17.724 23.3594 18.4479 23.3594 19.4375C23.3594 20.1042 23.1875 20.6589 22.8438 21.1016C22.5 21.5443 22.0052 21.8229 21.3594 21.9375V22.0156C22.1615 22.1667 22.75 22.4661 23.125 22.9141C23.5052 23.3568 23.6953 23.9583 23.6953 24.7188C23.6953 25.7448 23.3359 26.5495 22.6172 27.1328C21.9036 27.7109 20.9089 28 19.6328 28H15.5078V16.5781ZM17.375 21.2969H19.1719C19.9531 21.2969 20.5234 21.1745 20.8828 20.9297C21.2422 20.6797 21.4219 20.2578 21.4219 19.6641C21.4219 19.1276 21.2266 18.7396 20.8359 18.5C20.4505 18.2604 19.8359 18.1406 18.9922 18.1406H17.375V21.2969ZM17.375 22.8125V26.4297H19.3594C20.1406 26.4297 20.7292 26.2812 21.125 25.9844C21.526 25.6823 21.7266 25.2083 21.7266 24.5625C21.7266 23.9688 21.5234 23.5286 21.1172 23.2422C20.7109 22.9557 20.0938 22.8125 19.2656 22.8125H17.375ZM31.9688 28L31.7109 26.8672H31.6172C31.362 27.2682 30.9974 27.5833 30.5234 27.8125C30.0547 28.0417 29.5182 28.1562 28.9141 28.1562C27.8672 28.1562 27.0859 27.8958 26.5703 27.375C26.0547 26.8542 25.7969 26.0651 25.7969 25.0078V19.3594H27.6484V24.6875C27.6484 25.349 27.7839 25.8464 28.0547 26.1797C28.3255 26.5078 28.75 26.6719 29.3281 26.6719C30.099 26.6719 30.6641 26.4427 31.0234 25.9844C31.388 25.5208 31.5703 24.7474 31.5703 23.6641V19.3594H33.4141V28H31.9688ZM41.8359 25.5391C41.8359 26.3828 41.5286 27.0312 40.9141 27.4844C40.2995 27.9323 39.4193 28.1562 38.2734 28.1562C37.1224 28.1562 36.1979 27.9818 35.5 27.6328V26.0469C36.5156 26.5156 37.4609 26.75 38.3359 26.75C39.4661 26.75 40.0312 26.4089 40.0312 25.7266C40.0312 25.5078 39.9688 25.3255 39.8438 25.1797C39.7188 25.0339 39.513 24.8828 39.2266 24.7266C38.9401 24.5703 38.5417 24.3932 38.0312 24.1953C37.0365 23.8099 36.362 23.4245 36.0078 23.0391C35.6589 22.6536 35.4844 22.1536 35.4844 21.5391C35.4844 20.7995 35.7812 20.2266 36.375 19.8203C36.974 19.4089 37.7865 19.2031 38.8125 19.2031C39.8281 19.2031 40.7891 19.4089 41.6953 19.8203L41.1016 21.2031C40.1693 20.8177 39.3854 20.625 38.75 20.625C37.7812 20.625 37.2969 20.901 37.2969 21.4531C37.2969 21.724 37.4219 21.9531 37.6719 22.1406C37.9271 22.3281 38.4792 22.5859 39.3281 22.9141C40.0417 23.1901 40.5599 23.4427 40.8828 23.6719C41.2057 23.901 41.4453 24.1667 41.6016 24.4688C41.7578 24.7656 41.8359 25.1224 41.8359 25.5391ZM45.6641 28H43.8281V19.3594H45.6641V28ZM43.7188 17.0703C43.7188 16.7422 43.8073 16.4896 43.9844 16.3125C44.1667 16.1354 44.4245 16.0469 44.7578 16.0469C45.0807 16.0469 45.3307 16.1354 45.5078 16.3125C45.6901 16.4896 45.7812 16.7422 45.7812 17.0703C45.7812 17.3828 45.6901 17.6302 45.5078 17.8125C45.3307 17.9896 45.0807 18.0781 44.7578 18.0781C44.4245 18.0781 44.1667 17.9896 43.9844 17.8125C43.8073 17.6302 43.7188 17.3828 43.7188 17.0703ZM55.8984 28H54.0547V22.6875C54.0547 22.0208 53.9193 21.5234 53.6484 21.1953C53.3828 20.8672 52.9583 20.7031 52.375 20.7031C51.599 20.7031 51.0312 20.9323 50.6719 21.3906C50.3125 21.849 50.1328 22.6172 50.1328 23.6953V28H48.2969V19.3594H49.7344L49.9922 20.4922H50.0859C50.3464 20.0807 50.7161 19.763 51.1953 19.5391C51.6745 19.3151 52.2057 19.2031 52.7891 19.2031C54.862 19.2031 55.8984 20.2578 55.8984 22.3672V28ZM62.2266 28.1562C60.8828 28.1562 59.8307 27.7656 59.0703 26.9844C58.3151 26.1979 57.9375 25.1172 57.9375 23.7422C57.9375 22.3307 58.2891 21.2214 58.9922 20.4141C59.6953 19.6068 60.6615 19.2031 61.8906 19.2031C63.0312 19.2031 63.9323 19.5495 64.5938 20.2422C65.2552 20.9349 65.5859 21.888 65.5859 23.1016V24.0938H59.8281C59.8542 24.9323 60.0807 25.5781 60.5078 26.0312C60.9349 26.4792 61.5365 26.7031 62.3125 26.7031C62.8229 26.7031 63.2969 26.6562 63.7344 26.5625C64.1771 26.4635 64.651 26.3021 65.1562 26.0781V27.5703C64.7083 27.7839 64.2552 27.9349 63.7969 28.0234C63.3385 28.112 62.8151 28.1562 62.2266 28.1562ZM61.8906 20.5938C61.3073 20.5938 60.8385 20.7786 60.4844 21.1484C60.1354 21.5182 59.9271 22.0573 59.8594 22.7656H63.7812C63.7708 22.0521 63.599 21.513 63.2656 21.1484C62.9323 20.7786 62.474 20.5938 61.8906 20.5938ZM73.4766 25.5391C73.4766 26.3828 73.1693 27.0312 72.5547 27.4844C71.9401 27.9323 71.0599 28.1562 69.9141 28.1562C68.763 28.1562 67.8385 27.9818 67.1406 27.6328V26.0469C68.1562 26.5156 69.1016 26.75 69.9766 26.75C71.1068 26.75 71.6719 26.4089 71.6719 25.7266C71.6719 25.5078 71.6094 25.3255 71.4844 25.1797C71.3594 25.0339 71.1536 24.8828 70.8672 24.7266C70.5807 24.5703 70.1823 24.3932 69.6719 24.1953C68.6771 23.8099 68.0026 23.4245 67.6484 23.0391C67.2995 22.6536 67.125 22.1536 67.125 21.5391C67.125 20.7995 67.4219 20.2266 68.0156 19.8203C68.6146 19.4089 69.4271 19.2031 70.4531 19.2031C71.4688 19.2031 72.4297 19.4089 73.3359 19.8203L72.7422 21.2031C71.8099 20.8177 71.026 20.625 70.3906 20.625C69.4219 20.625 68.9375 20.901 68.9375 21.4531C68.9375 21.724 69.0625 21.9531 69.3125 22.1406C69.5677 22.3281 70.1198 22.5859 70.9688 22.9141C71.6823 23.1901 72.2005 23.4427 72.5234 23.6719C72.8464 23.901 73.0859 24.1667 73.2422 24.4688C73.3984 24.7656 73.4766 25.1224 73.4766 25.5391ZM81.2734 25.5391C81.2734 26.3828 80.9661 27.0312 80.3516 27.4844C79.737 27.9323 78.8568 28.1562 77.7109 28.1562C76.5599 28.1562 75.6354 27.9818 74.9375 27.6328V26.0469C75.9531 26.5156 76.8984 26.75 77.7734 26.75C78.9036 26.75 79.4688 26.4089 79.4688 25.7266C79.4688 25.5078 79.4062 25.3255 79.2812 25.1797C79.1562 25.0339 78.9505 24.8828 78.6641 24.7266C78.3776 24.5703 77.9792 24.3932 77.4688 24.1953C76.474 23.8099 75.7995 23.4245 75.4453 23.0391C75.0964 22.6536 74.9219 22.1536 74.9219 21.5391C74.9219 20.7995 75.2188 20.2266 75.8125 19.8203C76.4115 19.4089 77.224 19.2031 78.25 19.2031C79.2656 19.2031 80.2266 19.4089 81.1328 19.8203L80.5391 21.2031C79.6068 20.8177 78.8229 20.625 78.1875 20.625C77.2188 20.625 76.7344 20.901 76.7344 21.4531C76.7344 21.724 76.8594 21.9531 77.1094 22.1406C77.3646 22.3281 77.9167 22.5859 78.7656 22.9141C79.4792 23.1901 79.9974 23.4427 80.3203 23.6719C80.6432 23.901 80.8828 24.1667 81.0391 24.4688C81.1953 24.7656 81.2734 25.1224 81.2734 25.5391ZM94.0781 28H87.6172V16.5781H94.0781V18.1562H89.4844V21.2656H93.7891V22.8281H89.4844V26.4141H94.0781V28ZM103.961 28H102.117V22.6875C102.117 22.0208 101.982 21.5234 101.711 21.1953C101.445 20.8672 101.021 20.7031 100.438 20.7031C99.6615 20.7031 99.0938 20.9323 98.7344 21.3906C98.375 21.849 98.1953 22.6172 98.1953 23.6953V28H96.3594V19.3594H97.7969L98.0547 20.4922H98.1484C98.4089 20.0807 98.7786 19.763 99.2578 19.5391C99.737 19.3151 100.268 19.2031 100.852 19.2031C102.924 19.2031 103.961 20.2578 103.961 22.3672V28ZM109.734 26.6719C110.182 26.6719 110.63 26.6016 111.078 26.4609V27.8438C110.875 27.9323 110.612 28.0052 110.289 28.0625C109.971 28.125 109.641 28.1562 109.297 28.1562C107.557 28.1562 106.688 27.2396 106.688 25.4062V20.75H105.508V19.9375L106.773 19.2656L107.398 17.4375H108.531V19.3594H110.992V20.75H108.531V25.375C108.531 25.8177 108.641 26.1458 108.859 26.3594C109.083 26.5677 109.375 26.6719 109.734 26.6719ZM114.648 28H112.812V19.3594H114.648V28ZM112.703 17.0703C112.703 16.7422 112.792 16.4896 112.969 16.3125C113.151 16.1354 113.409 16.0469 113.742 16.0469C114.065 16.0469 114.315 16.1354 114.492 16.3125C114.674 16.4896 114.766 16.7422 114.766 17.0703C114.766 17.3828 114.674 17.6302 114.492 17.8125C114.315 17.9896 114.065 18.0781 113.742 18.0781C113.409 18.0781 113.151 17.9896 112.969 17.8125C112.792 17.6302 112.703 17.3828 112.703 17.0703ZM120.5 26.6719C120.948 26.6719 121.396 26.6016 121.844 26.4609V27.8438C121.641 27.9323 121.378 28.0052 121.055 28.0625C120.737 28.125 120.406 28.1562 120.062 28.1562C118.323 28.1562 117.453 27.2396 117.453 25.4062V20.75H116.273V19.9375L117.539 19.2656L118.164 17.4375H119.297V19.3594H121.758V20.75H119.297V25.375C119.297 25.8177 119.406 26.1458 119.625 26.3594C119.849 26.5677 120.141 26.6719 120.5 26.6719ZM122.266 19.3594H124.266L126.023 24.2578C126.289 24.9557 126.466 25.612 126.555 26.2266H126.617C126.664 25.9401 126.75 25.5938 126.875 25.1875C127 24.776 127.661 22.8333 128.859 19.3594H130.844L127.148 29.1484C126.477 30.9453 125.357 31.8438 123.789 31.8438C123.383 31.8438 122.987 31.7995 122.602 31.7109V30.2578C122.878 30.3203 123.193 30.3516 123.547 30.3516C124.432 30.3516 125.055 29.8385 125.414 28.8125L125.734 28L122.266 19.3594Z" fill="#0A2535"/>
<rect x="222" y="1" width="163" height="42" fill="white" stroke="#68C6A4" stroke-width="2"/>
<path d="M244.07 20.0312C244.07 21.224 243.68 22.138 242.898 22.7734C242.117 23.4089 241.005 23.7266 239.562 23.7266H238.375V28H236.508V16.5781H239.797C241.224 16.5781 242.292 16.8698 243 17.4531C243.714 18.0365 244.07 18.8958 244.07 20.0312ZM238.375 22.1562H239.367C240.326 22.1562 241.029 21.9896 241.477 21.6562C241.924 21.3229 242.148 20.8021 242.148 20.0938C242.148 19.4375 241.948 18.9479 241.547 18.625C241.146 18.3021 240.521 18.1406 239.672 18.1406H238.375V22.1562ZM249.93 28.1562C248.586 28.1562 247.534 27.7656 246.773 26.9844C246.018 26.1979 245.641 25.1172 245.641 23.7422C245.641 22.3307 245.992 21.2214 246.695 20.4141C247.398 19.6068 248.365 19.2031 249.594 19.2031C250.734 19.2031 251.635 19.5495 252.297 20.2422C252.958 20.9349 253.289 21.888 253.289 23.1016V24.0938H247.531C247.557 24.9323 247.784 25.5781 248.211 26.0312C248.638 26.4792 249.24 26.7031 250.016 26.7031C250.526 26.7031 251 26.6562 251.438 26.5625C251.88 26.4635 252.354 26.3021 252.859 26.0781V27.5703C252.411 27.7839 251.958 27.9349 251.5 28.0234C251.042 28.112 250.518 28.1562 249.93 28.1562ZM249.594 20.5938C249.01 20.5938 248.542 20.7786 248.188 21.1484C247.839 21.5182 247.63 22.0573 247.562 22.7656H251.484C251.474 22.0521 251.302 21.513 250.969 21.1484C250.635 20.7786 250.177 20.5938 249.594 20.5938ZM262.977 28H261.133V22.6875C261.133 22.0208 260.997 21.5234 260.727 21.1953C260.461 20.8672 260.036 20.7031 259.453 20.7031C258.677 20.7031 258.109 20.9323 257.75 21.3906C257.391 21.849 257.211 22.6172 257.211 23.6953V28H255.375V19.3594H256.812L257.07 20.4922H257.164C257.424 20.0807 257.794 19.763 258.273 19.5391C258.753 19.3151 259.284 19.2031 259.867 19.2031C261.94 19.2031 262.977 20.2578 262.977 22.3672V28ZM273.133 28H271.289V22.6875C271.289 22.0208 271.154 21.5234 270.883 21.1953C270.617 20.8672 270.193 20.7031 269.609 20.7031C268.833 20.7031 268.266 20.9323 267.906 21.3906C267.547 21.849 267.367 22.6172 267.367 23.6953V28H265.531V19.3594H266.969L267.227 20.4922H267.32C267.581 20.0807 267.951 19.763 268.43 19.5391C268.909 19.3151 269.44 19.2031 270.023 19.2031C272.096 19.2031 273.133 20.2578 273.133 22.3672V28ZM281.492 25.5391C281.492 26.3828 281.185 27.0312 280.57 27.4844C279.956 27.9323 279.076 28.1562 277.93 28.1562C276.779 28.1562 275.854 27.9818 275.156 27.6328V26.0469C276.172 26.5156 277.117 26.75 277.992 26.75C279.122 26.75 279.688 26.4089 279.688 25.7266C279.688 25.5078 279.625 25.3255 279.5 25.1797C279.375 25.0339 279.169 24.8828 278.883 24.7266C278.596 24.5703 278.198 24.3932 277.688 24.1953C276.693 23.8099 276.018 23.4245 275.664 23.0391C275.315 22.6536 275.141 22.1536 275.141 21.5391C275.141 20.7995 275.438 20.2266 276.031 19.8203C276.63 19.4089 277.443 19.2031 278.469 19.2031C279.484 19.2031 280.445 19.4089 281.352 19.8203L280.758 21.2031C279.826 20.8177 279.042 20.625 278.406 20.625C277.438 20.625 276.953 20.901 276.953 21.4531C276.953 21.724 277.078 21.9531 277.328 22.1406C277.583 22.3281 278.135 22.5859 278.984 22.9141C279.698 23.1901 280.216 23.4427 280.539 23.6719C280.862 23.901 281.102 24.1667 281.258 24.4688C281.414 24.7656 281.492 25.1224 281.492 25.5391ZM282.172 19.3594H284.172L285.93 24.2578C286.195 24.9557 286.372 25.612 286.461 26.2266H286.523C286.57 25.9401 286.656 25.5938 286.781 25.1875C286.906 24.776 287.568 22.8333 288.766 19.3594H290.75L287.055 29.1484C286.383 30.9453 285.263 31.8438 283.695 31.8438C283.289 31.8438 282.893 31.7995 282.508 31.7109V30.2578C282.784 30.3203 283.099 30.3516 283.453 30.3516C284.339 30.3516 284.961 29.8385 285.32 28.8125L285.641 28L282.172 19.3594ZM293.898 28H292.062V15.8438H293.898V28ZM298.5 28L295.219 19.3594H297.156L298.914 24.3828C299.216 25.2266 299.398 25.9089 299.461 26.4297H299.523C299.57 26.0547 299.753 25.3724 300.07 24.3828L301.828 19.3594H303.781L300.484 28H298.5ZM310.5 28L310.133 26.7969H310.07C309.654 27.3229 309.234 27.6823 308.812 27.875C308.391 28.0625 307.849 28.1562 307.188 28.1562C306.339 28.1562 305.674 27.9271 305.195 27.4688C304.721 27.0104 304.484 26.362 304.484 25.5234C304.484 24.6328 304.815 23.9609 305.477 23.5078C306.138 23.0547 307.146 22.8073 308.5 22.7656L309.992 22.7188V22.2578C309.992 21.7057 309.862 21.2943 309.602 21.0234C309.346 20.7474 308.948 20.6094 308.406 20.6094C307.964 20.6094 307.539 20.6745 307.133 20.8047C306.727 20.9349 306.336 21.0885 305.961 21.2656L305.367 19.9531C305.836 19.7083 306.349 19.5234 306.906 19.3984C307.464 19.2682 307.99 19.2031 308.484 19.2031C309.583 19.2031 310.411 19.4427 310.969 19.9219C311.531 20.401 311.812 21.1536 311.812 22.1797V28H310.5ZM307.766 26.75C308.432 26.75 308.966 26.5651 309.367 26.1953C309.773 25.8203 309.977 25.2969 309.977 24.625V23.875L308.867 23.9219C308.003 23.9531 307.372 24.099 306.977 24.3594C306.586 24.6146 306.391 25.0078 306.391 25.5391C306.391 25.9245 306.505 26.224 306.734 26.4375C306.964 26.6458 307.307 26.75 307.766 26.75ZM321.977 28H320.133V22.6875C320.133 22.0208 319.997 21.5234 319.727 21.1953C319.461 20.8672 319.036 20.7031 318.453 20.7031C317.677 20.7031 317.109 20.9323 316.75 21.3906C316.391 21.849 316.211 22.6172 316.211 23.6953V28H314.375V19.3594H315.812L316.07 20.4922H316.164C316.424 20.0807 316.794 19.763 317.273 19.5391C317.753 19.3151 318.284 19.2031 318.867 19.2031C320.94 19.2031 321.977 20.2578 321.977 22.3672V28ZM326.367 28H324.531V19.3594H326.367V28ZM324.422 17.0703C324.422 16.7422 324.51 16.4896 324.688 16.3125C324.87 16.1354 325.128 16.0469 325.461 16.0469C325.784 16.0469 326.034 16.1354 326.211 16.3125C326.393 16.4896 326.484 16.7422 326.484 17.0703C326.484 17.3828 326.393 17.6302 326.211 17.8125C326.034 17.9896 325.784 18.0781 325.461 18.0781C325.128 18.0781 324.87 17.9896 324.688 17.8125C324.51 17.6302 324.422 17.3828 324.422 17.0703ZM334.406 28L334.039 26.7969H333.977C333.56 27.3229 333.141 27.6823 332.719 27.875C332.297 28.0625 331.755 28.1562 331.094 28.1562C330.245 28.1562 329.581 27.9271 329.102 27.4688C328.628 27.0104 328.391 26.362 328.391 25.5234C328.391 24.6328 328.721 23.9609 329.383 23.5078C330.044 23.0547 331.052 22.8073 332.406 22.7656L333.898 22.7188V22.2578C333.898 21.7057 333.768 21.2943 333.508 21.0234C333.253 20.7474 332.854 20.6094 332.312 20.6094C331.87 20.6094 331.445 20.6745 331.039 20.8047C330.633 20.9349 330.242 21.0885 329.867 21.2656L329.273 19.9531C329.742 19.7083 330.255 19.5234 330.812 19.3984C331.37 19.2682 331.896 19.2031 332.391 19.2031C333.49 19.2031 334.318 19.4427 334.875 19.9219C335.438 20.401 335.719 21.1536 335.719 22.1797V28H334.406ZM331.672 26.75C332.339 26.75 332.872 26.5651 333.273 26.1953C333.68 25.8203 333.883 25.2969 333.883 24.625V23.875L332.773 23.9219C331.909 23.9531 331.279 24.099 330.883 24.3594C330.492 24.6146 330.297 25.0078 330.297 25.5391C330.297 25.9245 330.411 26.224 330.641 26.4375C330.87 26.6458 331.214 26.75 331.672 26.75Z" fill="#0A2535"/>
<line x1="165" y1="21.5" x2="221" y2="21.5" stroke="#0A2535"/>
<rect x="443" y="1" width="339" height="91" fill="white" stroke="#68C6A4" stroke-width="2"/>
<path d="M466.797 22.1797C466.797 24.0651 466.273 25.5078 465.227 26.5078C464.18 27.5026 462.672 28 460.703 28H457.508V16.5781H461.039C462.857 16.5781 464.271 17.0677 465.281 18.0469C466.292 19.026 466.797 20.4036 466.797 22.1797ZM464.828 22.2422C464.828 19.5078 463.549 18.1406 460.992 18.1406H459.375V26.4297H460.703C463.453 26.4297 464.828 25.0339 464.828 22.2422ZM472.836 28.1562C471.492 28.1562 470.44 27.7656 469.68 26.9844C468.924 26.1979 468.547 25.1172 468.547 23.7422C468.547 22.3307 468.898 21.2214 469.602 20.4141C470.305 19.6068 471.271 19.2031 472.5 19.2031C473.641 19.2031 474.542 19.5495 475.203 20.2422C475.865 20.9349 476.195 21.888 476.195 23.1016V24.0938H470.438C470.464 24.9323 470.69 25.5781 471.117 26.0312C471.544 26.4792 472.146 26.7031 472.922 26.7031C473.432 26.7031 473.906 26.6562 474.344 26.5625C474.786 26.4635 475.26 26.3021 475.766 26.0781V27.5703C475.318 27.7839 474.865 27.9349 474.406 28.0234C473.948 28.112 473.424 28.1562 472.836 28.1562ZM472.5 20.5938C471.917 20.5938 471.448 20.7786 471.094 21.1484C470.745 21.5182 470.536 22.0573 470.469 22.7656H474.391C474.38 22.0521 474.208 21.513 473.875 21.1484C473.542 20.7786 473.083 20.5938 472.5 20.5938ZM482.664 28.1562C481.57 28.1562 480.721 27.763 480.117 26.9766H480.008C480.081 27.7057 480.117 28.1484 480.117 28.3047V31.8438H478.281V19.3594H479.766C479.807 19.5208 479.893 19.9062 480.023 20.5156H480.117C480.69 19.6406 481.549 19.2031 482.695 19.2031C483.773 19.2031 484.612 19.5938 485.211 20.375C485.815 21.1562 486.117 22.2526 486.117 23.6641C486.117 25.0755 485.81 26.1771 485.195 26.9688C484.586 27.7604 483.742 28.1562 482.664 28.1562ZM482.219 20.7031C481.49 20.7031 480.956 20.9167 480.617 21.3438C480.284 21.7708 480.117 22.4531 480.117 23.3906V23.6641C480.117 24.7161 480.284 25.4792 480.617 25.9531C480.951 26.4219 481.495 26.6562 482.25 26.6562C482.885 26.6562 483.375 26.3958 483.719 25.875C484.062 25.3542 484.234 24.612 484.234 23.6484C484.234 22.6797 484.062 21.9479 483.719 21.4531C483.38 20.9531 482.88 20.7031 482.219 20.7031ZM493.656 28L493.289 26.7969H493.227C492.81 27.3229 492.391 27.6823 491.969 27.875C491.547 28.0625 491.005 28.1562 490.344 28.1562C489.495 28.1562 488.831 27.9271 488.352 27.4688C487.878 27.0104 487.641 26.362 487.641 25.5234C487.641 24.6328 487.971 23.9609 488.633 23.5078C489.294 23.0547 490.302 22.8073 491.656 22.7656L493.148 22.7188V22.2578C493.148 21.7057 493.018 21.2943 492.758 21.0234C492.503 20.7474 492.104 20.6094 491.562 20.6094C491.12 20.6094 490.695 20.6745 490.289 20.8047C489.883 20.9349 489.492 21.0885 489.117 21.2656L488.523 19.9531C488.992 19.7083 489.505 19.5234 490.062 19.3984C490.62 19.2682 491.146 19.2031 491.641 19.2031C492.74 19.2031 493.568 19.4427 494.125 19.9219C494.688 20.401 494.969 21.1536 494.969 22.1797V28H493.656ZM490.922 26.75C491.589 26.75 492.122 26.5651 492.523 26.1953C492.93 25.8203 493.133 25.2969 493.133 24.625V23.875L492.023 23.9219C491.159 23.9531 490.529 24.099 490.133 24.3594C489.742 24.6146 489.547 25.0078 489.547 25.5391C489.547 25.9245 489.661 26.224 489.891 26.4375C490.12 26.6458 490.464 26.75 490.922 26.75ZM501.914 19.2031C502.284 19.2031 502.589 19.2292 502.828 19.2812L502.648 20.9922C502.388 20.9297 502.117 20.8984 501.836 20.8984C501.102 20.8984 500.505 21.138 500.047 21.6172C499.594 22.0964 499.367 22.7188 499.367 23.4844V28H497.531V19.3594H498.969L499.211 20.8828H499.305C499.591 20.3672 499.964 19.9583 500.422 19.6562C500.885 19.3542 501.383 19.2031 501.914 19.2031ZM507.656 26.6719C508.104 26.6719 508.552 26.6016 509 26.4609V27.8438C508.797 27.9323 508.534 28.0052 508.211 28.0625C507.893 28.125 507.562 28.1562 507.219 28.1562C505.479 28.1562 504.609 27.2396 504.609 25.4062V20.75H503.43V19.9375L504.695 19.2656L505.32 17.4375H506.453V19.3594H508.914V20.75H506.453V25.375C506.453 25.8177 506.562 26.1458 506.781 26.3594C507.005 26.5677 507.297 26.6719 507.656 26.6719ZM518.016 28H516.172V22.6719C516.172 22.0104 516.047 21.5182 515.797 21.1953C515.547 20.8672 515.156 20.7031 514.625 20.7031C513.917 20.7031 513.396 20.9349 513.062 21.3984C512.734 21.8568 512.57 22.6224 512.57 23.6953V28H510.734V19.3594H512.172L512.43 20.4922H512.523C512.763 20.0807 513.109 19.763 513.562 19.5391C514.021 19.3151 514.523 19.2031 515.07 19.2031C516.398 19.2031 517.279 19.6562 517.711 20.5625H517.836C518.091 20.1354 518.451 19.8021 518.914 19.5625C519.378 19.3229 519.909 19.2031 520.508 19.2031C521.539 19.2031 522.289 19.4635 522.758 19.9844C523.232 20.5052 523.469 21.2995 523.469 22.3672V28H521.633V22.6719C521.633 22.0104 521.505 21.5182 521.25 21.1953C521 20.8672 520.609 20.7031 520.078 20.7031C519.365 20.7031 518.841 20.9271 518.508 21.375C518.18 21.8177 518.016 22.5 518.016 23.4219V28ZM529.805 28.1562C528.461 28.1562 527.409 27.7656 526.648 26.9844C525.893 26.1979 525.516 25.1172 525.516 23.7422C525.516 22.3307 525.867 21.2214 526.57 20.4141C527.273 19.6068 528.24 19.2031 529.469 19.2031C530.609 19.2031 531.51 19.5495 532.172 20.2422C532.833 20.9349 533.164 21.888 533.164 23.1016V24.0938H527.406C527.432 24.9323 527.659 25.5781 528.086 26.0312C528.513 26.4792 529.115 26.7031 529.891 26.7031C530.401 26.7031 530.875 26.6562 531.312 26.5625C531.755 26.4635 532.229 26.3021 532.734 26.0781V27.5703C532.286 27.7839 531.833 27.9349 531.375 28.0234C530.917 28.112 530.393 28.1562 529.805 28.1562ZM529.469 20.5938C528.885 20.5938 528.417 20.7786 528.062 21.1484C527.714 21.5182 527.505 22.0573 527.438 22.7656H531.359C531.349 22.0521 531.177 21.513 530.844 21.1484C530.51 20.7786 530.052 20.5938 529.469 20.5938ZM542.852 28H541.008V22.6875C541.008 22.0208 540.872 21.5234 540.602 21.1953C540.336 20.8672 539.911 20.7031 539.328 20.7031C538.552 20.7031 537.984 20.9323 537.625 21.3906C537.266 21.849 537.086 22.6172 537.086 23.6953V28H535.25V19.3594H536.688L536.945 20.4922H537.039C537.299 20.0807 537.669 19.763 538.148 19.5391C538.628 19.3151 539.159 19.2031 539.742 19.2031C541.815 19.2031 542.852 20.2578 542.852 22.3672V28ZM548.625 26.6719C549.073 26.6719 549.521 26.6016 549.969 26.4609V27.8438C549.766 27.9323 549.503 28.0052 549.18 28.0625C548.862 28.125 548.531 28.1562 548.188 28.1562C546.448 28.1562 545.578 27.2396 545.578 25.4062V20.75H544.398V19.9375L545.664 19.2656L546.289 17.4375H547.422V19.3594H549.883V20.75H547.422V25.375C547.422 25.8177 547.531 26.1458 547.75 26.3594C547.974 26.5677 548.266 26.6719 548.625 26.6719ZM563.523 23.6641C563.523 25.0755 563.161 26.1771 562.438 26.9688C561.714 27.7604 560.706 28.1562 559.414 28.1562C558.607 28.1562 557.893 27.974 557.273 27.6094C556.654 27.2448 556.177 26.7214 555.844 26.0391C555.51 25.3568 555.344 24.5651 555.344 23.6641C555.344 22.263 555.703 21.1693 556.422 20.3828C557.141 19.5964 558.154 19.2031 559.461 19.2031C560.711 19.2031 561.701 19.6068 562.43 20.4141C563.159 21.2161 563.523 22.2995 563.523 23.6641ZM557.234 23.6641C557.234 25.6589 557.971 26.6562 559.445 26.6562C560.904 26.6562 561.633 25.6589 561.633 23.6641C561.633 21.6901 560.898 20.7031 559.43 20.7031C558.659 20.7031 558.099 20.9583 557.75 21.4688C557.406 21.9792 557.234 22.7109 557.234 23.6641ZM569.977 20.75H567.867V28H566.023V20.75H564.602V19.8906L566.023 19.3281V18.7656C566.023 17.7448 566.263 16.9896 566.742 16.5C567.221 16.0052 567.953 15.7578 568.938 15.7578C569.583 15.7578 570.219 15.8646 570.844 16.0781L570.359 17.4688C569.906 17.3229 569.474 17.25 569.062 17.25C568.646 17.25 568.341 17.3802 568.148 17.6406C567.961 17.8958 567.867 18.2812 567.867 18.7969V19.3594H569.977V20.75ZM577.672 21.8906H578.969C579.839 21.8906 580.469 21.7292 580.859 21.4062C581.25 21.0833 581.445 20.6042 581.445 19.9688C581.445 19.3229 581.234 18.8594 580.812 18.5781C580.391 18.2969 579.755 18.1562 578.906 18.1562H577.672V21.8906ZM577.672 23.4375V28H575.805V16.5781H579.031C580.505 16.5781 581.596 16.8542 582.305 17.4062C583.013 17.9583 583.367 18.7917 583.367 19.9062C583.367 21.3281 582.628 22.3411 581.148 22.9453L584.375 28H582.25L579.516 23.4375H577.672ZM589.617 28.1562C588.273 28.1562 587.221 27.7656 586.461 26.9844C585.706 26.1979 585.328 25.1172 585.328 23.7422C585.328 22.3307 585.68 21.2214 586.383 20.4141C587.086 19.6068 588.052 19.2031 589.281 19.2031C590.422 19.2031 591.323 19.5495 591.984 20.2422C592.646 20.9349 592.977 21.888 592.977 23.1016V24.0938H587.219C587.245 24.9323 587.471 25.5781 587.898 26.0312C588.326 26.4792 588.927 26.7031 589.703 26.7031C590.214 26.7031 590.688 26.6562 591.125 26.5625C591.568 26.4635 592.042 26.3021 592.547 26.0781V27.5703C592.099 27.7839 591.646 27.9349 591.188 28.0234C590.729 28.112 590.206 28.1562 589.617 28.1562ZM589.281 20.5938C588.698 20.5938 588.229 20.7786 587.875 21.1484C587.526 21.5182 587.318 22.0573 587.25 22.7656H591.172C591.161 22.0521 590.99 21.513 590.656 21.1484C590.323 20.7786 589.865 20.5938 589.281 20.5938ZM597.031 28L593.75 19.3594H595.688L597.445 24.3828C597.747 25.2266 597.93 25.9089 597.992 26.4297H598.055C598.102 26.0547 598.284 25.3724 598.602 24.3828L600.359 19.3594H602.312L599.016 28H597.031ZM607.398 28.1562C606.055 28.1562 605.003 27.7656 604.242 26.9844C603.487 26.1979 603.109 25.1172 603.109 23.7422C603.109 22.3307 603.461 21.2214 604.164 20.4141C604.867 19.6068 605.833 19.2031 607.062 19.2031C608.203 19.2031 609.104 19.5495 609.766 20.2422C610.427 20.9349 610.758 21.888 610.758 23.1016V24.0938H605C605.026 24.9323 605.253 25.5781 605.68 26.0312C606.107 26.4792 606.708 26.7031 607.484 26.7031C607.995 26.7031 608.469 26.6562 608.906 26.5625C609.349 26.4635 609.823 26.3021 610.328 26.0781V27.5703C609.88 27.7839 609.427 27.9349 608.969 28.0234C608.51 28.112 607.987 28.1562 607.398 28.1562ZM607.062 20.5938C606.479 20.5938 606.01 20.7786 605.656 21.1484C605.307 21.5182 605.099 22.0573 605.031 22.7656H608.953C608.943 22.0521 608.771 21.513 608.438 21.1484C608.104 20.7786 607.646 20.5938 607.062 20.5938ZM620.445 28H618.602V22.6875C618.602 22.0208 618.466 21.5234 618.195 21.1953C617.93 20.8672 617.505 20.7031 616.922 20.7031C616.146 20.7031 615.578 20.9323 615.219 21.3906C614.859 21.849 614.68 22.6172 614.68 23.6953V28H612.844V19.3594H614.281L614.539 20.4922H614.633C614.893 20.0807 615.263 19.763 615.742 19.5391C616.221 19.3151 616.753 19.2031 617.336 19.2031C619.409 19.2031 620.445 20.2578 620.445 22.3672V28ZM629.094 28L628.836 26.8672H628.742C628.487 27.2682 628.122 27.5833 627.648 27.8125C627.18 28.0417 626.643 28.1562 626.039 28.1562C624.992 28.1562 624.211 27.8958 623.695 27.375C623.18 26.8542 622.922 26.0651 622.922 25.0078V19.3594H624.773V24.6875C624.773 25.349 624.909 25.8464 625.18 26.1797C625.451 26.5078 625.875 26.6719 626.453 26.6719C627.224 26.6719 627.789 26.4427 628.148 25.9844C628.513 25.5208 628.695 24.7474 628.695 23.6641V19.3594H630.539V28H629.094ZM636.93 28.1562C635.586 28.1562 634.534 27.7656 633.773 26.9844C633.018 26.1979 632.641 25.1172 632.641 23.7422C632.641 22.3307 632.992 21.2214 633.695 20.4141C634.398 19.6068 635.365 19.2031 636.594 19.2031C637.734 19.2031 638.635 19.5495 639.297 20.2422C639.958 20.9349 640.289 21.888 640.289 23.1016V24.0938H634.531C634.557 24.9323 634.784 25.5781 635.211 26.0312C635.638 26.4792 636.24 26.7031 637.016 26.7031C637.526 26.7031 638 26.6562 638.438 26.5625C638.88 26.4635 639.354 26.3021 639.859 26.0781V27.5703C639.411 27.7839 638.958 27.9349 638.5 28.0234C638.042 28.112 637.518 28.1562 636.93 28.1562ZM636.594 20.5938C636.01 20.5938 635.542 20.7786 635.188 21.1484C634.839 21.5182 634.63 22.0573 634.562 22.7656H638.484C638.474 22.0521 638.302 21.513 637.969 21.1484C637.635 20.7786 637.177 20.5938 636.594 20.5938Z" fill="#0A2535"/>
<line x1="386" y1="21.5" x2="442" y2="21.5" stroke="#0A2535"/>
<line x1="414" y1="155.5" x2="442" y2="155.5" stroke="#0A2535"/>
<line x1="413.5" y1="156" x2="413.5" y2="22" stroke="#0A2535"/>
<path d="M464.654 54H463.67L461.941 48.2637C461.859 48.0098 461.768 47.6895 461.666 47.3027C461.564 46.916 461.512 46.6836 461.508 46.6055C461.422 47.1211 461.285 47.6855 461.098 48.2988L459.422 54H458.438L456.158 45.4336H457.213L458.566 50.7246C458.754 51.4668 458.891 52.1387 458.977 52.7402C459.082 52.0254 459.238 51.3262 459.445 50.6426L460.98 45.4336H462.035L463.646 50.6895C463.834 51.2949 463.992 51.9785 464.121 52.7402C464.195 52.1855 464.336 51.5098 464.543 50.7129L465.891 45.4336H466.945L464.654 54ZM469.113 54H468.141V47.5781H469.113V54ZM468.059 45.8379C468.059 45.6152 468.113 45.4531 468.223 45.3516C468.332 45.2461 468.469 45.1934 468.633 45.1934C468.789 45.1934 468.924 45.2461 469.037 45.3516C469.15 45.457 469.207 45.6191 469.207 45.8379C469.207 46.0566 469.15 46.2207 469.037 46.3301C468.924 46.4355 468.789 46.4883 468.633 46.4883C468.469 46.4883 468.332 46.4355 468.223 46.3301C468.113 46.2207 468.059 46.0566 468.059 45.8379ZM473.25 53.3145C473.422 53.3145 473.588 53.3027 473.748 53.2793C473.908 53.252 474.035 53.2246 474.129 53.1973V53.9414C474.023 53.9922 473.867 54.0332 473.66 54.0645C473.457 54.0996 473.273 54.1172 473.109 54.1172C471.867 54.1172 471.246 53.4629 471.246 52.1543V48.334H470.326V47.8652L471.246 47.4609L471.656 46.0898H472.219V47.5781H474.082V48.334H472.219V52.1133C472.219 52.5 472.311 52.7969 472.494 53.0039C472.678 53.2109 472.93 53.3145 473.25 53.3145ZM479.812 54V49.8457C479.812 49.3223 479.693 48.9316 479.455 48.6738C479.217 48.416 478.844 48.2871 478.336 48.2871C477.66 48.2871 477.166 48.4707 476.854 48.8379C476.545 49.2051 476.391 49.8066 476.391 50.6426V54H475.418V44.8828H476.391V47.6426C476.391 47.9746 476.375 48.25 476.344 48.4688H476.402C476.594 48.1602 476.865 47.918 477.217 47.7422C477.572 47.5625 477.977 47.4727 478.43 47.4727C479.215 47.4727 479.803 47.6602 480.193 48.0352C480.588 48.4062 480.785 48.998 480.785 49.8105V54H479.812ZM487.184 54V49.8457C487.184 49.3223 487.064 48.9316 486.826 48.6738C486.588 48.416 486.215 48.2871 485.707 48.2871C485.031 48.2871 484.537 48.4707 484.225 48.8379C483.916 49.2051 483.762 49.8066 483.762 50.6426V54H482.789V44.8828H483.762V47.6426C483.762 47.9746 483.746 48.25 483.715 48.4688H483.773C483.965 48.1602 484.236 47.918 484.588 47.7422C484.943 47.5625 485.348 47.4727 485.801 47.4727C486.586 47.4727 487.174 47.6602 487.564 48.0352C487.959 48.4062 488.156 48.998 488.156 49.8105V54H487.184ZM495.703 50.7832C495.703 51.8301 495.439 52.6484 494.912 53.2383C494.385 53.8242 493.656 54.1172 492.727 54.1172C492.152 54.1172 491.643 53.9824 491.197 53.7129C490.752 53.4434 490.408 53.0566 490.166 52.5527C489.924 52.0488 489.803 51.459 489.803 50.7832C489.803 49.7363 490.064 48.9219 490.588 48.3398C491.111 47.7539 491.838 47.4609 492.768 47.4609C493.666 47.4609 494.379 47.7598 494.906 48.3574C495.438 48.9551 495.703 49.7637 495.703 50.7832ZM490.811 50.7832C490.811 51.6035 490.975 52.2285 491.303 52.6582C491.631 53.0879 492.113 53.3027 492.75 53.3027C493.387 53.3027 493.869 53.0898 494.197 52.6641C494.529 52.2344 494.695 51.6074 494.695 50.7832C494.695 49.9668 494.529 49.3477 494.197 48.9258C493.869 48.5 493.383 48.2871 492.738 48.2871C492.102 48.2871 491.621 48.4961 491.297 48.9141C490.973 49.332 490.811 49.9551 490.811 50.7832ZM498.387 54H497.414V44.8828H498.387V54ZM504.82 53.1387H504.768C504.318 53.791 503.646 54.1172 502.752 54.1172C501.912 54.1172 501.258 53.8301 500.789 53.2559C500.324 52.6816 500.092 51.8652 500.092 50.8066C500.092 49.748 500.326 48.9258 500.795 48.3398C501.264 47.7539 501.916 47.4609 502.752 47.4609C503.623 47.4609 504.291 47.7773 504.756 48.4102H504.832L504.791 47.9473L504.768 47.4961V44.8828H505.74V54H504.949L504.82 53.1387ZM502.875 53.3027C503.539 53.3027 504.02 53.123 504.316 52.7637C504.617 52.4004 504.768 51.8164 504.768 51.0117V50.8066C504.768 49.8965 504.615 49.248 504.311 48.8613C504.01 48.4707 503.527 48.2754 502.863 48.2754C502.293 48.2754 501.855 48.498 501.551 48.9434C501.25 49.3848 501.1 50.0098 501.1 50.8184C501.1 51.6387 501.25 52.2578 501.551 52.6758C501.852 53.0938 502.293 53.3027 502.875 53.3027ZM508.781 54H507.809V47.5781H508.781V54ZM507.727 45.8379C507.727 45.6152 507.781 45.4531 507.891 45.3516C508 45.2461 508.137 45.1934 508.301 45.1934C508.457 45.1934 508.592 45.2461 508.705 45.3516C508.818 45.457 508.875 45.6191 508.875 45.8379C508.875 46.0566 508.818 46.2207 508.705 46.3301C508.592 46.4355 508.457 46.4883 508.301 46.4883C508.137 46.4883 508 46.4355 507.891 46.3301C507.781 46.2207 507.727 46.0566 507.727 45.8379ZM515.238 54V49.8457C515.238 49.3223 515.119 48.9316 514.881 48.6738C514.643 48.416 514.27 48.2871 513.762 48.2871C513.09 48.2871 512.598 48.4688 512.285 48.832C511.973 49.1953 511.816 49.7949 511.816 50.6309V54H510.844V47.5781H511.635L511.793 48.457H511.84C512.039 48.1406 512.318 47.8965 512.678 47.7246C513.037 47.5488 513.438 47.4609 513.879 47.4609C514.652 47.4609 515.234 47.6484 515.625 48.0234C516.016 48.3945 516.211 48.9902 516.211 49.8105V54H515.238ZM523.471 47.5781V48.1934L522.281 48.334C522.391 48.4707 522.488 48.6504 522.574 48.873C522.66 49.0918 522.703 49.3398 522.703 49.6172C522.703 50.2461 522.488 50.748 522.059 51.123C521.629 51.498 521.039 51.6855 520.289 51.6855C520.098 51.6855 519.918 51.6699 519.75 51.6387C519.336 51.8574 519.129 52.1328 519.129 52.4648C519.129 52.6406 519.201 52.7715 519.346 52.8574C519.49 52.9395 519.738 52.9805 520.09 52.9805H521.227C521.922 52.9805 522.455 53.127 522.826 53.4199C523.201 53.7129 523.389 54.1387 523.389 54.6973C523.389 55.4082 523.104 55.9492 522.533 56.3203C521.963 56.6953 521.131 56.8828 520.037 56.8828C519.197 56.8828 518.549 56.7266 518.092 56.4141C517.639 56.1016 517.412 55.6602 517.412 55.0898C517.412 54.6992 517.537 54.3613 517.787 54.0762C518.037 53.791 518.389 53.5977 518.842 53.4961C518.678 53.4219 518.539 53.3066 518.426 53.1504C518.316 52.9941 518.262 52.8125 518.262 52.6055C518.262 52.3711 518.324 52.166 518.449 51.9902C518.574 51.8145 518.771 51.6445 519.041 51.4805C518.709 51.3438 518.438 51.1113 518.227 50.7832C518.02 50.4551 517.916 50.0801 517.916 49.6582C517.916 48.9551 518.127 48.4141 518.549 48.0352C518.971 47.6523 519.568 47.4609 520.342 47.4609C520.678 47.4609 520.98 47.5 521.25 47.5781H523.471ZM518.35 55.0781C518.35 55.4258 518.496 55.6895 518.789 55.8691C519.082 56.0488 519.502 56.1387 520.049 56.1387C520.865 56.1387 521.469 56.0156 521.859 55.7695C522.254 55.5273 522.451 55.1973 522.451 54.7793C522.451 54.4316 522.344 54.1895 522.129 54.0527C521.914 53.9199 521.51 53.8535 520.916 53.8535H519.75C519.309 53.8535 518.965 53.959 518.719 54.1699C518.473 54.3809 518.35 54.6836 518.35 55.0781ZM518.877 49.6348C518.877 50.084 519.004 50.4238 519.258 50.6543C519.512 50.8848 519.865 51 520.318 51C521.268 51 521.742 50.5391 521.742 49.6172C521.742 48.6523 521.262 48.1699 520.301 48.1699C519.844 48.1699 519.492 48.293 519.246 48.5391C519 48.7852 518.877 49.1504 518.877 49.6348ZM530.689 54H529.693V46.3184H526.98V45.4336H533.402V46.3184H530.689V54ZM538.5 54L538.307 53.0859H538.26C537.939 53.4883 537.619 53.7617 537.299 53.9062C536.982 54.0469 536.586 54.1172 536.109 54.1172C535.473 54.1172 534.973 53.9531 534.609 53.625C534.25 53.2969 534.07 52.8301 534.07 52.2246C534.07 50.9277 535.107 50.248 537.182 50.1855L538.271 50.1504V49.752C538.271 49.248 538.162 48.877 537.943 48.6387C537.729 48.3965 537.383 48.2754 536.906 48.2754C536.371 48.2754 535.766 48.4395 535.09 48.7676L534.791 48.0234C535.107 47.8516 535.453 47.7168 535.828 47.6191C536.207 47.5215 536.586 47.4727 536.965 47.4727C537.73 47.4727 538.297 47.6426 538.664 47.9824C539.035 48.3223 539.221 48.8672 539.221 49.6172V54H538.5ZM536.303 53.3145C536.908 53.3145 537.383 53.1484 537.727 52.8164C538.074 52.4844 538.248 52.0195 538.248 51.4219V50.8418L537.275 50.8828C536.502 50.9102 535.943 51.0312 535.6 51.2461C535.26 51.457 535.09 51.7871 535.09 52.2363C535.09 52.5879 535.195 52.8555 535.406 53.0391C535.621 53.2227 535.92 53.3145 536.303 53.3145ZM542.777 50.7129L540.545 47.5781H541.652L543.346 50.0391L545.033 47.5781H546.129L543.896 50.7129L546.246 54H545.145L543.346 51.3984L541.529 54H540.428L542.777 50.7129ZM556.172 54L555.105 51.2754H551.672L550.617 54H549.609L552.996 45.3984H553.834L557.203 54H556.172ZM554.795 50.3789L553.799 47.7246C553.67 47.3887 553.537 46.9766 553.4 46.4883C553.314 46.8633 553.191 47.2754 553.031 47.7246L552.023 50.3789H554.795ZM560.801 54.1172C559.871 54.1172 559.15 53.832 558.639 53.2617C558.131 52.6875 557.877 51.877 557.877 50.8301C557.877 49.7559 558.135 48.9258 558.65 48.3398C559.17 47.7539 559.908 47.4609 560.865 47.4609C561.174 47.4609 561.482 47.4941 561.791 47.5605C562.1 47.627 562.342 47.7051 562.518 47.7949L562.219 48.6211C562.004 48.5352 561.77 48.4648 561.516 48.4102C561.262 48.3516 561.037 48.3223 560.842 48.3223C559.537 48.3223 558.885 49.1543 558.885 50.8184C558.885 51.6074 559.043 52.2129 559.359 52.6348C559.68 53.0566 560.152 53.2676 560.777 53.2676C561.312 53.2676 561.861 53.1523 562.424 52.9219V53.7832C561.994 54.0059 561.453 54.1172 560.801 54.1172ZM566.52 54.1172C565.59 54.1172 564.869 53.832 564.357 53.2617C563.85 52.6875 563.596 51.877 563.596 50.8301C563.596 49.7559 563.854 48.9258 564.369 48.3398C564.889 47.7539 565.627 47.4609 566.584 47.4609C566.893 47.4609 567.201 47.4941 567.51 47.5605C567.818 47.627 568.061 47.7051 568.236 47.7949L567.938 48.6211C567.723 48.5352 567.488 48.4648 567.234 48.4102C566.98 48.3516 566.756 48.3223 566.561 48.3223C565.256 48.3223 564.604 49.1543 564.604 50.8184C564.604 51.6074 564.762 52.2129 565.078 52.6348C565.398 53.0566 565.871 53.2676 566.496 53.2676C567.031 53.2676 567.58 53.1523 568.143 52.9219V53.7832C567.713 54.0059 567.172 54.1172 566.52 54.1172ZM575.215 50.7832C575.215 51.8301 574.951 52.6484 574.424 53.2383C573.896 53.8242 573.168 54.1172 572.238 54.1172C571.664 54.1172 571.154 53.9824 570.709 53.7129C570.264 53.4434 569.92 53.0566 569.678 52.5527C569.436 52.0488 569.314 51.459 569.314 50.7832C569.314 49.7363 569.576 48.9219 570.1 48.3398C570.623 47.7539 571.35 47.4609 572.279 47.4609C573.178 47.4609 573.891 47.7598 574.418 48.3574C574.949 48.9551 575.215 49.7637 575.215 50.7832ZM570.322 50.7832C570.322 51.6035 570.486 52.2285 570.814 52.6582C571.143 53.0879 571.625 53.3027 572.262 53.3027C572.898 53.3027 573.381 53.0898 573.709 52.6641C574.041 52.2344 574.207 51.6074 574.207 50.7832C574.207 49.9668 574.041 49.3477 573.709 48.9258C573.381 48.5 572.895 48.2871 572.25 48.2871C571.613 48.2871 571.133 48.4961 570.809 48.9141C570.484 49.332 570.322 49.9551 570.322 50.7832ZM577.84 47.5781V51.7441C577.84 52.2676 577.959 52.6582 578.197 52.916C578.436 53.1738 578.809 53.3027 579.316 53.3027C579.988 53.3027 580.479 53.1191 580.787 52.752C581.1 52.3848 581.256 51.7852 581.256 50.9531V47.5781H582.229V54H581.426L581.285 53.1387H581.232C581.033 53.4551 580.756 53.6973 580.4 53.8652C580.049 54.0332 579.646 54.1172 579.193 54.1172C578.412 54.1172 577.826 53.9316 577.436 53.5605C577.049 53.1895 576.855 52.5957 576.855 51.7793V47.5781H577.84ZM588.691 54V49.8457C588.691 49.3223 588.572 48.9316 588.334 48.6738C588.096 48.416 587.723 48.2871 587.215 48.2871C586.543 48.2871 586.051 48.4688 585.738 48.832C585.426 49.1953 585.27 49.7949 585.27 50.6309V54H584.297V47.5781H585.088L585.246 48.457H585.293C585.492 48.1406 585.771 47.8965 586.131 47.7246C586.49 47.5488 586.891 47.4609 587.332 47.4609C588.105 47.4609 588.688 47.6484 589.078 48.0234C589.469 48.3945 589.664 48.9902 589.664 49.8105V54H588.691ZM593.742 53.3145C593.914 53.3145 594.08 53.3027 594.24 53.2793C594.4 53.252 594.527 53.2246 594.621 53.1973V53.9414C594.516 53.9922 594.359 54.0332 594.152 54.0645C593.949 54.0996 593.766 54.1172 593.602 54.1172C592.359 54.1172 591.738 53.4629 591.738 52.1543V48.334H590.818V47.8652L591.738 47.4609L592.148 46.0898H592.711V47.5781H594.574V48.334H592.711V52.1133C592.711 52.5 592.803 52.7969 592.986 53.0039C593.17 53.2109 593.422 53.3145 593.742 53.3145Z" fill="#0A2535"/>
<path d="M458.174 76H457.178V67.4336H461.953V68.3184H458.174V71.4531H461.725V72.3379H458.174V76ZM464.203 76H463.23V69.5781H464.203V76ZM463.148 67.8379C463.148 67.6152 463.203 67.4531 463.312 67.3516C463.422 67.2461 463.559 67.1934 463.723 67.1934C463.879 67.1934 464.014 67.2461 464.127 67.3516C464.24 67.457 464.297 67.6191 464.297 67.8379C464.297 68.0566 464.24 68.2207 464.127 68.3301C464.014 68.4355 463.879 68.4883 463.723 68.4883C463.559 68.4883 463.422 68.4355 463.312 68.3301C463.203 68.2207 463.148 68.0566 463.148 67.8379ZM467.238 76H466.266V66.8828H467.238V76ZM470.273 76H469.301V69.5781H470.273V76ZM469.219 67.8379C469.219 67.6152 469.273 67.4531 469.383 67.3516C469.492 67.2461 469.629 67.1934 469.793 67.1934C469.949 67.1934 470.084 67.2461 470.197 67.3516C470.311 67.457 470.367 67.6191 470.367 67.8379C470.367 68.0566 470.311 68.2207 470.197 68.3301C470.084 68.4355 469.949 68.4883 469.793 68.4883C469.629 68.4883 469.492 68.4355 469.383 68.3301C469.273 68.2207 469.219 68.0566 469.219 67.8379ZM476.73 76V71.8457C476.73 71.3223 476.611 70.9316 476.373 70.6738C476.135 70.416 475.762 70.2871 475.254 70.2871C474.582 70.2871 474.09 70.4688 473.777 70.832C473.465 71.1953 473.309 71.7949 473.309 72.6309V76H472.336V69.5781H473.127L473.285 70.457H473.332C473.531 70.1406 473.811 69.8965 474.17 69.7246C474.529 69.5488 474.93 69.4609 475.371 69.4609C476.145 69.4609 476.727 69.6484 477.117 70.0234C477.508 70.3945 477.703 70.9902 477.703 71.8105V76H476.73ZM484.963 69.5781V70.1934L483.773 70.334C483.883 70.4707 483.98 70.6504 484.066 70.873C484.152 71.0918 484.195 71.3398 484.195 71.6172C484.195 72.2461 483.98 72.748 483.551 73.123C483.121 73.498 482.531 73.6855 481.781 73.6855C481.59 73.6855 481.41 73.6699 481.242 73.6387C480.828 73.8574 480.621 74.1328 480.621 74.4648C480.621 74.6406 480.693 74.7715 480.838 74.8574C480.982 74.9395 481.23 74.9805 481.582 74.9805H482.719C483.414 74.9805 483.947 75.127 484.318 75.4199C484.693 75.7129 484.881 76.1387 484.881 76.6973C484.881 77.4082 484.596 77.9492 484.025 78.3203C483.455 78.6953 482.623 78.8828 481.529 78.8828C480.689 78.8828 480.041 78.7266 479.584 78.4141C479.131 78.1016 478.904 77.6602 478.904 77.0898C478.904 76.6992 479.029 76.3613 479.279 76.0762C479.529 75.791 479.881 75.5977 480.334 75.4961C480.17 75.4219 480.031 75.3066 479.918 75.1504C479.809 74.9941 479.754 74.8125 479.754 74.6055C479.754 74.3711 479.816 74.166 479.941 73.9902C480.066 73.8145 480.264 73.6445 480.533 73.4805C480.201 73.3438 479.93 73.1113 479.719 72.7832C479.512 72.4551 479.408 72.0801 479.408 71.6582C479.408 70.9551 479.619 70.4141 480.041 70.0352C480.463 69.6523 481.061 69.4609 481.834 69.4609C482.17 69.4609 482.473 69.5 482.742 69.5781H484.963ZM479.842 77.0781C479.842 77.4258 479.988 77.6895 480.281 77.8691C480.574 78.0488 480.994 78.1387 481.541 78.1387C482.357 78.1387 482.961 78.0156 483.352 77.7695C483.746 77.5273 483.943 77.1973 483.943 76.7793C483.943 76.4316 483.836 76.1895 483.621 76.0527C483.406 75.9199 483.002 75.8535 482.408 75.8535H481.242C480.801 75.8535 480.457 75.959 480.211 76.1699C479.965 76.3809 479.842 76.6836 479.842 77.0781ZM480.369 71.6348C480.369 72.084 480.496 72.4238 480.75 72.6543C481.004 72.8848 481.357 73 481.811 73C482.76 73 483.234 72.5391 483.234 71.6172C483.234 70.6523 482.754 70.1699 481.793 70.1699C481.336 70.1699 480.984 70.293 480.738 70.5391C480.492 70.7852 480.369 71.1504 480.369 71.6348ZM490.541 76H489.545V67.4336H494.32V68.3184H490.541V71.4531H494.092V72.3379H490.541V76ZM498.527 69.4609C498.812 69.4609 499.068 69.4844 499.295 69.5312L499.16 70.4336C498.895 70.375 498.66 70.3457 498.457 70.3457C497.938 70.3457 497.492 70.5566 497.121 70.9785C496.754 71.4004 496.57 71.9258 496.57 72.5547V76H495.598V69.5781H496.4L496.512 70.7676H496.559C496.797 70.3496 497.084 70.0273 497.42 69.8008C497.756 69.5742 498.125 69.4609 498.527 69.4609ZM503.209 76.1172C502.26 76.1172 501.51 75.8281 500.959 75.25C500.412 74.6719 500.139 73.8691 500.139 72.8418C500.139 71.8066 500.393 70.9844 500.9 70.375C501.412 69.7656 502.098 69.4609 502.957 69.4609C503.762 69.4609 504.398 69.7266 504.867 70.2578C505.336 70.7852 505.57 71.4824 505.57 72.3496V72.9648H501.146C501.166 73.7188 501.355 74.291 501.715 74.6816C502.078 75.0723 502.588 75.2676 503.244 75.2676C503.936 75.2676 504.619 75.123 505.295 74.834V75.7012C504.951 75.8496 504.625 75.9551 504.316 76.0176C504.012 76.084 503.643 76.1172 503.209 76.1172ZM502.945 70.2754C502.43 70.2754 502.018 70.4434 501.709 70.7793C501.404 71.1152 501.225 71.5801 501.17 72.1738H504.527C504.527 71.5605 504.391 71.0918 504.117 70.7676C503.844 70.4395 503.453 70.2754 502.945 70.2754ZM509.66 75.3027C510.309 75.3027 510.781 75.1289 511.078 74.7812C511.375 74.4336 511.533 73.8477 511.553 73.0234V72.8066C511.553 71.9082 511.4 71.2617 511.096 70.8672C510.791 70.4727 510.309 70.2754 509.648 70.2754C509.078 70.2754 508.641 70.498 508.336 70.9434C508.035 71.3848 507.885 72.0098 507.885 72.8184C507.885 73.627 508.033 74.2441 508.33 74.6699C508.631 75.0918 509.074 75.3027 509.66 75.3027ZM509.514 76.1172C508.686 76.1172 508.039 75.8262 507.574 75.2441C507.109 74.6621 506.877 73.8496 506.877 72.8066C506.877 71.7559 507.111 70.9355 507.58 70.3457C508.049 69.7559 508.701 69.4609 509.537 69.4609C510.416 69.4609 511.092 69.793 511.564 70.457H511.617L511.758 69.5781H512.525V78.8828H511.553V76.1348C511.553 75.7441 511.574 75.4121 511.617 75.1387H511.541C511.092 75.791 510.416 76.1172 509.514 76.1172ZM515.508 69.5781V73.7441C515.508 74.2676 515.627 74.6582 515.865 74.916C516.104 75.1738 516.477 75.3027 516.984 75.3027C517.656 75.3027 518.146 75.1191 518.455 74.752C518.768 74.3848 518.924 73.7852 518.924 72.9531V69.5781H519.896V76H519.094L518.953 75.1387H518.9C518.701 75.4551 518.424 75.6973 518.068 75.8652C517.717 76.0332 517.314 76.1172 516.861 76.1172C516.08 76.1172 515.494 75.9316 515.104 75.5605C514.717 75.1895 514.523 74.5957 514.523 73.7793V69.5781H515.508ZM524.678 76.1172C523.729 76.1172 522.979 75.8281 522.428 75.25C521.881 74.6719 521.607 73.8691 521.607 72.8418C521.607 71.8066 521.861 70.9844 522.369 70.375C522.881 69.7656 523.566 69.4609 524.426 69.4609C525.23 69.4609 525.867 69.7266 526.336 70.2578C526.805 70.7852 527.039 71.4824 527.039 72.3496V72.9648H522.615C522.635 73.7188 522.824 74.291 523.184 74.6816C523.547 75.0723 524.057 75.2676 524.713 75.2676C525.404 75.2676 526.088 75.123 526.764 74.834V75.7012C526.42 75.8496 526.094 75.9551 525.785 76.0176C525.48 76.084 525.111 76.1172 524.678 76.1172ZM524.414 70.2754C523.898 70.2754 523.486 70.4434 523.178 70.7793C522.873 71.1152 522.693 71.5801 522.639 72.1738H525.996C525.996 71.5605 525.859 71.0918 525.586 70.7676C525.312 70.4395 524.922 70.2754 524.414 70.2754ZM533.098 76V71.8457C533.098 71.3223 532.979 70.9316 532.74 70.6738C532.502 70.416 532.129 70.2871 531.621 70.2871C530.949 70.2871 530.457 70.4688 530.145 70.832C529.832 71.1953 529.676 71.7949 529.676 72.6309V76H528.703V69.5781H529.494L529.652 70.457H529.699C529.898 70.1406 530.178 69.8965 530.537 69.7246C530.896 69.5488 531.297 69.4609 531.738 69.4609C532.512 69.4609 533.094 69.6484 533.484 70.0234C533.875 70.3945 534.07 70.9902 534.07 71.8105V76H533.098ZM538.641 76.1172C537.711 76.1172 536.99 75.832 536.479 75.2617C535.971 74.6875 535.717 73.877 535.717 72.8301C535.717 71.7559 535.975 70.9258 536.49 70.3398C537.01 69.7539 537.748 69.4609 538.705 69.4609C539.014 69.4609 539.322 69.4941 539.631 69.5605C539.939 69.627 540.182 69.7051 540.357 69.7949L540.059 70.6211C539.844 70.5352 539.609 70.4648 539.355 70.4102C539.102 70.3516 538.877 70.3223 538.682 70.3223C537.377 70.3223 536.725 71.1543 536.725 72.8184C536.725 73.6074 536.883 74.2129 537.199 74.6348C537.52 75.0566 537.992 75.2676 538.617 75.2676C539.152 75.2676 539.701 75.1523 540.264 74.9219V75.7832C539.834 76.0059 539.293 76.1172 538.641 76.1172ZM540.773 69.5781H541.816L543.223 73.2402C543.531 74.0762 543.723 74.6797 543.797 75.0508H543.844C543.895 74.8516 544 74.5117 544.16 74.0312C544.324 73.5469 544.855 72.0625 545.754 69.5781H546.797L544.037 76.8906C543.764 77.6133 543.443 78.125 543.076 78.4258C542.713 78.7305 542.266 78.8828 541.734 78.8828C541.438 78.8828 541.145 78.8496 540.855 78.7832V78.0039C541.07 78.0508 541.311 78.0742 541.576 78.0742C542.244 78.0742 542.721 77.6992 543.006 76.9492L543.363 76.0352L540.773 69.5781Z" fill="#0A2535"/>
<rect x="443" y="110" width="339" height="91" fill="white" stroke="#68C6A4" stroke-width="2"/>
<path d="M466.797 131.18C466.797 133.065 466.273 134.508 465.227 135.508C464.18 136.503 462.672 137 460.703 137H457.508V125.578H461.039C462.857 125.578 464.271 126.068 465.281 127.047C466.292 128.026 466.797 129.404 466.797 131.18ZM464.828 131.242C464.828 128.508 463.549 127.141 460.992 127.141H459.375V135.43H460.703C463.453 135.43 464.828 134.034 464.828 131.242ZM472.836 137.156C471.492 137.156 470.44 136.766 469.68 135.984C468.924 135.198 468.547 134.117 468.547 132.742C468.547 131.331 468.898 130.221 469.602 129.414C470.305 128.607 471.271 128.203 472.5 128.203C473.641 128.203 474.542 128.549 475.203 129.242C475.865 129.935 476.195 130.888 476.195 132.102V133.094H470.438C470.464 133.932 470.69 134.578 471.117 135.031C471.544 135.479 472.146 135.703 472.922 135.703C473.432 135.703 473.906 135.656 474.344 135.562C474.786 135.464 475.26 135.302 475.766 135.078V136.57C475.318 136.784 474.865 136.935 474.406 137.023C473.948 137.112 473.424 137.156 472.836 137.156ZM472.5 129.594C471.917 129.594 471.448 129.779 471.094 130.148C470.745 130.518 470.536 131.057 470.469 131.766H474.391C474.38 131.052 474.208 130.513 473.875 130.148C473.542 129.779 473.083 129.594 472.5 129.594ZM482.664 137.156C481.57 137.156 480.721 136.763 480.117 135.977H480.008C480.081 136.706 480.117 137.148 480.117 137.305V140.844H478.281V128.359H479.766C479.807 128.521 479.893 128.906 480.023 129.516H480.117C480.69 128.641 481.549 128.203 482.695 128.203C483.773 128.203 484.612 128.594 485.211 129.375C485.815 130.156 486.117 131.253 486.117 132.664C486.117 134.076 485.81 135.177 485.195 135.969C484.586 136.76 483.742 137.156 482.664 137.156ZM482.219 129.703C481.49 129.703 480.956 129.917 480.617 130.344C480.284 130.771 480.117 131.453 480.117 132.391V132.664C480.117 133.716 480.284 134.479 480.617 134.953C480.951 135.422 481.495 135.656 482.25 135.656C482.885 135.656 483.375 135.396 483.719 134.875C484.062 134.354 484.234 133.612 484.234 132.648C484.234 131.68 484.062 130.948 483.719 130.453C483.38 129.953 482.88 129.703 482.219 129.703ZM493.656 137L493.289 135.797H493.227C492.81 136.323 492.391 136.682 491.969 136.875C491.547 137.062 491.005 137.156 490.344 137.156C489.495 137.156 488.831 136.927 488.352 136.469C487.878 136.01 487.641 135.362 487.641 134.523C487.641 133.633 487.971 132.961 488.633 132.508C489.294 132.055 490.302 131.807 491.656 131.766L493.148 131.719V131.258C493.148 130.706 493.018 130.294 492.758 130.023C492.503 129.747 492.104 129.609 491.562 129.609C491.12 129.609 490.695 129.674 490.289 129.805C489.883 129.935 489.492 130.089 489.117 130.266L488.523 128.953C488.992 128.708 489.505 128.523 490.062 128.398C490.62 128.268 491.146 128.203 491.641 128.203C492.74 128.203 493.568 128.443 494.125 128.922C494.688 129.401 494.969 130.154 494.969 131.18V137H493.656ZM490.922 135.75C491.589 135.75 492.122 135.565 492.523 135.195C492.93 134.82 493.133 134.297 493.133 133.625V132.875L492.023 132.922C491.159 132.953 490.529 133.099 490.133 133.359C489.742 133.615 489.547 134.008 489.547 134.539C489.547 134.924 489.661 135.224 489.891 135.438C490.12 135.646 490.464 135.75 490.922 135.75ZM501.914 128.203C502.284 128.203 502.589 128.229 502.828 128.281L502.648 129.992C502.388 129.93 502.117 129.898 501.836 129.898C501.102 129.898 500.505 130.138 500.047 130.617C499.594 131.096 499.367 131.719 499.367 132.484V137H497.531V128.359H498.969L499.211 129.883H499.305C499.591 129.367 499.964 128.958 500.422 128.656C500.885 128.354 501.383 128.203 501.914 128.203ZM507.656 135.672C508.104 135.672 508.552 135.602 509 135.461V136.844C508.797 136.932 508.534 137.005 508.211 137.062C507.893 137.125 507.562 137.156 507.219 137.156C505.479 137.156 504.609 136.24 504.609 134.406V129.75H503.43V128.938L504.695 128.266L505.32 126.438H506.453V128.359H508.914V129.75H506.453V134.375C506.453 134.818 506.562 135.146 506.781 135.359C507.005 135.568 507.297 135.672 507.656 135.672ZM518.016 137H516.172V131.672C516.172 131.01 516.047 130.518 515.797 130.195C515.547 129.867 515.156 129.703 514.625 129.703C513.917 129.703 513.396 129.935 513.062 130.398C512.734 130.857 512.57 131.622 512.57 132.695V137H510.734V128.359H512.172L512.43 129.492H512.523C512.763 129.081 513.109 128.763 513.562 128.539C514.021 128.315 514.523 128.203 515.07 128.203C516.398 128.203 517.279 128.656 517.711 129.562H517.836C518.091 129.135 518.451 128.802 518.914 128.562C519.378 128.323 519.909 128.203 520.508 128.203C521.539 128.203 522.289 128.464 522.758 128.984C523.232 129.505 523.469 130.299 523.469 131.367V137H521.633V131.672C521.633 131.01 521.505 130.518 521.25 130.195C521 129.867 520.609 129.703 520.078 129.703C519.365 129.703 518.841 129.927 518.508 130.375C518.18 130.818 518.016 131.5 518.016 132.422V137ZM529.805 137.156C528.461 137.156 527.409 136.766 526.648 135.984C525.893 135.198 525.516 134.117 525.516 132.742C525.516 131.331 525.867 130.221 526.57 129.414C527.273 128.607 528.24 128.203 529.469 128.203C530.609 128.203 531.51 128.549 532.172 129.242C532.833 129.935 533.164 130.888 533.164 132.102V133.094H527.406C527.432 133.932 527.659 134.578 528.086 135.031C528.513 135.479 529.115 135.703 529.891 135.703C530.401 135.703 530.875 135.656 531.312 135.562C531.755 135.464 532.229 135.302 532.734 135.078V136.57C532.286 136.784 531.833 136.935 531.375 137.023C530.917 137.112 530.393 137.156 529.805 137.156ZM529.469 129.594C528.885 129.594 528.417 129.779 528.062 130.148C527.714 130.518 527.505 131.057 527.438 131.766H531.359C531.349 131.052 531.177 130.513 530.844 130.148C530.51 129.779 530.052 129.594 529.469 129.594ZM542.852 137H541.008V131.688C541.008 131.021 540.872 130.523 540.602 130.195C540.336 129.867 539.911 129.703 539.328 129.703C538.552 129.703 537.984 129.932 537.625 130.391C537.266 130.849 537.086 131.617 537.086 132.695V137H535.25V128.359H536.688L536.945 129.492H537.039C537.299 129.081 537.669 128.763 538.148 128.539C538.628 128.315 539.159 128.203 539.742 128.203C541.815 128.203 542.852 129.258 542.852 131.367V137ZM548.625 135.672C549.073 135.672 549.521 135.602 549.969 135.461V136.844C549.766 136.932 549.503 137.005 549.18 137.062C548.862 137.125 548.531 137.156 548.188 137.156C546.448 137.156 545.578 136.24 545.578 134.406V129.75H544.398V128.938L545.664 128.266L546.289 126.438H547.422V128.359H549.883V129.75H547.422V134.375C547.422 134.818 547.531 135.146 547.75 135.359C547.974 135.568 548.266 135.672 548.625 135.672ZM563.523 132.664C563.523 134.076 563.161 135.177 562.438 135.969C561.714 136.76 560.706 137.156 559.414 137.156C558.607 137.156 557.893 136.974 557.273 136.609C556.654 136.245 556.177 135.721 555.844 135.039C555.51 134.357 555.344 133.565 555.344 132.664C555.344 131.263 555.703 130.169 556.422 129.383C557.141 128.596 558.154 128.203 559.461 128.203C560.711 128.203 561.701 128.607 562.43 129.414C563.159 130.216 563.523 131.299 563.523 132.664ZM557.234 132.664C557.234 134.659 557.971 135.656 559.445 135.656C560.904 135.656 561.633 134.659 561.633 132.664C561.633 130.69 560.898 129.703 559.43 129.703C558.659 129.703 558.099 129.958 557.75 130.469C557.406 130.979 557.234 131.711 557.234 132.664ZM569.977 129.75H567.867V137H566.023V129.75H564.602V128.891L566.023 128.328V127.766C566.023 126.745 566.263 125.99 566.742 125.5C567.221 125.005 567.953 124.758 568.938 124.758C569.583 124.758 570.219 124.865 570.844 125.078L570.359 126.469C569.906 126.323 569.474 126.25 569.062 126.25C568.646 126.25 568.341 126.38 568.148 126.641C567.961 126.896 567.867 127.281 567.867 127.797V128.359H569.977V129.75ZM575.805 137V125.578H577.672V135.398H582.508V137H575.805ZM589.688 137L589.32 135.797H589.258C588.841 136.323 588.422 136.682 588 136.875C587.578 137.062 587.036 137.156 586.375 137.156C585.526 137.156 584.862 136.927 584.383 136.469C583.909 136.01 583.672 135.362 583.672 134.523C583.672 133.633 584.003 132.961 584.664 132.508C585.326 132.055 586.333 131.807 587.688 131.766L589.18 131.719V131.258C589.18 130.706 589.049 130.294 588.789 130.023C588.534 129.747 588.135 129.609 587.594 129.609C587.151 129.609 586.727 129.674 586.32 129.805C585.914 129.935 585.523 130.089 585.148 130.266L584.555 128.953C585.023 128.708 585.536 128.523 586.094 128.398C586.651 128.268 587.177 128.203 587.672 128.203C588.771 128.203 589.599 128.443 590.156 128.922C590.719 129.401 591 130.154 591 131.18V137H589.688ZM586.953 135.75C587.62 135.75 588.154 135.565 588.555 135.195C588.961 134.82 589.164 134.297 589.164 133.625V132.875L588.055 132.922C587.19 132.953 586.56 133.099 586.164 133.359C585.773 133.615 585.578 134.008 585.578 134.539C585.578 134.924 585.693 135.224 585.922 135.438C586.151 135.646 586.495 135.75 586.953 135.75ZM597.977 128.203C599.055 128.203 599.893 128.594 600.492 129.375C601.096 130.156 601.398 131.253 601.398 132.664C601.398 134.081 601.094 135.185 600.484 135.977C599.875 136.763 599.029 137.156 597.945 137.156C596.852 137.156 596.003 136.763 595.398 135.977H595.273L594.938 137H593.562V124.844H595.398V127.734C595.398 127.948 595.388 128.266 595.367 128.688C595.346 129.109 595.331 129.378 595.32 129.492H595.398C595.982 128.633 596.841 128.203 597.977 128.203ZM597.5 129.703C596.76 129.703 596.227 129.922 595.898 130.359C595.576 130.792 595.409 131.518 595.398 132.539V132.664C595.398 133.716 595.565 134.479 595.898 134.953C596.232 135.422 596.776 135.656 597.531 135.656C598.182 135.656 598.674 135.398 599.008 134.883C599.346 134.367 599.516 133.622 599.516 132.648C599.516 130.685 598.844 129.703 597.5 129.703ZM611.195 132.664C611.195 134.076 610.833 135.177 610.109 135.969C609.385 136.76 608.378 137.156 607.086 137.156C606.279 137.156 605.565 136.974 604.945 136.609C604.326 136.245 603.849 135.721 603.516 135.039C603.182 134.357 603.016 133.565 603.016 132.664C603.016 131.263 603.375 130.169 604.094 129.383C604.812 128.596 605.826 128.203 607.133 128.203C608.383 128.203 609.372 128.607 610.102 129.414C610.831 130.216 611.195 131.299 611.195 132.664ZM604.906 132.664C604.906 134.659 605.643 135.656 607.117 135.656C608.576 135.656 609.305 134.659 609.305 132.664C609.305 130.69 608.57 129.703 607.102 129.703C606.331 129.703 605.771 129.958 605.422 130.469C605.078 130.979 604.906 131.711 604.906 132.664ZM617.695 128.203C618.065 128.203 618.37 128.229 618.609 128.281L618.43 129.992C618.169 129.93 617.898 129.898 617.617 129.898C616.883 129.898 616.286 130.138 615.828 130.617C615.375 131.096 615.148 131.719 615.148 132.484V137H613.312V128.359H614.75L614.992 129.883H615.086C615.372 129.367 615.745 128.958 616.203 128.656C616.667 128.354 617.164 128.203 617.695 128.203ZM629.781 137L629.414 135.797H629.352C628.935 136.323 628.516 136.682 628.094 136.875C627.672 137.062 627.13 137.156 626.469 137.156C625.62 137.156 624.956 136.927 624.477 136.469C624.003 136.01 623.766 135.362 623.766 134.523C623.766 133.633 624.096 132.961 624.758 132.508C625.419 132.055 626.427 131.807 627.781 131.766L629.273 131.719V131.258C629.273 130.706 629.143 130.294 628.883 130.023C628.628 129.747 628.229 129.609 627.688 129.609C627.245 129.609 626.82 129.674 626.414 129.805C626.008 129.935 625.617 130.089 625.242 130.266L624.648 128.953C625.117 128.708 625.63 128.523 626.188 128.398C626.745 128.268 627.271 128.203 627.766 128.203C628.865 128.203 629.693 128.443 630.25 128.922C630.812 129.401 631.094 130.154 631.094 131.18V137H629.781ZM627.047 135.75C627.714 135.75 628.247 135.565 628.648 135.195C629.055 134.82 629.258 134.297 629.258 133.625V132.875L628.148 132.922C627.284 132.953 626.654 133.099 626.258 133.359C625.867 133.615 625.672 134.008 625.672 134.539C625.672 134.924 625.786 135.224 626.016 135.438C626.245 135.646 626.589 135.75 627.047 135.75ZM641.258 137H639.414V131.688C639.414 131.021 639.279 130.523 639.008 130.195C638.742 129.867 638.318 129.703 637.734 129.703C636.958 129.703 636.391 129.932 636.031 130.391C635.672 130.849 635.492 131.617 635.492 132.695V137H633.656V128.359H635.094L635.352 129.492H635.445C635.706 129.081 636.076 128.763 636.555 128.539C637.034 128.315 637.565 128.203 638.148 128.203C640.221 128.203 641.258 129.258 641.258 131.367V137ZM646.727 137.156C645.648 137.156 644.807 136.766 644.203 135.984C643.599 135.203 643.297 134.107 643.297 132.695C643.297 131.279 643.602 130.177 644.211 129.391C644.826 128.599 645.674 128.203 646.758 128.203C647.893 128.203 648.758 128.622 649.352 129.461H649.445C649.357 128.841 649.312 128.352 649.312 127.992V124.844H651.156V137H649.719L649.398 135.867H649.312C648.724 136.727 647.862 137.156 646.727 137.156ZM647.219 135.672C647.974 135.672 648.523 135.461 648.867 135.039C649.211 134.612 649.388 133.922 649.398 132.969V132.711C649.398 131.622 649.221 130.849 648.867 130.391C648.513 129.932 647.958 129.703 647.203 129.703C646.557 129.703 646.06 129.966 645.711 130.492C645.362 131.013 645.188 131.758 645.188 132.727C645.188 133.685 645.357 134.417 645.695 134.922C646.034 135.422 646.542 135.672 647.219 135.672ZM658.133 137V125.578H660V137H658.133ZM670.43 137H668.586V131.688C668.586 131.021 668.451 130.523 668.18 130.195C667.914 129.867 667.49 129.703 666.906 129.703C666.13 129.703 665.562 129.932 665.203 130.391C664.844 130.849 664.664 131.617 664.664 132.695V137H662.828V128.359H664.266L664.523 129.492H664.617C664.878 129.081 665.247 128.763 665.727 128.539C666.206 128.315 666.737 128.203 667.32 128.203C669.393 128.203 670.43 129.258 670.43 131.367V137ZM675.898 137.156C674.82 137.156 673.979 136.766 673.375 135.984C672.771 135.203 672.469 134.107 672.469 132.695C672.469 131.279 672.773 130.177 673.383 129.391C673.997 128.599 674.846 128.203 675.93 128.203C677.065 128.203 677.93 128.622 678.523 129.461H678.617C678.529 128.841 678.484 128.352 678.484 127.992V124.844H680.328V137H678.891L678.57 135.867H678.484C677.896 136.727 677.034 137.156 675.898 137.156ZM676.391 135.672C677.146 135.672 677.695 135.461 678.039 135.039C678.383 134.612 678.56 133.922 678.57 132.969V132.711C678.57 131.622 678.393 130.849 678.039 130.391C677.685 129.932 677.13 129.703 676.375 129.703C675.729 129.703 675.232 129.966 674.883 130.492C674.534 131.013 674.359 131.758 674.359 132.727C674.359 133.685 674.529 134.417 674.867 134.922C675.206 135.422 675.714 135.672 676.391 135.672ZM689.047 137L688.789 135.867H688.695C688.44 136.268 688.076 136.583 687.602 136.812C687.133 137.042 686.596 137.156 685.992 137.156C684.945 137.156 684.164 136.896 683.648 136.375C683.133 135.854 682.875 135.065 682.875 134.008V128.359H684.727V133.688C684.727 134.349 684.862 134.846 685.133 135.18C685.404 135.508 685.828 135.672 686.406 135.672C687.177 135.672 687.742 135.443 688.102 134.984C688.466 134.521 688.648 133.747 688.648 132.664V128.359H690.492V137H689.047ZM698.914 134.539C698.914 135.383 698.607 136.031 697.992 136.484C697.378 136.932 696.497 137.156 695.352 137.156C694.201 137.156 693.276 136.982 692.578 136.633V135.047C693.594 135.516 694.539 135.75 695.414 135.75C696.544 135.75 697.109 135.409 697.109 134.727C697.109 134.508 697.047 134.326 696.922 134.18C696.797 134.034 696.591 133.883 696.305 133.727C696.018 133.57 695.62 133.393 695.109 133.195C694.115 132.81 693.44 132.424 693.086 132.039C692.737 131.654 692.562 131.154 692.562 130.539C692.562 129.799 692.859 129.227 693.453 128.82C694.052 128.409 694.865 128.203 695.891 128.203C696.906 128.203 697.867 128.409 698.773 128.82L698.18 130.203C697.247 129.818 696.464 129.625 695.828 129.625C694.859 129.625 694.375 129.901 694.375 130.453C694.375 130.724 694.5 130.953 694.75 131.141C695.005 131.328 695.557 131.586 696.406 131.914C697.12 132.19 697.638 132.443 697.961 132.672C698.284 132.901 698.523 133.167 698.68 133.469C698.836 133.766 698.914 134.122 698.914 134.539ZM704.125 135.672C704.573 135.672 705.021 135.602 705.469 135.461V136.844C705.266 136.932 705.003 137.005 704.68 137.062C704.362 137.125 704.031 137.156 703.688 137.156C701.948 137.156 701.078 136.24 701.078 134.406V129.75H699.898V128.938L701.164 128.266L701.789 126.438H702.922V128.359H705.383V129.75H702.922V134.375C702.922 134.818 703.031 135.146 703.25 135.359C703.474 135.568 703.766 135.672 704.125 135.672ZM711.586 128.203C711.956 128.203 712.26 128.229 712.5 128.281L712.32 129.992C712.06 129.93 711.789 129.898 711.508 129.898C710.773 129.898 710.177 130.138 709.719 130.617C709.266 131.096 709.039 131.719 709.039 132.484V137H707.203V128.359H708.641L708.883 129.883H708.977C709.263 129.367 709.635 128.958 710.094 128.656C710.557 128.354 711.055 128.203 711.586 128.203ZM712.797 128.359H714.797L716.555 133.258C716.82 133.956 716.997 134.612 717.086 135.227H717.148C717.195 134.94 717.281 134.594 717.406 134.188C717.531 133.776 718.193 131.833 719.391 128.359H721.375L717.68 138.148C717.008 139.945 715.888 140.844 714.32 140.844C713.914 140.844 713.518 140.799 713.133 140.711V139.258C713.409 139.32 713.724 139.352 714.078 139.352C714.964 139.352 715.586 138.839 715.945 137.812L716.266 137L712.797 128.359Z" fill="#0A2535"/>
<path d="M463.646 154.434V159.977C463.646 160.953 463.352 161.721 462.762 162.279C462.172 162.838 461.361 163.117 460.33 163.117C459.299 163.117 458.5 162.836 457.934 162.273C457.371 161.711 457.09 160.938 457.09 159.953V154.434H458.086V160.023C458.086 160.738 458.281 161.287 458.672 161.67C459.062 162.053 459.637 162.244 460.395 162.244C461.117 162.244 461.674 162.053 462.064 161.67C462.455 161.283 462.65 160.73 462.65 160.012V154.434H463.646ZM470.168 163V158.846C470.168 158.322 470.049 157.932 469.811 157.674C469.572 157.416 469.199 157.287 468.691 157.287C468.02 157.287 467.527 157.469 467.215 157.832C466.902 158.195 466.746 158.795 466.746 159.631V163H465.773V156.578H466.564L466.723 157.457H466.77C466.969 157.141 467.248 156.896 467.607 156.725C467.967 156.549 468.367 156.461 468.809 156.461C469.582 156.461 470.164 156.648 470.555 157.023C470.945 157.395 471.141 157.99 471.141 158.811V163H470.168ZM475.857 163.117C474.908 163.117 474.158 162.828 473.607 162.25C473.061 161.672 472.787 160.869 472.787 159.842C472.787 158.807 473.041 157.984 473.549 157.375C474.061 156.766 474.746 156.461 475.605 156.461C476.41 156.461 477.047 156.727 477.516 157.258C477.984 157.785 478.219 158.482 478.219 159.35V159.965H473.795C473.814 160.719 474.004 161.291 474.363 161.682C474.727 162.072 475.236 162.268 475.893 162.268C476.584 162.268 477.268 162.123 477.943 161.834V162.701C477.6 162.85 477.273 162.955 476.965 163.018C476.66 163.084 476.291 163.117 475.857 163.117ZM475.594 157.275C475.078 157.275 474.666 157.443 474.357 157.779C474.053 158.115 473.873 158.58 473.818 159.174H477.176C477.176 158.561 477.039 158.092 476.766 157.768C476.492 157.439 476.102 157.275 475.594 157.275ZM488.068 163V158.822C488.068 158.311 487.959 157.928 487.74 157.674C487.521 157.416 487.182 157.287 486.721 157.287C486.115 157.287 485.668 157.461 485.379 157.809C485.09 158.156 484.945 158.691 484.945 159.414V163H483.973V158.822C483.973 158.311 483.863 157.928 483.645 157.674C483.426 157.416 483.084 157.287 482.619 157.287C482.01 157.287 481.562 157.471 481.277 157.838C480.996 158.201 480.855 158.799 480.855 159.631V163H479.883V156.578H480.674L480.832 157.457H480.879C481.062 157.145 481.32 156.9 481.652 156.725C481.988 156.549 482.363 156.461 482.777 156.461C483.781 156.461 484.438 156.824 484.746 157.551H484.793C484.984 157.215 485.262 156.949 485.625 156.754C485.988 156.559 486.402 156.461 486.867 156.461C487.594 156.461 488.137 156.648 488.496 157.023C488.859 157.395 489.041 157.99 489.041 158.811V163H488.068ZM494.039 163.117C493.621 163.117 493.238 163.041 492.891 162.889C492.547 162.732 492.258 162.494 492.023 162.174H491.953C492 162.549 492.023 162.904 492.023 163.24V165.883H491.051V156.578H491.842L491.977 157.457H492.023C492.273 157.105 492.564 156.852 492.896 156.695C493.229 156.539 493.609 156.461 494.039 156.461C494.891 156.461 495.547 156.752 496.008 157.334C496.473 157.916 496.705 158.732 496.705 159.783C496.705 160.838 496.469 161.658 495.996 162.244C495.527 162.826 494.875 163.117 494.039 163.117ZM493.898 157.287C493.242 157.287 492.768 157.469 492.475 157.832C492.182 158.195 492.031 158.773 492.023 159.566V159.783C492.023 160.686 492.174 161.332 492.475 161.723C492.775 162.109 493.258 162.303 493.922 162.303C494.477 162.303 494.91 162.078 495.223 161.629C495.539 161.18 495.697 160.561 495.697 159.771C495.697 158.971 495.539 158.357 495.223 157.932C494.91 157.502 494.469 157.287 493.898 157.287ZM499.383 163H498.41V153.883H499.383V163ZM506.988 159.783C506.988 160.83 506.725 161.648 506.197 162.238C505.67 162.824 504.941 163.117 504.012 163.117C503.438 163.117 502.928 162.982 502.482 162.713C502.037 162.443 501.693 162.057 501.451 161.553C501.209 161.049 501.088 160.459 501.088 159.783C501.088 158.736 501.35 157.922 501.873 157.34C502.396 156.754 503.123 156.461 504.053 156.461C504.951 156.461 505.664 156.76 506.191 157.357C506.723 157.955 506.988 158.764 506.988 159.783ZM502.096 159.783C502.096 160.604 502.26 161.229 502.588 161.658C502.916 162.088 503.398 162.303 504.035 162.303C504.672 162.303 505.154 162.09 505.482 161.664C505.814 161.234 505.98 160.607 505.98 159.783C505.98 158.967 505.814 158.348 505.482 157.926C505.154 157.5 504.668 157.287 504.023 157.287C503.387 157.287 502.906 157.496 502.582 157.914C502.258 158.332 502.096 158.955 502.096 159.783ZM507.68 156.578H508.723L510.129 160.24C510.438 161.076 510.629 161.68 510.703 162.051H510.75C510.801 161.852 510.906 161.512 511.066 161.031C511.23 160.547 511.762 159.062 512.66 156.578H513.703L510.943 163.891C510.67 164.613 510.35 165.125 509.982 165.426C509.619 165.73 509.172 165.883 508.641 165.883C508.344 165.883 508.051 165.85 507.762 165.783V165.004C507.977 165.051 508.217 165.074 508.482 165.074C509.15 165.074 509.627 164.699 509.912 163.949L510.27 163.035L507.68 156.578ZM522.932 163V158.822C522.932 158.311 522.822 157.928 522.604 157.674C522.385 157.416 522.045 157.287 521.584 157.287C520.979 157.287 520.531 157.461 520.242 157.809C519.953 158.156 519.809 158.691 519.809 159.414V163H518.836V158.822C518.836 158.311 518.727 157.928 518.508 157.674C518.289 157.416 517.947 157.287 517.482 157.287C516.873 157.287 516.426 157.471 516.141 157.838C515.859 158.201 515.719 158.799 515.719 159.631V163H514.746V156.578H515.537L515.695 157.457H515.742C515.926 157.145 516.184 156.9 516.516 156.725C516.852 156.549 517.227 156.461 517.641 156.461C518.645 156.461 519.301 156.824 519.609 157.551H519.656C519.848 157.215 520.125 156.949 520.488 156.754C520.852 156.559 521.266 156.461 521.73 156.461C522.457 156.461 523 156.648 523.359 157.023C523.723 157.395 523.904 157.99 523.904 158.811V163H522.932ZM528.627 163.117C527.678 163.117 526.928 162.828 526.377 162.25C525.83 161.672 525.557 160.869 525.557 159.842C525.557 158.807 525.811 157.984 526.318 157.375C526.83 156.766 527.516 156.461 528.375 156.461C529.18 156.461 529.816 156.727 530.285 157.258C530.754 157.785 530.988 158.482 530.988 159.35V159.965H526.564C526.584 160.719 526.773 161.291 527.133 161.682C527.496 162.072 528.006 162.268 528.662 162.268C529.354 162.268 530.037 162.123 530.713 161.834V162.701C530.369 162.85 530.043 162.955 529.734 163.018C529.43 163.084 529.061 163.117 528.627 163.117ZM528.363 157.275C527.848 157.275 527.436 157.443 527.127 157.779C526.822 158.115 526.643 158.58 526.588 159.174H529.945C529.945 158.561 529.809 158.092 529.535 157.768C529.262 157.439 528.871 157.275 528.363 157.275ZM537.047 163V158.846C537.047 158.322 536.928 157.932 536.689 157.674C536.451 157.416 536.078 157.287 535.57 157.287C534.898 157.287 534.406 157.469 534.094 157.832C533.781 158.195 533.625 158.795 533.625 159.631V163H532.652V156.578H533.443L533.602 157.457H533.648C533.848 157.141 534.127 156.896 534.486 156.725C534.846 156.549 535.246 156.461 535.688 156.461C536.461 156.461 537.043 156.648 537.434 157.023C537.824 157.395 538.02 157.99 538.02 158.811V163H537.047ZM542.098 162.314C542.27 162.314 542.436 162.303 542.596 162.279C542.756 162.252 542.883 162.225 542.977 162.197V162.941C542.871 162.992 542.715 163.033 542.508 163.064C542.305 163.1 542.121 163.117 541.957 163.117C540.715 163.117 540.094 162.463 540.094 161.154V157.334H539.174V156.865L540.094 156.461L540.504 155.09H541.066V156.578H542.93V157.334H541.066V161.113C541.066 161.5 541.158 161.797 541.342 162.004C541.525 162.211 541.777 162.314 542.098 162.314ZM551.197 155.201C550.256 155.201 549.512 155.516 548.965 156.145C548.422 156.77 548.15 157.627 548.15 158.717C548.15 159.838 548.412 160.705 548.936 161.318C549.463 161.928 550.213 162.232 551.186 162.232C551.783 162.232 552.465 162.125 553.23 161.91V162.783C552.637 163.006 551.904 163.117 551.033 163.117C549.771 163.117 548.797 162.734 548.109 161.969C547.426 161.203 547.084 160.115 547.084 158.705C547.084 157.822 547.248 157.049 547.576 156.385C547.908 155.721 548.385 155.209 549.006 154.85C549.631 154.49 550.365 154.311 551.209 154.311C552.107 154.311 552.893 154.475 553.564 154.803L553.143 155.658C552.494 155.354 551.846 155.201 551.197 155.201ZM560.496 159.783C560.496 160.83 560.232 161.648 559.705 162.238C559.178 162.824 558.449 163.117 557.52 163.117C556.945 163.117 556.436 162.982 555.99 162.713C555.545 162.443 555.201 162.057 554.959 161.553C554.717 161.049 554.596 160.459 554.596 159.783C554.596 158.736 554.857 157.922 555.381 157.34C555.904 156.754 556.631 156.461 557.561 156.461C558.459 156.461 559.172 156.76 559.699 157.357C560.23 157.955 560.496 158.764 560.496 159.783ZM555.604 159.783C555.604 160.604 555.768 161.229 556.096 161.658C556.424 162.088 556.906 162.303 557.543 162.303C558.18 162.303 558.662 162.09 558.99 161.664C559.322 161.234 559.488 160.607 559.488 159.783C559.488 158.967 559.322 158.348 558.99 157.926C558.662 157.5 558.176 157.287 557.531 157.287C556.895 157.287 556.414 157.496 556.09 157.914C555.766 158.332 555.604 158.955 555.604 159.783ZM570.393 163V158.822C570.393 158.311 570.283 157.928 570.064 157.674C569.846 157.416 569.506 157.287 569.045 157.287C568.439 157.287 567.992 157.461 567.703 157.809C567.414 158.156 567.27 158.691 567.27 159.414V163H566.297V158.822C566.297 158.311 566.188 157.928 565.969 157.674C565.75 157.416 565.408 157.287 564.943 157.287C564.334 157.287 563.887 157.471 563.602 157.838C563.32 158.201 563.18 158.799 563.18 159.631V163H562.207V156.578H562.998L563.156 157.457H563.203C563.387 157.145 563.645 156.9 563.977 156.725C564.312 156.549 564.688 156.461 565.102 156.461C566.105 156.461 566.762 156.824 567.07 157.551H567.117C567.309 157.215 567.586 156.949 567.949 156.754C568.312 156.559 568.727 156.461 569.191 156.461C569.918 156.461 570.461 156.648 570.82 157.023C571.184 157.395 571.365 157.99 571.365 158.811V163H570.393ZM576.363 163.117C575.945 163.117 575.562 163.041 575.215 162.889C574.871 162.732 574.582 162.494 574.348 162.174H574.277C574.324 162.549 574.348 162.904 574.348 163.24V165.883H573.375V156.578H574.166L574.301 157.457H574.348C574.598 157.105 574.889 156.852 575.221 156.695C575.553 156.539 575.934 156.461 576.363 156.461C577.215 156.461 577.871 156.752 578.332 157.334C578.797 157.916 579.029 158.732 579.029 159.783C579.029 160.838 578.793 161.658 578.32 162.244C577.852 162.826 577.199 163.117 576.363 163.117ZM576.223 157.287C575.566 157.287 575.092 157.469 574.799 157.832C574.506 158.195 574.355 158.773 574.348 159.566V159.783C574.348 160.686 574.498 161.332 574.799 161.723C575.1 162.109 575.582 162.303 576.246 162.303C576.801 162.303 577.234 162.078 577.547 161.629C577.863 161.18 578.021 160.561 578.021 159.771C578.021 158.971 577.863 158.357 577.547 157.932C577.234 157.502 576.793 157.287 576.223 157.287ZM583.447 163.117C582.498 163.117 581.748 162.828 581.197 162.25C580.65 161.672 580.377 160.869 580.377 159.842C580.377 158.807 580.631 157.984 581.139 157.375C581.65 156.766 582.336 156.461 583.195 156.461C584 156.461 584.637 156.727 585.105 157.258C585.574 157.785 585.809 158.482 585.809 159.35V159.965H581.385C581.404 160.719 581.594 161.291 581.953 161.682C582.316 162.072 582.826 162.268 583.482 162.268C584.174 162.268 584.857 162.123 585.533 161.834V162.701C585.189 162.85 584.863 162.955 584.555 163.018C584.25 163.084 583.881 163.117 583.447 163.117ZM583.184 157.275C582.668 157.275 582.256 157.443 581.947 157.779C581.643 158.115 581.463 158.58 581.408 159.174H584.766C584.766 158.561 584.629 158.092 584.355 157.768C584.082 157.439 583.691 157.275 583.184 157.275ZM591.867 163V158.846C591.867 158.322 591.748 157.932 591.51 157.674C591.271 157.416 590.898 157.287 590.391 157.287C589.719 157.287 589.227 157.469 588.914 157.832C588.602 158.195 588.445 158.795 588.445 159.631V163H587.473V156.578H588.264L588.422 157.457H588.469C588.668 157.141 588.947 156.896 589.307 156.725C589.666 156.549 590.066 156.461 590.508 156.461C591.281 156.461 591.863 156.648 592.254 157.023C592.645 157.395 592.84 157.99 592.84 158.811V163H591.867ZM598.986 161.248C598.986 161.846 598.764 162.307 598.318 162.631C597.873 162.955 597.248 163.117 596.443 163.117C595.592 163.117 594.928 162.982 594.451 162.713V161.811C594.76 161.967 595.09 162.09 595.441 162.18C595.797 162.27 596.139 162.314 596.467 162.314C596.975 162.314 597.365 162.234 597.639 162.074C597.912 161.91 598.049 161.662 598.049 161.33C598.049 161.08 597.939 160.867 597.721 160.691C597.506 160.512 597.084 160.301 596.455 160.059C595.857 159.836 595.432 159.643 595.178 159.479C594.928 159.311 594.74 159.121 594.615 158.91C594.494 158.699 594.434 158.447 594.434 158.154C594.434 157.631 594.646 157.219 595.072 156.918C595.498 156.613 596.082 156.461 596.824 156.461C597.516 156.461 598.191 156.602 598.852 156.883L598.506 157.674C597.861 157.408 597.277 157.275 596.754 157.275C596.293 157.275 595.945 157.348 595.711 157.492C595.477 157.637 595.359 157.836 595.359 158.09C595.359 158.262 595.402 158.408 595.488 158.529C595.578 158.65 595.721 158.766 595.916 158.875C596.111 158.984 596.486 159.143 597.041 159.35C597.803 159.627 598.316 159.906 598.582 160.188C598.852 160.469 598.986 160.822 598.986 161.248ZM604.523 163L604.33 162.086H604.283C603.963 162.488 603.643 162.762 603.322 162.906C603.006 163.047 602.609 163.117 602.133 163.117C601.496 163.117 600.996 162.953 600.633 162.625C600.273 162.297 600.094 161.83 600.094 161.225C600.094 159.928 601.131 159.248 603.205 159.186L604.295 159.15V158.752C604.295 158.248 604.186 157.877 603.967 157.639C603.752 157.396 603.406 157.275 602.93 157.275C602.395 157.275 601.789 157.439 601.113 157.768L600.814 157.023C601.131 156.852 601.477 156.717 601.852 156.619C602.23 156.521 602.609 156.473 602.988 156.473C603.754 156.473 604.32 156.643 604.688 156.982C605.059 157.322 605.244 157.867 605.244 158.617V163H604.523ZM602.326 162.314C602.932 162.314 603.406 162.148 603.75 161.816C604.098 161.484 604.271 161.02 604.271 160.422V159.842L603.299 159.883C602.525 159.91 601.967 160.031 601.623 160.246C601.283 160.457 601.113 160.787 601.113 161.236C601.113 161.588 601.219 161.855 601.43 162.039C601.645 162.223 601.943 162.314 602.326 162.314ZM609.328 162.314C609.5 162.314 609.666 162.303 609.826 162.279C609.986 162.252 610.113 162.225 610.207 162.197V162.941C610.102 162.992 609.945 163.033 609.738 163.064C609.535 163.1 609.352 163.117 609.188 163.117C607.945 163.117 607.324 162.463 607.324 161.154V157.334H606.404V156.865L607.324 156.461L607.734 155.09H608.297V156.578H610.16V157.334H608.297V161.113C608.297 161.5 608.389 161.797 608.572 162.004C608.756 162.211 609.008 162.314 609.328 162.314ZM612.469 163H611.496V156.578H612.469V163ZM611.414 154.838C611.414 154.615 611.469 154.453 611.578 154.352C611.688 154.246 611.824 154.193 611.988 154.193C612.145 154.193 612.279 154.246 612.393 154.352C612.506 154.457 612.562 154.619 612.562 154.838C612.562 155.057 612.506 155.221 612.393 155.33C612.279 155.436 612.145 155.488 611.988 155.488C611.824 155.488 611.688 155.436 611.578 155.33C611.469 155.221 611.414 155.057 611.414 154.838ZM620.074 159.783C620.074 160.83 619.811 161.648 619.283 162.238C618.756 162.824 618.027 163.117 617.098 163.117C616.523 163.117 616.014 162.982 615.568 162.713C615.123 162.443 614.779 162.057 614.537 161.553C614.295 161.049 614.174 160.459 614.174 159.783C614.174 158.736 614.436 157.922 614.959 157.34C615.482 156.754 616.209 156.461 617.139 156.461C618.037 156.461 618.75 156.76 619.277 157.357C619.809 157.955 620.074 158.764 620.074 159.783ZM615.182 159.783C615.182 160.604 615.346 161.229 615.674 161.658C616.002 162.088 616.484 162.303 617.121 162.303C617.758 162.303 618.24 162.09 618.568 161.664C618.9 161.234 619.066 160.607 619.066 159.783C619.066 158.967 618.9 158.348 618.568 157.926C618.24 157.5 617.754 157.287 617.109 157.287C616.473 157.287 615.992 157.496 615.668 157.914C615.344 158.332 615.182 158.955 615.182 159.783ZM626.18 163V158.846C626.18 158.322 626.061 157.932 625.822 157.674C625.584 157.416 625.211 157.287 624.703 157.287C624.031 157.287 623.539 157.469 623.227 157.832C622.914 158.195 622.758 158.795 622.758 159.631V163H621.785V156.578H622.576L622.734 157.457H622.781C622.98 157.141 623.26 156.896 623.619 156.725C623.979 156.549 624.379 156.461 624.82 156.461C625.594 156.461 626.176 156.648 626.566 157.023C626.957 157.395 627.152 157.99 627.152 158.811V163H626.18ZM637.805 163L636.738 160.275H633.305L632.25 163H631.242L634.629 154.398H635.467L638.836 163H637.805ZM636.428 159.379L635.432 156.725C635.303 156.389 635.17 155.977 635.033 155.488C634.947 155.863 634.824 156.275 634.664 156.725L633.656 159.379H636.428ZM642.434 163.117C641.504 163.117 640.783 162.832 640.271 162.262C639.764 161.688 639.51 160.877 639.51 159.83C639.51 158.756 639.768 157.926 640.283 157.34C640.803 156.754 641.541 156.461 642.498 156.461C642.807 156.461 643.115 156.494 643.424 156.561C643.732 156.627 643.975 156.705 644.15 156.795L643.852 157.621C643.637 157.535 643.402 157.465 643.148 157.41C642.895 157.352 642.67 157.322 642.475 157.322C641.17 157.322 640.518 158.154 640.518 159.818C640.518 160.607 640.676 161.213 640.992 161.635C641.312 162.057 641.785 162.268 642.41 162.268C642.945 162.268 643.494 162.152 644.057 161.922V162.783C643.627 163.006 643.086 163.117 642.434 163.117ZM648.152 163.117C647.223 163.117 646.502 162.832 645.99 162.262C645.482 161.688 645.229 160.877 645.229 159.83C645.229 158.756 645.486 157.926 646.002 157.34C646.521 156.754 647.26 156.461 648.217 156.461C648.525 156.461 648.834 156.494 649.143 156.561C649.451 156.627 649.693 156.705 649.869 156.795L649.57 157.621C649.355 157.535 649.121 157.465 648.867 157.41C648.613 157.352 648.389 157.322 648.193 157.322C646.889 157.322 646.236 158.154 646.236 159.818C646.236 160.607 646.395 161.213 646.711 161.635C647.031 162.057 647.504 162.268 648.129 162.268C648.664 162.268 649.213 162.152 649.775 161.922V162.783C649.346 163.006 648.805 163.117 648.152 163.117ZM656.848 159.783C656.848 160.83 656.584 161.648 656.057 162.238C655.529 162.824 654.801 163.117 653.871 163.117C653.297 163.117 652.787 162.982 652.342 162.713C651.896 162.443 651.553 162.057 651.311 161.553C651.068 161.049 650.947 160.459 650.947 159.783C650.947 158.736 651.209 157.922 651.732 157.34C652.256 156.754 652.982 156.461 653.912 156.461C654.811 156.461 655.523 156.76 656.051 157.357C656.582 157.955 656.848 158.764 656.848 159.783ZM651.955 159.783C651.955 160.604 652.119 161.229 652.447 161.658C652.775 162.088 653.258 162.303 653.895 162.303C654.531 162.303 655.014 162.09 655.342 161.664C655.674 161.234 655.84 160.607 655.84 159.783C655.84 158.967 655.674 158.348 655.342 157.926C655.014 157.5 654.527 157.287 653.883 157.287C653.246 157.287 652.766 157.496 652.441 157.914C652.117 158.332 651.955 158.955 651.955 159.783ZM659.473 156.578V160.744C659.473 161.268 659.592 161.658 659.83 161.916C660.068 162.174 660.441 162.303 660.949 162.303C661.621 162.303 662.111 162.119 662.42 161.752C662.732 161.385 662.889 160.785 662.889 159.953V156.578H663.861V163H663.059L662.918 162.139H662.865C662.666 162.455 662.389 162.697 662.033 162.865C661.682 163.033 661.279 163.117 660.826 163.117C660.045 163.117 659.459 162.932 659.068 162.561C658.682 162.189 658.488 161.596 658.488 160.779V156.578H659.473ZM670.324 163V158.846C670.324 158.322 670.205 157.932 669.967 157.674C669.729 157.416 669.355 157.287 668.848 157.287C668.176 157.287 667.684 157.469 667.371 157.832C667.059 158.195 666.902 158.795 666.902 159.631V163H665.93V156.578H666.721L666.879 157.457H666.926C667.125 157.141 667.404 156.896 667.764 156.725C668.123 156.549 668.523 156.461 668.965 156.461C669.738 156.461 670.32 156.648 670.711 157.023C671.102 157.395 671.297 157.99 671.297 158.811V163H670.324ZM675.375 162.314C675.547 162.314 675.713 162.303 675.873 162.279C676.033 162.252 676.16 162.225 676.254 162.197V162.941C676.148 162.992 675.992 163.033 675.785 163.064C675.582 163.1 675.398 163.117 675.234 163.117C673.992 163.117 673.371 162.463 673.371 161.154V157.334H672.451V156.865L673.371 156.461L673.781 155.09H674.344V156.578H676.207V157.334H674.344V161.113C674.344 161.5 674.436 161.797 674.619 162.004C674.803 162.211 675.055 162.314 675.375 162.314Z" fill="#0A2535"/>
<path d="M459.814 185H458.818V177.318H456.105V176.434H462.527V177.318H459.814V185ZM469.219 181.783C469.219 182.83 468.955 183.648 468.428 184.238C467.9 184.824 467.172 185.117 466.242 185.117C465.668 185.117 465.158 184.982 464.713 184.713C464.268 184.443 463.924 184.057 463.682 183.553C463.439 183.049 463.318 182.459 463.318 181.783C463.318 180.736 463.58 179.922 464.104 179.34C464.627 178.754 465.354 178.461 466.283 178.461C467.182 178.461 467.895 178.76 468.422 179.357C468.953 179.955 469.219 180.764 469.219 181.783ZM464.326 181.783C464.326 182.604 464.49 183.229 464.818 183.658C465.146 184.088 465.629 184.303 466.266 184.303C466.902 184.303 467.385 184.09 467.713 183.664C468.045 183.234 468.211 182.607 468.211 181.783C468.211 180.967 468.045 180.348 467.713 179.926C467.385 179.5 466.898 179.287 466.254 179.287C465.617 179.287 465.137 179.496 464.812 179.914C464.488 180.332 464.326 180.955 464.326 181.783ZM473.004 184.314C473.176 184.314 473.342 184.303 473.502 184.279C473.662 184.252 473.789 184.225 473.883 184.197V184.941C473.777 184.992 473.621 185.033 473.414 185.064C473.211 185.1 473.027 185.117 472.863 185.117C471.621 185.117 471 184.463 471 183.154V179.334H470.08V178.865L471 178.461L471.41 177.09H471.973V178.578H473.836V179.334H471.973V183.113C471.973 183.5 472.064 183.797 472.248 184.004C472.432 184.211 472.684 184.314 473.004 184.314ZM479.121 185L478.928 184.086H478.881C478.561 184.488 478.24 184.762 477.92 184.906C477.604 185.047 477.207 185.117 476.73 185.117C476.094 185.117 475.594 184.953 475.23 184.625C474.871 184.297 474.691 183.83 474.691 183.225C474.691 181.928 475.729 181.248 477.803 181.186L478.893 181.15V180.752C478.893 180.248 478.783 179.877 478.564 179.639C478.35 179.396 478.004 179.275 477.527 179.275C476.992 179.275 476.387 179.439 475.711 179.768L475.412 179.023C475.729 178.852 476.074 178.717 476.449 178.619C476.828 178.521 477.207 178.473 477.586 178.473C478.352 178.473 478.918 178.643 479.285 178.982C479.656 179.322 479.842 179.867 479.842 180.617V185H479.121ZM476.924 184.314C477.529 184.314 478.004 184.148 478.348 183.816C478.695 183.484 478.869 183.02 478.869 182.422V181.842L477.896 181.883C477.123 181.91 476.564 182.031 476.221 182.246C475.881 182.457 475.711 182.787 475.711 183.236C475.711 183.588 475.816 183.855 476.027 184.039C476.242 184.223 476.541 184.314 476.924 184.314ZM482.824 185H481.852V175.883H482.824V185ZM491.818 177.201C490.877 177.201 490.133 177.516 489.586 178.145C489.043 178.77 488.771 179.627 488.771 180.717C488.771 181.838 489.033 182.705 489.557 183.318C490.084 183.928 490.834 184.232 491.807 184.232C492.404 184.232 493.086 184.125 493.852 183.91V184.783C493.258 185.006 492.525 185.117 491.654 185.117C490.393 185.117 489.418 184.734 488.73 183.969C488.047 183.203 487.705 182.115 487.705 180.705C487.705 179.822 487.869 179.049 488.197 178.385C488.529 177.721 489.006 177.209 489.627 176.85C490.252 176.49 490.986 176.311 491.83 176.311C492.729 176.311 493.514 176.475 494.186 176.803L493.764 177.658C493.115 177.354 492.467 177.201 491.818 177.201ZM501.117 181.783C501.117 182.83 500.854 183.648 500.326 184.238C499.799 184.824 499.07 185.117 498.141 185.117C497.566 185.117 497.057 184.982 496.611 184.713C496.166 184.443 495.822 184.057 495.58 183.553C495.338 183.049 495.217 182.459 495.217 181.783C495.217 180.736 495.479 179.922 496.002 179.34C496.525 178.754 497.252 178.461 498.182 178.461C499.08 178.461 499.793 178.76 500.32 179.357C500.852 179.955 501.117 180.764 501.117 181.783ZM496.225 181.783C496.225 182.604 496.389 183.229 496.717 183.658C497.045 184.088 497.527 184.303 498.164 184.303C498.801 184.303 499.283 184.09 499.611 183.664C499.943 183.234 500.109 182.607 500.109 181.783C500.109 180.967 499.943 180.348 499.611 179.926C499.283 179.5 498.797 179.287 498.152 179.287C497.516 179.287 497.035 179.496 496.711 179.914C496.387 180.332 496.225 180.955 496.225 181.783ZM507.223 185V180.846C507.223 180.322 507.104 179.932 506.865 179.674C506.627 179.416 506.254 179.287 505.746 179.287C505.074 179.287 504.582 179.469 504.27 179.832C503.957 180.195 503.801 180.795 503.801 181.631V185H502.828V178.578H503.619L503.777 179.457H503.824C504.023 179.141 504.303 178.896 504.662 178.725C505.021 178.549 505.422 178.461 505.863 178.461C506.637 178.461 507.219 178.648 507.609 179.023C508 179.395 508.195 179.99 508.195 180.811V185H507.223ZM512.273 184.314C512.445 184.314 512.611 184.303 512.771 184.279C512.932 184.252 513.059 184.225 513.152 184.197V184.941C513.047 184.992 512.891 185.033 512.684 185.064C512.48 185.1 512.297 185.117 512.133 185.117C510.891 185.117 510.27 184.463 510.27 183.154V179.334H509.35V178.865L510.27 178.461L510.68 177.09H511.242V178.578H513.105V179.334H511.242V183.113C511.242 183.5 511.334 183.797 511.518 184.004C511.701 184.211 511.953 184.314 512.273 184.314ZM517.371 178.461C517.656 178.461 517.912 178.484 518.139 178.531L518.004 179.434C517.738 179.375 517.504 179.346 517.301 179.346C516.781 179.346 516.336 179.557 515.965 179.979C515.598 180.4 515.414 180.926 515.414 181.555V185H514.441V178.578H515.244L515.355 179.768H515.402C515.641 179.35 515.928 179.027 516.264 178.801C516.6 178.574 516.969 178.461 517.371 178.461ZM520.312 185H519.34V178.578H520.312V185ZM519.258 176.838C519.258 176.615 519.312 176.453 519.422 176.352C519.531 176.246 519.668 176.193 519.832 176.193C519.988 176.193 520.123 176.246 520.236 176.352C520.35 176.457 520.406 176.619 520.406 176.838C520.406 177.057 520.35 177.221 520.236 177.33C520.123 177.436 519.988 177.488 519.832 177.488C519.668 177.488 519.531 177.436 519.422 177.33C519.312 177.221 519.258 177.057 519.258 176.838ZM525.363 178.473C526.207 178.473 526.861 178.762 527.326 179.34C527.795 179.914 528.029 180.729 528.029 181.783C528.029 182.838 527.793 183.658 527.32 184.244C526.852 184.826 526.199 185.117 525.363 185.117C524.945 185.117 524.562 185.041 524.215 184.889C523.871 184.732 523.582 184.494 523.348 184.174H523.277L523.072 185H522.375V175.883H523.348V178.098C523.348 178.594 523.332 179.039 523.301 179.434H523.348C523.801 178.793 524.473 178.473 525.363 178.473ZM525.223 179.287C524.559 179.287 524.08 179.479 523.787 179.861C523.494 180.24 523.348 180.881 523.348 181.783C523.348 182.686 523.498 183.332 523.799 183.723C524.1 184.109 524.582 184.303 525.246 184.303C525.844 184.303 526.289 184.086 526.582 183.652C526.875 183.215 527.021 182.588 527.021 181.771C527.021 180.936 526.875 180.312 526.582 179.902C526.289 179.492 525.836 179.287 525.223 179.287ZM530.648 178.578V182.744C530.648 183.268 530.768 183.658 531.006 183.916C531.244 184.174 531.617 184.303 532.125 184.303C532.797 184.303 533.287 184.119 533.596 183.752C533.908 183.385 534.064 182.785 534.064 181.953V178.578H535.037V185H534.234L534.094 184.139H534.041C533.842 184.455 533.564 184.697 533.209 184.865C532.857 185.033 532.455 185.117 532.002 185.117C531.221 185.117 530.635 184.932 530.244 184.561C529.857 184.189 529.664 183.596 529.664 182.779V178.578H530.648ZM539.18 184.314C539.352 184.314 539.518 184.303 539.678 184.279C539.838 184.252 539.965 184.225 540.059 184.197V184.941C539.953 184.992 539.797 185.033 539.59 185.064C539.387 185.1 539.203 185.117 539.039 185.117C537.797 185.117 537.176 184.463 537.176 183.154V179.334H536.256V178.865L537.176 178.461L537.586 177.09H538.148V178.578H540.012V179.334H538.148V183.113C538.148 183.5 538.24 183.797 538.424 184.004C538.607 184.211 538.859 184.314 539.18 184.314ZM542.32 185H541.348V178.578H542.32V185ZM541.266 176.838C541.266 176.615 541.32 176.453 541.43 176.352C541.539 176.246 541.676 176.193 541.84 176.193C541.996 176.193 542.131 176.246 542.244 176.352C542.357 176.457 542.414 176.619 542.414 176.838C542.414 177.057 542.357 177.221 542.244 177.33C542.131 177.436 541.996 177.488 541.84 177.488C541.676 177.488 541.539 177.436 541.43 177.33C541.32 177.221 541.266 177.057 541.266 176.838ZM549.926 181.783C549.926 182.83 549.662 183.648 549.135 184.238C548.607 184.824 547.879 185.117 546.949 185.117C546.375 185.117 545.865 184.982 545.42 184.713C544.975 184.443 544.631 184.057 544.389 183.553C544.146 183.049 544.025 182.459 544.025 181.783C544.025 180.736 544.287 179.922 544.811 179.34C545.334 178.754 546.061 178.461 546.99 178.461C547.889 178.461 548.602 178.76 549.129 179.357C549.66 179.955 549.926 180.764 549.926 181.783ZM545.033 181.783C545.033 182.604 545.197 183.229 545.525 183.658C545.854 184.088 546.336 184.303 546.973 184.303C547.609 184.303 548.092 184.09 548.42 183.664C548.752 183.234 548.918 182.607 548.918 181.783C548.918 180.967 548.752 180.348 548.42 179.926C548.092 179.5 547.605 179.287 546.961 179.287C546.324 179.287 545.844 179.496 545.52 179.914C545.195 180.332 545.033 180.955 545.033 181.783ZM556.031 185V180.846C556.031 180.322 555.912 179.932 555.674 179.674C555.436 179.416 555.062 179.287 554.555 179.287C553.883 179.287 553.391 179.469 553.078 179.832C552.766 180.195 552.609 180.795 552.609 181.631V185H551.637V178.578H552.428L552.586 179.457H552.633C552.832 179.141 553.111 178.896 553.471 178.725C553.83 178.549 554.23 178.461 554.672 178.461C555.445 178.461 556.027 178.648 556.418 179.023C556.809 179.395 557.004 179.99 557.004 180.811V185H556.031ZM563.268 181.438V185H562.271V176.434H564.621C565.672 176.434 566.447 176.635 566.947 177.037C567.451 177.439 567.703 178.045 567.703 178.854C567.703 179.986 567.129 180.752 565.98 181.15L568.307 185H567.129L565.055 181.438H563.268ZM563.268 180.582H564.633C565.336 180.582 565.852 180.443 566.18 180.166C566.508 179.885 566.672 179.465 566.672 178.906C566.672 178.34 566.504 177.932 566.168 177.682C565.836 177.432 565.301 177.307 564.562 177.307H563.268V180.582ZM573.492 185L573.299 184.086H573.252C572.932 184.488 572.611 184.762 572.291 184.906C571.975 185.047 571.578 185.117 571.102 185.117C570.465 185.117 569.965 184.953 569.602 184.625C569.242 184.297 569.062 183.83 569.062 183.225C569.062 181.928 570.1 181.248 572.174 181.186L573.264 181.15V180.752C573.264 180.248 573.154 179.877 572.936 179.639C572.721 179.396 572.375 179.275 571.898 179.275C571.363 179.275 570.758 179.439 570.082 179.768L569.783 179.023C570.1 178.852 570.445 178.717 570.82 178.619C571.199 178.521 571.578 178.473 571.957 178.473C572.723 178.473 573.289 178.643 573.656 178.982C574.027 179.322 574.213 179.867 574.213 180.617V185H573.492ZM571.295 184.314C571.9 184.314 572.375 184.148 572.719 183.816C573.066 183.484 573.24 183.02 573.24 182.422V181.842L572.268 181.883C571.494 181.91 570.936 182.031 570.592 182.246C570.252 182.457 570.082 182.787 570.082 183.236C570.082 183.588 570.188 183.855 570.398 184.039C570.613 184.223 570.912 184.314 571.295 184.314ZM578.297 184.314C578.469 184.314 578.635 184.303 578.795 184.279C578.955 184.252 579.082 184.225 579.176 184.197V184.941C579.07 184.992 578.914 185.033 578.707 185.064C578.504 185.1 578.32 185.117 578.156 185.117C576.914 185.117 576.293 184.463 576.293 183.154V179.334H575.373V178.865L576.293 178.461L576.703 177.09H577.266V178.578H579.129V179.334H577.266V183.113C577.266 183.5 577.357 183.797 577.541 184.004C577.725 184.211 577.977 184.314 578.297 184.314ZM583.178 185.117C582.229 185.117 581.479 184.828 580.928 184.25C580.381 183.672 580.107 182.869 580.107 181.842C580.107 180.807 580.361 179.984 580.869 179.375C581.381 178.766 582.066 178.461 582.926 178.461C583.73 178.461 584.367 178.727 584.836 179.258C585.305 179.785 585.539 180.482 585.539 181.35V181.965H581.115C581.135 182.719 581.324 183.291 581.684 183.682C582.047 184.072 582.557 184.268 583.213 184.268C583.904 184.268 584.588 184.123 585.264 183.834V184.701C584.92 184.85 584.594 184.955 584.285 185.018C583.98 185.084 583.611 185.117 583.178 185.117ZM582.914 179.275C582.398 179.275 581.986 179.443 581.678 179.779C581.373 180.115 581.193 180.58 581.139 181.174H584.496C584.496 180.561 584.359 180.092 584.086 179.768C583.812 179.439 583.422 179.275 582.914 179.275Z" fill="#0A2535"/>
</svg>
