<svg width="783" height="218" viewBox="0 0 783 218" fill="none" xmlns="http://www.w3.org/2000/svg">
<rect x="1" y="1" width="163" height="42" fill="white" stroke="#68C6A4" stroke-width="2"/>
<path d="M15.5078 16.5781H18.8984C20.4714 16.5781 21.6068 16.8073 22.3047 17.2656C23.0078 17.724 23.3594 18.4479 23.3594 19.4375C23.3594 20.1042 23.1875 20.6589 22.8438 21.1016C22.5 21.5443 22.0052 21.8229 21.3594 21.9375V22.0156C22.1615 22.1667 22.75 22.4661 23.125 22.9141C23.5052 23.3568 23.6953 23.9583 23.6953 24.7188C23.6953 25.7448 23.3359 26.5495 22.6172 27.1328C21.9036 27.7109 20.9089 28 19.6328 28H15.5078V16.5781ZM17.375 21.2969H19.1719C19.9531 21.2969 20.5234 21.1745 20.8828 20.9297C21.2422 20.6797 21.4219 20.2578 21.4219 19.6641C21.4219 19.1276 21.2266 18.7396 20.8359 18.5C20.4505 18.2604 19.8359 18.1406 18.9922 18.1406H17.375V21.2969ZM17.375 22.8125V26.4297H19.3594C20.1406 26.4297 20.7292 26.2812 21.125 25.9844C21.526 25.6823 21.7266 25.2083 21.7266 24.5625C21.7266 23.9688 21.5234 23.5286 21.1172 23.2422C20.7109 22.9557 20.0938 22.8125 19.2656 22.8125H17.375ZM31.9688 28L31.7109 26.8672H31.6172C31.362 27.2682 30.9974 27.5833 30.5234 27.8125C30.0547 28.0417 29.5182 28.1562 28.9141 28.1562C27.8672 28.1562 27.0859 27.8958 26.5703 27.375C26.0547 26.8542 25.7969 26.0651 25.7969 25.0078V19.3594H27.6484V24.6875C27.6484 25.349 27.7839 25.8464 28.0547 26.1797C28.3255 26.5078 28.75 26.6719 29.3281 26.6719C30.099 26.6719 30.6641 26.4427 31.0234 25.9844C31.388 25.5208 31.5703 24.7474 31.5703 23.6641V19.3594H33.4141V28H31.9688ZM41.8359 25.5391C41.8359 26.3828 41.5286 27.0312 40.9141 27.4844C40.2995 27.9323 39.4193 28.1562 38.2734 28.1562C37.1224 28.1562 36.1979 27.9818 35.5 27.6328V26.0469C36.5156 26.5156 37.4609 26.75 38.3359 26.75C39.4661 26.75 40.0312 26.4089 40.0312 25.7266C40.0312 25.5078 39.9688 25.3255 39.8438 25.1797C39.7188 25.0339 39.513 24.8828 39.2266 24.7266C38.9401 24.5703 38.5417 24.3932 38.0312 24.1953C37.0365 23.8099 36.362 23.4245 36.0078 23.0391C35.6589 22.6536 35.4844 22.1536 35.4844 21.5391C35.4844 20.7995 35.7812 20.2266 36.375 19.8203C36.974 19.4089 37.7865 19.2031 38.8125 19.2031C39.8281 19.2031 40.7891 19.4089 41.6953 19.8203L41.1016 21.2031C40.1693 20.8177 39.3854 20.625 38.75 20.625C37.7812 20.625 37.2969 20.901 37.2969 21.4531C37.2969 21.724 37.4219 21.9531 37.6719 22.1406C37.9271 22.3281 38.4792 22.5859 39.3281 22.9141C40.0417 23.1901 40.5599 23.4427 40.8828 23.6719C41.2057 23.901 41.4453 24.1667 41.6016 24.4688C41.7578 24.7656 41.8359 25.1224 41.8359 25.5391ZM45.6641 28H43.8281V19.3594H45.6641V28ZM43.7188 17.0703C43.7188 16.7422 43.8073 16.4896 43.9844 16.3125C44.1667 16.1354 44.4245 16.0469 44.7578 16.0469C45.0807 16.0469 45.3307 16.1354 45.5078 16.3125C45.6901 16.4896 45.7812 16.7422 45.7812 17.0703C45.7812 17.3828 45.6901 17.6302 45.5078 17.8125C45.3307 17.9896 45.0807 18.0781 44.7578 18.0781C44.4245 18.0781 44.1667 17.9896 43.9844 17.8125C43.8073 17.6302 43.7188 17.3828 43.7188 17.0703ZM55.8984 28H54.0547V22.6875C54.0547 22.0208 53.9193 21.5234 53.6484 21.1953C53.3828 20.8672 52.9583 20.7031 52.375 20.7031C51.599 20.7031 51.0312 20.9323 50.6719 21.3906C50.3125 21.849 50.1328 22.6172 50.1328 23.6953V28H48.2969V19.3594H49.7344L49.9922 20.4922H50.0859C50.3464 20.0807 50.7161 19.763 51.1953 19.5391C51.6745 19.3151 52.2057 19.2031 52.7891 19.2031C54.862 19.2031 55.8984 20.2578 55.8984 22.3672V28ZM62.2266 28.1562C60.8828 28.1562 59.8307 27.7656 59.0703 26.9844C58.3151 26.1979 57.9375 25.1172 57.9375 23.7422C57.9375 22.3307 58.2891 21.2214 58.9922 20.4141C59.6953 19.6068 60.6615 19.2031 61.8906 19.2031C63.0312 19.2031 63.9323 19.5495 64.5938 20.2422C65.2552 20.9349 65.5859 21.888 65.5859 23.1016V24.0938H59.8281C59.8542 24.9323 60.0807 25.5781 60.5078 26.0312C60.9349 26.4792 61.5365 26.7031 62.3125 26.7031C62.8229 26.7031 63.2969 26.6562 63.7344 26.5625C64.1771 26.4635 64.651 26.3021 65.1562 26.0781V27.5703C64.7083 27.7839 64.2552 27.9349 63.7969 28.0234C63.3385 28.112 62.8151 28.1562 62.2266 28.1562ZM61.8906 20.5938C61.3073 20.5938 60.8385 20.7786 60.4844 21.1484C60.1354 21.5182 59.9271 22.0573 59.8594 22.7656H63.7812C63.7708 22.0521 63.599 21.513 63.2656 21.1484C62.9323 20.7786 62.474 20.5938 61.8906 20.5938ZM73.4766 25.5391C73.4766 26.3828 73.1693 27.0312 72.5547 27.4844C71.9401 27.9323 71.0599 28.1562 69.9141 28.1562C68.763 28.1562 67.8385 27.9818 67.1406 27.6328V26.0469C68.1562 26.5156 69.1016 26.75 69.9766 26.75C71.1068 26.75 71.6719 26.4089 71.6719 25.7266C71.6719 25.5078 71.6094 25.3255 71.4844 25.1797C71.3594 25.0339 71.1536 24.8828 70.8672 24.7266C70.5807 24.5703 70.1823 24.3932 69.6719 24.1953C68.6771 23.8099 68.0026 23.4245 67.6484 23.0391C67.2995 22.6536 67.125 22.1536 67.125 21.5391C67.125 20.7995 67.4219 20.2266 68.0156 19.8203C68.6146 19.4089 69.4271 19.2031 70.4531 19.2031C71.4688 19.2031 72.4297 19.4089 73.3359 19.8203L72.7422 21.2031C71.8099 20.8177 71.026 20.625 70.3906 20.625C69.4219 20.625 68.9375 20.901 68.9375 21.4531C68.9375 21.724 69.0625 21.9531 69.3125 22.1406C69.5677 22.3281 70.1198 22.5859 70.9688 22.9141C71.6823 23.1901 72.2005 23.4427 72.5234 23.6719C72.8464 23.901 73.0859 24.1667 73.2422 24.4688C73.3984 24.7656 73.4766 25.1224 73.4766 25.5391ZM81.2734 25.5391C81.2734 26.3828 80.9661 27.0312 80.3516 27.4844C79.737 27.9323 78.8568 28.1562 77.7109 28.1562C76.5599 28.1562 75.6354 27.9818 74.9375 27.6328V26.0469C75.9531 26.5156 76.8984 26.75 77.7734 26.75C78.9036 26.75 79.4688 26.4089 79.4688 25.7266C79.4688 25.5078 79.4062 25.3255 79.2812 25.1797C79.1562 25.0339 78.9505 24.8828 78.6641 24.7266C78.3776 24.5703 77.9792 24.3932 77.4688 24.1953C76.474 23.8099 75.7995 23.4245 75.4453 23.0391C75.0964 22.6536 74.9219 22.1536 74.9219 21.5391C74.9219 20.7995 75.2188 20.2266 75.8125 19.8203C76.4115 19.4089 77.224 19.2031 78.25 19.2031C79.2656 19.2031 80.2266 19.4089 81.1328 19.8203L80.5391 21.2031C79.6068 20.8177 78.8229 20.625 78.1875 20.625C77.2188 20.625 76.7344 20.901 76.7344 21.4531C76.7344 21.724 76.8594 21.9531 77.1094 22.1406C77.3646 22.3281 77.9167 22.5859 78.7656 22.9141C79.4792 23.1901 79.9974 23.4427 80.3203 23.6719C80.6432 23.901 80.8828 24.1667 81.0391 24.4688C81.1953 24.7656 81.2734 25.1224 81.2734 25.5391ZM94.0781 28H87.6172V16.5781H94.0781V18.1562H89.4844V21.2656H93.7891V22.8281H89.4844V26.4141H94.0781V28ZM103.961 28H102.117V22.6875C102.117 22.0208 101.982 21.5234 101.711 21.1953C101.445 20.8672 101.021 20.7031 100.438 20.7031C99.6615 20.7031 99.0938 20.9323 98.7344 21.3906C98.375 21.849 98.1953 22.6172 98.1953 23.6953V28H96.3594V19.3594H97.7969L98.0547 20.4922H98.1484C98.4089 20.0807 98.7786 19.763 99.2578 19.5391C99.737 19.3151 100.268 19.2031 100.852 19.2031C102.924 19.2031 103.961 20.2578 103.961 22.3672V28ZM109.734 26.6719C110.182 26.6719 110.63 26.6016 111.078 26.4609V27.8438C110.875 27.9323 110.612 28.0052 110.289 28.0625C109.971 28.125 109.641 28.1562 109.297 28.1562C107.557 28.1562 106.688 27.2396 106.688 25.4062V20.75H105.508V19.9375L106.773 19.2656L107.398 17.4375H108.531V19.3594H110.992V20.75H108.531V25.375C108.531 25.8177 108.641 26.1458 108.859 26.3594C109.083 26.5677 109.375 26.6719 109.734 26.6719ZM114.648 28H112.812V19.3594H114.648V28ZM112.703 17.0703C112.703 16.7422 112.792 16.4896 112.969 16.3125C113.151 16.1354 113.409 16.0469 113.742 16.0469C114.065 16.0469 114.315 16.1354 114.492 16.3125C114.674 16.4896 114.766 16.7422 114.766 17.0703C114.766 17.3828 114.674 17.6302 114.492 17.8125C114.315 17.9896 114.065 18.0781 113.742 18.0781C113.409 18.0781 113.151 17.9896 112.969 17.8125C112.792 17.6302 112.703 17.3828 112.703 17.0703ZM120.5 26.6719C120.948 26.6719 121.396 26.6016 121.844 26.4609V27.8438C121.641 27.9323 121.378 28.0052 121.055 28.0625C120.737 28.125 120.406 28.1562 120.062 28.1562C118.323 28.1562 117.453 27.2396 117.453 25.4062V20.75H116.273V19.9375L117.539 19.2656L118.164 17.4375H119.297V19.3594H121.758V20.75H119.297V25.375C119.297 25.8177 119.406 26.1458 119.625 26.3594C119.849 26.5677 120.141 26.6719 120.5 26.6719ZM122.266 19.3594H124.266L126.023 24.2578C126.289 24.9557 126.466 25.612 126.555 26.2266H126.617C126.664 25.9401 126.75 25.5938 126.875 25.1875C127 24.776 127.661 22.8333 128.859 19.3594H130.844L127.148 29.1484C126.477 30.9453 125.357 31.8438 123.789 31.8438C123.383 31.8438 122.987 31.7995 122.602 31.7109V30.2578C122.878 30.3203 123.193 30.3516 123.547 30.3516C124.432 30.3516 125.055 29.8385 125.414 28.8125L125.734 28L122.266 19.3594Z" fill="#0A2535"/>
<rect x="222" y="1" width="163" height="42" fill="white" stroke="#68C6A4" stroke-width="2"/>
<path d="M244.07 20.0312C244.07 21.224 243.68 22.138 242.898 22.7734C242.117 23.4089 241.005 23.7266 239.562 23.7266H238.375V28H236.508V16.5781H239.797C241.224 16.5781 242.292 16.8698 243 17.4531C243.714 18.0365 244.07 18.8958 244.07 20.0312ZM238.375 22.1562H239.367C240.326 22.1562 241.029 21.9896 241.477 21.6562C241.924 21.3229 242.148 20.8021 242.148 20.0938C242.148 19.4375 241.948 18.9479 241.547 18.625C241.146 18.3021 240.521 18.1406 239.672 18.1406H238.375V22.1562ZM249.93 28.1562C248.586 28.1562 247.534 27.7656 246.773 26.9844C246.018 26.1979 245.641 25.1172 245.641 23.7422C245.641 22.3307 245.992 21.2214 246.695 20.4141C247.398 19.6068 248.365 19.2031 249.594 19.2031C250.734 19.2031 251.635 19.5495 252.297 20.2422C252.958 20.9349 253.289 21.888 253.289 23.1016V24.0938H247.531C247.557 24.9323 247.784 25.5781 248.211 26.0312C248.638 26.4792 249.24 26.7031 250.016 26.7031C250.526 26.7031 251 26.6562 251.438 26.5625C251.88 26.4635 252.354 26.3021 252.859 26.0781V27.5703C252.411 27.7839 251.958 27.9349 251.5 28.0234C251.042 28.112 250.518 28.1562 249.93 28.1562ZM249.594 20.5938C249.01 20.5938 248.542 20.7786 248.188 21.1484C247.839 21.5182 247.63 22.0573 247.562 22.7656H251.484C251.474 22.0521 251.302 21.513 250.969 21.1484C250.635 20.7786 250.177 20.5938 249.594 20.5938ZM262.977 28H261.133V22.6875C261.133 22.0208 260.997 21.5234 260.727 21.1953C260.461 20.8672 260.036 20.7031 259.453 20.7031C258.677 20.7031 258.109 20.9323 257.75 21.3906C257.391 21.849 257.211 22.6172 257.211 23.6953V28H255.375V19.3594H256.812L257.07 20.4922H257.164C257.424 20.0807 257.794 19.763 258.273 19.5391C258.753 19.3151 259.284 19.2031 259.867 19.2031C261.94 19.2031 262.977 20.2578 262.977 22.3672V28ZM273.133 28H271.289V22.6875C271.289 22.0208 271.154 21.5234 270.883 21.1953C270.617 20.8672 270.193 20.7031 269.609 20.7031C268.833 20.7031 268.266 20.9323 267.906 21.3906C267.547 21.849 267.367 22.6172 267.367 23.6953V28H265.531V19.3594H266.969L267.227 20.4922H267.32C267.581 20.0807 267.951 19.763 268.43 19.5391C268.909 19.3151 269.44 19.2031 270.023 19.2031C272.096 19.2031 273.133 20.2578 273.133 22.3672V28ZM281.492 25.5391C281.492 26.3828 281.185 27.0312 280.57 27.4844C279.956 27.9323 279.076 28.1562 277.93 28.1562C276.779 28.1562 275.854 27.9818 275.156 27.6328V26.0469C276.172 26.5156 277.117 26.75 277.992 26.75C279.122 26.75 279.688 26.4089 279.688 25.7266C279.688 25.5078 279.625 25.3255 279.5 25.1797C279.375 25.0339 279.169 24.8828 278.883 24.7266C278.596 24.5703 278.198 24.3932 277.688 24.1953C276.693 23.8099 276.018 23.4245 275.664 23.0391C275.315 22.6536 275.141 22.1536 275.141 21.5391C275.141 20.7995 275.438 20.2266 276.031 19.8203C276.63 19.4089 277.443 19.2031 278.469 19.2031C279.484 19.2031 280.445 19.4089 281.352 19.8203L280.758 21.2031C279.826 20.8177 279.042 20.625 278.406 20.625C277.438 20.625 276.953 20.901 276.953 21.4531C276.953 21.724 277.078 21.9531 277.328 22.1406C277.583 22.3281 278.135 22.5859 278.984 22.9141C279.698 23.1901 280.216 23.4427 280.539 23.6719C280.862 23.901 281.102 24.1667 281.258 24.4688C281.414 24.7656 281.492 25.1224 281.492 25.5391ZM282.172 19.3594H284.172L285.93 24.2578C286.195 24.9557 286.372 25.612 286.461 26.2266H286.523C286.57 25.9401 286.656 25.5938 286.781 25.1875C286.906 24.776 287.568 22.8333 288.766 19.3594H290.75L287.055 29.1484C286.383 30.9453 285.263 31.8438 283.695 31.8438C283.289 31.8438 282.893 31.7995 282.508 31.7109V30.2578C282.784 30.3203 283.099 30.3516 283.453 30.3516C284.339 30.3516 284.961 29.8385 285.32 28.8125L285.641 28L282.172 19.3594ZM293.898 28H292.062V15.8438H293.898V28ZM298.5 28L295.219 19.3594H297.156L298.914 24.3828C299.216 25.2266 299.398 25.9089 299.461 26.4297H299.523C299.57 26.0547 299.753 25.3724 300.07 24.3828L301.828 19.3594H303.781L300.484 28H298.5ZM310.5 28L310.133 26.7969H310.07C309.654 27.3229 309.234 27.6823 308.812 27.875C308.391 28.0625 307.849 28.1562 307.188 28.1562C306.339 28.1562 305.674 27.9271 305.195 27.4688C304.721 27.0104 304.484 26.362 304.484 25.5234C304.484 24.6328 304.815 23.9609 305.477 23.5078C306.138 23.0547 307.146 22.8073 308.5 22.7656L309.992 22.7188V22.2578C309.992 21.7057 309.862 21.2943 309.602 21.0234C309.346 20.7474 308.948 20.6094 308.406 20.6094C307.964 20.6094 307.539 20.6745 307.133 20.8047C306.727 20.9349 306.336 21.0885 305.961 21.2656L305.367 19.9531C305.836 19.7083 306.349 19.5234 306.906 19.3984C307.464 19.2682 307.99 19.2031 308.484 19.2031C309.583 19.2031 310.411 19.4427 310.969 19.9219C311.531 20.401 311.812 21.1536 311.812 22.1797V28H310.5ZM307.766 26.75C308.432 26.75 308.966 26.5651 309.367 26.1953C309.773 25.8203 309.977 25.2969 309.977 24.625V23.875L308.867 23.9219C308.003 23.9531 307.372 24.099 306.977 24.3594C306.586 24.6146 306.391 25.0078 306.391 25.5391C306.391 25.9245 306.505 26.224 306.734 26.4375C306.964 26.6458 307.307 26.75 307.766 26.75ZM321.977 28H320.133V22.6875C320.133 22.0208 319.997 21.5234 319.727 21.1953C319.461 20.8672 319.036 20.7031 318.453 20.7031C317.677 20.7031 317.109 20.9323 316.75 21.3906C316.391 21.849 316.211 22.6172 316.211 23.6953V28H314.375V19.3594H315.812L316.07 20.4922H316.164C316.424 20.0807 316.794 19.763 317.273 19.5391C317.753 19.3151 318.284 19.2031 318.867 19.2031C320.94 19.2031 321.977 20.2578 321.977 22.3672V28ZM326.367 28H324.531V19.3594H326.367V28ZM324.422 17.0703C324.422 16.7422 324.51 16.4896 324.688 16.3125C324.87 16.1354 325.128 16.0469 325.461 16.0469C325.784 16.0469 326.034 16.1354 326.211 16.3125C326.393 16.4896 326.484 16.7422 326.484 17.0703C326.484 17.3828 326.393 17.6302 326.211 17.8125C326.034 17.9896 325.784 18.0781 325.461 18.0781C325.128 18.0781 324.87 17.9896 324.688 17.8125C324.51 17.6302 324.422 17.3828 324.422 17.0703ZM334.406 28L334.039 26.7969H333.977C333.56 27.3229 333.141 27.6823 332.719 27.875C332.297 28.0625 331.755 28.1562 331.094 28.1562C330.245 28.1562 329.581 27.9271 329.102 27.4688C328.628 27.0104 328.391 26.362 328.391 25.5234C328.391 24.6328 328.721 23.9609 329.383 23.5078C330.044 23.0547 331.052 22.8073 332.406 22.7656L333.898 22.7188V22.2578C333.898 21.7057 333.768 21.2943 333.508 21.0234C333.253 20.7474 332.854 20.6094 332.312 20.6094C331.87 20.6094 331.445 20.6745 331.039 20.8047C330.633 20.9349 330.242 21.0885 329.867 21.2656L329.273 19.9531C329.742 19.7083 330.255 19.5234 330.812 19.3984C331.37 19.2682 331.896 19.2031 332.391 19.2031C333.49 19.2031 334.318 19.4427 334.875 19.9219C335.438 20.401 335.719 21.1536 335.719 22.1797V28H334.406ZM331.672 26.75C332.339 26.75 332.872 26.5651 333.273 26.1953C333.68 25.8203 333.883 25.2969 333.883 24.625V23.875L332.773 23.9219C331.909 23.9531 331.279 24.099 330.883 24.3594C330.492 24.6146 330.297 25.0078 330.297 25.5391C330.297 25.9245 330.411 26.224 330.641 26.4375C330.87 26.6458 331.214 26.75 331.672 26.75Z" fill="#0A2535"/>
<line x1="165" y1="21.5" x2="221" y2="21.5" stroke="#0A2535"/>
<rect x="443" y="1" width="339" height="42" fill="white" stroke="#68C6A4" stroke-width="2"/>
<path d="M468.047 28H466.016L464.078 21.1875C463.995 20.8906 463.891 20.4635 463.766 19.9062C463.641 19.3438 463.565 18.9531 463.539 18.7344C463.487 19.0677 463.401 19.5 463.281 20.0312C463.167 20.5625 463.07 20.9583 462.992 21.2188L461.102 28H459.07L457.594 22.2812L456.094 16.5781H458L459.633 23.2344C459.888 24.3021 460.07 25.2448 460.18 26.0625C460.237 25.6198 460.323 25.125 460.438 24.5781C460.552 24.0312 460.656 23.5885 460.75 23.25L462.609 16.5781H464.461L466.367 23.2812C466.549 23.901 466.742 24.8281 466.945 26.0625C467.023 25.3177 467.211 24.3698 467.508 23.2188L469.133 16.5781H471.023L468.047 28ZM474.289 28H472.453V19.3594H474.289V28ZM472.344 17.0703C472.344 16.7422 472.432 16.4896 472.609 16.3125C472.792 16.1354 473.049 16.0469 473.383 16.0469C473.706 16.0469 473.956 16.1354 474.133 16.3125C474.315 16.4896 474.406 16.7422 474.406 17.0703C474.406 17.3828 474.315 17.6302 474.133 17.8125C473.956 17.9896 473.706 18.0781 473.383 18.0781C473.049 18.0781 472.792 17.9896 472.609 17.8125C472.432 17.6302 472.344 17.3828 472.344 17.0703ZM480.141 26.6719C480.589 26.6719 481.036 26.6016 481.484 26.4609V27.8438C481.281 27.9323 481.018 28.0052 480.695 28.0625C480.378 28.125 480.047 28.1562 479.703 28.1562C477.964 28.1562 477.094 27.2396 477.094 25.4062V20.75H475.914V19.9375L477.18 19.2656L477.805 17.4375H478.938V19.3594H481.398V20.75H478.938V25.375C478.938 25.8177 479.047 26.1458 479.266 26.3594C479.49 26.5677 479.781 26.6719 480.141 26.6719ZM490.82 28H488.977V22.6875C488.977 22.0208 488.841 21.5234 488.57 21.1953C488.305 20.8672 487.88 20.7031 487.297 20.7031C486.526 20.7031 485.958 20.9349 485.594 21.3984C485.234 21.8568 485.055 22.6276 485.055 23.7109V28H483.219V15.8438H485.055V18.9297C485.055 19.4245 485.023 19.9531 484.961 20.5156H485.078C485.328 20.099 485.674 19.776 486.117 19.5469C486.565 19.3177 487.086 19.2031 487.68 19.2031C489.773 19.2031 490.82 20.2578 490.82 22.3672V28ZM500.977 28H499.133V22.6875C499.133 22.0208 498.997 21.5234 498.727 21.1953C498.461 20.8672 498.036 20.7031 497.453 20.7031C496.682 20.7031 496.115 20.9349 495.75 21.3984C495.391 21.8568 495.211 22.6276 495.211 23.7109V28H493.375V15.8438H495.211V18.9297C495.211 19.4245 495.18 19.9531 495.117 20.5156H495.234C495.484 20.099 495.831 19.776 496.273 19.5469C496.721 19.3177 497.242 19.2031 497.836 19.2031C499.93 19.2031 500.977 20.2578 500.977 22.3672V28ZM511.195 23.6641C511.195 25.0755 510.833 26.1771 510.109 26.9688C509.385 27.7604 508.378 28.1562 507.086 28.1562C506.279 28.1562 505.565 27.974 504.945 27.6094C504.326 27.2448 503.849 26.7214 503.516 26.0391C503.182 25.3568 503.016 24.5651 503.016 23.6641C503.016 22.263 503.375 21.1693 504.094 20.3828C504.812 19.5964 505.826 19.2031 507.133 19.2031C508.383 19.2031 509.372 19.6068 510.102 20.4141C510.831 21.2161 511.195 22.2995 511.195 23.6641ZM504.906 23.6641C504.906 25.6589 505.643 26.6562 507.117 26.6562C508.576 26.6562 509.305 25.6589 509.305 23.6641C509.305 21.6901 508.57 20.7031 507.102 20.7031C506.331 20.7031 505.771 20.9583 505.422 21.4688C505.078 21.9792 504.906 22.7109 504.906 23.6641ZM515.148 28H513.312V15.8438H515.148V28ZM520.695 28.1562C519.617 28.1562 518.776 27.7656 518.172 26.9844C517.568 26.2031 517.266 25.1068 517.266 23.6953C517.266 22.2786 517.57 21.1771 518.18 20.3906C518.794 19.599 519.643 19.2031 520.727 19.2031C521.862 19.2031 522.727 19.6224 523.32 20.4609H523.414C523.326 19.8411 523.281 19.3516 523.281 18.9922V15.8438H525.125V28H523.688L523.367 26.8672H523.281C522.693 27.7266 521.831 28.1562 520.695 28.1562ZM521.188 26.6719C521.943 26.6719 522.492 26.4609 522.836 26.0391C523.18 25.612 523.357 24.9219 523.367 23.9688V23.7109C523.367 22.6224 523.19 21.849 522.836 21.3906C522.482 20.9323 521.927 20.7031 521.172 20.7031C520.526 20.7031 520.029 20.9661 519.68 21.4922C519.331 22.013 519.156 22.7578 519.156 23.7266C519.156 24.6849 519.326 25.4167 519.664 25.9219C520.003 26.4219 520.51 26.6719 521.188 26.6719ZM529.586 28H527.75V19.3594H529.586V28ZM527.641 17.0703C527.641 16.7422 527.729 16.4896 527.906 16.3125C528.089 16.1354 528.346 16.0469 528.68 16.0469C529.003 16.0469 529.253 16.1354 529.43 16.3125C529.612 16.4896 529.703 16.7422 529.703 17.0703C529.703 17.3828 529.612 17.6302 529.43 17.8125C529.253 17.9896 529.003 18.0781 528.68 18.0781C528.346 18.0781 528.089 17.9896 527.906 17.8125C527.729 17.6302 527.641 17.3828 527.641 17.0703ZM539.82 28H537.977V22.6875C537.977 22.0208 537.841 21.5234 537.57 21.1953C537.305 20.8672 536.88 20.7031 536.297 20.7031C535.521 20.7031 534.953 20.9323 534.594 21.3906C534.234 21.849 534.055 22.6172 534.055 23.6953V28H532.219V19.3594H533.656L533.914 20.4922H534.008C534.268 20.0807 534.638 19.763 535.117 19.5391C535.596 19.3151 536.128 19.2031 536.711 19.2031C538.784 19.2031 539.82 20.2578 539.82 22.3672V28ZM549.672 19.3594V20.3672L548.195 20.6406C548.331 20.8229 548.443 21.0469 548.531 21.3125C548.62 21.5781 548.664 21.8594 548.664 22.1562C548.664 23.0469 548.357 23.7474 547.742 24.2578C547.128 24.7682 546.281 25.0234 545.203 25.0234C544.927 25.0234 544.677 25.0026 544.453 24.9609C544.057 25.2057 543.859 25.4922 543.859 25.8203C543.859 26.0182 543.951 26.1667 544.133 26.2656C544.32 26.3646 544.661 26.4141 545.156 26.4141H546.664C547.617 26.4141 548.341 26.6172 548.836 27.0234C549.331 27.4297 549.578 28.0156 549.578 28.7812C549.578 29.7604 549.174 30.5156 548.367 31.0469C547.56 31.5781 546.393 31.8438 544.867 31.8438C543.69 31.8438 542.792 31.6354 542.172 31.2188C541.552 30.8021 541.242 30.2083 541.242 29.4375C541.242 28.9062 541.409 28.4583 541.742 28.0938C542.081 27.7344 542.552 27.4844 543.156 27.3438C542.911 27.2396 542.708 27.0729 542.547 26.8438C542.391 26.6094 542.312 26.3646 542.312 26.1094C542.312 25.7865 542.404 25.513 542.586 25.2891C542.768 25.0651 543.039 24.8438 543.398 24.625C542.951 24.4323 542.586 24.1198 542.305 23.6875C542.029 23.25 541.891 22.7396 541.891 22.1562C541.891 21.2188 542.185 20.4922 542.773 19.9766C543.367 19.4609 544.211 19.2031 545.305 19.2031C545.549 19.2031 545.805 19.2214 546.07 19.2578C546.341 19.2891 546.544 19.3229 546.68 19.3594H549.672ZM542.883 29.3438C542.883 29.7396 543.06 30.0443 543.414 30.2578C543.773 30.4714 544.276 30.5781 544.922 30.5781C545.922 30.5781 546.667 30.4349 547.156 30.1484C547.646 29.862 547.891 29.4818 547.891 29.0078C547.891 28.6328 547.755 28.3646 547.484 28.2031C547.219 28.0469 546.721 27.9688 545.992 27.9688H544.602C544.076 27.9688 543.656 28.0911 543.344 28.3359C543.036 28.5859 542.883 28.9219 542.883 29.3438ZM543.672 22.1562C543.672 22.6979 543.81 23.1146 544.086 23.4062C544.367 23.6979 544.768 23.8438 545.289 23.8438C546.352 23.8438 546.883 23.276 546.883 22.1406C546.883 21.5781 546.75 21.1458 546.484 20.8438C546.224 20.5365 545.826 20.3828 545.289 20.3828C544.758 20.3828 544.354 20.5339 544.078 20.8359C543.807 21.138 543.672 21.5781 543.672 22.1562ZM559.578 28H557.711V18.1797H554.352V16.5781H562.938V18.1797H559.578V28ZM569.906 28L569.539 26.7969H569.477C569.06 27.3229 568.641 27.6823 568.219 27.875C567.797 28.0625 567.255 28.1562 566.594 28.1562C565.745 28.1562 565.081 27.9271 564.602 27.4688C564.128 27.0104 563.891 26.362 563.891 25.5234C563.891 24.6328 564.221 23.9609 564.883 23.5078C565.544 23.0547 566.552 22.8073 567.906 22.7656L569.398 22.7188V22.2578C569.398 21.7057 569.268 21.2943 569.008 21.0234C568.753 20.7474 568.354 20.6094 567.812 20.6094C567.37 20.6094 566.945 20.6745 566.539 20.8047C566.133 20.9349 565.742 21.0885 565.367 21.2656L564.773 19.9531C565.242 19.7083 565.755 19.5234 566.312 19.3984C566.87 19.2682 567.396 19.2031 567.891 19.2031C568.99 19.2031 569.818 19.4427 570.375 19.9219C570.938 20.401 571.219 21.1536 571.219 22.1797V28H569.906ZM567.172 26.75C567.839 26.75 568.372 26.5651 568.773 26.1953C569.18 25.8203 569.383 25.2969 569.383 24.625V23.875L568.273 23.9219C567.409 23.9531 566.779 24.099 566.383 24.3594C565.992 24.6146 565.797 25.0078 565.797 25.5391C565.797 25.9245 565.911 26.224 566.141 26.4375C566.37 26.6458 566.714 26.75 567.172 26.75ZM575.703 23.5859L572.805 19.3594H574.898L576.867 22.3828L578.852 19.3594H580.93L578.023 23.5859L581.078 28H579L576.867 24.7656L574.742 28H572.664L575.703 23.5859ZM594.031 28L592.891 24.8281H588.523L587.406 28H585.438L589.711 16.5312H591.742L596.016 28H594.031ZM592.398 23.2188L591.328 20.1094C591.25 19.901 591.141 19.5729 591 19.125C590.865 18.6771 590.771 18.349 590.719 18.1406C590.578 18.7812 590.372 19.4818 590.102 20.2422L589.07 23.2188H592.398ZM600.812 28.1562C599.505 28.1562 598.51 27.776 597.828 27.0156C597.151 26.25 596.812 25.1536 596.812 23.7266C596.812 22.2734 597.167 21.1562 597.875 20.375C598.589 19.5938 599.617 19.2031 600.961 19.2031C601.872 19.2031 602.693 19.3724 603.422 19.7109L602.867 21.1875C602.091 20.8854 601.451 20.7344 600.945 20.7344C599.451 20.7344 598.703 21.7266 598.703 23.7109C598.703 24.6797 598.888 25.4089 599.258 25.8984C599.633 26.3828 600.18 26.625 600.898 26.625C601.716 26.625 602.49 26.4219 603.219 26.0156V27.6172C602.891 27.8099 602.539 27.9479 602.164 28.0312C601.794 28.1146 601.344 28.1562 600.812 28.1562ZM608.734 28.1562C607.427 28.1562 606.432 27.776 605.75 27.0156C605.073 26.25 604.734 25.1536 604.734 23.7266C604.734 22.2734 605.089 21.1562 605.797 20.375C606.51 19.5938 607.539 19.2031 608.883 19.2031C609.794 19.2031 610.615 19.3724 611.344 19.7109L610.789 21.1875C610.013 20.8854 609.372 20.7344 608.867 20.7344C607.372 20.7344 606.625 21.7266 606.625 23.7109C606.625 24.6797 606.81 25.4089 607.18 25.8984C607.555 26.3828 608.102 26.625 608.82 26.625C609.638 26.625 610.411 26.4219 611.141 26.0156V27.6172C610.812 27.8099 610.461 27.9479 610.086 28.0312C609.716 28.1146 609.266 28.1562 608.734 28.1562ZM620.836 23.6641C620.836 25.0755 620.474 26.1771 619.75 26.9688C619.026 27.7604 618.018 28.1562 616.727 28.1562C615.919 28.1562 615.206 27.974 614.586 27.6094C613.966 27.2448 613.49 26.7214 613.156 26.0391C612.823 25.3568 612.656 24.5651 612.656 23.6641C612.656 22.263 613.016 21.1693 613.734 20.3828C614.453 19.5964 615.466 19.2031 616.773 19.2031C618.023 19.2031 619.013 19.6068 619.742 20.4141C620.471 21.2161 620.836 22.2995 620.836 23.6641ZM614.547 23.6641C614.547 25.6589 615.284 26.6562 616.758 26.6562C618.216 26.6562 618.945 25.6589 618.945 23.6641C618.945 21.6901 618.211 20.7031 616.742 20.7031C615.971 20.7031 615.411 20.9583 615.062 21.4688C614.719 21.9792 614.547 22.7109 614.547 23.6641ZM629.047 28L628.789 26.8672H628.695C628.44 27.2682 628.076 27.5833 627.602 27.8125C627.133 28.0417 626.596 28.1562 625.992 28.1562C624.945 28.1562 624.164 27.8958 623.648 27.375C623.133 26.8542 622.875 26.0651 622.875 25.0078V19.3594H624.727V24.6875C624.727 25.349 624.862 25.8464 625.133 26.1797C625.404 26.5078 625.828 26.6719 626.406 26.6719C627.177 26.6719 627.742 26.4427 628.102 25.9844C628.466 25.5208 628.648 24.7474 628.648 23.6641V19.3594H630.492V28H629.047ZM640.711 28H638.867V22.6875C638.867 22.0208 638.732 21.5234 638.461 21.1953C638.195 20.8672 637.771 20.7031 637.188 20.7031C636.411 20.7031 635.844 20.9323 635.484 21.3906C635.125 21.849 634.945 22.6172 634.945 23.6953V28H633.109V19.3594H634.547L634.805 20.4922H634.898C635.159 20.0807 635.529 19.763 636.008 19.5391C636.487 19.3151 637.018 19.2031 637.602 19.2031C639.674 19.2031 640.711 20.2578 640.711 22.3672V28ZM646.484 26.6719C646.932 26.6719 647.38 26.6016 647.828 26.4609V27.8438C647.625 27.9323 647.362 28.0052 647.039 28.0625C646.721 28.125 646.391 28.1562 646.047 28.1562C644.307 28.1562 643.438 27.2396 643.438 25.4062V20.75H642.258V19.9375L643.523 19.2656L644.148 17.4375H645.281V19.3594H647.742V20.75H645.281V25.375C645.281 25.8177 645.391 26.1458 645.609 26.3594C645.833 26.5677 646.125 26.6719 646.484 26.6719Z" fill="#0A2535"/>
<rect x="443" y="59" width="339" height="42" fill="white" stroke="#68C6A4" stroke-width="2"/>
<path d="M459.359 86H457.508V74.5781H463.953V76.1562H459.359V79.7266H463.664V81.3125H459.359V86ZM467.664 86H465.828V77.3594H467.664V86ZM465.719 75.0703C465.719 74.7422 465.807 74.4896 465.984 74.3125C466.167 74.1354 466.424 74.0469 466.758 74.0469C467.081 74.0469 467.331 74.1354 467.508 74.3125C467.69 74.4896 467.781 74.7422 467.781 75.0703C467.781 75.3828 467.69 75.6302 467.508 75.8125C467.331 75.9896 467.081 76.0781 466.758 76.0781C466.424 76.0781 466.167 75.9896 465.984 75.8125C465.807 75.6302 465.719 75.3828 465.719 75.0703ZM472.133 86H470.297V73.8438H472.133V86ZM476.602 86H474.766V77.3594H476.602V86ZM474.656 75.0703C474.656 74.7422 474.745 74.4896 474.922 74.3125C475.104 74.1354 475.362 74.0469 475.695 74.0469C476.018 74.0469 476.268 74.1354 476.445 74.3125C476.628 74.4896 476.719 74.7422 476.719 75.0703C476.719 75.3828 476.628 75.6302 476.445 75.8125C476.268 75.9896 476.018 76.0781 475.695 76.0781C475.362 76.0781 475.104 75.9896 474.922 75.8125C474.745 75.6302 474.656 75.3828 474.656 75.0703ZM486.836 86H484.992V80.6875C484.992 80.0208 484.857 79.5234 484.586 79.1953C484.32 78.8672 483.896 78.7031 483.312 78.7031C482.536 78.7031 481.969 78.9323 481.609 79.3906C481.25 79.849 481.07 80.6172 481.07 81.6953V86H479.234V77.3594H480.672L480.93 78.4922H481.023C481.284 78.0807 481.654 77.763 482.133 77.5391C482.612 77.3151 483.143 77.2031 483.727 77.2031C485.799 77.2031 486.836 78.2578 486.836 80.3672V86ZM496.688 77.3594V78.3672L495.211 78.6406C495.346 78.8229 495.458 79.0469 495.547 79.3125C495.635 79.5781 495.68 79.8594 495.68 80.1562C495.68 81.0469 495.372 81.7474 494.758 82.2578C494.143 82.7682 493.297 83.0234 492.219 83.0234C491.943 83.0234 491.693 83.0026 491.469 82.9609C491.073 83.2057 490.875 83.4922 490.875 83.8203C490.875 84.0182 490.966 84.1667 491.148 84.2656C491.336 84.3646 491.677 84.4141 492.172 84.4141H493.68C494.633 84.4141 495.357 84.6172 495.852 85.0234C496.346 85.4297 496.594 86.0156 496.594 86.7812C496.594 87.7604 496.19 88.5156 495.383 89.0469C494.576 89.5781 493.409 89.8438 491.883 89.8438C490.706 89.8438 489.807 89.6354 489.188 89.2188C488.568 88.8021 488.258 88.2083 488.258 87.4375C488.258 86.9062 488.424 86.4583 488.758 86.0938C489.096 85.7344 489.568 85.4844 490.172 85.3438C489.927 85.2396 489.724 85.0729 489.562 84.8438C489.406 84.6094 489.328 84.3646 489.328 84.1094C489.328 83.7865 489.419 83.513 489.602 83.2891C489.784 83.0651 490.055 82.8438 490.414 82.625C489.966 82.4323 489.602 82.1198 489.32 81.6875C489.044 81.25 488.906 80.7396 488.906 80.1562C488.906 79.2188 489.201 78.4922 489.789 77.9766C490.383 77.4609 491.227 77.2031 492.32 77.2031C492.565 77.2031 492.82 77.2214 493.086 77.2578C493.357 77.2891 493.56 77.3229 493.695 77.3594H496.688ZM489.898 87.3438C489.898 87.7396 490.076 88.0443 490.43 88.2578C490.789 88.4714 491.292 88.5781 491.938 88.5781C492.938 88.5781 493.682 88.4349 494.172 88.1484C494.661 87.862 494.906 87.4818 494.906 87.0078C494.906 86.6328 494.771 86.3646 494.5 86.2031C494.234 86.0469 493.737 85.9688 493.008 85.9688H491.617C491.091 85.9688 490.672 86.0911 490.359 86.3359C490.052 86.5859 489.898 86.9219 489.898 87.3438ZM490.688 80.1562C490.688 80.6979 490.826 81.1146 491.102 81.4062C491.383 81.6979 491.784 81.8438 492.305 81.8438C493.367 81.8438 493.898 81.276 493.898 80.1406C493.898 79.5781 493.766 79.1458 493.5 78.8438C493.24 78.5365 492.841 78.3828 492.305 78.3828C491.773 78.3828 491.37 78.5339 491.094 78.8359C490.823 79.138 490.688 79.5781 490.688 80.1562ZM504.5 86H502.648V74.5781H509.094V76.1562H504.5V79.7266H508.805V81.3125H504.5V86ZM515.352 77.2031C515.721 77.2031 516.026 77.2292 516.266 77.2812L516.086 78.9922C515.826 78.9297 515.555 78.8984 515.273 78.8984C514.539 78.8984 513.943 79.138 513.484 79.6172C513.031 80.0964 512.805 80.7188 512.805 81.4844V86H510.969V77.3594H512.406L512.648 78.8828H512.742C513.029 78.3672 513.401 77.9583 513.859 77.6562C514.323 77.3542 514.82 77.2031 515.352 77.2031ZM521.648 86.1562C520.305 86.1562 519.253 85.7656 518.492 84.9844C517.737 84.1979 517.359 83.1172 517.359 81.7422C517.359 80.3307 517.711 79.2214 518.414 78.4141C519.117 77.6068 520.083 77.2031 521.312 77.2031C522.453 77.2031 523.354 77.5495 524.016 78.2422C524.677 78.9349 525.008 79.888 525.008 81.1016V82.0938H519.25C519.276 82.9323 519.503 83.5781 519.93 84.0312C520.357 84.4792 520.958 84.7031 521.734 84.7031C522.245 84.7031 522.719 84.6562 523.156 84.5625C523.599 84.4635 524.073 84.3021 524.578 84.0781V85.5703C524.13 85.7839 523.677 85.9349 523.219 86.0234C522.76 86.112 522.237 86.1562 521.648 86.1562ZM521.312 78.5938C520.729 78.5938 520.26 78.7786 519.906 79.1484C519.557 79.5182 519.349 80.0573 519.281 80.7656H523.203C523.193 80.0521 523.021 79.513 522.688 79.1484C522.354 78.7786 521.896 78.5938 521.312 78.5938ZM530.516 84.6875C531.286 84.6875 531.839 84.4661 532.172 84.0234C532.51 83.5755 532.68 82.901 532.68 82V81.7109C532.68 80.6432 532.505 79.875 532.156 79.4062C531.812 78.9375 531.255 78.7031 530.484 78.7031C529.828 78.7031 529.328 78.9635 528.984 79.4844C528.641 80.0052 528.469 80.7526 528.469 81.7266C528.469 83.7005 529.151 84.6875 530.516 84.6875ZM529.992 86.1562C528.924 86.1562 528.089 85.7656 527.484 84.9844C526.88 84.1979 526.578 83.1016 526.578 81.6953C526.578 80.2891 526.885 79.1901 527.5 78.3984C528.115 77.6016 528.961 77.2031 530.039 77.2031C530.581 77.2031 531.065 77.3047 531.492 77.5078C531.924 77.7057 532.31 78.0339 532.648 78.4922H532.711L532.914 77.3594H534.438V89.8438H532.594V86.1797C532.594 85.9505 532.604 85.7083 532.625 85.4531C532.646 85.1979 532.664 85.0026 532.68 84.8672H532.578C532.036 85.7266 531.174 86.1562 529.992 86.1562ZM543.156 86L542.898 84.8672H542.805C542.549 85.2682 542.185 85.5833 541.711 85.8125C541.242 86.0417 540.706 86.1562 540.102 86.1562C539.055 86.1562 538.273 85.8958 537.758 85.375C537.242 84.8542 536.984 84.0651 536.984 83.0078V77.3594H538.836V82.6875C538.836 83.349 538.971 83.8464 539.242 84.1797C539.513 84.5078 539.938 84.6719 540.516 84.6719C541.286 84.6719 541.852 84.4427 542.211 83.9844C542.576 83.5208 542.758 82.7474 542.758 81.6641V77.3594H544.602V86H543.156ZM550.992 86.1562C549.648 86.1562 548.596 85.7656 547.836 84.9844C547.081 84.1979 546.703 83.1172 546.703 81.7422C546.703 80.3307 547.055 79.2214 547.758 78.4141C548.461 77.6068 549.427 77.2031 550.656 77.2031C551.797 77.2031 552.698 77.5495 553.359 78.2422C554.021 78.9349 554.352 79.888 554.352 81.1016V82.0938H548.594C548.62 82.9323 548.846 83.5781 549.273 84.0312C549.701 84.4792 550.302 84.7031 551.078 84.7031C551.589 84.7031 552.062 84.6562 552.5 84.5625C552.943 84.4635 553.417 84.3021 553.922 84.0781V85.5703C553.474 85.7839 553.021 85.9349 552.562 86.0234C552.104 86.112 551.581 86.1562 550.992 86.1562ZM550.656 78.5938C550.073 78.5938 549.604 78.7786 549.25 79.1484C548.901 79.5182 548.693 80.0573 548.625 80.7656H552.547C552.536 80.0521 552.365 79.513 552.031 79.1484C551.698 78.7786 551.24 78.5938 550.656 78.5938ZM564.039 86H562.195V80.6875C562.195 80.0208 562.06 79.5234 561.789 79.1953C561.523 78.8672 561.099 78.7031 560.516 78.7031C559.74 78.7031 559.172 78.9323 558.812 79.3906C558.453 79.849 558.273 80.6172 558.273 81.6953V86H556.438V77.3594H557.875L558.133 78.4922H558.227C558.487 78.0807 558.857 77.763 559.336 77.5391C559.815 77.3151 560.346 77.2031 560.93 77.2031C563.003 77.2031 564.039 78.2578 564.039 80.3672V86ZM570.078 86.1562C568.771 86.1562 567.776 85.776 567.094 85.0156C566.417 84.25 566.078 83.1536 566.078 81.7266C566.078 80.2734 566.432 79.1562 567.141 78.375C567.854 77.5938 568.883 77.2031 570.227 77.2031C571.138 77.2031 571.958 77.3724 572.688 77.7109L572.133 79.1875C571.357 78.8854 570.716 78.7344 570.211 78.7344C568.716 78.7344 567.969 79.7266 567.969 81.7109C567.969 82.6797 568.154 83.4089 568.523 83.8984C568.898 84.3828 569.445 84.625 570.164 84.625C570.982 84.625 571.755 84.4219 572.484 84.0156V85.6172C572.156 85.8099 571.805 85.9479 571.43 86.0312C571.06 86.1146 570.609 86.1562 570.078 86.1562ZM573.203 77.3594H575.203L576.961 82.2578C577.227 82.9557 577.404 83.612 577.492 84.2266H577.555C577.602 83.9401 577.688 83.5938 577.812 83.1875C577.938 82.776 578.599 80.8333 579.797 77.3594H581.781L578.086 87.1484C577.414 88.9453 576.294 89.8438 574.727 89.8438C574.32 89.8438 573.924 89.7995 573.539 89.7109V88.2578C573.815 88.3203 574.13 88.3516 574.484 88.3516C575.37 88.3516 575.992 87.8385 576.352 86.8125L576.672 86L573.203 77.3594Z" fill="#0A2535"/>
<line x1="386" y1="21.5" x2="442" y2="21.5" stroke="#0A2535"/>
<line x1="414" y1="81.5" x2="442" y2="81.5" stroke="#0A2535"/>
<rect x="443" y="117" width="339" height="42" fill="white" stroke="#68C6A4" stroke-width="2"/>
<path d="M466.461 132.578V139.969C466.461 140.812 466.279 141.552 465.914 142.188C465.555 142.818 465.031 143.305 464.344 143.648C463.661 143.987 462.844 144.156 461.891 144.156C460.474 144.156 459.372 143.781 458.586 143.031C457.799 142.281 457.406 141.25 457.406 139.938V132.578H459.281V139.805C459.281 140.747 459.5 141.443 459.938 141.891C460.375 142.339 461.047 142.562 461.953 142.562C463.714 142.562 464.594 141.638 464.594 139.789V132.578H466.461ZM476.789 144H474.945V138.688C474.945 138.021 474.81 137.523 474.539 137.195C474.273 136.867 473.849 136.703 473.266 136.703C472.49 136.703 471.922 136.932 471.562 137.391C471.203 137.849 471.023 138.617 471.023 139.695V144H469.188V135.359H470.625L470.883 136.492H470.977C471.237 136.081 471.607 135.763 472.086 135.539C472.565 135.315 473.096 135.203 473.68 135.203C475.753 135.203 476.789 136.258 476.789 138.367V144ZM483.117 144.156C481.773 144.156 480.721 143.766 479.961 142.984C479.206 142.198 478.828 141.117 478.828 139.742C478.828 138.331 479.18 137.221 479.883 136.414C480.586 135.607 481.552 135.203 482.781 135.203C483.922 135.203 484.823 135.549 485.484 136.242C486.146 136.935 486.477 137.888 486.477 139.102V140.094H480.719C480.745 140.932 480.971 141.578 481.398 142.031C481.826 142.479 482.427 142.703 483.203 142.703C483.714 142.703 484.188 142.656 484.625 142.562C485.068 142.464 485.542 142.302 486.047 142.078V143.57C485.599 143.784 485.146 143.935 484.688 144.023C484.229 144.112 483.706 144.156 483.117 144.156ZM482.781 136.594C482.198 136.594 481.729 136.779 481.375 137.148C481.026 137.518 480.818 138.057 480.75 138.766H484.672C484.661 138.052 484.49 137.513 484.156 137.148C483.823 136.779 483.365 136.594 482.781 136.594ZM495.844 144H494V138.672C494 138.01 493.875 137.518 493.625 137.195C493.375 136.867 492.984 136.703 492.453 136.703C491.745 136.703 491.224 136.935 490.891 137.398C490.562 137.857 490.398 138.622 490.398 139.695V144H488.562V135.359H490L490.258 136.492H490.352C490.591 136.081 490.938 135.763 491.391 135.539C491.849 135.315 492.352 135.203 492.898 135.203C494.227 135.203 495.107 135.656 495.539 136.562H495.664C495.919 136.135 496.279 135.802 496.742 135.562C497.206 135.323 497.737 135.203 498.336 135.203C499.367 135.203 500.117 135.464 500.586 135.984C501.06 136.505 501.297 137.299 501.297 138.367V144H499.461V138.672C499.461 138.01 499.333 137.518 499.078 137.195C498.828 136.867 498.438 136.703 497.906 136.703C497.193 136.703 496.669 136.927 496.336 137.375C496.008 137.818 495.844 138.5 495.844 139.422V144ZM508.242 144.156C507.148 144.156 506.299 143.763 505.695 142.977H505.586C505.659 143.706 505.695 144.148 505.695 144.305V147.844H503.859V135.359H505.344C505.385 135.521 505.471 135.906 505.602 136.516H505.695C506.268 135.641 507.128 135.203 508.273 135.203C509.352 135.203 510.19 135.594 510.789 136.375C511.393 137.156 511.695 138.253 511.695 139.664C511.695 141.076 511.388 142.177 510.773 142.969C510.164 143.76 509.32 144.156 508.242 144.156ZM507.797 136.703C507.068 136.703 506.534 136.917 506.195 137.344C505.862 137.771 505.695 138.453 505.695 139.391V139.664C505.695 140.716 505.862 141.479 506.195 141.953C506.529 142.422 507.073 142.656 507.828 142.656C508.464 142.656 508.953 142.396 509.297 141.875C509.641 141.354 509.812 140.612 509.812 139.648C509.812 138.68 509.641 137.948 509.297 137.453C508.958 136.953 508.458 136.703 507.797 136.703ZM515.664 144H513.828V131.844H515.664V144ZM525.961 139.664C525.961 141.076 525.599 142.177 524.875 142.969C524.151 143.76 523.143 144.156 521.852 144.156C521.044 144.156 520.331 143.974 519.711 143.609C519.091 143.245 518.615 142.721 518.281 142.039C517.948 141.357 517.781 140.565 517.781 139.664C517.781 138.263 518.141 137.169 518.859 136.383C519.578 135.596 520.591 135.203 521.898 135.203C523.148 135.203 524.138 135.607 524.867 136.414C525.596 137.216 525.961 138.299 525.961 139.664ZM519.672 139.664C519.672 141.659 520.409 142.656 521.883 142.656C523.341 142.656 524.07 141.659 524.07 139.664C524.07 137.69 523.336 136.703 521.867 136.703C521.096 136.703 520.536 136.958 520.188 137.469C519.844 137.979 519.672 138.711 519.672 139.664ZM526.766 135.359H528.766L530.523 140.258C530.789 140.956 530.966 141.612 531.055 142.227H531.117C531.164 141.94 531.25 141.594 531.375 141.188C531.5 140.776 532.161 138.833 533.359 135.359H535.344L531.648 145.148C530.977 146.945 529.857 147.844 528.289 147.844C527.883 147.844 527.487 147.799 527.102 147.711V146.258C527.378 146.32 527.693 146.352 528.047 146.352C528.932 146.352 529.555 145.839 529.914 144.812L530.234 144L526.766 135.359ZM543.938 144H542.094V138.672C542.094 138.01 541.969 137.518 541.719 137.195C541.469 136.867 541.078 136.703 540.547 136.703C539.839 136.703 539.318 136.935 538.984 137.398C538.656 137.857 538.492 138.622 538.492 139.695V144H536.656V135.359H538.094L538.352 136.492H538.445C538.685 136.081 539.031 135.763 539.484 135.539C539.943 135.315 540.445 135.203 540.992 135.203C542.32 135.203 543.201 135.656 543.633 136.562H543.758C544.013 136.135 544.372 135.802 544.836 135.562C545.299 135.323 545.831 135.203 546.43 135.203C547.461 135.203 548.211 135.464 548.68 135.984C549.154 136.505 549.391 137.299 549.391 138.367V144H547.555V138.672C547.555 138.01 547.427 137.518 547.172 137.195C546.922 136.867 546.531 136.703 546 136.703C545.286 136.703 544.763 136.927 544.43 137.375C544.102 137.818 543.938 138.5 543.938 139.422V144ZM555.727 144.156C554.383 144.156 553.331 143.766 552.57 142.984C551.815 142.198 551.438 141.117 551.438 139.742C551.438 138.331 551.789 137.221 552.492 136.414C553.195 135.607 554.161 135.203 555.391 135.203C556.531 135.203 557.432 135.549 558.094 136.242C558.755 136.935 559.086 137.888 559.086 139.102V140.094H553.328C553.354 140.932 553.581 141.578 554.008 142.031C554.435 142.479 555.036 142.703 555.812 142.703C556.323 142.703 556.797 142.656 557.234 142.562C557.677 142.464 558.151 142.302 558.656 142.078V143.57C558.208 143.784 557.755 143.935 557.297 144.023C556.839 144.112 556.315 144.156 555.727 144.156ZM555.391 136.594C554.807 136.594 554.339 136.779 553.984 137.148C553.635 137.518 553.427 138.057 553.359 138.766H557.281C557.271 138.052 557.099 137.513 556.766 137.148C556.432 136.779 555.974 136.594 555.391 136.594ZM568.773 144H566.93V138.688C566.93 138.021 566.794 137.523 566.523 137.195C566.258 136.867 565.833 136.703 565.25 136.703C564.474 136.703 563.906 136.932 563.547 137.391C563.188 137.849 563.008 138.617 563.008 139.695V144H561.172V135.359H562.609L562.867 136.492H562.961C563.221 136.081 563.591 135.763 564.07 135.539C564.549 135.315 565.081 135.203 565.664 135.203C567.737 135.203 568.773 136.258 568.773 138.367V144ZM574.547 142.672C574.995 142.672 575.443 142.602 575.891 142.461V143.844C575.688 143.932 575.424 144.005 575.102 144.062C574.784 144.125 574.453 144.156 574.109 144.156C572.37 144.156 571.5 143.24 571.5 141.406V136.75H570.32V135.938L571.586 135.266L572.211 133.438H573.344V135.359H575.805V136.75H573.344V141.375C573.344 141.818 573.453 142.146 573.672 142.359C573.896 142.568 574.188 142.672 574.547 142.672ZM586.836 134.016C585.763 134.016 584.919 134.396 584.305 135.156C583.69 135.917 583.383 136.966 583.383 138.305C583.383 139.706 583.677 140.766 584.266 141.484C584.859 142.203 585.716 142.562 586.836 142.562C587.32 142.562 587.789 142.516 588.242 142.422C588.695 142.323 589.167 142.198 589.656 142.047V143.648C588.76 143.987 587.745 144.156 586.609 144.156C584.938 144.156 583.654 143.651 582.758 142.641C581.862 141.625 581.414 140.174 581.414 138.289C581.414 137.102 581.63 136.062 582.062 135.172C582.5 134.281 583.13 133.599 583.953 133.125C584.776 132.651 585.742 132.414 586.852 132.414C588.018 132.414 589.096 132.659 590.086 133.148L589.414 134.703C589.029 134.521 588.62 134.362 588.188 134.227C587.76 134.086 587.31 134.016 586.836 134.016ZM599.586 139.664C599.586 141.076 599.224 142.177 598.5 142.969C597.776 143.76 596.768 144.156 595.477 144.156C594.669 144.156 593.956 143.974 593.336 143.609C592.716 143.245 592.24 142.721 591.906 142.039C591.573 141.357 591.406 140.565 591.406 139.664C591.406 138.263 591.766 137.169 592.484 136.383C593.203 135.596 594.216 135.203 595.523 135.203C596.773 135.203 597.763 135.607 598.492 136.414C599.221 137.216 599.586 138.299 599.586 139.664ZM593.297 139.664C593.297 141.659 594.034 142.656 595.508 142.656C596.966 142.656 597.695 141.659 597.695 139.664C597.695 137.69 596.961 136.703 595.492 136.703C594.721 136.703 594.161 136.958 593.812 137.469C593.469 137.979 593.297 138.711 593.297 139.664ZM608.984 144H607.141V138.672C607.141 138.01 607.016 137.518 606.766 137.195C606.516 136.867 606.125 136.703 605.594 136.703C604.885 136.703 604.365 136.935 604.031 137.398C603.703 137.857 603.539 138.622 603.539 139.695V144H601.703V135.359H603.141L603.398 136.492H603.492C603.732 136.081 604.078 135.763 604.531 135.539C604.99 135.315 605.492 135.203 606.039 135.203C607.367 135.203 608.247 135.656 608.68 136.562H608.805C609.06 136.135 609.419 135.802 609.883 135.562C610.346 135.323 610.878 135.203 611.477 135.203C612.508 135.203 613.258 135.464 613.727 135.984C614.201 136.505 614.438 137.299 614.438 138.367V144H612.602V138.672C612.602 138.01 612.474 137.518 612.219 137.195C611.969 136.867 611.578 136.703 611.047 136.703C610.333 136.703 609.81 136.927 609.477 137.375C609.148 137.818 608.984 138.5 608.984 139.422V144ZM621.383 144.156C620.289 144.156 619.44 143.763 618.836 142.977H618.727C618.799 143.706 618.836 144.148 618.836 144.305V147.844H617V135.359H618.484C618.526 135.521 618.612 135.906 618.742 136.516H618.836C619.409 135.641 620.268 135.203 621.414 135.203C622.492 135.203 623.331 135.594 623.93 136.375C624.534 137.156 624.836 138.253 624.836 139.664C624.836 141.076 624.529 142.177 623.914 142.969C623.305 143.76 622.461 144.156 621.383 144.156ZM620.938 136.703C620.208 136.703 619.674 136.917 619.336 137.344C619.003 137.771 618.836 138.453 618.836 139.391V139.664C618.836 140.716 619.003 141.479 619.336 141.953C619.669 142.422 620.214 142.656 620.969 142.656C621.604 142.656 622.094 142.396 622.438 141.875C622.781 141.354 622.953 140.612 622.953 139.648C622.953 138.68 622.781 137.948 622.438 137.453C622.099 136.953 621.599 136.703 620.938 136.703ZM630.742 144.156C629.398 144.156 628.346 143.766 627.586 142.984C626.831 142.198 626.453 141.117 626.453 139.742C626.453 138.331 626.805 137.221 627.508 136.414C628.211 135.607 629.177 135.203 630.406 135.203C631.547 135.203 632.448 135.549 633.109 136.242C633.771 136.935 634.102 137.888 634.102 139.102V140.094H628.344C628.37 140.932 628.596 141.578 629.023 142.031C629.451 142.479 630.052 142.703 630.828 142.703C631.339 142.703 631.812 142.656 632.25 142.562C632.693 142.464 633.167 142.302 633.672 142.078V143.57C633.224 143.784 632.771 143.935 632.312 144.023C631.854 144.112 631.331 144.156 630.742 144.156ZM630.406 136.594C629.823 136.594 629.354 136.779 629 137.148C628.651 137.518 628.443 138.057 628.375 138.766H632.297C632.286 138.052 632.115 137.513 631.781 137.148C631.448 136.779 630.99 136.594 630.406 136.594ZM643.789 144H641.945V138.688C641.945 138.021 641.81 137.523 641.539 137.195C641.273 136.867 640.849 136.703 640.266 136.703C639.49 136.703 638.922 136.932 638.562 137.391C638.203 137.849 638.023 138.617 638.023 139.695V144H636.188V135.359H637.625L637.883 136.492H637.977C638.237 136.081 638.607 135.763 639.086 135.539C639.565 135.315 640.096 135.203 640.68 135.203C642.753 135.203 643.789 136.258 643.789 138.367V144ZM652.148 141.539C652.148 142.383 651.841 143.031 651.227 143.484C650.612 143.932 649.732 144.156 648.586 144.156C647.435 144.156 646.51 143.982 645.812 143.633V142.047C646.828 142.516 647.773 142.75 648.648 142.75C649.779 142.75 650.344 142.409 650.344 141.727C650.344 141.508 650.281 141.326 650.156 141.18C650.031 141.034 649.826 140.883 649.539 140.727C649.253 140.57 648.854 140.393 648.344 140.195C647.349 139.81 646.674 139.424 646.32 139.039C645.971 138.654 645.797 138.154 645.797 137.539C645.797 136.799 646.094 136.227 646.688 135.82C647.286 135.409 648.099 135.203 649.125 135.203C650.141 135.203 651.102 135.409 652.008 135.82L651.414 137.203C650.482 136.818 649.698 136.625 649.062 136.625C648.094 136.625 647.609 136.901 647.609 137.453C647.609 137.724 647.734 137.953 647.984 138.141C648.24 138.328 648.792 138.586 649.641 138.914C650.354 139.19 650.872 139.443 651.195 139.672C651.518 139.901 651.758 140.167 651.914 140.469C652.07 140.766 652.148 141.122 652.148 141.539ZM659.547 144L659.18 142.797H659.117C658.701 143.323 658.281 143.682 657.859 143.875C657.438 144.062 656.896 144.156 656.234 144.156C655.385 144.156 654.721 143.927 654.242 143.469C653.768 143.01 653.531 142.362 653.531 141.523C653.531 140.633 653.862 139.961 654.523 139.508C655.185 139.055 656.193 138.807 657.547 138.766L659.039 138.719V138.258C659.039 137.706 658.909 137.294 658.648 137.023C658.393 136.747 657.995 136.609 657.453 136.609C657.01 136.609 656.586 136.674 656.18 136.805C655.773 136.935 655.383 137.089 655.008 137.266L654.414 135.953C654.883 135.708 655.396 135.523 655.953 135.398C656.51 135.268 657.036 135.203 657.531 135.203C658.63 135.203 659.458 135.443 660.016 135.922C660.578 136.401 660.859 137.154 660.859 138.18V144H659.547ZM656.812 142.75C657.479 142.75 658.013 142.565 658.414 142.195C658.82 141.82 659.023 141.297 659.023 140.625V139.875L657.914 139.922C657.049 139.953 656.419 140.099 656.023 140.359C655.633 140.615 655.438 141.008 655.438 141.539C655.438 141.924 655.552 142.224 655.781 142.438C656.01 142.646 656.354 142.75 656.812 142.75ZM666.641 142.672C667.089 142.672 667.536 142.602 667.984 142.461V143.844C667.781 143.932 667.518 144.005 667.195 144.062C666.878 144.125 666.547 144.156 666.203 144.156C664.464 144.156 663.594 143.24 663.594 141.406V136.75H662.414V135.938L663.68 135.266L664.305 133.438H665.438V135.359H667.898V136.75H665.438V141.375C665.438 141.818 665.547 142.146 665.766 142.359C665.99 142.568 666.281 142.672 666.641 142.672ZM671.555 144H669.719V135.359H671.555V144ZM669.609 133.07C669.609 132.742 669.698 132.49 669.875 132.312C670.057 132.135 670.315 132.047 670.648 132.047C670.971 132.047 671.221 132.135 671.398 132.312C671.581 132.49 671.672 132.742 671.672 133.07C671.672 133.383 671.581 133.63 671.398 133.812C671.221 133.99 670.971 134.078 670.648 134.078C670.315 134.078 670.057 133.99 669.875 133.812C669.698 133.63 669.609 133.383 669.609 133.07ZM681.852 139.664C681.852 141.076 681.49 142.177 680.766 142.969C680.042 143.76 679.034 144.156 677.742 144.156C676.935 144.156 676.221 143.974 675.602 143.609C674.982 143.245 674.505 142.721 674.172 142.039C673.839 141.357 673.672 140.565 673.672 139.664C673.672 138.263 674.031 137.169 674.75 136.383C675.469 135.596 676.482 135.203 677.789 135.203C679.039 135.203 680.029 135.607 680.758 136.414C681.487 137.216 681.852 138.299 681.852 139.664ZM675.562 139.664C675.562 141.659 676.299 142.656 677.773 142.656C679.232 142.656 679.961 141.659 679.961 139.664C679.961 137.69 679.227 136.703 677.758 136.703C676.987 136.703 676.427 136.958 676.078 137.469C675.734 137.979 675.562 138.711 675.562 139.664ZM691.57 144H689.727V138.688C689.727 138.021 689.591 137.523 689.32 137.195C689.055 136.867 688.63 136.703 688.047 136.703C687.271 136.703 686.703 136.932 686.344 137.391C685.984 137.849 685.805 138.617 685.805 139.695V144H683.969V135.359H685.406L685.664 136.492H685.758C686.018 136.081 686.388 135.763 686.867 135.539C687.346 135.315 687.878 135.203 688.461 135.203C690.534 135.203 691.57 136.258 691.57 138.367V144ZM705.562 144L704.422 140.828H700.055L698.938 144H696.969L701.242 132.531H703.273L707.547 144H705.562ZM703.93 139.219L702.859 136.109C702.781 135.901 702.672 135.573 702.531 135.125C702.396 134.677 702.302 134.349 702.25 134.141C702.109 134.781 701.904 135.482 701.633 136.242L700.602 139.219H703.93ZM712.344 144.156C711.036 144.156 710.042 143.776 709.359 143.016C708.682 142.25 708.344 141.154 708.344 139.727C708.344 138.273 708.698 137.156 709.406 136.375C710.12 135.594 711.148 135.203 712.492 135.203C713.404 135.203 714.224 135.372 714.953 135.711L714.398 137.188C713.622 136.885 712.982 136.734 712.477 136.734C710.982 136.734 710.234 137.727 710.234 139.711C710.234 140.68 710.419 141.409 710.789 141.898C711.164 142.383 711.711 142.625 712.43 142.625C713.247 142.625 714.021 142.422 714.75 142.016V143.617C714.422 143.81 714.07 143.948 713.695 144.031C713.326 144.115 712.875 144.156 712.344 144.156ZM720.266 144.156C718.958 144.156 717.964 143.776 717.281 143.016C716.604 142.25 716.266 141.154 716.266 139.727C716.266 138.273 716.62 137.156 717.328 136.375C718.042 135.594 719.07 135.203 720.414 135.203C721.326 135.203 722.146 135.372 722.875 135.711L722.32 137.188C721.544 136.885 720.904 136.734 720.398 136.734C718.904 136.734 718.156 137.727 718.156 139.711C718.156 140.68 718.341 141.409 718.711 141.898C719.086 142.383 719.633 142.625 720.352 142.625C721.169 142.625 721.943 142.422 722.672 142.016V143.617C722.344 143.81 721.992 143.948 721.617 144.031C721.247 144.115 720.797 144.156 720.266 144.156ZM732.367 139.664C732.367 141.076 732.005 142.177 731.281 142.969C730.557 143.76 729.549 144.156 728.258 144.156C727.451 144.156 726.737 143.974 726.117 143.609C725.497 143.245 725.021 142.721 724.688 142.039C724.354 141.357 724.188 140.565 724.188 139.664C724.188 138.263 724.547 137.169 725.266 136.383C725.984 135.596 726.997 135.203 728.305 135.203C729.555 135.203 730.544 135.607 731.273 136.414C732.003 137.216 732.367 138.299 732.367 139.664ZM726.078 139.664C726.078 141.659 726.815 142.656 728.289 142.656C729.747 142.656 730.477 141.659 730.477 139.664C730.477 137.69 729.742 136.703 728.273 136.703C727.503 136.703 726.943 136.958 726.594 137.469C726.25 137.979 726.078 138.711 726.078 139.664ZM740.578 144L740.32 142.867H740.227C739.971 143.268 739.607 143.583 739.133 143.812C738.664 144.042 738.128 144.156 737.523 144.156C736.477 144.156 735.695 143.896 735.18 143.375C734.664 142.854 734.406 142.065 734.406 141.008V135.359H736.258V140.688C736.258 141.349 736.393 141.846 736.664 142.18C736.935 142.508 737.359 142.672 737.938 142.672C738.708 142.672 739.273 142.443 739.633 141.984C739.997 141.521 740.18 140.747 740.18 139.664V135.359H742.023V144H740.578ZM752.242 144H750.398V138.688C750.398 138.021 750.263 137.523 749.992 137.195C749.727 136.867 749.302 136.703 748.719 136.703C747.943 136.703 747.375 136.932 747.016 137.391C746.656 137.849 746.477 138.617 746.477 139.695V144H744.641V135.359H746.078L746.336 136.492H746.43C746.69 136.081 747.06 135.763 747.539 135.539C748.018 135.315 748.549 135.203 749.133 135.203C751.206 135.203 752.242 136.258 752.242 138.367V144ZM758.016 142.672C758.464 142.672 758.911 142.602 759.359 142.461V143.844C759.156 143.932 758.893 144.005 758.57 144.062C758.253 144.125 757.922 144.156 757.578 144.156C755.839 144.156 754.969 143.24 754.969 141.406V136.75H753.789V135.938L755.055 135.266L755.68 133.438H756.812V135.359H759.273V136.75H756.812V141.375C756.812 141.818 756.922 142.146 757.141 142.359C757.365 142.568 757.656 142.672 758.016 142.672Z" fill="#0A2535"/>
<line x1="414" y1="139.5" x2="442" y2="139.5" stroke="#0A2535"/>
<rect x="443" y="175" width="339" height="42" fill="white" stroke="#68C6A4" stroke-width="2"/>
<path d="M461.453 202H459.586V192.18H456.227V190.578H464.812V192.18H461.453V202ZM474.039 197.664C474.039 199.076 473.677 200.177 472.953 200.969C472.229 201.76 471.221 202.156 469.93 202.156C469.122 202.156 468.409 201.974 467.789 201.609C467.169 201.245 466.693 200.721 466.359 200.039C466.026 199.357 465.859 198.565 465.859 197.664C465.859 196.263 466.219 195.169 466.938 194.383C467.656 193.596 468.669 193.203 469.977 193.203C471.227 193.203 472.216 193.607 472.945 194.414C473.674 195.216 474.039 196.299 474.039 197.664ZM467.75 197.664C467.75 199.659 468.487 200.656 469.961 200.656C471.419 200.656 472.148 199.659 472.148 197.664C472.148 195.69 471.414 194.703 469.945 194.703C469.174 194.703 468.615 194.958 468.266 195.469C467.922 195.979 467.75 196.711 467.75 197.664ZM479.375 200.672C479.823 200.672 480.271 200.602 480.719 200.461V201.844C480.516 201.932 480.253 202.005 479.93 202.062C479.612 202.125 479.281 202.156 478.938 202.156C477.198 202.156 476.328 201.24 476.328 199.406V194.75H475.148V193.938L476.414 193.266L477.039 191.438H478.172V193.359H480.633V194.75H478.172V199.375C478.172 199.818 478.281 200.146 478.5 200.359C478.724 200.568 479.016 200.672 479.375 200.672ZM487.859 202L487.492 200.797H487.43C487.013 201.323 486.594 201.682 486.172 201.875C485.75 202.062 485.208 202.156 484.547 202.156C483.698 202.156 483.034 201.927 482.555 201.469C482.081 201.01 481.844 200.362 481.844 199.523C481.844 198.633 482.174 197.961 482.836 197.508C483.497 197.055 484.505 196.807 485.859 196.766L487.352 196.719V196.258C487.352 195.706 487.221 195.294 486.961 195.023C486.706 194.747 486.307 194.609 485.766 194.609C485.323 194.609 484.898 194.674 484.492 194.805C484.086 194.935 483.695 195.089 483.32 195.266L482.727 193.953C483.195 193.708 483.708 193.523 484.266 193.398C484.823 193.268 485.349 193.203 485.844 193.203C486.943 193.203 487.771 193.443 488.328 193.922C488.891 194.401 489.172 195.154 489.172 196.18V202H487.859ZM485.125 200.75C485.792 200.75 486.326 200.565 486.727 200.195C487.133 199.82 487.336 199.297 487.336 198.625V197.875L486.227 197.922C485.362 197.953 484.732 198.099 484.336 198.359C483.945 198.615 483.75 199.008 483.75 199.539C483.75 199.924 483.865 200.224 484.094 200.438C484.323 200.646 484.667 200.75 485.125 200.75ZM493.57 202H491.734V189.844H493.57V202ZM505.414 192.016C504.341 192.016 503.497 192.396 502.883 193.156C502.268 193.917 501.961 194.966 501.961 196.305C501.961 197.706 502.255 198.766 502.844 199.484C503.438 200.203 504.294 200.562 505.414 200.562C505.898 200.562 506.367 200.516 506.82 200.422C507.273 200.323 507.745 200.198 508.234 200.047V201.648C507.339 201.987 506.323 202.156 505.188 202.156C503.516 202.156 502.232 201.651 501.336 200.641C500.44 199.625 499.992 198.174 499.992 196.289C499.992 195.102 500.208 194.062 500.641 193.172C501.078 192.281 501.708 191.599 502.531 191.125C503.354 190.651 504.32 190.414 505.43 190.414C506.596 190.414 507.674 190.659 508.664 191.148L507.992 192.703C507.607 192.521 507.198 192.362 506.766 192.227C506.339 192.086 505.888 192.016 505.414 192.016ZM518.164 197.664C518.164 199.076 517.802 200.177 517.078 200.969C516.354 201.76 515.346 202.156 514.055 202.156C513.247 202.156 512.534 201.974 511.914 201.609C511.294 201.245 510.818 200.721 510.484 200.039C510.151 199.357 509.984 198.565 509.984 197.664C509.984 196.263 510.344 195.169 511.062 194.383C511.781 193.596 512.794 193.203 514.102 193.203C515.352 193.203 516.341 193.607 517.07 194.414C517.799 195.216 518.164 196.299 518.164 197.664ZM511.875 197.664C511.875 199.659 512.612 200.656 514.086 200.656C515.544 200.656 516.273 199.659 516.273 197.664C516.273 195.69 515.539 194.703 514.07 194.703C513.299 194.703 512.74 194.958 512.391 195.469C512.047 195.979 511.875 196.711 511.875 197.664ZM527.883 202H526.039V196.688C526.039 196.021 525.904 195.523 525.633 195.195C525.367 194.867 524.943 194.703 524.359 194.703C523.583 194.703 523.016 194.932 522.656 195.391C522.297 195.849 522.117 196.617 522.117 197.695V202H520.281V193.359H521.719L521.977 194.492H522.07C522.331 194.081 522.701 193.763 523.18 193.539C523.659 193.315 524.19 193.203 524.773 193.203C526.846 193.203 527.883 194.258 527.883 196.367V202ZM533.656 200.672C534.104 200.672 534.552 200.602 535 200.461V201.844C534.797 201.932 534.534 202.005 534.211 202.062C533.893 202.125 533.562 202.156 533.219 202.156C531.479 202.156 530.609 201.24 530.609 199.406V194.75H529.43V193.938L530.695 193.266L531.32 191.438H532.453V193.359H534.914V194.75H532.453V199.375C532.453 199.818 532.562 200.146 532.781 200.359C533.005 200.568 533.297 200.672 533.656 200.672ZM541.117 193.203C541.487 193.203 541.792 193.229 542.031 193.281L541.852 194.992C541.591 194.93 541.32 194.898 541.039 194.898C540.305 194.898 539.708 195.138 539.25 195.617C538.797 196.096 538.57 196.719 538.57 197.484V202H536.734V193.359H538.172L538.414 194.883H538.508C538.794 194.367 539.167 193.958 539.625 193.656C540.089 193.354 540.586 193.203 541.117 193.203ZM545.477 202H543.641V193.359H545.477V202ZM543.531 191.07C543.531 190.742 543.62 190.49 543.797 190.312C543.979 190.135 544.237 190.047 544.57 190.047C544.893 190.047 545.143 190.135 545.32 190.312C545.503 190.49 545.594 190.742 545.594 191.07C545.594 191.383 545.503 191.63 545.32 191.812C545.143 191.99 544.893 192.078 544.57 192.078C544.237 192.078 543.979 191.99 543.797 191.812C543.62 191.63 543.531 191.383 543.531 191.07ZM552.523 193.203C553.602 193.203 554.44 193.594 555.039 194.375C555.643 195.156 555.945 196.253 555.945 197.664C555.945 199.081 555.641 200.185 555.031 200.977C554.422 201.763 553.576 202.156 552.492 202.156C551.398 202.156 550.549 201.763 549.945 200.977H549.82L549.484 202H548.109V189.844H549.945V192.734C549.945 192.948 549.935 193.266 549.914 193.688C549.893 194.109 549.878 194.378 549.867 194.492H549.945C550.529 193.633 551.388 193.203 552.523 193.203ZM552.047 194.703C551.307 194.703 550.773 194.922 550.445 195.359C550.122 195.792 549.956 196.518 549.945 197.539V197.664C549.945 198.716 550.112 199.479 550.445 199.953C550.779 200.422 551.323 200.656 552.078 200.656C552.729 200.656 553.221 200.398 553.555 199.883C553.893 199.367 554.062 198.622 554.062 197.648C554.062 195.685 553.391 194.703 552.047 194.703ZM564.172 202L563.914 200.867H563.82C563.565 201.268 563.201 201.583 562.727 201.812C562.258 202.042 561.721 202.156 561.117 202.156C560.07 202.156 559.289 201.896 558.773 201.375C558.258 200.854 558 200.065 558 199.008V193.359H559.852V198.688C559.852 199.349 559.987 199.846 560.258 200.18C560.529 200.508 560.953 200.672 561.531 200.672C562.302 200.672 562.867 200.443 563.227 199.984C563.591 199.521 563.773 198.747 563.773 197.664V193.359H565.617V202H564.172ZM571.453 200.672C571.901 200.672 572.349 200.602 572.797 200.461V201.844C572.594 201.932 572.331 202.005 572.008 202.062C571.69 202.125 571.359 202.156 571.016 202.156C569.276 202.156 568.406 201.24 568.406 199.406V194.75H567.227V193.938L568.492 193.266L569.117 191.438H570.25V193.359H572.711V194.75H570.25V199.375C570.25 199.818 570.359 200.146 570.578 200.359C570.802 200.568 571.094 200.672 571.453 200.672ZM576.367 202H574.531V193.359H576.367V202ZM574.422 191.07C574.422 190.742 574.51 190.49 574.688 190.312C574.87 190.135 575.128 190.047 575.461 190.047C575.784 190.047 576.034 190.135 576.211 190.312C576.393 190.49 576.484 190.742 576.484 191.07C576.484 191.383 576.393 191.63 576.211 191.812C576.034 191.99 575.784 192.078 575.461 192.078C575.128 192.078 574.87 191.99 574.688 191.812C574.51 191.63 574.422 191.383 574.422 191.07ZM586.664 197.664C586.664 199.076 586.302 200.177 585.578 200.969C584.854 201.76 583.846 202.156 582.555 202.156C581.747 202.156 581.034 201.974 580.414 201.609C579.794 201.245 579.318 200.721 578.984 200.039C578.651 199.357 578.484 198.565 578.484 197.664C578.484 196.263 578.844 195.169 579.562 194.383C580.281 193.596 581.294 193.203 582.602 193.203C583.852 193.203 584.841 193.607 585.57 194.414C586.299 195.216 586.664 196.299 586.664 197.664ZM580.375 197.664C580.375 199.659 581.112 200.656 582.586 200.656C584.044 200.656 584.773 199.659 584.773 197.664C584.773 195.69 584.039 194.703 582.57 194.703C581.799 194.703 581.24 194.958 580.891 195.469C580.547 195.979 580.375 196.711 580.375 197.664ZM596.383 202H594.539V196.688C594.539 196.021 594.404 195.523 594.133 195.195C593.867 194.867 593.443 194.703 592.859 194.703C592.083 194.703 591.516 194.932 591.156 195.391C590.797 195.849 590.617 196.617 590.617 197.695V202H588.781V193.359H590.219L590.477 194.492H590.57C590.831 194.081 591.201 193.763 591.68 193.539C592.159 193.315 592.69 193.203 593.273 193.203C595.346 193.203 596.383 194.258 596.383 196.367V202ZM605.156 195.891H606.453C607.323 195.891 607.953 195.729 608.344 195.406C608.734 195.083 608.93 194.604 608.93 193.969C608.93 193.323 608.719 192.859 608.297 192.578C607.875 192.297 607.24 192.156 606.391 192.156H605.156V195.891ZM605.156 197.438V202H603.289V190.578H606.516C607.99 190.578 609.081 190.854 609.789 191.406C610.497 191.958 610.852 192.792 610.852 193.906C610.852 195.328 610.112 196.341 608.633 196.945L611.859 202H609.734L607 197.438H605.156ZM618.734 202L618.367 200.797H618.305C617.888 201.323 617.469 201.682 617.047 201.875C616.625 202.062 616.083 202.156 615.422 202.156C614.573 202.156 613.909 201.927 613.43 201.469C612.956 201.01 612.719 200.362 612.719 199.523C612.719 198.633 613.049 197.961 613.711 197.508C614.372 197.055 615.38 196.807 616.734 196.766L618.227 196.719V196.258C618.227 195.706 618.096 195.294 617.836 195.023C617.581 194.747 617.182 194.609 616.641 194.609C616.198 194.609 615.773 194.674 615.367 194.805C614.961 194.935 614.57 195.089 614.195 195.266L613.602 193.953C614.07 193.708 614.583 193.523 615.141 193.398C615.698 193.268 616.224 193.203 616.719 193.203C617.818 193.203 618.646 193.443 619.203 193.922C619.766 194.401 620.047 195.154 620.047 196.18V202H618.734ZM616 200.75C616.667 200.75 617.201 200.565 617.602 200.195C618.008 199.82 618.211 199.297 618.211 198.625V197.875L617.102 197.922C616.237 197.953 615.607 198.099 615.211 198.359C614.82 198.615 614.625 199.008 614.625 199.539C614.625 199.924 614.74 200.224 614.969 200.438C615.198 200.646 615.542 200.75 616 200.75ZM625.828 200.672C626.276 200.672 626.724 200.602 627.172 200.461V201.844C626.969 201.932 626.706 202.005 626.383 202.062C626.065 202.125 625.734 202.156 625.391 202.156C623.651 202.156 622.781 201.24 622.781 199.406V194.75H621.602V193.938L622.867 193.266L623.492 191.438H624.625V193.359H627.086V194.75H624.625V199.375C624.625 199.818 624.734 200.146 624.953 200.359C625.177 200.568 625.469 200.672 625.828 200.672ZM632.68 202.156C631.336 202.156 630.284 201.766 629.523 200.984C628.768 200.198 628.391 199.117 628.391 197.742C628.391 196.331 628.742 195.221 629.445 194.414C630.148 193.607 631.115 193.203 632.344 193.203C633.484 193.203 634.385 193.549 635.047 194.242C635.708 194.935 636.039 195.888 636.039 197.102V198.094H630.281C630.307 198.932 630.534 199.578 630.961 200.031C631.388 200.479 631.99 200.703 632.766 200.703C633.276 200.703 633.75 200.656 634.188 200.562C634.63 200.464 635.104 200.302 635.609 200.078V201.57C635.161 201.784 634.708 201.935 634.25 202.023C633.792 202.112 633.268 202.156 632.68 202.156ZM632.344 194.594C631.76 194.594 631.292 194.779 630.938 195.148C630.589 195.518 630.38 196.057 630.312 196.766H634.234C634.224 196.052 634.052 195.513 633.719 195.148C633.385 194.779 632.927 194.594 632.344 194.594Z" fill="#0A2535"/>
<line x1="414" y1="197.5" x2="442" y2="197.5" stroke="#0A2535"/>
<line x1="413.5" y1="198" x2="413.5" y2="22" stroke="#0A2535"/>
</svg>
