<?xml version="1.0" encoding="utf-8"?>
<!-- Generator: Adobe Illustrator 23.0.4, SVG Export Plug-In . SVG Version: 6.00 Build 0)  -->
<svg version="1.1" id="Layer_1" xmlns="http://www.w3.org/2000/svg" xmlns:xlink="http://www.w3.org/1999/xlink" x="0px" y="0px"
	 viewBox="0 0 335.17 424.19" style="enable-background:new 0 0 335.17 424.19;" xml:space="preserve">
<style type="text/css">
	.st0{fill:#ABF47E;}
	.st1{fill:#EEEEEA;}
	.st2{fill:#ACF47F;}
	.st3{fill:#A0E476;}
	.st4{fill:#A0E475;}
	.st5{fill:#0D2837;}
	.st6{fill:#EEECE8;}
	.st7{fill:#102B39;}
	.st8{fill:#E78765;}
	.st9{fill:#16343A;}
	.st10{fill:#E3FBD4;}
	.st11{fill:#ECD0C4;}
	.st12{fill:#C8CED1;}
	.st13{fill:#122F38;}
	.st14{fill:#FAFCFA;}
	.st15{fill:#F8F9F8;}
	.st16{fill:#ECCFC2;}
	.st17{fill:#AAF47D;}
</style>
<path class="st0" d="M164.92,303.33c0.44,2.96,0.87,5.92,1.31,8.88c0.22,0.71,0.44,1.42,0.66,2.12c0.13,0.96,0.26,1.91,0.39,2.87
	c0.21,0.71,0.43,1.42,0.64,2.13c0.35,5,0.7,10,1.05,15c0.26,4.67,0.52,9.35,0.79,14.02c0,1.66,0,3.32,0.01,4.97
	c-2.63,0.66-5.26,1.32-7.9,1.99c-0.34-4.12-0.93-8.24-0.98-12.36c-0.18-12.98-1.66-25.79-5.27-38.26c-1.05-3.62-3.15-6.94-4.77-10.4
	c-3.77-7.25-6.85-14.99-11.54-21.59c-3.12-4.39-8.81-6.87-12.87-10.7c-5.3-5-9.86-10.79-15.25-15.68c-6.18-5.6-8.36-12.44-8.34-20.4
	c0.03-9.32-0.01-18.64-0.03-27.96c3.72-3.22,2.81-7.68,1.21-10.81c-3.2-6.24-7.27-12.12-11.65-17.62
	c-2.85-3.57-4.98-7.02-4.51-11.62c0.88-8.7,2.04-17.37,2.79-26.07c0.78-9.11,0.92-18.07-4.68-26.25c-3.53-5.16-7.23-10.69-8.83-16.6
	c-2.77-10.2-2.7-20.91,2.9-30.35c4.41-7.43,4.74-14.22,1.16-22.01c-5.05-11.01-3.09-23.25,5.18-30.07
	c7.53-6.22,17.03-7.98,26.26-5.45c6.36,1.75,10.26,7.63,11,14.39c1.56,14.21,6.68,26.81,15.04,38.36
	c6.64,9.17,8.92,19.95,8.93,31.07c0.01,7.06,1.66,12.62,6.22,18.61c7.4,9.74,12.43,21.46,13.71,33.73c1.23,11.78,0.01,23.8,0.4,35.7
	c0.1,3.17,1.42,6.93,3.47,9.3c7.99,9.27,10.56,20.52,12.19,31.98c0.95,6.7,1.02,13.76,0.02,20.44c-0.86,5.77-3.4,11.41-5.91,16.78
	c-2.59,5.55-6.36,10.55-8.99,16.09c-1.56,3.29-1.92,7.16-2.82,10.77c-0.22,1.37-0.43,2.75-0.65,4.12
	c-0.11,5.96-0.21,11.92-0.32,17.89C164.93,301.35,164.93,302.34,164.92,303.33z M149.14,274.74c0.66-0.31,1.32-0.62,1.99-0.94
	c-0.75-4.66-1.99-9.31-2.15-13.99c-0.4-11.8,0.29-23.65-0.62-35.4c-0.66-8.47-1.93-17.3-5.13-25.07
	c-7.94-19.29-13.07-38.83-12.59-59.89c0.16-6.96-1.12-14.48-3.8-20.88c-5.99-14.28-11.87-28.42-12.41-44.22
	c-0.7,3.4-2.02,6.96-1.37,10.1c2,9.66,3.78,19.56,7.48,28.62c4.11,10.07,6.34,20.13,6.28,30.87c-0.04,5.99-1.13,12.28,0.29,17.92
	c3.26,12.96,7.76,25.6,11.77,38.36c1.29,4.11,3.47,8.15,3.8,12.33c0.82,10.39,0.54,20.87,1.2,31.28c0.56,8.85,1.73,17.66,2.87,26.46
	C146.93,271.86,148.31,273.26,149.14,274.74z"/>
<path class="st0" d="M213.07,318.43c-8.18,10.93-9.05,24.31-12.38,36.87c-1.94,0-3.87,0.01-5.81,0.01c1-8.61,2-17.22,3-25.83
	c3.06-4.04,2.57-8.44,1.08-12.8c-1.66-4.87-4.31-9.52-5.26-14.51c-1.63-8.56-4.22-17.61-2.89-25.89
	c2.17-13.53,9.4-25.42,18.58-35.85c4.84-5.5,7.47-11.81,8.71-19.18c2.56-15.22,6.99-29.62,22.78-36.96
	c5.66-2.63,7.12-7.64,5.7-13.44c-1.68-6.91-0.41-13.43,3.38-19.09c4.51-6.71,9.84-12.87,14.82-19.26
	c7.19-2.33,10.59-7.48,12.18-14.72c3.21-14.62,13.45-23.58,26.18-29.81c6.96-3.4,20.79,1.73,25.61,8.05
	c6.82,8.96,7.08,18.78,5.11,29.25c-1.7,9.05-3.95,17.75-10.32,24.83c-4.63,5.15-9.06,10.5-13.77,15.58
	c-3.17,3.42-4.02,7.37-4.16,11.87c-0.46,14.77-2.87,29.07-12.52,41c-3.53,4.36-7.06,9.17-11.65,12.11
	c-8.98,5.76-10.99,14.24-12.89,23.76c-2.41,12.1-5.2,24.4-10.06,35.65c-4.67,10.81-13.93,18.13-25.96,21.11
	c-5.99,1.48-11.86,3.41-17.79,5.13c0.1-0.82,0.03-1.69,0.31-2.44c4.47-12.24,11.19-23.22,18.77-33.75c3.67-5.1,7.7-10.17,10.2-15.85
	c4.2-9.56,7.54-19.53,10.82-29.46c3.57-10.8,8.04-20.97,14.88-30.25c3.66-4.97,5.46-11.3,8.1-17.01c-0.48-0.22-0.96-0.44-1.43-0.65
	c-1.92,3.22-3.6,6.61-5.79,9.63c-6.92,9.55-14.2,18.8-17.91,30.31c-3.41,10.59-7.25,21.05-11.2,31.45c-1.51,4-3.32,8.08-5.87,11.46
	c-7.83,10.38-15.38,20.89-19.2,33.51C214.94,308.2,214.17,313.37,213.07,318.43z"/>
<path class="st1" d="M265.92,379.48c-5.62,5.25-10.97,10.82-16.91,15.68c-8.17,6.68-17.43,11.47-28.02,13.14
	c-2.98,0.47-4.2,1.82-4.2,4.96c0,6.02-2.26,8.53-8.06,9.02c-6.26,0.53-12.55,0.81-18.83,1.05c-10.27,0.38-20.55,1-30.81,0.84
	c-9.9-0.16-19.79-1.14-29.68-1.82c-4.2-0.29-6.32-2.79-7.66-6.69c-0.6-1.76-2.45-3.82-4.17-4.37
	c-16.41-5.29-29.34-15.76-41.58-27.32c-0.47-0.44-0.77-1.07-1.15-1.61c0.35-0.68,0.69-1.35,1.04-2.03c33.32-0.33,66.64-0.67,99.97-1
	c0.67-0.04,1.35-0.07,2.02-0.11c27.33-0.19,54.66-0.37,81.99-0.56C261.88,378.92,263.9,379.2,265.92,379.48z"/>
<path class="st2" d="M73.9,273.44c-7.88-4.6-10.76-12.23-11.97-20.59c-0.78-5.38-0.36-10.94-1.19-16.31
	c-0.85-5.53-4.35-9.73-9.42-12.01c-8.02-3.61-15.5-7.91-20.13-15.59c-2.92-4.84-5.76-10.03-7.11-15.44
	c-2.05-8.24-5.59-15.19-11.03-21.76C3.93,160.71-1.51,148.03,2.07,133.3c1.26-5.2,3.49-10.46,9.78-11.95
	c0.57,3.03,0.19,6.8,1.88,8.94c4.51,5.71,9.73,10.86,17.08,13.2c12.79,4.08,21.08,12.56,24.49,25.68
	c1.41,5.44,3.03,10.84,4.55,16.25c3.54,12.62,10.23,23.48,19.98,32.01c5.35,4.68,9.25,9.61,11.38,16.37
	c2.68,8.5,4.88,17.45,9.27,25.05c6.77,11.72,15.29,22.43,22.96,33.63c3.22,4.71,6.19,9.6,9.27,14.4c-2.23-1.44-4.58-2.72-6.65-4.36
	c-4.66-3.68-10.28-6.77-13.5-11.48c-5.19-7.59-8.81-16.25-12.99-24.52c-2.75-5.44-5.31-10.98-7.95-16.47
	c-0.47,0.21-0.93,0.42-1.4,0.63c5.19,12.51,10.38,25.01,15.84,38.18c-4.74-2.31-9.14-4.48-13.56-6.6
	C86.32,279.31,80.11,276.38,73.9,273.44z"/>
<path class="st3" d="M201.71,183.85c-2.27-8.87-4.7-17.7-6.77-26.62c-3.65-15.73,1.1-29.6,9.43-42.82
	c4.47-7.1,9.13-14.38,11.81-22.22c2.29-6.68,2.28-14.27,2.58-21.49c0.56-13.26,14.17-24.17,26.66-20.05
	c8.35,2.76,13.98,9.59,17.15,17.69c3.19,8.18,2.45,16.77,1.47,25.48c-1.01,8.98-0.43,18.14-0.53,27.21
	c-0.02,1.82,0.07,3.64,0.11,5.46c-1.21,1.32-2.26,2.86-3.67,3.93c-9.82,7.49-16.4,17.4-22.2,28.13c-2.76,5.12-7.17,9.34-10.84,13.97
	c-0.21-9.88,1.33-19.4,5.03-28.64c1.46-3.64,2.22-7.62,2.85-11.51c2.39-14.64,4.65-29.31,6.83-43.99c0.36-2.44,0.05-4.98,0.05-7.47
	c-0.47-0.03-0.94-0.06-1.4-0.09c-1.48,5.84-3.24,11.62-4.37,17.53c-2.82,14.73-4.56,29.72-8.26,44.21
	c-2.77,10.85-5.31,21.5-4.79,32.73C215.81,178.15,208.76,181,201.71,183.85z"/>
<path class="st4" d="M132.73,306.9c-3.08-4.81-6.05-9.69-9.27-14.4c-7.67-11.21-16.19-21.91-22.96-33.63
	c-4.4-7.6-6.59-16.55-9.27-25.05c-2.13-6.76-6.04-11.69-11.38-16.37c-9.75-8.53-16.44-19.39-19.98-32.01
	c-1.52-5.42-3.14-10.81-4.55-16.25c-3.41-13.13-11.7-21.6-24.49-25.68c-7.34-2.34-12.57-7.5-17.08-13.2
	c-1.69-2.14-1.31-5.91-1.88-8.94c5.92-3.29,12.46-4.45,18.41-1.46c7.14,3.58,13.59,8.56,20.35,12.91c3.03,1.95,5.91,4.27,9.18,5.68
	c9.59,4.15,17.39,9.61,20.87,20.31c3.15,9.69,7.48,19,11.17,28.52c2.05,5.29,5.8,8.67,10.99,10.65c0.01,9.32,0.05,18.64,0.03,27.96
	c-0.02,7.96,2.16,14.8,8.34,20.4c5.39,4.88,9.95,10.68,15.25,15.68c4.07,3.83,9.75,6.31,12.87,10.7
	c4.69,6.59,7.77,14.34,11.54,21.59c-2.82,4.87-5.64,9.74-8.46,14.61C139.16,308.24,135.94,307.57,132.73,306.9z"/>
<path class="st5" d="M201.71,183.85c7.05-2.85,14.1-5.71,21.15-8.56c1.35-0.92,2.71-1.85,4.06-2.77c3.66-4.63,8.07-8.86,10.84-13.97
	c5.8-10.74,12.39-20.64,22.2-28.13c1.4-1.07,2.45-2.61,3.67-3.93c0.38,2,0.77,4,1.15,6.01c-4.98,6.4-10.31,12.55-14.82,19.26
	c-3.8,5.66-5.07,12.18-3.38,19.09c1.41,5.8-0.04,10.81-5.7,13.44c-15.79,7.34-20.22,21.73-22.78,36.96
	c-1.24,7.38-3.86,13.68-8.71,19.18c-9.17,10.43-16.4,22.31-18.58,35.85c-1.33,8.28,1.26,17.34,2.89,25.89
	c0.95,4.99,3.59,9.63,5.26,14.51c1.49,4.36,1.98,8.77-1.08,12.81c-7.8,7.21-15.34,14.59-17.05,25.81c-2.61,0-5.22,0.01-7.83,0.01
	c1.31-6.29,2.61-12.57,3.92-18.86c0.49-1.07,0.99-2.14,1.48-3.21c0-7.59,0-15.19,0-22.78c-0.47-1.11-0.94-2.21-1.41-3.32
	c-0.88-4.25-1.49-8.58-2.69-12.74c-2.59-8.96-2.55-18.1,0.15-26.72c1.69-5.4,5.6-10.38,9.45-14.73c3.44-3.89,5.36-7.59,5.03-12.85
	c-1.18-18.54,3.15-36.11,10.04-53.16c0.36-0.9,0.93-1.72,1.4-2.57c0.22-0.08,0.44-0.15,0.66-0.23
	C201.29,184.14,201.52,184.05,201.71,183.85z"/>
<path class="st6" d="M173,355.3c2.61,0,5.22-0.01,7.83-0.01c4.68,0.01,9.37,0.01,14.05,0.02c1.94,0,3.87,0,5.81-0.01
	c25.1,0,50.2,0,75.3,0c0.44,0.64,0.88,1.28,1.32,1.91c-0.82,2.04-1.64,4.09-2.46,6.13c-4.94-0.28-9.89-0.8-14.83-0.8
	c-8.32,0-16.64,0.53-24.96,0.5c-36.8-0.15-73.6-0.48-110.41-0.6c-8.98-0.03-17.95,0.49-26.93,0.67c-5.8,0.12-11.61-0.12-17.39,0.2
	c-4.59,0.25-9.15,1.1-13.72,1.68c-0.01,0.64-0.02,1.27-0.03,1.91c3.45,0.38,6.91,1.15,10.34,1.06c15.63-0.37,31.25-1.26,46.87-1.41
	c13.64-0.13,27.28,0.65,40.92,0.69c29.66,0.09,59.31,0.04,88.97-0.13c6.96-0.04,13.92-0.78,20.88-1.2c-1.97,3.16-3.94,6.31-5.9,9.47
	c-2.26-0.35-4.53-1.01-6.79-0.99c-28.26,0.25-56.52,0.63-84.77,0.92c-13.32,0.14-26.64,0.08-39.95,0.25
	c-10.31,0.13-20.62,0.67-30.93,0.65c-9.11-0.02-18.22-0.78-27.33-0.72c-2.35,0.01-4.69,1.86-7.03,2.86
	c-4.94-5.12-8.97-10.76-9.97-18.04c-0.53-3.84,1.73-5.01,5.05-4.95c18.54,0.3,37.09,0.76,55.63,0.86
	c7.59,0.04,15.18-0.66,22.77-1.02c2.16,0.04,4.31,0.08,6.47,0.12c3.36,0,6.72,0,10.07,0c2.63-0.66,5.26-1.32,7.9-1.99
	C170.84,353.99,171.92,354.64,173,355.3z"/>
<path class="st7" d="M151.8,355.32c-2.16-0.04-4.31-0.08-6.47-0.12c-3.07-7.24-5.67-14.73-9.35-21.64
	c-2.78-5.21-8.99-4.36-13.9-5.17c-10.07-1.67-19.3-5.04-25.68-13.25c-3.49-4.49-6.76-9.72-8.16-15.12
	c-1.9-7.36-5.32-13.41-10.08-19.08c-1.82-2.17-2.87-4.98-4.26-7.5c6.21,2.95,12.42,5.88,18.62,8.85c4.42,2.12,8.82,4.29,13.56,6.6
	c-5.46-13.17-10.65-25.67-15.84-38.18c0.47-0.21,0.93-0.42,1.4-0.63c2.64,5.49,5.2,11.03,7.95,16.47
	c4.18,8.26,7.8,16.93,12.99,24.52c3.22,4.71,8.84,7.81,13.5,11.48c2.07,1.64,4.43,2.92,6.65,4.36c3.22,0.67,6.44,1.34,9.65,2.01
	c0.13,0.47,0.51,1.03,0.37,1.4c-3.59,9.14-1.96,17.27,2.98,25.77C149.03,341.75,149.86,348.86,151.8,355.32z"/>
<path class="st8" d="M274.57,365.91c-6.96,0.42-13.92,1.17-20.88,1.2c-29.66,0.17-59.31,0.22-88.97,0.13
	c-13.64-0.04-27.29-0.83-40.92-0.69c-15.63,0.15-31.25,1.04-46.87,1.41c-3.44,0.08-6.89-0.69-10.34-1.06
	c0.01-0.64,0.02-1.27,0.03-1.91c4.57-0.58,9.13-1.43,13.72-1.68c5.78-0.31,11.6-0.08,17.39-0.2c8.98-0.18,17.95-0.7,26.93-0.67
	c36.8,0.13,73.6,0.46,110.41,0.6c8.32,0.03,16.64-0.49,24.96-0.5c4.94,0,9.89,0.52,14.83,0.8
	C274.76,364.2,274.66,365.06,274.57,365.91z"/>
<path class="st8" d="M71.85,378.35c2.34-1,4.68-2.84,7.03-2.86c9.11-0.05,18.22,0.71,27.33,0.72c10.31,0.02,20.62-0.52,30.93-0.65
	c13.32-0.17,26.64-0.12,39.95-0.25c28.26-0.29,56.52-0.67,84.77-0.92c2.26-0.02,4.53,0.65,6.79,0.99c-0.31,0.94-0.61,1.87-0.92,2.81
	c-2.63,0.15-5.26,0.31-7.89,0.46c-27.33,0.19-54.66,0.37-81.99,0.56c-0.67,0.04-1.35,0.07-2.02,0.11c-33.32,0.33-66.64,0.67-99.97,1
	c-0.99-0.37-1.98-0.75-2.97-1.12C72.56,378.92,72.21,378.63,71.85,378.35z"/>
<path class="st9" d="M213.07,318.43c1.1-5.07,1.87-10.23,3.37-15.18c3.82-12.61,11.36-23.12,19.2-33.51
	c2.55-3.38,4.35-7.46,5.87-11.46c3.94-10.41,7.78-20.87,11.2-31.45c3.71-11.51,10.98-20.76,17.91-30.31
	c2.19-3.02,3.88-6.41,5.79-9.63c0.48,0.22,0.96,0.44,1.43,0.65c-2.64,5.71-4.45,12.04-8.1,17.01c-6.83,9.28-11.31,19.45-14.88,30.25
	c-3.28,9.93-6.62,19.9-10.82,29.46c-2.5,5.68-6.53,10.75-10.2,15.85c-7.57,10.53-14.29,21.51-18.77,33.75
	c-0.27,0.75-0.21,1.62-0.31,2.44c0,0,0.06-0.02,0.06-0.02c-0.27,0.45-0.53,0.9-0.8,1.35C213.7,317.9,213.39,318.17,213.07,318.43z"
	/>
<path class="st6" d="M169.76,348.36c-0.26-4.67-0.52-9.35-0.79-14.02C172.57,338.82,170.94,343.6,169.76,348.36z"/>
<path class="st10" d="M165.26,282.47c0.22-1.37,0.43-2.75,0.65-4.12C165.69,279.72,165.47,281.09,165.26,282.47z"/>
<path class="st11" d="M259.86,378.65c2.63-0.15,5.26-0.3,7.89-0.46c-0.61,0.43-1.22,0.86-1.83,1.29
	C263.9,379.2,261.88,378.92,259.86,378.65z"/>
<path class="st10" d="M164.92,303.33c0-0.99,0.01-1.98,0.01-2.98C164.93,301.35,164.93,302.34,164.92,303.33z"/>
<path class="st12" d="M176.98,307.13c0.47,1.11,0.94,2.21,1.41,3.32C177.92,309.34,177.45,308.24,176.98,307.13z"/>
<path class="st6" d="M72.91,379.2c0.99,0.37,1.98,0.75,2.97,1.12c-0.34,0.68-0.69,1.35-1.04,2.03
	C74.2,381.3,73.56,380.25,72.91,379.2z"/>
<path class="st12" d="M178.39,333.23c-0.49,1.07-0.99,2.14-1.48,3.21C177.41,335.37,177.9,334.3,178.39,333.23z"/>
<path class="st10" d="M166.89,314.33c-0.22-0.71-0.44-1.41-0.66-2.12C166.45,312.92,166.67,313.63,166.89,314.33z"/>
<path class="st10" d="M167.93,319.33c-0.22-0.71-0.43-1.42-0.64-2.13C167.5,317.91,167.71,318.62,167.93,319.33z"/>
<path class="st3" d="M201.02,184.13c-0.22,0.08-0.44,0.16-0.66,0.23C200.58,184.29,200.8,184.21,201.02,184.13z"/>
<path class="st0" d="M214.01,317.63c0.27-0.45,0.53-0.9,0.8-1.35C214.55,316.73,214.28,317.18,214.01,317.63z"/>
<path class="st13" d="M149.14,274.74c-0.83-1.47-2.21-2.88-2.41-4.43c-1.14-8.8-2.31-17.61-2.87-26.46
	c-0.66-10.41-0.39-20.89-1.2-31.28c-0.33-4.18-2.5-8.21-3.8-12.33c-4.01-12.77-8.51-25.41-11.77-38.36
	c-1.42-5.64-0.32-11.93-0.29-17.92c0.07-10.74-2.16-20.8-6.28-30.87c-3.7-9.06-5.48-18.96-7.48-28.62c-0.65-3.15,0.67-6.7,1.37-10.1
	c0.55,15.8,6.43,29.94,12.41,44.22c2.68,6.4,3.96,13.92,3.8,20.88c-0.48,21.06,4.66,40.6,12.59,59.89
	c3.2,7.77,4.47,16.61,5.13,25.07c0.91,11.74,0.22,23.6,0.62,35.4c0.16,4.68,1.4,9.33,2.15,13.99
	C150.46,274.11,149.8,274.43,149.14,274.74z"/>
<path class="st14" d="M151.8,355.32c-1.94-6.47-2.77-13.57-6.07-19.25c-4.94-8.5-6.57-16.63-2.98-25.77
	c0.14-0.36-0.24-0.93-0.37-1.4c2.82-4.87,5.64-9.74,8.46-14.61c1.62,3.46,3.73,6.77,4.77,10.4c3.61,12.47,5.09,25.28,5.27,38.26
	c0.06,4.12,0.64,8.24,0.98,12.36C158.51,355.32,155.16,355.32,151.8,355.32z"/>
<path class="st15" d="M194.88,355.31c-4.68-0.01-9.37-0.01-14.05-0.02c1.71-11.23,9.25-18.61,17.05-25.81
	C196.88,338.09,195.88,346.7,194.88,355.31z"/>
<path class="st16" d="M175.85,379.32c0.67-0.04,1.35-0.07,2.02-0.11C177.2,379.25,176.52,379.28,175.85,379.32z"/>
<path class="st17" d="M226.92,172.52c-1.35,0.92-2.71,1.85-4.06,2.77c-0.52-11.23,2.02-21.87,4.79-32.73
	c3.7-14.49,5.44-29.48,8.26-44.21c1.13-5.91,2.9-11.69,4.37-17.53c0.47,0.03,0.94,0.06,1.4,0.09c0,2.49,0.31,5.03-0.05,7.47
	c-2.17,14.68-4.43,29.35-6.83,43.99c-0.64,3.9-1.4,7.87-2.85,11.51C228.26,153.12,226.72,162.64,226.92,172.52z"/>
</svg>
