<?xml version="1.0" encoding="utf-8"?>
<!-- Generator: Adobe Illustrator 23.0.4, SVG Export Plug-In . SVG Version: 6.00 Build 0)  -->
<svg version="1.1" id="Layer_1" xmlns="http://www.w3.org/2000/svg" xmlns:xlink="http://www.w3.org/1999/xlink" x="0px" y="0px"
	 viewBox="0 0 681.69 845.54" style="enable-background:new 0 0 681.69 845.54;" xml:space="preserve">
<style type="text/css">
	.st0{fill:#E68563;stroke:#E68563;stroke-miterlimit:10;}
	.st1{fill:#63C5A9;}
	.st2{fill:#133447;}
	.st3{fill:#D6D5CF;}
	.st4{fill:#C4C2B9;}
	.st5{fill:#EFB882;}
	.st6{fill:#E78663;}
	.st7{fill:#E78664;}
	.st8{fill:#F2B980;}
	.st9{fill:#133448;}
	.st10{fill:#A5E77B;}
	.st11{fill:#A5EB7A;}
	.st12{fill:#A3E579;}
	.st13{fill:#A2E578;}
	.st14{fill:#153548;}
	.st15{fill:#F2BB83;}
	.st16{fill:#A0E377;}
	.st17{fill:#59717F;}
	.st18{fill:#EFEFEC;}
	.st19{fill:#334750;}
	.st20{fill:#C4C3BA;}
	.st21{fill:#E2E2DE;}
	.st22{fill:#F9F9F9;}
	.st23{fill:#FEFEFE;}
	.st24{fill:#F5F5F3;}
	.st25{fill:#ABF57D;}
	.st26{fill:#C7C6BE;}
</style>
<path class="st0" d="M202.75,171.21l5.18-1.15c3.17-0.4,4.23,1.82,4.48,4.19c0.84,7.71,5.84,12,12.08,15.35
	c3.95,2.09,8.08,3.86,12.13,5.77c-6.25,1.9-12.48,3.88-18.76,5.69c-12,3.48-24.09,6.81-36.11,10.29
	c-14.55,4.22-29.09,8.49-43.61,12.82c-9,2.66-18,5.43-27,8c-2.24,0.48-4.51,0.82-6.8,1c3.75-6.64,10.73-9.16,16.65-13
	c12.52-8.14,25-16.39,37.7-24.17c5.68-3.47,5.92-8.23,5.07-13.71c-0.22-0.97-0.52-1.93-0.9-2.85c-0.01-0.19,0.01-0.38,0.06-0.56
	c7.84-1,15.7-2,23.53-3.11c4.08-0.59,8.13-1.41,12.14-2.38C200.06,173.06,201.36,172,202.75,171.21z"/>
<title>profile_4</title>
<path class="st1" d="M273.86,462c1.94,15.79,3.92,31.57,5.82,47.37c1.78,14.82,3.39,29.66,5.25,44.48
	c0.87,6.89,2.27,13.72,3.25,20.61c1.63,11.49,3.08,23,4.7,34.5c0.88,6.23,2,12.43,3,18.64c1.66,10.64,3.18,21.31,5,31.93
	c2.38,14.21,4.93,28.4,7.43,42.6c2.12,12.07,4.31,24.14,6.38,36.22c0.63,3.7,0.13,4.17-3.65,4.85s-7.45,1.42-11.17,2.14l-28,4.08
	c-2,0.14-4,0.23-5.94,0.4c-5.83,0.54-7.62-1.29-8.27-7.07c-1.54-13.83-3.35-27.63-5.17-41.42c-1.05-8.05-2.22-16.08-3.52-24.09
	c-1.66-10.14-3.55-20.23-5.28-30.36c-2-11.58-3.86-23.19-5.85-34.78c-2.54-14.86-5.22-29.7-7.69-44.57
	c-1.25-7.51-2.11-15.09-3.3-22.61c-1-6.22-2.33-12.37-3.27-18.59c-0.76-5.07-1.08-10.21-1.73-15.3c-0.81-6.4-1.48-12.84-2.75-19.15
	c-1-5.18-1.94-5.59-7.12-5.55c-7.3,0.06-14.61,0.3-21.91,0.28c-3.8,0-6.48,2.26-7.1,5.57c-2.77,14.81-5.62,29.61-8.13,44.46
	c-2.15,12.74-4,25.53-5.77,38.32c-1.26,9-2.1,18.1-3.27,27.13c-1,7.87-2.3,15.71-3.39,23.58c-1.22,8.84-2.51,17.68-3.52,26.56
	c-1.44,12.49-2.7,25-3.94,37.51c-0.79,7.92-1.28,15.86-2.16,23.76c-1.05,9.37-2.36,18.72-3.59,28.07c-0.34,2.62-1.11,5.22-1.17,7.85
	c-0.08,3.54-2.11,4.16-4.92,3.94c-4.8-0.37-9.59-0.83-14.38-1.25c-2.72-0.36-5.43-0.82-8.16-1.07c-6.53-0.61-13.08-1.12-19.62-1.67
	l-0.49-0.08c-8.25-1.07-8.23-1.46-6.91-9.73c1.75-10.94,3.14-22,4.28-33c1.52-14.67,2.49-29.4,4-44.07
	c1.44-14,3.33-27.92,4.93-41.89c1.12-9.87,1.85-19.79,3.16-29.63c1.66-12.44,3.77-24.81,5.62-37.23c0.56-3.76,0.91-7.55,1.32-11.34
	c0.74-6.91,1.43-13.83,2.2-20.73c0.47-4.11,1.15-8.19,1.58-12.3c1.44-13.67,2.82-27.35,4.22-41c0.07-0.66,0-1.33,0-2
	c7.43-1.38,14.89-2.61,22.26-4.24c2.12-0.47,5.8-0.25,5.44-3.72s-3.62-1.88-5.72-2.17c-4.66-0.66-9.34-1.25-14-1.86
	c13.1-0.32,26.21-0.6,39.31-1c11.11-0.31,22.22-0.78,33.33-1c16.43-0.39,32.86-0.66,49.29-1l-8,2.32c0,0.41,0,0.82-0.07,1.22
	c1.09,0.88,2.3,1.62,3.58,2.19c3,0.91,6,1.59,9.11,2.21C264.19,460.25,269,461.08,273.86,462z"/>
<path class="st2" d="M226,76.35L236.32,71c3.17-2.6,7.69-3.89,8.69-8.71c-3.36-3.12-6.57-6.24-9.93-9.21
	c-11.39-10.06-24-18-39.24-20.5c-10.57-1.74-21.18-1.19-31.73,0.35c-14.4,1.99-27.78,8.56-38.17,18.73l-3.73,3.73l-3.47,3.79
	L116,62.36l-0.1,0.13l-5.78,7.87c-0.28,0.12-0.47,0.38-0.5,0.68l-3.54,6.3c-0.22,0.22-0.35,0.52-0.36,0.83
	c-0.4,1.36-0.88,2.7-1.44,4c-3.28,6.83-7.04,13.53-10,20.51c-1.74,4.1-3.11,8.44-4.82,12.54c-3.27,7.84-7.42,15.32-11.53,23.61
	c3.24,2.1,6.84,4.33,10.31,6.74c1.66,1.27,3.25,2.64,4.76,4.09l2.53,1.78c4.4,2.77,9,5.26,13.16,8.35
	c7.73,5.77,15.61,11.24,24.83,14.27c4.36,1.44,9,2.14,13.44,3.23c1.02,0.33,2.03,0.72,3,1.17l1.89,0.25l11,0.2
	c7.84-1,15.7-2,23.53-3.11c4.08-0.59,8.13-1.41,12.14-2.38c1.48-0.36,2.78-1.45,4.17-2.21c-1.3-4.43-2.46-8.9-3.93-13.27
	c-2-6.13-5.94-11-10.73-15.28c-8-7.2-15.72-14.69-23.53-22.09c-4.41-4.18-4.36-9.5-3.3-14.84c0.38-2,1.08-4.61,3.89-4.46
	s3.08,2.66,3.52,4.77c0.27,1.29-0.06,2.81,0.5,3.91c0.67,1.32,2,2.3,3.06,3.43c1.1-1.06,2.13-2.18,3.11-3.35
	c0.3-0.62,0.39-1.32,0.25-2c-0.34-6.82,3.11-10.36,9.35-12.85C195.73,91,206.16,85.77,216.74,81L226,76.35z"/>
<path class="st3" d="M306,304.2c3.12-0.3,6.24-0.59,9.36-0.91c6.2-0.61,7.53,1.55,7.47,6.31c-0.23,15.48-0.08,31-0.08,46.45
	c0,6.06,0,6.05-6,6.19c-0.83,0-1.66,0.07-2.49,0.11l-26.4-0.1c-37.93,0.53-75.85-0.94-113.78,0.82c-18.11,0.84-36.3,0.11-54.45,0.09
	c-0.34-19.29-0.67-38.57-1-57.86l56.37-1.15l13.47-0.07c6.2,1,12.34-0.53,18.62-0.09c14.5,1,29.08,0.93,43.63,1.19
	c6.63,0.13,13.27,0.13,19.91,0c2.78-0.19,5.55-0.53,8.29-1c0.93,0.32,1.91,0.54,2.89,0.63C289.85,304.66,297.93,304.42,306,304.2z
	 M148.77,338.2c0.28,1.46,0.57,2.92,0.85,4.38l-0.71,0.25l-3.5-3.82c-0.31,1.15-0.75,1.83-0.58,2.3c0.81,2.25,1.71,4.28,0.34,6.83
	c-0.43,0.8,1.17,2.68,2.06,4.51l2.64-2.85l2.53,1.15c0-2.64-0.35-4.92,0.08-7c0.68-3.36-0.56-5.05-3.73-5.69l3.82-3.23l-4.57-4.86
	l4.33-1.5l-2-4.95c3.5-1.26,0.27-4.84,2.27-6.74c0.37-0.35-0.22-1.71-0.37-2.63c-1.95,0.47-3.6,0.73-5.15,1.27
	c-2,0.69-3,2-1.86,4.17c0.28,0.53,0.84,1,0.85,1.56c0.06,5.5,0,11,0,16.68L148.77,338.2z M282.87,347.47
	c1.61-0.28,3.4-0.2,4.78-0.92c4.86-2.55,8-10,7-15.93c-1.14-6.87-5.37-12.2-11-13.19c-1.75-0.31-4.46,0-5.47,1.13
	c-4.75,5.39-7.44,11.74-6.32,19.12c0.84,5.49,5.48,9.61,11.03,9.79H282.87z M156.09,349.61c2.64-4.29,1.44-8,1.62-11.43
	c0.21-3.81,0.06-7.63,0.06-11.45c0-8.13,0-8.13-1.68-10.49V349.61z"/>
<path class="st4" d="M236.62,195.37l27-7.57c6-1.68,12-3.25,18-5.08c1.91-0.58,3.39-0.59,4,1.42c2.58,8.28,5,16.61,7.59,25.11
	l-12.3,4.75c-1.61,0.36-3.23,0.65-4.82,1.08c-8.91,2.38-17.85,4.66-26.71,7.22c-17.84,5.17-35.63,10.5-53.44,15.77l-7.24,2.24
	c-1.31,0.07-2.61,0.24-3.89,0.5c-13.85,3.8-27.72,7.54-41.52,11.53c-8.21,2.37-16.31,5.16-24.46,7.76
	c-1.18,0.38-2.35,0.83-3.55,1.11c-3.19,0.73-6.4,1.38-9.6,2.06l-12.87,4c-0.9-0.81-2.32-1.47-2.61-2.46
	c-2.2-7.59-4.2-15.21-6.39-23.41l20.52-8.19c2.29-0.18,4.56-0.52,6.8-1c9-2.59,18-5.36,27-8c14.53-4.3,29.07-8.57,43.61-12.82
	c12-3.48,24.09-6.81,36.11-10.29C224.14,199.25,230.37,197.27,236.62,195.37z M120.74,245.69l10-3.74c-2.75-6.46-4-6.93-9.42-3.91
	c-2.1,1.21-4.38,2.07-6.76,2.55c-3.11,0.63-7.21,1.14-7,6.21c-2.66-2.55-5.86-2.66-8.32-0.51c-2,1.78-1.92,3.14,0.67,6.92
	l18.88-5.51c-0.38-2.15-0.64-3.63-0.89-5.1l1-0.33L120.74,245.69z M265.45,207.9c4.82,1.52,9.16-0.14,10.22-3.88
	c1.13-4-2.14-7.8-8.33-9.53C262.55,198.13,262.54,202.61,265.45,207.9z"/>
<path class="st5" d="M226,76.35L236.32,71c0.28,1.12,0.64,2.22,1.07,3.29c2.92,6.11,5.79,12.25,8.92,18.25
	c1.25,2.28,2.8,4.38,4.6,6.26c1.75,1.91,4,3.37,5.78,5.26c1.94,2.06,1.24,4.53-0.23,6.39c-1.79,2.14-3.81,4.1-6,5.83
	c-3.8,3.14-8.23,5.75-7.94,11.9L226,125.23c-0.71,6.32,4.71,8.67,7.85,12.86c-3.16,6.22-8.52,10.1-14.72,13
	c-2.85,1.34-5.87,2.31-8.69,3.68c-3.06,1.48-4,3.6-3.49,6.9c0.39,2.78,0.66,5.58,1,8.37l-5.18,1.15c-1.3-4.43-2.46-8.9-3.93-13.27
	c-2-6.13-5.94-11-10.73-15.28c-8-7.2-15.72-14.69-23.53-22.09c-4.41-4.18-4.36-9.5-3.3-14.84c0.38-2,1.08-4.61,3.89-4.46
	s3.08,2.66,3.52,4.77c0.27,1.29-0.06,2.81,0.5,3.91c0.67,1.32,2,2.3,3.06,3.43c1.1-1.06,2.13-2.18,3.11-3.35
	c0.3-0.62,0.39-1.32,0.25-2c-0.34-6.82,3.11-10.36,9.35-12.85c10.77-4.16,21.2-9.39,31.78-14.16L226,76.35z M219.14,81.73
	c-1.24,1.5-2.41,3.06-3.49,4.68c-1.27,2.1-1.86,4.24,0.69,5.29c3.09-1.84,5.81-3.29,8.34-5c1.4-1,3.14-2.21,3.53-3.66
	c0.67-2.41-2-2.44-3.48-3.29L219.14,81.73z M224.23,96.47c-3.5,3.87-3.49,5.41-0.11,9.34c3.79-3.07,3.88-5.65,0.14-9.34
	L224.23,96.47z"/>
<path class="st6" d="M92.81,267.23l12.87-4c0,11.43,0,22.86,0.15,34.29c0.13,2.02,0.39,4.02,0.79,6l12,1.74
	c0.34,19.29,0.67,38.57,1,57.86c-6.5,0-13,0-19.5,0.07c-3.86,0-4.37,0.47-4.26,4.34c0.1,3.64,0.8,7.25,0.86,10.88
	c0.13,8.33,0,16.67,0,25c0,10.11-0.68,8.62,8.89,8.8l-0.06,32.89l-19-0.81l-10.88-2.57c0.46-7.67,0.84-15.25,1.38-22.82
	c0.5-6.95,1.09-13.89,1.77-20.81c0.84-8.74,1.81-17.47,2.68-26.21c0.79-7.91,1.48-15.83,2.28-23.74c0.91-8.9,2-17.78,2.8-26.69
	c0.57-6.44,0.56-12.94,1.26-19.37c0.92-8.55,2.26-17.05,3.46-25.56C91.78,273.44,92.32,270.34,92.81,267.23z"/>
<path class="st7" d="M195.94,238.06c17.81-5.27,35.6-10.6,53.44-15.77c8.86-2.56,17.8-4.84,26.71-7.22
	c1.59-0.43,3.21-0.72,4.82-1.08c5.75,3.63,9.2,9,11.6,15.19c5.2,13.27,8.64,27.17,10.24,41.34C304,281.73,304.94,293,306,304.2
	c-8.09,0.22-16.17,0.46-24.26,0.62c-0.98-0.09-1.96-0.31-2.89-0.63c-0.04-19.64-0.08-39.28-0.11-58.92c0-7.28,0.74-7.2-7.43-7.19
	C246.2,238.12,221.07,238.07,195.94,238.06z"/>
<path class="st8" d="M100.88,749.34c6.54,0.55,13.09,1.06,19.62,1.67c2.73,0.25,5.44,0.71,8.16,1.07c-1.74,13.21-5.92,26.06-6,39.53
	c-0.16,1.64-0.5,3.27-1,4.84c-0.67,1.44-1.42,2.84-2,4.31c-3.89,9.92-9,18.84-19.38,23.31c-6.64,2.85-8,0.9-9.24-6.08
	c-0.02-0.68,0.08-1.36,0.3-2c1.09-5.44,2.19-10.88,3.3-16.33c0.86-5,1.86-10,2.57-15c0.98-7,1.84-14,2.58-21
	C100.27,758.89,100.52,754.11,100.88,749.34z"/>
<path class="st6" d="M287.84,362.25l26.4,0.1c0.83,7.4,1.62,14.8,2.51,22.2c0.8,6.73,1.75,13.45,2.56,20.19
	c1.2,9.87,2.35,19.75,3.46,29.64c0.03,1.1-0.04,2.2-0.19,3.29l-8.76,1.58l-7.9,0.9c-0.05-8.91,0-17.82-0.17-26.73
	c-0.17-2.1-0.47-4.19-0.91-6.25h-17C287.83,392.19,287.83,377.22,287.84,362.25z"/>
<path class="st8" d="M271.8,749.39l28-4.08c1.65,11.17,3.33,22.34,5,33.52c1.39,9.57,8,14.66,15.94,18.57
	c0.89,0.43,1.73,1,2.59,1.44h-0.22l1.49,0.4c2.36,1.42,4.72,2.86,7.09,4.27c2.55,1.52,5.22,2.89,7.63,4.61
	c0.85,0.62,1.1,2.08,1.72,3.36c-9.25,1.73-21.65-0.22-27.2-2.94c-7.88-3.86-15.66-7.93-23.35-12.15c-3.75-2.06-7.5-4.33-9.57-8.43
	c-0.21-0.43-1.12-0.5-1.71-0.74L271.8,749.39z"/>
<path class="st9" d="M279.15,787.19c0.59,0.24,1.5,0.31,1.71,0.74c2.07,4.1,5.82,6.37,9.57,8.43c7.69,4.22,15.47,8.29,23.35,12.15
	c5.55,2.72,18,4.67,27.2,2.94c-0.62-1.28-0.87-2.74-1.72-3.36c-2.41-1.72-5.08-3.09-7.63-4.61c-2.37-1.41-4.73-2.85-7.09-4.27
	c7.48,2.85,15,5.58,22.42,8.59c4.81,1.89,9.09,4.92,12.46,8.84c0.88,0.98,1.68,2.02,2.39,3.13c2,3.41,1.78,4.68-1.48,7.06
	c-3.95,2.78-8.68,4.26-13.51,4.24c-4.96,0.1-9.92-0.26-14.82-1.07c-13.73-2.37-27-6.09-39.35-12.93
	c-5.11-2.83-10.27-5.32-14.27-9.69c-2.63-2.88-4-6-2.66-9.94C276.86,794.03,278,790.61,279.15,787.19z"/>
<path class="st10" d="M491.07,140.41c-0.93-1.82-1.85-3.35-2.52-5c-3.05-7.35-6-14.75-9.05-22.1c-1.57-3.76-2.29-4-6-2.26
	c-4.51,2.09-9,4.31-13.54,6.22c-1.74,0.73-3.77,0.75-6.33,1.21c-7.06-18.62-14-36.84-21.07-55.52c8.07-3.49,15.56-6.79,23.1-10
	c9-3.8,18-7.47,27-11.3c3.61-1.54,4.79-0.94,6.57,2.89c2.56,5.53,5.49,10.88,8.16,16.35c1.35,2.77,2.49,5.65,3.89,8.85
	c2.18-0.77,3.89-1.28,5.53-2c4-1.69,7.86-3.55,11.85-5.21c4.6-1.9,6-1.28,8,3.31c2.62,6.09,5.19,12.22,7.85,18.3s5.54,11.94,8,18
	c2,4.86,3.44,9.91,5.37,15.58C529.2,125.5,511,134.08,491.07,140.41z M493.65,137.35c8.49-3.53,16.32-6.77,24.13-10
	c7.81-3.23,15.77-6.62,23.64-10c2.28-1,3.05-2.34,1.41-4.66c-0.88-1.39-1.59-2.88-2.13-4.43c-3.13-7.63-6.24-15.26-9.33-22.91
	c-0.91-2.26-1.68-4.59-2.68-6.81c-2-4.45-4.13-8.86-6.28-13.43c-3.17,1.14-6,2-8.75,3.17c-12.67,5.31-25.3,10.7-37.95,16
	c-3.17,1.34-3.75,2.45-2.41,5.82c1.68,4.28,3.63,8.45,5.32,12.72c2.18,5.49,4,11.13,6.38,16.54
	C487.63,125.43,490.69,131.27,493.65,137.35z M497.5,70.21c0-0.85,0.11-1.23,0-1.49c-3.66-7.67-7.32-15.33-9.85-23.48
	c-0.62-2-2-2.34-3.94-1.48c-4.62,2.06-9.3,4-13.9,6.07c-9.45,4.3-18.85,8.69-28.29,13c-3.62,1.64-4.57,2.78-3.56,6.24
	c1.33,4.57,3.05,9,4.74,13.49c2.16,5.65,4.49,11.24,6.69,16.88c1.94,5,3.8,9.94,5.86,15.34c7.06-3.2,14.27-4,19.83-9.25
	c-2.27-6.2-4.36-12.1-6.6-17.94c-0.78-2-1.36-4.07,1-5.11c6-2.59,12.13-4.83,18.13-7.4C491.06,73.61,494.34,71.78,497.5,70.21z"/>
<path class="st11" d="M0,337.12c14.07-4.24,21.37-13.86,26.66-25.85c16.34,1.86,31.42-2.5,46.15-11.27
	c-0.79,4.63-2.73,8.99-5.64,12.67c-6.85,8.8-14.11,17.3-24.09,22.81c-2.7,1.61-5.61,2.83-8.64,3.64
	C23.31,341.66,12.2,341.71,0,337.12z"/>
<path class="st12" d="M416.77,382.49c-0.01,1.74,0.08,3.48,0.26,5.21c0.81,4.88,1.82,9.74,2.6,14.63c0.57,3.63-0.21,4.85-3.95,5.53
	c-8.64,1.56-17.32,2.9-26,4.35c-4.55,0.76-9.09,1.65-13.66,2.33c-5.21,0.77-10.45,1.38-16.5,2.16c-0.83-4.19-1.8-8.47-2.51-12.78
	c-1.77-10.77-3.46-21.56-5.09-32.35c-0.56-3.76-0.64-7.59-1.14-11.37c-0.41-3.07,0.64-4.65,3.81-5.06
	c6.58-0.84,13.14-1.83,19.69-2.86c3.08-0.48,6.13-1.21,9.95-2c-1.07-5.82-2.07-11.29-3.09-16.76c-0.16-0.81-0.48-1.59-0.69-2.39
	c-1-3.89-0.19-5.65,3.73-6.38c5.68-1,11.43-1.79,17.16-2.52c9.53-1.2,19.07-2.3,28.61-3.4c3-0.33,5.92-0.52,9.4-0.81
	c4.14,19.42,6.72,38.82,9.6,58.39L416.77,382.49z M416.42,404.41c-0.62-5.73-1-11-1.8-16.16c-1.83-11.53-4-23-5.77-34.55
	c-0.44-2.91-1.78-3.79-4.29-3.43c-7,1-14,2-21,3.15c-9.24,1.52-18.45,3.27-27.71,4.76c-2.66,0.43-3.36,1.82-2.91,4.15
	c0.77,4,1.73,8,2.4,12.09c1.23,7.47,2.29,15,3.45,22.45c0.7,4.55,1.34,9.13,2.25,13.64c0.47,2.29,2,3.18,4.51,2.37
	c2.35-0.74,4.77-1.28,7.21-1.62c11.73-1.74,23.47-3.35,35.19-5.1C410.8,405.74,413.6,405,416.42,404.41L416.42,404.41z
	 M411.21,346.22c2,11.51,3.9,22.15,5.83,33.09l29.7-4.75c-1-5.52-2-10.82-3-16.13c-2-11.31-4-22.64-6.11-33.94
	c-0.29-1.6-0.88-3.3-3.09-3.26c-3,0-6-0.14-9,0.19c-10.29,1.17-20.56,2.45-30.81,3.84c-2.92,0.4-5.77,1.3-8.64,2
	c-2.38,0.56-2.53,2.26-2.2,4.26c0.63,3.88,1.27,7.77,1.82,11.66c0.52,3.71,1.75,5.06,5.39,5c3.12-0.06,6.23-0.47,9.34-0.78
	C404.06,347,407.6,346.62,411.21,346.22z"/>
<path class="st13" d="M23,447.41c0.34,0.95,0.76,2.14,1.21,3.43c0.43,0.17,0.88,0.29,1.34,0.36c7.29,0.43,13-3.54,18.8-7
	c1.7-1,3.14-2.45,4.76-3.62c2.68-1.95,4.2-1.3,4.58,2s0.6,6.9,1,10.35C56.26,467,63.37,477.32,75.82,484
	c1.45,0.89,2.85,1.85,4.2,2.89c-0.27,0.83-0.67,1.6-1.18,2.31c-8.41,7.88-17.57,14.66-28.4,18.87c-11,4.29-20.47,2.32-28.16-7
	c-7.57-8.85-13.01-19.32-15.89-30.6c-1.6-6.84-1.16-13.99,1.27-20.58L23,447.41z M22,454.16c-0.56,11.22-0.69,21.63,2.2,31.76
	c1.48,5.04,3.29,9.98,5.43,14.78c1.31,3.09,4.11,5.3,7.42,5.84c5.22,1.16,9.87-0.2,14.28-2.27c5.68-2.71,11.18-5.77,16.47-9.17
	c3-1.87,5.89-4.18,7.07-7.88c-0.42-0.38-0.87-0.73-1.34-1.06c-13-7.61-20.7-18.6-21.82-33.89c-0.37-2.79-0.91-5.55-1.62-8.27
	C41.61,450.51,33.14,455.46,22,454.16z"/>
<path class="st14" d="M94.61,799.71c-1.07,5.44-2.17,10.87-3.3,16.29c-0.22,0.64-0.32,1.32-0.3,2c1.28,7,2.6,8.93,9.24,6.08
	c10.42-4.47,15.49-13.39,19.38-23.31c0.58-1.47,1.33-2.87,2-4.31c0.88,9.11-0.44,18.31-3.86,26.8c-3.7,9.41-10.93,17-20.15,21.14
	c-9.08,4-16-3.22-16.67-11.38c-0.23-3.96,0.51-7.91,2.15-11.52c3-6.61,6.78-12.84,10.24-19.24
	C93.79,801.43,94.18,800.56,94.61,799.71z"/>
<path class="st13" d="M631.46,0c5.32,1.71,10.22,3.18,15,4.87c6.57,2.3,13,5,19.65,7.08c3.1,0.79,5.63,3.02,6.8,6
	c2.9,7.24,5.7,14.52,8.41,21.84c0.39,1.09,0.44,2.27,0.13,3.39c-3.35,10.57-6.79,21.11-10.24,31.65c-0.14,0.43-0.58,0.77-1.23,1.61
	c-6-1.93-12-4-18.13-5.87c-12.31-3.82-24.64-7.6-37-11.34c-3.27-1-3.62-1.49-2.45-5c2.37-7.26,4.81-14.5,7.31-21.72
	c3.3-9.56,6.68-19.09,10-28.62C630.19,2.75,630.71,1.72,631.46,0z M669.6,16.7c-0.91-0.51-1.85-0.97-2.81-1.37
	c-9.85-3.33-19.74-6.53-29.55-10c-4.3-1.51-4.38-1.66-5.91,2.76c-4.16,12-8.3,24.02-12.42,36.05c-1.26,3.68-2.31,7.44-3.5,11.32
	l53,17c3.13-9.86,6.26-19.37,9.05-29c0.3-1-1.06-3-2.13-4c-2.31-2.1-5-3.82-7.42-5.76c-1.88-1.22-2.59-3.64-1.66-5.68
	C667.53,24.58,668.4,20.88,669.6,16.7z"/>
<path class="st12" d="M337.52,523.88l56.84,19.82c-4.5,19.51-12.5,37.51-17.51,56.95c-8.9-2.83-17-5.46-25.21-8
	c-10.26-3.2-20.53-6.38-30.83-9.42c-2.7-0.79-3.5-2-2.57-4.7c2.25-6.43,4.31-12.92,6.54-19.35c3.64-10.5,7.31-20.98,11-31.45
	C336.2,526.66,336.74,525.65,337.52,523.88z M321.34,579.47l52.9,17L391,546.23c-6.51-2.44-12.46-4.82-18.5-6.92
	c-9.5-3.29-19.11-6.27-28.6-9.6c-5.21-1.83-5.13-2-6.88,3.1c-3.72,10.92-7.48,21.83-11.18,32.76
	C324.3,570.07,322.9,574.61,321.34,579.47L321.34,579.47z"/>
<path class="st15" d="M86.59,444.33l19,0.81c0.15,2.91,0.31,5.82,0.49,9.19h26.72c4.67,0.61,9.35,1.2,14,1.86
	c2.1,0.29,5.38-1.16,5.72,2.17s-3.32,3.25-5.44,3.72c-7.37,1.63-14.83,2.86-22.26,4.24c-6,0-11.91,0.05-17.86-0.14
	c-2.79-0.04-5.56-0.44-8.25-1.18c-1.69-0.56-3.11-1.72-4-3.26C91.79,456,89.26,450.15,86.59,444.33z"/>
<path class="st16" d="M414.33,223.2c-14.52,0-28.64,0.05-42.77-0.07c-1.27-0.14-2.43-0.79-3.21-1.8c-4.66-6.46-9.25-13-13.66-19.61
	c-0.98-1.54-1.51-3.33-1.53-5.16c0.1-10.63,0.4-21.25,0.66-31.88c0-0.29,0.25-0.58,0.54-1.21h60L414.33,223.2z M412.28,220.77
	v-53.94c-4.39-1.81-50.51-2.47-56.5-0.69c0,9.38,0,18.85,0,28.32c0,5.17,0.5,5.67,5.72,5.74c3.93,0.06,7.87,0,12,0v20.56
	L412.28,220.77z"/>
<path class="st15" d="M305.92,440.15l7.9-0.9c-1.66,5.52-3.28,11.06-5,16.57c-1.23,4-3.68,5.64-8.15,5.55
	c-8.94-0.18-17.89,0.36-26.83,0.6c-4.83-0.89-9.67-1.72-14.48-2.68c-3.06-0.62-6.13-1.3-9.11-2.21c-1.28-0.57-2.49-1.31-3.58-2.19
	c0-0.4,0-0.81,0.07-1.22l8-2.32l44.74-1.14c0.83,0,1.67,0.05,2.49,0c2.41-0.25,4-1.19,3.85-4.06
	C305.67,444.14,305.87,442.14,305.92,440.15z"/>
<path class="st17" d="M105.75,78.17c-0.4,1.36-0.88,2.7-1.44,4C101,89,97.24,95.7,94.28,102.68c-1.74,4.1-3.11,8.44-4.82,12.54
	c-3.27,7.84-7.42,15.32-11.53,23.61c3.24,2.1,6.84,4.33,10.31,6.74c1.66,1.27,3.25,2.64,4.76,4.09c-5.16-3.22-10.37-6.35-15.42-9.73
	c-0.81-0.54-0.61-2.45-1.37-3.23s-2-0.61-3.56-1c2.91-4.59,5.19-9.06,8.29-12.85c5.77-7.07,9.23-15.37,13.34-23.33
	c3.35-6.5,6.57-13.07,9.89-19.59C104.62,79.28,105.15,78.68,105.75,78.17z"/>
<path class="st17" d="M95.5,151.44c4.4,2.77,9,5.26,13.16,8.35c7.73,5.77,15.61,11.24,24.83,14.27c4.36,1.44,9,2.14,13.44,3.23
	c1.02,0.33,2.03,0.72,3,1.17c-7.54,0.71-14.49-1.75-21.15-4.64c-5.1-2.4-9.99-5.22-14.63-8.43c-5.14-3.34-10.07-7-15-10.65
	C97.87,153.71,96.65,152.61,95.5,151.44z"/>
<path class="st17" d="M162.91,178.91c-0.05,0.18-0.07,0.37-0.06,0.56l-11-0.76L162.91,178.91z"/>
<path class="st17" d="M115.93,62.49l-5.78,7.87L115.93,62.49z"/>
<path class="st17" d="M109.65,71l-3.54,6.3L109.65,71z"/>
<path class="st17" d="M125.94,51.64l-3.73,3.73L125.94,51.64z"/>
<path class="st17" d="M118.74,59.16l-2.74,3.2L118.74,59.16z"/>
<path class="st9" d="M323.05,798.81h0.22H323.05z"/>
<path class="st18" d="M305.92,440.15c-0.05,2-0.25,4-0.11,6c0.19,2.87-1.44,3.81-3.85,4.06c-0.82,0.08-1.66,0-2.49,0l-44.74,1.14
	c-16.43,0.32-32.86,0.59-49.29,1c-11.11,0.26-22.22,0.73-33.33,1c-13.1,0.36-26.21,0.64-39.31,1h-26.74
	c-0.18-3.37-0.34-6.28-0.49-9.19l0.06-32.89l182.22-5.08h17c0.44,2.06,0.74,4.15,0.91,6.25
	C305.88,422.33,305.87,431.24,305.92,440.15z M119.78,444.38c3.68-0.37,7.59-1.22,11.45-1.07c10,0.39,20.13-1.77,30.88,2.18
	c-0.45-10.16-0.87-19.6-1.29-29c-1.71-0.12-2.53-0.25-3.35-0.23c-10.75,0.32-21.5,0.6-32.24,1c-4.15,0.16-5.42,1.67-5.44,5.94
	C119.75,430,119.78,436.73,119.78,444.38L119.78,444.38z M223.69,434.5c0.63,2.86,1.14,5.15,1.82,8.23c1-1.63,1.56-2.5,1.77-2.82
	c3.08-0.76,5.64,3.11,7.82,0.2c1.52-2,1.73-5,2.52-7.63l6.84-0.71l-0.12-1.09c-7.86-2.46-15.79-1.09-23.82-0.64
	s-16.31-0.75-24.47-0.71c-8,0-15.89,0.72-23.83,1.12c0,0.45,0,0.89,0,1.33c9.63,1.67,19.63-1.6,29.35,1c-1.06,3-5.49-1.78-5.36,3.28
	c3.09-0.16,5.88,0.25,7,4.57c0.49-2,0.72-2.9,0.92-3.7l5.56-2.31l-0.33-1.05h-5.22v-1l30.25-1.1v6.26
	C229.84,439.57,228.13,434,223.69,434.5L223.69,434.5z"/>
<path class="st19" d="M224.76,79.72c1.47,0.85,4.15,0.88,3.48,3.29c-0.39,1.45-2.13,2.7-3.53,3.66c-2.53,1.74-5.25,3.19-8.34,5
	c-2.55-1-2-3.19-0.69-5.29c1.08-1.62,2.25-3.18,3.49-4.68c0,0,3.2-1.66,4-1.92C223.68,79.61,224.24,79.59,224.76,79.72z"/>
<path class="st20" d="M287.85,407.17l-182.22,5.08c-9.57-0.18-8.9,1.31-8.89-8.8c0-8.33,0.1-16.67,0-25
	c-0.06-3.63-0.76-7.24-0.86-10.88c-0.11-3.87,0.4-4.29,4.26-4.34c6.5-0.08,13-0.05,19.5-0.07c18.15,0,36.34,0.75,54.45-0.09
	c37.93-1.76,75.85-0.29,113.78-0.82C287.85,377.22,287.84,392.2,287.85,407.17z M157.94,391.1c7.88,1.76,15.57,3,22.95,5.25
	s14.3,3.65,21.24-0.78c0.47-0.18,0.95-0.3,1.45-0.35l20.95-5.39v-10.95c-9.55-1.58-18.94-3.24-28.36-4.64
	c-9.21-1.37-17.63,1.94-26,4.91c-4.17,1.46-8.25,3.15-12.18,4.67L157.94,391.1z"/>
<path class="st18" d="M195.94,238.06c25.13,0,50.26,0.06,75.39,0c8.17,0,7.42-0.09,7.43,7.19c0,19.64,0.04,39.28,0.11,58.92
	c-2.74,0.47-5.51,0.81-8.29,1c-6.67,0.14-13.3,0.14-19.91,0c-14.55-0.26-29.13-0.19-43.63-1.19c-6.28-0.44-12.42,1.09-18.62,0.1
	c0.1-2,0.27-4,0.28-6c0-19.28,0-38.56,0-57.83L195.94,238.06z M271.68,249.32c-1.88-0.52-3.8-0.88-5.74-1.06
	c-21.31-0.07-42.61,0-63.92,0c-0.83,0-1.82-0.26-2.46,0.1c-1,0.58-2.57,1.54-2.6,2.39c-0.22,6.07-0.12,12.15-0.12,18
	c16,0.52,31.24,1.17,46.49,1.44c7.93,0.13,15.88-0.43,23.82-0.66c3.71-0.1,3.37-0.05,3.05-3.67
	C269.74,260.52,268.56,255.07,271.68,249.32L271.68,249.32z M225.14,293.88c1.46,0.42,2.95,0.72,4.46,0.87
	c4.07,0.12,8.15-0.14,12.21,0.06c1.65,0.08,2.82-0.2,2.64-1.83c-0.33-3-0.26-6.62-1.91-8.81c-1-1.4-4.88-0.71-7.46-0.95
	c-0.33,0-0.66,0-1,0C224.1,283.21,224.1,283.21,225.14,293.88L225.14,293.88z M246.78,295.52c6.32-1.19,12,0.94,17.57-0.57
	c-0.67-2-1.4-3.3-1.52-4.66c-0.63-7.06-0.58-7.07-7.91-7.07c-1.49-0.07-2.99-0.05-4.48,0.06c-2.43,0.3-3.92,1.45-3.7,4.25
	C246.92,289.82,246.78,292.14,246.78,295.52L246.78,295.52z"/>
<path class="st21" d="M118.58,305.3l-12-1.74c-0.4-1.98-0.66-3.98-0.79-6c-0.12-11.43-0.11-22.86-0.15-34.29
	c3.2-0.68,6.41-1.33,9.6-2.06c1.2-0.28,2.37-0.73,3.55-1.11H175v44.06L118.58,305.3z M137.47,280.77c-4.65-0.44-9-0.89-13.37-1.25
	c-0.87-0.07-2,0.57-2.61,0.22c-1.54-1.02-3.61-0.59-4.63,0.95c-0.04,0.07-0.08,0.13-0.12,0.2c-0.51,0.7-0.89,2.46-0.66,2.59
	c1.3,0.85,2.76,1.42,4.29,1.66c2.44,0.24,4.72-0.27,7.39,0.54s6.19-0.12,9.16,1.46c0.66,0.12,1.33-0.05,1.85-0.47
	c3.34-2.54,7.54-1.44,10.73-1.05c4.07,0.31,8.11,0.96,12.07,1.94c1.25,0.28,2.53,0.37,3.81,0.26c0.29,0,0.58-0.64,0.91-1.05
	l-1.62-0.92c0.24-1.86,0.36-3.74,0.37-5.62c0-0.32-1.87-1-2-0.82c-1.17,1.49-2.14,3.14-3.2,4.78c-0.34-0.77,0.63-3.37-2.34-2.55
	c-1.44,0.4-2.76-2.8-4.73-0.49c-0.59,0.43-1.34,0.6-2.06,0.47c-3.43-0.46-6.84-1-10.29-1.57l-2.94,6L137.47,280.77z"/>
<path class="st7" d="M175,304.15v-44.06h-56.17c8.15-2.6,16.25-5.39,24.46-7.76c13.8-4,27.67-7.73,41.52-11.53
	c1.28-0.26,2.58-0.43,3.89-0.5c0,19.27,0,38.54,0,57.83c0,2-0.18,4-0.28,5.95L175,304.15z"/>
<path class="st22" d="M282.89,347.47c-5.54-0.2-10.16-4.31-11-9.79c-1.12-7.38,1.57-13.73,6.32-19.12c1-1.14,3.72-1.44,5.47-1.13
	c5.66,1,9.89,6.32,11,13.19c1,6-2.16,13.38-7,15.93C286.29,347.27,284.5,347.19,282.89,347.47z M292.34,335
	c-0.59-3.23-0.82-5.54-1.45-7.72c-1.23-4.26-4.44-6.46-8.44-7.11c-4.73-0.78-5,3.26-6.22,5.65c-2.39,4.78-3.59,9.88-0.63,15.12
	s10.13,6.17,13.51,1.31C290.71,339.89,291.45,337,292.34,335z"/>
<path class="st22" d="M148.79,338.2l-2.66-0.17c0-5.69,0-11.18,0-16.68c0-0.52-0.57-1-0.85-1.56c-1.16-2.18-0.12-3.48,1.86-4.17
	c1.55-0.54,3.2-0.8,5.15-1.27c0.15,0.92,0.74,2.28,0.37,2.63c-2,1.9,1.23,5.48-2.27,6.74l2,4.95l-4.33,1.5l4.62,4.82l-3.82,3.23
	L148.79,338.2z"/>
<path class="st22" d="M148.77,338.22c3.17,0.64,4.41,2.33,3.73,5.69c-0.43,2.12-0.08,4.4-0.08,7l-2.53-1.15l-2.64,2.85
	c-0.89-1.83-2.49-3.71-2.06-4.51c1.37-2.55,0.47-4.58-0.34-6.83c-0.17-0.47,0.27-1.15,0.58-2.3l3.5,3.82l0.71-0.25
	c-0.28-1.46-0.57-2.92-0.85-4.38L148.77,338.22z M149.3,346.59c-0.17-0.25-0.28-0.58-0.51-0.71s-0.48,0.06-0.73,0.11l0.58,1
	L149.3,346.59z"/>
<path class="st23" d="M156.11,349.61v-33.37c1.69,2.36,1.69,2.36,1.68,10.49c0,3.82,0.15,7.64-0.06,11.45
	C157.55,341.64,158.75,345.32,156.11,349.61z"/>
<path class="st24" d="M120.74,245.69l-1.87-3.42l-1,0.33c0.25,1.47,0.51,3,0.89,5.1l-18.88,5.51c-2.59-3.78-2.71-5.14-0.67-6.92
	c2.46-2.15,5.66-2,8.32,0.51c-0.25-5.07,3.85-5.58,7-6.21c2.38-0.48,4.66-1.34,6.76-2.55c5.44-3,6.67-2.55,9.42,3.91L120.74,245.69z
	"/>
<path class="st24" d="M265.45,207.9c-2.91-5.29-2.9-9.77,1.89-13.41c6.19,1.73,9.46,5.51,8.33,9.53
	C274.61,207.76,270.27,209.42,265.45,207.9z M274.2,201.9l-5.13-4.9c-3.52,3.1-4.15,6.15-2.15,8.4c1.65,1.81,3.3,1.14,7.28-3.53
	V201.9z"/>
<path class="st2" d="M224.26,96.47c3.75,3.69,3.65,6.27-0.11,9.34C220.77,101.88,220.76,100.34,224.26,96.47z"/>
<path class="st25" d="M493.65,137.35c-3-6.08-6-11.92-8.65-17.94c-2.37-5.41-4.2-11-6.38-16.54c-1.69-4.27-3.64-8.44-5.32-12.72
	c-1.34-3.37-0.76-4.48,2.41-5.82c12.65-5.35,25.28-10.74,37.95-16c2.73-1.14,5.58-2,8.75-3.17c2.15,4.57,4.28,9,6.28,13.43
	c1,2.22,1.77,4.55,2.68,6.81c3.1,7.64,6.21,15.28,9.33,22.91c0.54,1.55,1.25,3.04,2.13,4.43c1.64,2.32,0.87,3.69-1.41,4.66
	c-7.87,3.33-15.75,6.67-23.64,10C510,130.58,502.14,133.82,493.65,137.35z"/>
<path class="st25" d="M497.5,70.21c-3.16,1.57-6.44,3.4-9.87,4.87c-6,2.57-12.14,4.81-18.13,7.4c-2.4,1-1.82,3.07-1,5.11
	c2.24,5.84,4.33,11.74,6.6,17.94c-5.56,5.24-12.77,6-19.83,9.25c-2.06-5.4-3.92-10.38-5.86-15.34c-2.2-5.64-4.53-11.23-6.69-16.88
	c-1.69-4.46-3.41-8.92-4.74-13.49c-1-3.46-0.06-4.6,3.56-6.24c9.44-4.31,18.84-8.7,28.29-13c4.6-2.09,9.28-4,13.9-6.07
	c1.9-0.86,3.32-0.53,3.94,1.48c2.53,8.15,6.19,15.81,9.85,23.48C497.61,69,497.5,69.36,497.5,70.21z"/>
<path class="st25" d="M416.42,404.41c-2.82,0.59-5.62,1.33-8.47,1.75c-11.72,1.75-23.46,3.36-35.19,5.1
	c-2.44,0.34-4.86,0.88-7.21,1.62c-2.51,0.81-4-0.08-4.51-2.37c-0.91-4.51-1.55-9.09-2.25-13.64c-1.16-7.48-2.22-15-3.45-22.45
	c-0.67-4.05-1.63-8.05-2.4-12.09c-0.45-2.33,0.25-3.72,2.91-4.15c9.26-1.49,18.47-3.24,27.71-4.76c7-1.16,14-2.17,21-3.15
	c2.51-0.36,3.85,0.52,4.29,3.43c1.77,11.54,3.94,23,5.77,34.55C415.44,393.43,415.8,398.68,416.42,404.41z"/>
<path class="st25" d="M411.21,346.22c-3.61,0.4-7.15,0.82-10.7,1.17c-3.11,0.31-6.22,0.72-9.34,0.78c-3.64,0.06-4.87-1.29-5.39-5
	c-0.55-3.89-1.19-7.78-1.82-11.66c-0.33-2-0.18-3.7,2.2-4.26c2.87-0.69,5.72-1.59,8.64-2c10.25-1.39,20.52-2.67,30.81-3.84
	c2.95-0.33,6-0.14,9-0.19c2.21,0,2.8,1.66,3.09,3.26c2.09,11.3,4.08,22.63,6.11,33.94c1,5.31,2,10.61,3,16.13L417,379.31
	C415.11,368.37,413.24,357.73,411.21,346.22z"/>
<path class="st25" d="M22,454.16c11.12,1.3,19.59-3.65,28.07-10.13c0.71,2.71,1.25,5.46,1.62,8.24c1.12,15.29,8.8,26.28,21.82,33.89
	c0.47,0.33,0.92,0.68,1.34,1.06c-1.18,3.7-4.11,6-7.07,7.88c-5.29,3.4-10.78,6.46-16.45,9.17c-4.41,2.07-9.06,3.43-14.28,2.27
	c-3.31-0.54-6.11-2.75-7.42-5.84c-2.14-4.8-3.95-9.74-5.43-14.78C21.33,475.79,21.46,465.38,22,454.16z"/>
<path class="st25" d="M669.6,16.7c-1.2,4.18-2.07,7.88-3.36,11.44c-0.93,2.04-0.22,4.46,1.66,5.68c2.46,1.94,5.11,3.66,7.42,5.76
	c1.07,1,2.43,2.91,2.13,4c-2.79,9.61-5.92,19.12-9.05,29l-53-17c1.19-3.88,2.24-7.64,3.5-11.32c4.1-12,8.24-24.02,12.42-36.05
	c1.53-4.42,1.61-4.27,5.91-2.76c9.81,3.44,19.7,6.64,29.55,10C667.74,15.81,668.68,16.23,669.6,16.7z"/>
<path class="st25" d="M321.34,579.47c1.56-4.86,3-9.4,4.48-13.9c3.7-10.93,7.46-21.84,11.18-32.76c1.75-5.12,1.67-4.93,6.88-3.1
	c9.49,3.33,19.1,6.31,28.6,9.6c6,2.1,12,4.48,18.5,6.92l-16.74,50.24L321.34,579.47z"/>
<path class="st25" d="M412.28,220.77h-38.75v-20.56c-4.16,0-8.1,0-12,0c-5.22-0.07-5.71-0.57-5.72-5.74c0-9.47,0-18.94,0-28.32
	c6-1.78,52.11-1.12,56.5,0.69L412.28,220.77z"/>
<path class="st24" d="M119.78,444.38c0-7.65,0-14.42,0-21.19c0-4.27,1.29-5.78,5.44-5.94c10.74-0.43,21.49-0.71,32.24-1
	c0.82,0,1.64,0.11,3.35,0.23c0.42,9.44,0.84,18.88,1.29,29c-10.75-3.95-20.89-1.79-30.88-2.18
	C127.37,443.16,123.46,444,119.78,444.38z"/>
<path class="st23" d="M223.69,434.5c4.44-0.49,6.15,5.07,10.69,3.22v-6.26l-30.25,1.1v1h5.22l0.33,1.05l-5.56,2.31
	c-0.2,0.8-0.43,1.74-0.92,3.7c-1.09-4.32-3.88-4.73-7-4.57c-0.13-5.06,4.3-0.26,5.36-3.28c-9.72-2.6-19.72,0.67-29.35-1
	c0-0.44,0-0.88,0-1.33c7.94-0.4,15.88-1.09,23.83-1.12c8.16,0,16.35,1.17,24.47,0.71s16-1.82,23.82,0.64l0.12,1.09l-6.84,0.71
	c-0.79,2.59-1,5.6-2.52,7.63c-2.18,2.91-4.74-1-7.82-0.2c-0.21,0.32-0.75,1.19-1.77,2.82C224.83,439.65,224.32,437.36,223.69,434.5z
	"/>
<path class="st22" d="M157.94,391.1v-7.28c3.93-1.52,8-3.21,12.18-4.67c8.42-3,16.84-6.28,26-4.91c9.42,1.4,18.81,3.06,28.36,4.64
	v10.95l-20.95,5.39c-0.5,0.05-0.98,0.17-1.45,0.35c-6.94,4.43-13.9,3-21.24,0.78S165.82,392.86,157.94,391.1z M192,376.3
	c-0.54,0.19-1.16,0.44-1.79,0.61c-8.86,2.5-17.73,4.95-26.58,7.51c-1.28,0.3-2.07,1.59-1.77,2.86c0.14,0.59,0.5,1.11,1.02,1.45
	c0.94,0.67,2.02,1.14,3.16,1.37c5.77,1.34,11.63,2.34,17.34,3.91c5.81,1.74,12.04,1.45,17.66-0.82c4.86-1.92,10.15-2.73,15.25-4.06
	c1.44-0.37,2.85-0.86,4.27-1.3c2-0.61,2.36-2.05,2.17-3.9s-1.14-2.58-2.91-2.74c-1.3-0.12-2.55-0.59-3.85-0.82
	C208,379,200.08,377.67,192,376.3z"/>
<path class="st24" d="M271.68,249.32c-3.12,5.75-1.94,11.2-1.48,16.5c0.32,3.62,0.66,3.57-3.05,3.67
	c-7.94,0.23-15.89,0.79-23.82,0.66c-15.25-0.27-30.49-0.92-46.49-1.44c0-5.86-0.1-11.94,0.12-18c0-0.85,1.57-1.81,2.6-2.39
	c0.64-0.36,1.63-0.1,2.46-0.1c21.31,0,42.61,0,63.92,0C267.88,248.42,269.8,248.78,271.68,249.32z"/>
<path class="st22" d="M225.14,293.88c-1-10.67-1-10.67,9-10.67c0.33,0,0.66,0,1,0c2.58,0.24,6.41-0.45,7.46,0.95
	c1.65,2.19,1.58,5.77,1.91,8.81c0.18,1.63-1,1.91-2.64,1.83c-4.06-0.2-8.14,0.06-12.21-0.06
	C228.13,294.59,226.62,294.3,225.14,293.88z"/>
<path class="st22" d="M246.78,295.52c0-3.38,0.14-5.7,0-8c-0.22-2.8,1.27-3.95,3.7-4.25c1.49-0.11,2.99-0.13,4.48-0.06
	c7.33,0,7.28,0,7.91,7.07c0.12,1.36,0.85,2.67,1.52,4.66C258.82,296.46,253.1,294.33,246.78,295.52z"/>
<path class="st22" d="M137.47,280.77v5.31l2.94-6c3.45,0.54,6.86,1.11,10.29,1.57c0.72,0.13,1.47-0.04,2.06-0.47
	c2-2.31,3.29,0.89,4.73,0.49c3-0.82,2,1.78,2.34,2.55c1.06-1.64,2-3.29,3.2-4.78c0.14-0.18,2,0.5,2,0.82
	c-0.01,1.88-0.13,3.76-0.37,5.62l1.62,0.92c-0.33,0.41-0.62,1.05-0.91,1.05c-1.28,0.11-2.56,0.02-3.81-0.26
	c-3.96-0.98-8-1.63-12.07-1.94c-3.19-0.39-7.39-1.49-10.73,1.05c-0.52,0.42-1.19,0.59-1.85,0.47c-3-1.58-6.4-0.61-9.16-1.46
	s-5-0.3-7.39-0.54c-1.53-0.24-2.99-0.81-4.29-1.66c-0.23-0.13,0.15-1.89,0.66-2.59c0.9-1.61,2.94-2.18,4.55-1.27
	c0.07,0.04,0.14,0.08,0.2,0.12c0.64,0.35,1.74-0.29,2.61-0.22C128.46,279.88,132.82,280.33,137.47,280.77z"/>
<path class="st3" d="M292.34,335c-0.89,2.05-1.63,4.94-3.23,7.25c-3.38,4.86-10.54,3.94-13.51-1.31s-1.76-10.34,0.63-15.12
	c1.19-2.39,1.49-6.43,6.22-5.65c4,0.65,7.21,2.85,8.44,7.11C291.52,329.41,291.75,331.72,292.34,335z"/>
<path class="st3" d="M149.3,346.59l-0.66,0.38l-0.58-1c0.25-0.05,0.57-0.21,0.73-0.11S149.13,346.34,149.3,346.59z"/>
<path class="st26" d="M274.2,201.87c-4,4.67-5.63,5.34-7.28,3.49c-2-2.25-1.37-5.3,2.15-8.4L274.2,201.87z"/>
<path class="st26" d="M192,376.3c8.07,1.37,16,2.71,24,4.07c1.3,0.23,2.55,0.7,3.85,0.82c1.77,0.16,2.72,0.94,2.91,2.74
	s-0.21,3.29-2.17,3.9c-1.42,0.44-2.83,0.93-4.27,1.3c-5.1,1.33-10.39,2.14-15.25,4.06c-5.62,2.27-11.85,2.56-17.66,0.82
	c-5.71-1.57-11.57-2.57-17.34-3.91c-1.14-0.23-2.22-0.7-3.16-1.37c-1.1-0.72-1.41-2.19-0.7-3.29c0.33-0.51,0.85-0.88,1.45-1.02
	c8.85-2.56,17.72-5,26.58-7.51C190.85,376.74,191.47,376.49,192,376.3z M189.28,382.65h-6.16c4.86,3-0.35,4.34,1.25,7.41l7.16-1.16
	l0.67-0.93C188.05,387.47,190.49,384.5,189.28,382.65L189.28,382.65z M203.41,381.27l-1.27,0.5c-0.75,2.64-1,5.43,1.79,6.89
	c2.37,1.26,4.56-0.26,6.4-2.59h-4.78L203.41,381.27z M181.41,387.67c1.41-3.24-1.54-4-3.6-6.28c-1.27,2.72-2.29,4.88-3.53,7.53
	L181.41,387.67z M199.8,381.77c-0.88,1.92-1.42,3.12-2,4.4l-3.76-3c0.59,4.06,2.14,6,4,5.72c2.21-0.33,2.96-2.8,1.78-7.12H199.8z"/>
<path class="st22" d="M189.29,382.65c1.2,1.85-1.24,4.82,2.92,5.32l-0.67,0.93l-7.16,1.16c-1.6-3.07,3.61-4.38-1.25-7.41H189.29z"/>
<path class="st22" d="M203.42,381.27l2.14,4.8h4.78c-1.84,2.33-4,3.85-6.4,2.59c-2.77-1.46-2.54-4.25-1.79-6.89L203.42,381.27z"/>
<path class="st24" d="M181.43,387.67l-7.13,1.25c1.24-2.65,2.26-4.81,3.53-7.53C179.89,383.7,182.84,384.43,181.43,387.67z"/>
<path class="st22" d="M199.82,381.77c1.19,4.32,0.43,6.79-1.74,7.16c-1.88,0.32-3.43-1.66-4-5.72l3.76,3
	C198.4,384.89,198.94,383.69,199.82,381.77z"/>
</svg>
