<svg xmlns="http://www.w3.org/2000/svg" viewBox="0 0 314.24 471.44"><defs><style>.a{fill:#e78662;}.b{fill:#113347;}.c{fill:#67c5a5;}.d{fill:#59b896;}.e{fill:#f2b980;}.f{fill:#133448;}.g{fill:#143448;}.h{fill:#2b495a;}.i{fill:#324e60;}.j{fill:#f1b881;}.k{fill:#c5c1b8;}.l{fill:#da7753;}.m{fill:#d97652;}.n{fill:#eca863;}.o{fill:#fefefe;}.p{fill:#e2e2de;}.q{fill:#d57a57;}.r{fill:#c4c2ba;}.s{fill:#193748;}.t{fill:#343e40;}.u{fill:#142b37;}.v{fill:#132a37;}</style></defs><title>profile_3</title><path class="a" d="M172.26,144.42c.64,10,5.54,17.34,14.52,21.45q16.51,7.57,33.47,14.15c11.2,4.36,18.37,12.08,22,23.45a153.34,153.34,0,0,1,7.1,34.4c.53,6.9,2,13.74,3,20.61,1.28,8.5,2.79,17,3.75,25.51,1.26,11.17,2.06,22.4,3.1,33.6.29,3.11,1,6.2,1,9.31a124.1,124.1,0,0,1-5.61,39.21,29,29,0,0,0-.58,2.92l-14.87,3.19c0-20.42.06-40.84-.1-61.25-.09-11.9-.64-23.8-.81-35.7-.05-3-1.22-4.16-4.15-4.11-4,.08-8-.07-12-.12-.23-2.12-.4-4.25-.72-6.36-.71-4.71-1.67-9.39-2.21-14.12s-.68-9.55-1.06-14.31c-.17-2.19.08-4.8-4.28-4.86.45,4.28,1,8.3,1.25,12.34.46,9.1.73,18.2,1.08,27.3-13.47.05-26.94.05-40.4.16q-43.34.33-86.67.75c0-11.3,0-22.6,0-33.91,0-1.84.53-4.09-3.18-4.68-.6,13.06-1.19,25.88-1.78,38.7a32.84,32.84,0,0,0-3.45.43c-6.59,1.52-6.69,1.54-6.57,8.31.23,12.93.75,25.86.87,38.8.15,18,0,35.91,0,53.87l-5.23-.77c-3.15-5.09-6.58-10-9.35-15.32-1.9-3.62-3.81-7.65-4.11-11.62-.84-11.4-1.27-22.88-1.09-34.31.17-11.59,1.2-23.17,2-34.75.91-13.57,1.55-27.17,3-40.68,1.19-10.81,2-21.77,5.83-32.15,2.79-7.48,7.35-13.3,14.63-16.84,8.36-4.06,16.87-7.88,25-12.31,9.67-5.25,17.34-12.29,18.42-24.27.11-1.21,1.48-2.29,2.26-3.43l.09.08a61.31,61.31,0,0,0,7.33,1c6.15.15,12.32.27,18.46,0a25.79,25.79,0,0,0,15.08-5.28Z" transform="translate(0 -1)"/><path class="b" d="M172.26,144.42l-4.77-1.56-.51-2.68-.72-14,0,0,1.22-1c4.61-3,9.55-5.51,13.77-9,8.31-6.78,13.41-15.77,13.88-26.53.39-8.92-.31-17.93-1-26.86a54.9,54.9,0,0,0-5.31-19c-2.1,1.81-3.91,3.26-5.59,4.84a55.5,55.5,0,0,1-20.63,12.73q-8,2.69-16.08,5.19c-1.89.58-3.44,1-4.64,3.07-2,3.36-11.65,6-14.46,3.87-2.2-1.68-4.28-1.59-6.51-1.45-4.76.3-9.5.83-14.87,1.33V81.7a8.19,8.19,0,0,1-2.81-3.07c-1.3-2-3.08-3.1-5.51-2.42-2.59.72-3.75,2.55-3.48,5.23a93.7,93.7,0,0,0,1.07,9.36c1.18,5.7,3.35,10.87,9.68,12.67,7.36,2.08,12.33,7,15.67,13.55a62.47,62.47,0,0,1,3.78,10.13,58.37,58.37,0,0,1,2.25,19.94l-.09-.08c-10.13-1.63-20.31-3-30.39-4.95-7.8-1.49-15.39-3.87-22-8.55-4.39-3.11-9-6.08-12.94-9.66-4.67-4.17-8.8-8.93-13.29-13.56.86-1.6,1.63-3,2.39-4.48,3.15-.52,3-3.68,4.45-5.55l2-2.06c3.36-1.5-.18-3.46.35-5.15l2-2.89c2-.06,4.62.66,4.07-3l0,0,1-1.93.5-.58-.59.49a5.14,5.14,0,0,1-1,0l-.28-.29c2.75-5,5.86-9.92,8.15-15.16,2.76-6.33,4.65-13,7.23-19.43,3.62-9,6.32-18.65,12.67-26.21,9.47-11.3,21.87-18,36.3-21a96.82,96.82,0,0,1,26.62-1.89c6.66.47,12.58,3.34,18.32,6.54,1.85,1,3.54,2.37,5.37,3.46a60.05,60.05,0,0,1,21.57,21.58c9.38,16.07,15.6,33.43,21.25,51-2.2,3.1.35,5.64,1.13,8.33.16.53,1.94.59,3,.87l1.79,3.41c-.5,1.09-1.71,2.51-1.39,3.23,1.87,4.13,4.11,8.1,6.22,12.12,5.76,8.66,5.79,8.72-3,14-5.36,3.23-10.76,6.42-16.31,9.31-7.47,3.89-15.89,4.87-23.92,7C182.8,143.43,177.47,143.69,172.26,144.42ZM59.62,92c.38.3.73.57,1.09.82,0,0,.3-.29.27-.34a11,11,0,0,0-.65-1Z" transform="translate(0 -1)"/><path class="c" d="M239.18,372.22,254.05,369c7.75-.61,15.54-.94,23.24-1.94,6.63-.86,13.15-1.38,19.73.06a14.85,14.85,0,0,1,8.12,4.44c9,9.65,10.77,20.9,7.73,33.29-2.29,9.32-8.45,15.53-17.06,18.74-9.45,3.51-19.3,6-29,8.79a44,44,0,0,1-5.87.88c-11,2.32-22,4.4-32.91,7s-21.91,5.83-32.86,8.78q-29.32,5.38-58.63,10.73c-4.06.74-8.17,1.16-12.26,1.73-2.9.41-4.72-.85-5.58-3.6s-1.69-5.36-2.53-8c-1.18-5.61-2.29-11.24-3.55-16.84-1.42-6.25-3-12.46-4.49-18.69a12,12,0,0,0,.06-2c-.4-3.36.65-5.15,4.41-5.56,3.2-.34,6.31-1.61,9.42-2.59,8.43-2.65,16.84-5.33,25.23-8.1a43.84,43.84,0,0,0,5.11-2.39c1.31.06,2.7.45,3.91.15,5.1-1.26,10.15-2.72,15.22-4.11L188,385.29l8.36-2.91c2.12-.31,4.27-.44,6.33-.95,9.11-2.25,18.19-4.59,27.28-6.92,2.51-.65,5-1.38,7.48-2.08Z" transform="translate(0 -1)"/><path class="d" d="M152.35,393.77a43.84,43.84,0,0,1-5.11,2.39c-8.39,2.77-16.8,5.45-25.23,8.1-3.11,1-6.22,2.25-9.42,2.59-3.76.41-4.81,2.2-4.41,5.56a12,12,0,0,1-.06,2c-12.11,3.16-24.2,6.37-36.33,9.46-7.82,2-15.69,3.8-23.54,5.69-11.71-3.4-22.83-8.09-32.79-15.23C5.09,406.87,1.2,397,4,384.34c2.39-11,7.86-16.11,18.57-18.33,10.23-2.12,19.72.51,29.4,2.76,6,1.39,12,2.62,18,3.92l5.23.77,3.09.71a8.28,8.28,0,0,0,.84.16l1.15.78c1.46.24,2.94.39,4.38.73,9.15,2.17,18.29,4.38,27.43,6.57l7.62,1.92Z" transform="translate(0 -1)"/><path class="e" d="M48.25,429.54c7.85-1.89,15.72-3.7,23.54-5.69,12.13-3.09,24.22-6.3,36.33-9.46,1.5,6.23,3.07,12.44,4.49,18.69,1.26,5.6,2.37,11.23,3.55,16.84q-27.93,4-55.85,8c-5.72.82-11.45,1.48-17.18,2.21-1.8-.18-3.69-.79-5.39-.44A20.92,20.92,0,0,1,23.3,458c-4.45-2.34-6.13-6.78-3.91-11.25a23.39,23.39,0,0,1,4.78-6.84c2.75-2.55,6.07-4.48,9.15-6.68Z" transform="translate(0 -1)"/><path class="e" d="M195.16,449.1c11-3,21.84-6.13,32.86-8.78s21.93-4.71,32.91-7c1.22.63,2.41,1.35,3.67,1.87a33.82,33.82,0,0,0,3.55,1.09c2.22,1.37,4.47,2.68,6.65,4.11,4.14,2.73,8.63,5.08,12.24,8.39,4.18,3.84,3.23,9.78-1.7,12.48-5.86,3.22-12,5.13-18.93,3.14-3-.86-6.22-.76-9.35-1.09-9.94-2.89-19.78-6.21-29.84-8.55-9-2.07-18.17-3-27.26-4.53C198.35,449.93,196.76,449.47,195.16,449.1Z" transform="translate(0 -1)"/><path class="f" d="M33.32,433.18c-3.08,2.2-6.4,4.13-9.15,6.68a23.39,23.39,0,0,0-4.78,6.84c-2.22,4.47-.54,8.91,3.91,11.25a20.92,20.92,0,0,0,14.44,1.77c1.7-.35,3.59.26,5.39.44L34.63,467c-4.81,3.9-10.51,5.52-16.32,4a41.26,41.26,0,0,1-13.7-6.33C.34,461.59-.78,456.17.49,451.18a45.05,45.05,0,0,1,5.62-12,9.25,9.25,0,0,1,5.44-3.86c6.52-1.35,13.16-2.13,19.77-3C31.94,432.18,32.65,432.85,33.32,433.18Z" transform="translate(0 -1)"/><path class="g" d="M257.06,463.28c3.13.33,6.37.23,9.35,1.09,6.9,2,13.07.08,18.93-3.14,4.93-2.7,5.88-8.64,1.7-12.48-3.61-3.31-8.1-5.66-12.24-8.39-2.18-1.43-4.43-2.74-6.65-4.11,7.42,1.79,15.05,2.4,22.31,5.36,3.49,1.42,7.15,2.32,10,4.87,2.14,1.94,4.41,4,5.75,6.51,4.35,8.05-1,18.36-10.11,19.18a67.27,67.27,0,0,1-38.47-8.12C257.36,463.91,257.24,463.54,257.06,463.28Z" transform="translate(0 -1)"/><path class="h" d="M231.13,111.81c-2.11-4-4.35-8-6.22-12.12-.32-.72.89-2.14,1.39-3.23l13.81,20.66c-3.1,0-3.45-2.42-4.7-3.61S233.5,110,231.13,111.81Z" transform="translate(0 -1)"/><path class="i" d="M57.12,93.05c-.53,1.69,3,3.65-.35,5.15-2.33-1-2.34.39-2,2.06-1.45,1.87-1.3,5-4.45,5.55L45.77,105C49.48,101.05,53.3,97.05,57.12,93.05Z" transform="translate(0 -1)"/><path class="h" d="M224.51,93.05c-1-.28-2.82-.34-3-.87-.78-2.69-3.33-5.23-1.13-8.33Z" transform="translate(0 -1)"/><path class="i" d="M63.19,87.21c.55,3.61-2,2.89-4.07,3l3-4.11Z" transform="translate(0 -1)"/><path class="b" d="M63.19,87.21l-1.08-1.16.81-1.14.28.29c0,.66,0,1.32,0,2Z" transform="translate(0 -1)"/><path class="j" d="M126.62,147.09a58.37,58.37,0,0,0-2.25-19.94A62.47,62.47,0,0,0,120.59,117c-3.34-6.58-8.31-11.47-15.67-13.55-6.33-1.8-8.5-7-9.68-12.67a93.7,93.7,0,0,1-1.07-9.36c-.27-2.68.89-4.51,3.48-5.23,2.43-.68,4.21.45,5.51,2.42A8.19,8.19,0,0,0,106,81.7V73.54c5.37-.5,10.11-1,14.87-1.33,2.23-.14,4.31-.23,6.51,1.45,2.81,2.15,12.48-.51,14.46-3.87,1.2-2.05,2.75-2.49,4.64-3.07q8.07-2.49,16.08-5.19A55.5,55.5,0,0,0,183.16,48.8c1.68-1.58,3.49-3,5.59-4.84a54.9,54.9,0,0,1,5.31,19c.72,8.93,1.42,17.94,1,26.86-.47,10.76-5.57,19.75-13.88,26.53-4.22,3.44-9.16,6-13.77,9l-1.22,1,0,0L141,127.93c1.9,1.24,3.16,2.23,4.56,2.94,4.4,2.27,8.8,4.56,13.31,6.59a82.6,82.6,0,0,0,8.09,2.72l.51,2.68a25.79,25.79,0,0,1-15.08,5.28c-6.14.27-12.31.15-18.46,0A61.31,61.31,0,0,1,126.62,147.09Zm46.53-54.85c-6,5.61-12.93,4.77-19.45,6.34C163.16,103.36,169.8,101.9,173.15,92.24ZM190.9,64c-4-3.83-7.57-5.33-12-4.83-3.44.38-3.73.7-3,4.83Zm-52.14,41c3.86,6.11,9.32,8.62,12.83,6.72ZM187.3,81.24l-3.7-4c-.8.86-2,1.59-2.32,2.59-.51,1.75,1.55,4.65,2.93,4.28C185.17,83.85,185.87,82.63,187.3,81.24Zm-48.22,1.87c-2.49,3-2.49,3-.91,7.56,1.07-.68,2.6-1.1,2.84-1.91C141.6,86.79,141.92,84.53,139.08,83.11Z" transform="translate(0 -1)"/><path class="k" d="M78.2,374.17l-3.09-.71c0-18,.11-35.91,0-53.87-.12-12.94-.64-25.87-.87-38.8-.12-6.77,0-6.79,6.57-8.31a32.84,32.84,0,0,1,3.45-.43l4.94-.11q43.34-.37,86.67-.75c13.46-.11,26.93-.11,40.4-.16h5.94c4,0,8,.2,12,.12,2.93-.05,4.1,1.07,4.15,4.11.17,11.9.72,23.8.81,35.7.16,20.41.08,40.83.1,61.25l-1.77.21c-.07-1.83-.2-3.65-.2-5.48,0-22.65.06-45.31-.07-68,0-7.44-.66-14.89-.92-22.33-.08-2.24-1-3.45-3.28-3.45h-4q-55,0-109.93,0a287.42,287.42,0,0,0-37.68,2c-4.94.65-5.22.72-5.12,5.86.26,14.44.73,28.88.93,43.33.15,11.82-.06,23.65.09,35.47C77.29,364.61,77.86,369.39,78.2,374.17Z" transform="translate(0 -1)"/><path class="l" d="M222.17,271h-5.94c-.35-9.1-.62-18.2-1.08-27.3-.2-4-.8-8.06-1.25-12.34,4.36.06,4.11,2.67,4.28,4.86.38,4.76.51,9.56,1.06,14.31s1.5,9.41,2.21,14.12C221.77,266.79,221.94,268.92,222.17,271Z" transform="translate(0 -1)"/><path class="m" d="M89.16,271.94l-4.94.11c.59-12.82,1.18-25.64,1.78-38.7,3.71.59,3.18,2.84,3.18,4.68C89.2,249.34,89.17,260.64,89.16,271.94Z" transform="translate(0 -1)"/><path class="n" d="M167,140.18a82.6,82.6,0,0,1-8.09-2.72c-4.51-2-8.91-4.32-13.31-6.59-1.4-.71-2.66-1.7-4.56-2.94l25.24-1.7Z" transform="translate(0 -1)"/><path class="i" d="M59.62,92l.71-.54a11,11,0,0,1,.65,1s-.26.35-.27.34C60.35,92.52,60,92.25,59.62,92Z" transform="translate(0 -1)"/><path class="o" d="M54.75,100.26c-.32-1.67-.31-3,2-2.06Z" transform="translate(0 -1)"/><path class="i" d="M63.21,87.18c0-.66,0-1.32,0-2a5.14,5.14,0,0,0,1,0l.09.09Z" transform="translate(0 -1)"/><path class="n" d="M166.22,126.26l1.22-1Z" transform="translate(0 -1)"/><path class="i" d="M64.16,85.16l.59-.49-.5.58Z" transform="translate(0 -1)"/><path class="p" d="M78.2,374.17c-.34-4.78-.91-9.56-1-14.34-.15-11.82.06-23.65-.09-35.47-.2-14.45-.67-28.89-.93-43.33-.1-5.14.18-5.21,5.12-5.86a287.42,287.42,0,0,1,37.68-2q55,.12,109.93,0h4c2.3,0,3.2,1.21,3.28,3.45.26,7.44.88,14.89.92,22.33.13,22.65.05,45.31.07,68,0,1.83.13,3.65.2,5.48-2.49.7-5,1.43-7.48,2.08-9.09,2.33-18.17,4.67-27.28,6.92-2.06.51-4.21.64-6.33.95-19.29-.06-38.59-.15-57.88-.17-8.81,0-17.63.13-26.44.2-9.14-2.19-18.28-4.4-27.43-6.57-1.44-.34-2.92-.49-4.38-.73L79,374.33A8.28,8.28,0,0,1,78.2,374.17Zm79.35-58c-8.39,0-14.54,5.08-14.29,12.4.32,9.33,5.65,13.79,13.91,14.46,6.51.53,13-6.64,13-13.66C170.28,321.41,165.66,315.79,157.55,316.19Z" transform="translate(0 -1)"/><path class="q" d="M152.35,393.77l-32.73-9.44c10.29.26,20.58.62,30.87.76,12.49.17,25,.14,37.47.2l-16.48,4.52c-5.07,1.39-10.12,2.85-15.22,4.11C155.05,394.22,153.66,393.83,152.35,393.77Z" transform="translate(0 -1)"/><path class="r" d="M188,385.29c-12.49-.06-25,0-37.47-.2-10.29-.14-20.58-.5-30.87-.76L112,382.41c8.81-.07,17.63-.2,26.44-.2,19.29,0,38.59.11,57.88.17Z" transform="translate(0 -1)"/><path class="k" d="M79,374.33l1.15.78Z" transform="translate(0 -1)"/><path class="n" d="M173.15,92.24c-3.35,9.66-10,11.12-19.45,6.34C160.22,97,167.12,97.85,173.15,92.24Z" transform="translate(0 -1)"/><path class="s" d="M190.9,64h-15c-.68-4.13-.39-4.45,3-4.83C183.33,58.66,186.93,60.16,190.9,64Z" transform="translate(0 -1)"/><path class="t" d="M138.76,105l12.83,6.72C148.08,113.6,142.62,111.09,138.76,105Z" transform="translate(0 -1)"/><path class="u" d="M187.3,81.24c-1.43,1.39-2.13,2.61-3.09,2.87-1.38.37-3.44-2.53-2.93-4.28.3-1,1.52-1.73,2.32-2.59Z" transform="translate(0 -1)"/><path class="v" d="M139.08,83.11c2.84,1.42,2.52,3.68,1.93,5.65-.24.81-1.77,1.23-2.84,1.91C136.59,86.09,136.59,86.09,139.08,83.11Z" transform="translate(0 -1)"/><path class="o" d="M157.55,316.19c8.11-.4,12.73,5.22,12.65,13.2-.07,7-6.52,14.19-13,13.66-8.26-.67-13.59-5.13-13.91-14.46C143,321.27,149.16,316.17,157.55,316.19Z" transform="translate(0 -1)"/></svg>