<svg xmlns="http://www.w3.org/2000/svg" viewBox="0 0 625.95 446.92"><defs><style>.a{fill:#e98560;}.b{fill:#68c5a3;}.c{fill:#123245;}.d{fill:#5ab996;}.e{fill:#f2b980;}.f{fill:#153447;}.g{fill:#f1b880;}.h{fill:#f3ba80;}.i{fill:#f0b880;}.j{fill:#eca864;}.k{fill:#da7754;}.l{fill:#edb5a1;}.m{fill:#edb49f;}.n{fill:#ecb19c;}.o{fill:#8ed4bb;}.p{fill:#a7ddca;}.q{fill:#a3dbc7;}.r{fill:#fbf0e5;}.s{fill:#1c303a;}.t{fill:#28363c;}</style></defs><title>profile_2</title><path class="a" d="M510.87,146.84c.54,1.64,1.09,3.28,1.63,4.92.52,1.89,1.42,3.65,1.86,5.57l.46,1.79c.47,2.75,1.93,5.21,2.27,8,.12.55.24,1.11.37,1.67.22.89.74,1.66,1,2.54l.33,1.81c1,6.42,3.66,12.46,4.25,19,1.45,4.63,3,9.24,4.3,13.91.75,2.64,1.15,5.39,1.7,8.09,2.1,2.39,2.2,5.51,2.92,8.36,1.64,6.56,4,12.94,5.07,19.64q1.51,6,3,12a5.63,5.63,0,0,1,1.43,2.22l1.89,7.5a10.87,10.87,0,0,1,.72,2.31l6.25,23.71a7.56,7.56,0,0,1,.71,2.28c.13.89.27,1.77.41,2.65s.64,1.51.62,2.36c.15.87.29,1.74.44,2.62a31.33,31.33,0,0,0,1,3.56c.09.62.17,1.24.26,1.85a188.93,188.93,0,0,0,5,22.07l.57,2.6c2.17,8.44,4.65,16.8,6.66,25.29,1.06,4.07,1.94,8.21,3.23,12.2,1.74,5.39.9,7.26-4.49,8.79-.93.27-1.83.67-2.75,1-3.07,3.22-7.39,3.6-11.29,4.85-4.27,1.37-8.61,2.53-12.75,4.29-.75.32-1.47.72-2.23,1-6.16,2.32-8.13,1.32-9.88-5-.34-1.26-.71-2.51-1-3.76-9.49-36.38-19.54-72.63-25.3-110.23-.95,3.51-.2,6.69-.17,9.86,0,2.11.45,4.38-1.36,6.11-.64,1.79-1.75,3.55-1.86,5.37-1.17,18-2.09,36.11-3.27,54.15-.81,12.43-2,24.83-2.87,37.25-.46,6.43-.37,12.92-1,19.34-.9,9.73-2.18,19.44-3.35,29.15a11.7,11.7,0,0,1-1.19,2.7l-10.14-1.33c-9.42-.68-18.1-4.18-26.66-7.68-12.3-5-23.86-11.64-35.43-18.18-6.71-3.79-11.84-9.62-17.83-14.35a114.52,114.52,0,0,1-18.94-19.67c-7.43-6.77-12.8-15.58-21.18-21.42a1.73,1.73,0,0,1-.57-2.2c2.4-3.56,4.6-7.27,7.24-10.64,12.46-15.85,20.19-34.12,25.53-53.19,3.78-13.49,5.05-27.67,7.5-41.54,2.83-16,5.81-32,8.59-48,2.52-14.53,6.37-28.89,6.33-43.76,0-5.12-1-10.23-1.27-15.36-.18-3.05-.7-6.46,3.4-7.72,2-1.45,3.72-.66,5.31.78,2.51,7.15,2.18,14.71,3.29,22,1.18-1.61,2.69-1.36,3.34.38,2.7,7.32,9,7.64,15.34,8.82,19.71,3.66,38.31-.88,56.75-6.9a80.37,80.37,0,0,0,12-4.9C508.25,146.64,509.51,146.11,510.87,146.84Z" transform="translate(0)"/><path class="b" d="M375.94,370.32c1.58,1.66,3.2,3.28,4.74,5,14.48,16.08,31.08,29.22,50.7,38.75,12.89,6.27,25.81,12.1,39.82,15.32a16.74,16.74,0,0,1,3.14,1.45c-2.21,6.21-8,10.07-16,10.24-18.42.39-36.85.59-55.28.86-4,.06-8,.08-12,.12-.66,0-1.33,0-2,0H367c-.66,0-1.33,0-2,0-8.12,0-16.25,0-24.37.17-12.22.21-24.44.53-36.65.81-1.33.09-2.65.08-4,0-38.25.38-76.5.63-114.75,1.19-16.43.24-32.85,1.14-49.27,1.74a18.75,18.75,0,0,1-2,.1c-11.11.28-22.21.62-33.31.81-6.83.12-6.83,0-9.47-6.15a15.28,15.28,0,0,0-1-1.71c-3.68-4.64-3.78-10.37-4.46-15.8-.58-4.55-1.07-9.11-1.89-13.63a12.09,12.09,0,0,1-.25-1.69,60.1,60.1,0,0,0-2-8.66c-1.11-4.11.06-5.89,4.32-6.43,3.93-.51,7.83-1.08,11.7-1.93,11.16-2.18,22.52-2.46,33.8-3.2q32.88-2.15,65.75-4.33c26.91-1.78,53.83-3.2,80.73-5,18.6-1.22,37.12-3.49,55.68-5.23C347.69,371.86,361.75,369.87,375.94,370.32Z" transform="translate(0)"/><path class="c" d="M510.87,146.84c-15.35,7.94-31.88,11.66-48.81,14.47-9.81,1.62-19-1.34-28.48-1.54-6.35-.12-9.53-3.62-11.39-9.08a2.08,2.08,0,0,0-1.4-1.35v5.49c-3.59-8.62-3.51-17.85-5-26.78a27,27,0,0,1,.16-16.63A46.9,46.9,0,0,1,422.32,99c2.61-3.85,6-6.65,10.77-7.46a19.45,19.45,0,0,0,7-2.51c4.14-2.58,5.12-5.47,3.67-10.66-2.49-.76-3.51,1.31-4.86,2.62-2.14,2.1-4.61,3.09-7.15,1.21-2.79-2.07-1.88-4.78-.15-7.06,3.78-5,3.48-9.56-.05-14.63-2.93-4.21-5.93-8.47-7.62-13.44a3.82,3.82,0,0,0-2.57-2.86c-4-.82-4.39-3.72-4.76-7.11-1.06-9.71.32-19.47-.79-29.17l1.32-8c5.43.41,10.53.52,15.54,1.22,10.43,1.48,20.78,2.49,31.38,1.1C479.3.31,491.46,6.66,501.25,18c11.59,13.37,21,28.2,29,43.95,6.44,12.55,13.3,25,24.26,34.41a16.63,16.63,0,0,1,2,3l-4.32-1.28c2,4.29.32,7.4-2.16,10.56C538.74,123.16,524.93,135.12,510.87,146.84Z" transform="translate(0)"/><path class="d" d="M375.94,370.32c-2.18.59-4.34,1.56-6.55,1.72-14.64,1.06-29.31,1.66-43.86,3.88-8.47,1.29-17.1,1.48-25.65,2.19q-17.76,1.45-35.51,2.94c-.67.05-1.33,0-2,.05-8.77.33-17.55.57-26.32,1-10.89.57-21.77,1.29-32.66,2-9.72.62-19.44,1.36-29.17,2-11.55.72-23.11,1.23-34.65,2.06-11.85.85-23.68,2-35.51,3-2.29.2-4.56.63-6.84,1-3.68-3.26-3.12-7.06-1.41-11l-1.09-13.81c.34-2.47,2.43-2.19,4.43-2.2,8.83,0,17.68.28,26.49-.15,12.57-.62,25.12-1.78,37.68-2.67,2-.14,4-.07,6-.19,10.56-.63,21.11-1.31,31.67-1.93,1.82-.11,3.66,0,5.49,0,12.11-.33,24.27-.14,36.32-1.14,17-1.41,34-3.8,51-5.6C305.86,352.09,318,351.18,330,350c7.91-.78,15.79-1.77,23.69-2.67Z" transform="translate(0)"/><path class="e" d="M415.83,8c1.44,6.2,3,12.17,1.45,18.87-1,4.45.24,9.54,1,14.25.14.86,2.86,1.29,4.6,2,3.91,6.56,8.25,13.58,12.31,20.74,2.4,4.25.21,8.09-2.05,11.6-1.32,2.06-3.9,4-.93,6.18s4.86-.19,6.5-2.46,3.72-3.81,6.8-2.81c2.82,11.73-3.11,14.57-12.16,16.55a15.61,15.61,0,0,0-10.22,7c-5,7.43-8.45,15.39-7.28,24.69a20.43,20.43,0,0,1-.11,3.49l-4.7-.94c-.34-5.78-.56-11.57-1.06-17.34-.32-3.7-2.35-5.12-6.35-5.75a98.49,98.49,0,0,1-12.91-2.65c-12.12-3.6-17.88-13.22-21.56-24.24-3-9-2.67-18.13-.63-27.49.83-3.83-1.17-8.28-1.94-12.44-.21-1.14-.73-2.21-1-3.34-1.16-4.83.39-7.24,5.27-7.69,8.14-.74,15-3.94,21.72-8.69C399.45,12.6,407.14,8.81,415.83,8Z" transform="translate(0)"/><path class="f" d="M32.34,440.1c-1.64,4.95-7.43,7-12.9,4.18a16.36,16.36,0,0,1-5.92-5.08c-5.24-7.73-8.1-16.45-9.5-25.66C2.69,404.81,1.08,396.1.16,387.32c-.48-4.55.23-9.24.46-13.86a52.16,52.16,0,0,1,3.16-16.95c2-5.13,4.09-9.65,10.91-8.5,1.91.33,2.58-1,3.44-2.69,2-4,4.12-8,7.05-11.29,4.06-4.52,6.94-4.06,9.44,1.42A105,105,0,0,1,40.91,353c2.42,9.41,4.15,19,6.15,28.53A5.78,5.78,0,0,1,47,383c-3.88,2.43-5.51-.19-6.51-3.2-1.62-4.87-2.7-9.91-4.19-14.82-.87-2.84-1.53-5.77-3.84-8.91-1.75,6-1.39,11.55-.77,16.93,1.1,9.56,3.75,18.84,6,28.19,1,4.16,4.42,6,7,8.69.49,2.8-1.42,3.95-3.44,5C35,416.71,34,416.12,32.54,410c-1.9-7.91-3.71-15.85-6.06-23.64A27.09,27.09,0,0,0,21.21,376a77.85,77.85,0,0,0-.31,33.84C23.11,420.53,25.08,431.33,32.34,440.1Z" transform="translate(0)"/><path class="g" d="M32.34,440.1a11.86,11.86,0,0,1-6.61-8c-2.23-8.14-5-16.21-6.35-24.51-1.26-7.95-1.2-16.15-1.15-24.23,0-3.08,1.62-6.14,3.14-9.21,8.9,12.36,9.64,27.35,14.07,41.07l5.6-1.12c7.89-3.78,16.61-2.65,24.89-4.16,4.53-.82,9.21-1.13,13.82-1.7,1.86-.23,3.64-.51,5.21.83.62,2.71,1.37,5.4,1.84,8.14,1.23,7.28,2.34,14.58,3.49,21.87Z" transform="translate(0)"/><path class="h" d="M538,385.1l24-8c4.24,11.88,8.45,23.77,12.73,35.64,1.55,4.32,4.38,6.08,9.29,6.7,11.27,1.42,22.77,1.43,33.75,5,3.88,1.25,6.78,3.24,8.16,7.3-1.46,4.66-6.06,4.14-9.16,4.18-14.47.21-28.95-.47-43.43-.46-5.86,0-10.81-1.23-14.54-6-.33-.42-1.22-.42-1.85-.62-4.74-6.57-7.87-14.09-12.81-20.65-3.34-4.43-3-11.08-5.19-16.51C538.15,389.59,536.5,387.54,538,385.1Z" transform="translate(0)"/><path class="i" d="M44.19,410.07c-5.22-1.56-7.29-5.36-8.25-10.48-1.52-8.14-3.95-16.12-5.27-24.28-1.15-7.11-1.62-14.41,1.24-22,4.25,4.38,5.25,9.44,6.45,14.5s2.79,9.83,4.37,15.23H47c8.75,0,17.5.29,26.24,0,7.53-.28,15.05-1.22,22.57-1.87l1.41,11-15,2.88,2.64,13.11c-12.09,2.09-24.37,2.08-36.54,3.24A4.84,4.84,0,0,1,44.19,410.07Z" transform="translate(0)"/><path class="j" d="M538,385.1c1.88,6.21,3.49,12.53,5.7,18.62,2.5,6.9,8,12.14,11,18.8.91,2,1.53,4.19,2.28,6.28-7.24-.25-14.5-.31-21.72-.85a8.44,8.44,0,0,1-7.55-5.69,100.22,100.22,0,0,1-3.83-11.72c-2.47-10.76-4.66-21.58-7-32.38,3-2.27,6.06-2,9.12-.09.84,2.83,1.69,5.65,2.52,8.45C532.1,388.53,534.86,385.56,538,385.1Z" transform="translate(0)"/><path class="k" d="M526,378.07l-9.12.09a5.11,5.11,0,0,0-1.29-.74c-6.45-1.46-6.12-1.47-6.67-8.27-.7-8.74-1.91-17.44-3.07-26.14-2.16-16.2-4.47-32.38-6.69-48.57-.47-3.41-.8-6.83-1.2-10.25V263.66l1.46-.2c2.31,9.32,3.79,18.84,5.68,28.26,1.93,9.68,3.73,19.39,6,29s5.28,19.05,7.77,28.61S523.68,368.48,526,378.07Z" transform="translate(0)"/><path class="l" d="M537,242.1c-1.3-3.81-2.77-7.58-3.85-11.46-1.53-5.47-2.77-11-4.14-16.54.68.81,1.72,1.51,2,2.44,2.31,7.77,4.5,15.58,6.63,23.4C537.83,240.56,537.26,241.38,537,242.1Z" transform="translate(0)"/><path class="m" d="M566,355.1c-3.47-8.1-6.1-16.42-6.66-25.29,1,2.35,2.12,4.64,2.85,7.06,1.61,5.32,3,10.7,4.42,16.08C566.8,353.57,566.25,354.38,566,355.1Z" transform="translate(0)"/><path class="n" d="M558.8,327.21a45,45,0,0,1-2.33-5.46q-1.83-6.37-3.22-12.88c-.24-1.15.33-2.48.53-3.73Q556.29,316.18,558.8,327.21Z" transform="translate(0)"/><path class="l" d="M523,192.1c-1.64-5.9-3.29-11.8-4.87-17.72-.09-.34.4-.83.62-1.25C521.32,179.21,523.68,185.32,523,192.1Z" transform="translate(0)"/><path class="l" d="M517.09,167.11c-.76-2.66-1.51-5.32-2.27-8C515.58,161.79,516.33,164.45,517.09,167.11Z" transform="translate(0)"/><path class="l" d="M514.36,157.33l-1.86-5.57Z" transform="translate(0)"/><path class="o" d="M300,443.06l4,0Z" transform="translate(0)"/><path class="n" d="M553.52,303.29c-.33-1.19-.67-2.37-1-3.56C552.85,300.92,553.19,302.1,553.52,303.29Z" transform="translate(0)"/><path class="n" d="M551.05,292.1c-.24-.76-.48-1.52-.71-2.28C550.57,290.58,550.81,291.34,551.05,292.1Z" transform="translate(0)"/><path class="n" d="M544.09,266.11l-.72-2.31Z" transform="translate(0)"/><path class="n" d="M541.48,256.3c-.47-.74-1-1.48-1.43-2.22C540.53,254.82,541,255.56,541.48,256.3Z" transform="translate(0)"/><path class="p" d="M365,442l2,0Z" transform="translate(0)"/><path class="p" d="M389,442.09l2,0Z" transform="translate(0)"/><path class="l" d="M518.46,171.32c-.34-.85-.67-1.69-1-2.54C517.79,169.63,518.12,170.47,518.46,171.32Z" transform="translate(0)"/><path class="q" d="M134,446.09l2-.1Z" transform="translate(0)"/><path class="n" d="M552.08,297.11c-.2-.79-.41-1.57-.62-2.36C551.67,295.54,551.88,296.32,552.08,297.11Z" transform="translate(0)"/><path class="r" d="M44.19,410.07l40.68-2A1.52,1.52,0,0,1,85,409c-9.6,1.15-19.19,2.32-28.79,3.44-5,.58-10.08,1.06-15.13,1.59Z" transform="translate(0)"/><path class="s" d="M398.45,39.27,411.26,38c-.54,1-.74,1.87-1.12,1.95A104.22,104.22,0,0,1,398.69,42a4.19,4.19,0,0,1-3.43-2c-.4-1,.3-2.9,1.12-3.92,3-3.7,5.18-4.71,8.89-4.38L398,38.11C398.13,38.5,398.29,38.88,398.45,39.27Z" transform="translate(0)"/><path class="t" d="M384.74,66.44c8.59.22,13.91-4.68,19.47-10.31C403.65,63.61,390.84,70.4,384.74,66.44Z" transform="translate(0)"/></svg>