<?xml version="1.0" encoding="utf-8"?>
<!-- Generator: Adobe Illustrator 23.0.4, SVG Export Plug-In . SVG Version: 6.00 Build 0)  -->
<svg version="1.1" id="Layer_1" xmlns="http://www.w3.org/2000/svg" xmlns:xlink="http://www.w3.org/1999/xlink" x="0px" y="0px"
	 viewBox="0 0 459.32 472.75" style="enable-background:new 0 0 459.32 472.75;" xml:space="preserve">
<style type="text/css">
	.st0{fill:#ABF47E;}
	.st1{fill:#EEEEEA;}
	.st2{fill:#ACF47F;}
	.st3{fill:#A0E476;}
	.st4{fill:#A0E475;}
	.st5{fill:#0D2837;}
	.st6{fill:#EEECE8;}
	.st7{fill:#102B39;}
	.st8{fill:#E78765;}
	.st9{fill:#16343A;}
	.st10{fill:#E3FBD4;}
	.st11{fill:#ECD0C4;}
	.st12{fill:#C8CED1;}
	.st13{fill:#122F38;}
	.st14{fill:#FAFCFA;}
	.st15{fill:#F8F9F8;}
	.st16{fill:#ECCFC2;}
	.st17{fill:#AAF47D;}
	.st18{fill:#E78662;}
	.st19{fill:#113347;}
	.st20{fill:#67C5A5;stroke:#67C5A5;stroke-miterlimit:10;}
	.st21{fill:#59B896;}
	.st22{fill:#F2B980;}
	.st23{fill:#133448;stroke:#133448;stroke-miterlimit:10;}
	.st24{fill:#2B495A;}
	.st25{fill:#324E60;}
	.st26{fill:#F1B881;}
	.st27{fill:#DA7753;stroke:#D97652;stroke-miterlimit:10;}
	.st28{fill:#D97652;stroke:#D97652;stroke-miterlimit:10;}
	.st29{fill:#ECA863;stroke:#ECA863;stroke-miterlimit:10;}
	.st30{fill:#FEFEFE;}
	.st31{fill:#ECA863;}
	.st32{fill:#E2E2DE;}
	.st33{fill:#D57A57;}
	.st34{fill:#C4C2BA;}
	.st35{fill:#C5C1B8;}
	.st36{fill:#193748;}
	.st37{fill:#343E40;}
	.st38{fill:#142B37;}
	.st39{fill:#132A37;}
	.st40{fill:#C5C1B8;stroke:#C5C1B8;stroke-miterlimit:10;}
</style>
<g>
	<path class="st0" d="M149.68,348.66c0.39,2.66,0.78,5.32,1.17,7.98c0.2,0.64,0.39,1.27,0.59,1.91c0.12,0.86,0.24,1.72,0.35,2.58
		c0.19,0.64,0.39,1.27,0.58,1.91c0.31,4.49,0.63,8.99,0.94,13.48c0.24,4.2,0.47,8.4,0.71,12.6c0,1.49,0,2.98,0.01,4.47
		c-2.36,0.59-4.73,1.19-7.1,1.78c-0.31-3.7-0.83-7.4-0.88-11.11c-0.16-11.67-1.49-23.17-4.73-34.38c-0.94-3.26-2.83-6.24-4.29-9.34
		c-3.38-6.52-6.15-13.47-10.37-19.4c-2.81-3.95-7.91-6.17-11.57-9.62c-4.76-4.49-8.86-9.7-13.7-14.09
		c-5.55-5.03-7.52-11.18-7.49-18.33c0.03-8.37-0.01-16.75-0.02-25.12c3.34-2.89,2.53-6.9,1.08-9.71
		c-2.88-5.6-6.53-10.89-10.47-15.83c-2.56-3.21-4.47-6.31-4.05-10.44c0.79-7.81,1.84-15.61,2.51-23.43
		c0.7-8.19,0.83-16.23-4.2-23.58c-3.18-4.64-6.49-9.61-7.93-14.92c-2.49-9.17-2.43-18.79,2.61-27.27
		c3.96-6.68,4.26-12.78,1.04-19.78c-4.54-9.89-2.78-20.89,4.66-27.02c6.77-5.58,15.3-7.17,23.6-4.9c5.72,1.57,9.22,6.86,9.88,12.93
		c1.4,12.77,6,24.09,13.51,34.47c5.97,8.24,8.02,17.93,8.03,27.92c0.01,6.35,1.5,11.34,5.59,16.73
		c6.65,8.75,11.17,19.28,12.32,30.31c1.11,10.59,0.01,21.39,0.36,32.08c0.09,2.85,1.27,6.23,3.11,8.36
		c7.18,8.33,9.49,18.44,10.96,28.74c0.86,6.02,0.91,12.36,0.02,18.37c-0.77,5.18-3.06,10.25-5.31,15.08
		c-2.33,4.99-5.72,9.48-8.08,14.46c-1.4,2.96-1.73,6.43-2.54,9.67c-0.19,1.23-0.39,2.47-0.58,3.7c-0.1,5.36-0.19,10.71-0.29,16.07
		C149.69,346.88,149.69,347.77,149.68,348.66z M135.5,322.97c0.59-0.28,1.19-0.56,1.78-0.84c-0.67-4.19-1.79-8.36-1.93-12.57
		c-0.36-10.6,0.26-21.25-0.55-31.81c-0.59-7.61-1.74-15.55-4.61-22.53c-7.13-17.33-11.75-34.89-11.32-53.81
		c0.14-6.26-1.01-13.01-3.42-18.76c-5.38-12.83-10.66-25.54-11.15-39.73c-0.63,3.05-1.82,6.25-1.23,9.08
		c1.8,8.68,3.4,17.57,6.72,25.71c3.69,9.05,5.7,18.09,5.64,27.74c-0.03,5.39-1.02,11.04,0.26,16.11c2.93,11.64,6.97,23,10.58,34.47
		c1.16,3.7,3.12,7.32,3.41,11.08c0.73,9.34,0.48,18.75,1.08,28.11c0.51,7.95,1.55,15.87,2.58,23.78
		C133.52,320.38,134.75,321.64,135.5,322.97z"/>
	<path class="st0" d="M192.95,362.23c-7.35,9.82-8.13,21.85-11.13,33.13c-1.74,0-3.48,0-5.22,0.01c0.9-7.74,1.79-15.48,2.69-23.21
		c2.75-3.63,2.31-7.59,0.97-11.51c-1.49-4.38-3.87-8.56-4.72-13.04c-1.46-7.69-3.79-15.83-2.6-23.27
		c1.95-12.16,8.45-22.84,16.69-32.21c4.35-4.94,6.71-10.61,7.82-17.24c2.3-13.68,6.28-26.61,20.47-33.21
		c5.09-2.36,6.39-6.86,5.12-12.07c-1.51-6.21-0.37-12.07,3.04-17.15c4.05-6.03,8.84-11.56,13.32-17.31
		c6.46-2.09,9.52-6.73,10.95-13.23c2.88-13.13,12.08-21.19,23.53-26.79c6.25-3.06,18.68,1.55,23.01,7.23
		c6.13,8.05,6.36,16.88,4.59,26.28c-1.53,8.13-3.55,15.95-9.27,22.31c-4.16,4.63-8.14,9.43-12.37,14
		c-2.85,3.08-3.61,6.63-3.74,10.66c-0.41,13.28-2.58,26.12-11.25,36.84c-3.17,3.92-6.34,8.24-10.47,10.89
		c-8.07,5.18-9.88,12.79-11.58,21.35c-2.16,10.87-4.67,21.92-9.04,32.03c-4.2,9.71-12.51,16.29-23.32,18.96
		c-5.38,1.33-10.66,3.06-15.98,4.61c0.09-0.73,0.03-1.52,0.28-2.19c4.02-11,10.06-20.86,16.86-30.33c3.3-4.59,6.92-9.14,9.16-14.24
		c3.78-8.59,6.77-17.55,9.72-26.47c3.2-9.71,7.23-18.84,13.37-27.18c3.29-4.46,4.91-10.15,7.28-15.28c-0.43-0.2-0.86-0.39-1.29-0.59
		c-1.72,2.89-3.24,5.94-5.2,8.66c-6.22,8.58-12.76,16.89-16.09,27.24c-3.06,9.52-6.52,18.91-10.06,28.26
		c-1.36,3.59-2.98,7.26-5.27,10.3c-7.04,9.33-13.82,18.78-17.25,30.11C194.63,353.03,193.94,357.68,192.95,362.23z"/>
	<path class="st1" d="M240.44,417.08c-5.05,4.72-9.86,9.73-15.2,14.09c-7.34,6-15.66,10.31-25.18,11.8
		c-2.68,0.42-3.78,1.64-3.78,4.45c0,5.41-2.03,7.67-7.24,8.11c-5.63,0.48-11.27,0.73-16.92,0.94c-9.23,0.34-18.46,0.9-27.68,0.75
		c-8.9-0.14-17.78-1.03-26.67-1.64c-3.77-0.26-5.68-2.5-6.88-6.01c-0.54-1.58-2.2-3.43-3.75-3.93
		c-14.75-4.75-26.36-14.16-37.36-24.55c-0.42-0.4-0.69-0.96-1.04-1.44c0.31-0.61,0.62-1.21,0.93-1.82c29.94-0.3,59.88-0.6,89.83-0.9
		c0.61-0.03,1.21-0.07,1.82-0.1c24.56-0.17,49.12-0.34,73.67-0.51C236.81,416.58,238.62,416.83,240.44,417.08z"/>
	<path class="st2" d="M67.9,321.8c-7.08-4.13-9.67-10.99-10.76-18.5c-0.7-4.84-0.32-9.83-1.07-14.66
		c-0.77-4.97-3.91-8.74-8.46-10.79c-7.2-3.24-13.93-7.11-18.09-14.01c-2.62-4.35-5.18-9.01-6.39-13.87
		c-1.84-7.4-5.02-13.65-9.91-19.55c-8.2-9.91-13.09-21.3-9.87-34.54c1.14-4.67,3.14-9.4,8.79-10.74c0.51,2.72,0.17,6.11,1.69,8.04
		c4.05,5.13,8.75,9.76,15.35,11.86c11.5,3.66,18.94,11.28,22.01,23.08c1.27,4.89,2.73,9.74,4.09,14.6
		c3.18,11.34,9.19,21.1,17.96,28.77c4.8,4.2,8.31,8.64,10.23,14.71c2.41,7.64,4.38,15.68,8.33,22.51
		c6.09,10.53,13.74,20.15,20.63,30.22c2.9,4.23,5.56,8.62,8.33,12.94c-2-1.3-4.11-2.45-5.98-3.92c-4.19-3.3-9.24-6.09-12.13-10.32
		c-4.66-6.82-7.92-14.6-11.67-22.03c-2.47-4.89-4.77-9.86-7.15-14.8c-0.42,0.19-0.84,0.38-1.26,0.56
		c4.66,11.24,9.32,22.47,14.23,34.31c-4.26-2.07-8.21-4.02-12.18-5.93C79.06,327.08,73.47,324.45,67.9,321.8z"/>
	<path class="st3" d="M182.74,241.3c-2.04-7.97-4.22-15.91-6.09-23.92c-3.28-14.13,0.99-26.59,8.47-38.48
		c4.02-6.38,8.2-12.92,10.62-19.97c2.06-6.01,2.05-12.83,2.32-19.31c0.5-11.92,12.74-21.72,23.96-18.02
		c7.51,2.48,12.57,8.62,15.41,15.9c2.87,7.35,2.2,15.07,1.32,22.89c-0.91,8.07-0.39,16.3-0.47,24.45c-0.02,1.63,0.07,3.27,0.1,4.9
		c-1.09,1.19-2.03,2.57-3.29,3.53c-8.82,6.73-14.74,15.63-19.95,25.28c-2.48,4.6-6.45,8.39-9.74,12.55
		c-0.19-8.87,1.2-17.43,4.52-25.73c1.31-3.27,1.99-6.84,2.56-10.35c2.15-13.16,4.18-26.34,6.13-39.53c0.32-2.19,0.05-4.47,0.05-6.71
		c-0.42-0.03-0.84-0.05-1.26-0.08c-1.33,5.25-2.91,10.44-3.93,15.75c-2.54,13.24-4.1,26.7-7.42,39.73
		c-2.49,9.75-4.77,19.32-4.3,29.41C195.41,236.17,189.07,238.74,182.74,241.3z"/>
	<path class="st4" d="M120.75,351.87c-2.77-4.32-5.43-8.71-8.33-12.94c-6.9-10.07-14.55-19.69-20.63-30.22
		c-3.95-6.83-5.92-14.87-8.33-22.51c-1.92-6.07-5.42-10.51-10.23-14.71c-8.76-7.67-14.78-17.42-17.96-28.77
		c-1.37-4.87-2.82-9.71-4.09-14.6c-3.06-11.79-10.51-19.41-22.01-23.08c-6.6-2.1-11.29-6.73-15.35-11.86
		c-1.52-1.92-1.18-5.31-1.69-8.04c5.32-2.96,11.2-3.99,16.54-1.31c6.42,3.22,12.21,7.69,18.29,11.6c2.72,1.75,5.31,3.84,8.25,5.11
		c8.62,3.73,15.63,8.64,18.75,18.25c2.83,8.71,6.72,17.07,10.04,25.63c1.84,4.76,5.21,7.79,9.88,9.57
		c0.01,8.38,0.05,16.75,0.02,25.13c-0.02,7.15,1.94,13.3,7.49,18.33c4.84,4.39,8.94,9.6,13.7,14.09c3.66,3.44,8.76,5.67,11.57,9.62
		c4.22,5.93,6.98,12.88,10.37,19.4c-2.54,4.38-5.07,8.75-7.61,13.13C126.54,353.07,123.64,352.47,120.75,351.87z"/>
	<path class="st5" d="M182.74,241.3c6.33-2.56,12.67-5.13,19-7.69c1.22-0.83,2.43-1.66,3.65-2.49c3.29-4.16,7.25-7.96,9.74-12.55
		c5.21-9.65,11.13-18.54,19.95-25.28c1.26-0.96,2.2-2.34,3.29-3.53c0.35,1.8,0.69,3.6,1.04,5.4c-4.47,5.75-9.27,11.28-13.32,17.31
		c-3.41,5.08-4.55,10.94-3.04,17.15c1.27,5.21-0.04,9.71-5.12,12.07c-14.19,6.59-18.17,19.53-20.47,33.21
		c-1.11,6.63-3.47,12.29-7.82,17.24c-8.24,9.37-14.74,20.05-16.69,32.21c-1.2,7.44,1.13,15.58,2.6,23.27
		c0.85,4.48,3.23,8.66,4.72,13.04c1.34,3.92,1.78,7.88-0.97,11.51c-7.01,6.48-13.78,13.11-15.32,23.19c-2.35,0-4.69,0.01-7.04,0.01
		c1.17-5.65,2.35-11.3,3.52-16.95c0.44-0.96,0.89-1.92,1.33-2.88c0-6.82,0-13.65,0-20.47c-0.42-0.99-0.84-1.99-1.26-2.98
		c-0.79-3.82-1.34-7.71-2.42-11.45c-2.33-8.05-2.29-16.27,0.13-24.01c1.52-4.85,5.04-9.33,8.5-13.23c3.09-3.49,4.82-6.82,4.52-11.55
		c-1.06-16.66,2.83-32.44,9.02-47.76c0.33-0.81,0.84-1.54,1.26-2.31c0.2-0.07,0.39-0.14,0.59-0.21
		C182.36,241.56,182.57,241.48,182.74,241.3z"/>
	<path class="st6" d="M156.94,395.36c2.35,0,4.69-0.01,7.04-0.01c4.21,0.01,8.42,0.01,12.63,0.02c1.74,0,3.48,0,5.22-0.01
		c22.55,0,45.11,0,67.66,0c0.4,0.57,0.79,1.15,1.19,1.72c-0.74,1.84-1.47,3.67-2.21,5.51c-4.44-0.26-8.89-0.72-13.33-0.72
		c-7.48,0-14.95,0.48-22.43,0.45c-33.07-0.13-66.14-0.43-99.21-0.54c-8.07-0.03-16.13,0.44-24.2,0.6
		c-5.21,0.11-10.43-0.11-15.63,0.18c-4.13,0.22-8.22,0.98-12.33,1.51c-0.01,0.57-0.02,1.14-0.02,1.71c3.1,0.34,6.2,1.03,9.29,0.96
		c14.04-0.33,28.08-1.13,42.12-1.27c12.25-0.12,24.51,0.59,36.77,0.62c26.65,0.08,53.3,0.04,79.95-0.11
		c6.26-0.04,12.51-0.7,18.76-1.08c-1.77,2.84-3.54,5.67-5.3,8.51c-2.03-0.31-4.07-0.91-6.11-0.89c-25.39,0.23-50.78,0.56-76.18,0.83
		c-11.97,0.12-23.94,0.08-35.9,0.23c-9.26,0.12-18.53,0.6-27.79,0.59c-8.19-0.02-16.37-0.7-24.56-0.65
		c-2.11,0.01-4.21,1.67-6.32,2.57c-4.44-4.6-8.06-9.67-8.96-16.21c-0.48-3.45,1.55-4.5,4.54-4.45c16.66,0.27,33.32,0.68,49.99,0.77
		c6.82,0.04,13.64-0.59,20.46-0.92c1.94,0.04,3.88,0.07,5.81,0.11c3.02,0,6.03,0,9.05,0c2.37-0.6,4.73-1.19,7.1-1.78
		C155,394.18,155.97,394.77,156.94,395.36z"/>
	<path class="st7" d="M137.89,395.38c-1.94-0.04-3.88-0.07-5.81-0.11c-2.75-6.51-5.09-13.24-8.4-19.45
		c-2.49-4.68-8.08-3.91-12.49-4.65c-9.04-1.5-17.34-4.53-23.07-11.9c-3.14-4.03-6.08-8.73-7.33-13.59
		c-1.71-6.62-4.78-12.05-9.06-17.14c-1.63-1.95-2.57-4.48-3.83-6.74c5.58,2.65,11.16,5.28,16.73,7.95c3.97,1.9,7.92,3.85,12.18,5.93
		c-4.91-11.83-9.57-23.07-14.23-34.31c0.42-0.19,0.84-0.38,1.26-0.56c2.38,4.94,4.68,9.91,7.15,14.8
		c3.75,7.43,7.01,15.21,11.67,22.03c2.89,4.23,7.95,7.01,12.13,10.32c1.86,1.47,3.98,2.62,5.98,3.92c2.89,0.6,5.78,1.2,8.67,1.8
		c0.12,0.42,0.46,0.93,0.33,1.25c-3.23,8.21-1.77,15.51,2.68,23.16C135.4,383.18,136.15,389.57,137.89,395.38z"/>
	<path class="st8" d="M248.21,404.89c-6.25,0.38-12.5,1.05-18.76,1.08c-26.65,0.15-53.3,0.19-79.95,0.11
		c-12.26-0.04-24.52-0.74-36.77-0.62c-14.04,0.14-28.08,0.94-42.12,1.27c-3.09,0.07-6.2-0.62-9.29-0.96
		c0.01-0.57,0.02-1.14,0.02-1.71c4.11-0.52,8.2-1.28,12.33-1.51c5.2-0.28,10.42-0.07,15.63-0.18c8.07-0.17,16.13-0.63,24.2-0.6
		c33.07,0.12,66.14,0.41,99.21,0.54c7.48,0.03,14.95-0.44,22.43-0.45c4.44,0,8.88,0.46,13.33,0.72
		C248.38,403.36,248.29,404.12,248.21,404.89z"/>
	<path class="st8" d="M66.05,416.07c2.11-0.9,4.21-2.56,6.32-2.57c8.18-0.05,16.37,0.63,24.56,0.65c9.26,0.02,18.53-0.47,27.79-0.59
		c11.97-0.15,23.93-0.1,35.9-0.23c25.39-0.26,50.78-0.6,76.18-0.83c2.03-0.02,4.07,0.58,6.11,0.89c-0.28,0.84-0.55,1.68-0.82,2.52
		c-2.36,0.14-4.73,0.27-7.09,0.41c-24.56,0.17-49.12,0.34-73.67,0.51c-0.61,0.03-1.21,0.07-1.82,0.1c-29.94,0.3-59.88,0.6-89.83,0.9
		c-0.89-0.34-1.78-0.67-2.67-1.01C66.69,416.58,66.37,416.32,66.05,416.07z"/>
	<path class="st9" d="M192.95,362.23c0.99-4.55,1.68-9.19,3.03-13.64c3.43-11.33,10.21-20.78,17.25-30.11
		c2.29-3.04,3.91-6.7,5.27-10.3c3.54-9.35,6.99-18.75,10.06-28.26c3.33-10.34,9.87-18.66,16.09-27.24c1.97-2.72,3.48-5.76,5.2-8.66
		c0.43,0.2,0.86,0.39,1.29,0.59c-2.37,5.13-4,10.82-7.28,15.28c-6.14,8.34-10.16,17.47-13.37,27.18
		c-2.95,8.93-5.95,17.88-9.72,26.47c-2.24,5.11-5.86,9.66-9.16,14.24c-6.81,9.46-12.84,19.33-16.86,30.33
		c-0.25,0.67-0.19,1.46-0.28,2.19c0,0,0.05-0.02,0.05-0.02c-0.24,0.4-0.48,0.81-0.72,1.21
		C193.51,361.75,193.23,361.99,192.95,362.23z"/>
	<path class="st6" d="M154.03,389.12c-0.24-4.2-0.47-8.4-0.71-12.6C156.56,380.55,155.09,384.84,154.03,389.12z"/>
	<path class="st10" d="M149.98,329.91c0.19-1.23,0.39-2.47,0.58-3.7C150.37,327.45,150.18,328.68,149.98,329.91z"/>
	<path class="st11" d="M234.99,416.33c2.36-0.14,4.73-0.27,7.09-0.41c-0.55,0.39-1.1,0.77-1.64,1.16
		C238.62,416.83,236.81,416.58,234.99,416.33z"/>
	<path class="st10" d="M149.68,348.66c0-0.89,0.01-1.78,0.01-2.67C149.69,346.88,149.69,347.77,149.68,348.66z"/>
	<path class="st12" d="M160.52,352.08c0.42,0.99,0.84,1.99,1.26,2.98C161.36,354.06,160.94,353.07,160.52,352.08z"/>
	<path class="st6" d="M67.01,416.83c0.89,0.34,1.78,0.67,2.67,1.01c-0.31,0.61-0.62,1.21-0.93,1.82
		C68.16,418.72,67.59,417.78,67.01,416.83z"/>
	<path class="st12" d="M161.79,375.53c-0.44,0.96-0.89,1.92-1.33,2.88C160.9,377.45,161.35,376.49,161.79,375.53z"/>
	<path class="st10" d="M151.45,358.55c-0.2-0.64-0.4-1.27-0.59-1.91C151.06,357.27,151.25,357.91,151.45,358.55z"/>
	<path class="st10" d="M152.38,363.03c-0.19-0.64-0.39-1.27-0.58-1.91C152,361.76,152.19,362.4,152.38,363.03z"/>
	<path class="st3" d="M182.12,241.55c-0.2,0.07-0.4,0.14-0.59,0.21C181.72,241.69,181.92,241.62,182.12,241.55z"/>
	<path class="st0" d="M193.79,361.51c0.24-0.4,0.48-0.81,0.72-1.21C194.27,360.7,194.03,361.11,193.79,361.51z"/>
	<path class="st13" d="M135.5,322.97c-0.75-1.32-1.98-2.59-2.17-3.98c-1.02-7.91-2.07-15.83-2.58-23.78
		c-0.6-9.36-0.35-18.77-1.08-28.11c-0.3-3.76-2.25-7.38-3.41-11.08c-3.61-11.47-7.65-22.83-10.58-34.47
		c-1.28-5.07-0.29-10.72-0.26-16.11c0.06-9.65-1.95-18.69-5.64-27.74c-3.32-8.14-4.93-17.03-6.72-25.71
		c-0.59-2.83,0.6-6.02,1.23-9.08c0.49,14.19,5.78,26.9,11.15,39.73c2.41,5.75,3.56,12.51,3.42,18.76
		c-0.43,18.92,4.19,36.48,11.32,53.81c2.87,6.98,4.02,14.92,4.61,22.53c0.82,10.55,0.2,21.21,0.55,31.81
		c0.14,4.21,1.26,8.38,1.93,12.57C136.69,322.41,136.1,322.69,135.5,322.97z"/>
	<path class="st14" d="M137.89,395.38c-1.74-5.81-2.49-12.2-5.45-17.3c-4.44-7.64-5.91-14.94-2.68-23.16
		c0.13-0.32-0.21-0.83-0.33-1.25c2.54-4.37,5.07-8.75,7.61-13.13c1.46,3.11,3.35,6.09,4.29,9.34c3.25,11.21,4.57,22.71,4.73,34.38
		c0.05,3.71,0.58,7.41,0.88,11.11C143.93,395.37,140.91,395.38,137.89,395.38z"/>
	<path class="st15" d="M176.6,395.37c-4.21-0.01-8.42-0.01-12.63-0.02c1.54-10.09,8.31-16.72,15.32-23.19
		C178.4,379.89,177.5,387.63,176.6,395.37z"/>
	<path class="st16" d="M159.5,416.94c0.61-0.03,1.21-0.07,1.82-0.1C160.71,416.87,160.11,416.91,159.5,416.94z"/>
	<path class="st17" d="M205.39,231.12c-1.22,0.83-2.43,1.66-3.65,2.49c-0.47-10.09,1.81-19.66,4.3-29.41
		c3.32-13.02,4.89-26.49,7.42-39.73c1.02-5.31,2.6-10.5,3.93-15.75c0.42,0.03,0.84,0.05,1.26,0.08c0,2.24,0.28,4.52-0.05,6.71
		c-1.95,13.19-3.98,26.37-6.13,39.53c-0.57,3.5-1.26,7.08-2.56,10.35C206.59,213.68,205.21,222.24,205.39,231.12z"/>
</g>
<path class="st18" d="M316.33,144.42c0.64,9.99,5.54,17.34,14.52,21.45c11.01,5.05,22.19,9.75,33.47,14.15
	c11.19,4.36,18.37,12.08,21.96,23.45c3.55,11.23,6.19,22.6,7.1,34.4c0.53,6.91,2.01,13.74,3.04,20.61
	c1.28,8.5,2.79,16.98,3.75,25.51c1.26,11.18,2.06,22.4,3.1,33.6c0.29,3.11,0.96,6.2,1.03,9.31c0.32,13.37-1.72,26.43-5.61,39.21
	c-0.29,0.95-0.39,1.95-0.58,2.93c-4.96,1.06-9.91,2.12-14.87,3.19c-0.02-20.42,0.06-40.84-0.09-61.25
	c-0.09-11.9-0.64-23.8-0.81-35.7c-0.04-3.04-1.22-4.16-4.15-4.1c-3.98,0.07-7.96-0.07-11.95-0.12c-0.23-2.12-0.4-4.25-0.72-6.36
	c-0.71-4.71-1.67-9.39-2.22-14.12c-0.55-4.75-0.67-9.54-1.05-14.31c-0.17-2.19,0.08-4.8-4.28-4.86c0.45,4.28,1.04,8.3,1.25,12.34
	c0.46,9.09,0.73,18.2,1.07,27.3c-13.47,0.05-26.93,0.06-40.4,0.16c-28.89,0.22-57.78,0.5-86.67,0.75c0.01-11.3,0.04-22.6,0.03-33.91
	c0-1.85,0.52-4.09-3.19-4.68c-0.6,13.06-1.18,25.88-1.77,38.7c-1.15,0.14-2.33,0.17-3.45,0.43c-6.6,1.52-6.69,1.54-6.57,8.31
	c0.23,12.93,0.76,25.86,0.87,38.8c0.16,17.96,0.05,35.92,0.05,53.87c-1.75-0.26-3.49-0.51-5.24-0.77
	c-3.15-5.09-6.57-10.03-9.35-15.32c-1.9-3.62-3.81-7.65-4.11-11.62c-0.84-11.41-1.27-22.88-1.1-34.32
	c0.18-11.59,1.21-23.17,1.98-34.75c0.91-13.57,1.55-27.17,3.05-40.68c1.2-10.81,1.96-21.77,5.83-32.15
	c2.79-7.48,7.35-13.3,14.63-16.84c8.37-4.06,16.87-7.88,25.04-12.31c9.67-5.25,17.34-12.29,18.42-24.27
	c0.11-1.2,1.48-2.29,2.26-3.43l0.09,0.08c2.44,0.37,4.88,0.98,7.33,1.05c6.15,0.16,12.32,0.28,18.46,0
	c5.48-0.24,10.65-1.81,15.08-5.27C313.15,143.38,314.74,143.9,316.33,144.42z"/>
<path class="st19" d="M316.33,144.42c-1.59-0.52-3.18-1.04-4.77-1.56c-0.17-0.89-0.34-1.79-0.51-2.68
	c-0.24-4.65-0.48-9.3-0.72-13.95c0,0-0.04,0.03-0.04,0.03c0.41-0.32,0.81-0.64,1.22-0.95c4.61-2.96,9.55-5.51,13.77-8.95
	c8.31-6.78,13.41-15.77,13.88-26.52c0.39-8.93-0.31-17.94-1.03-26.87c-0.52-6.5-2.38-12.78-5.31-19c-2.1,1.81-3.91,3.26-5.59,4.84
	c-6,5.67-12.77,10.09-20.63,12.73c-5.34,1.79-10.7,3.53-16.08,5.18c-1.89,0.58-3.43,1.02-4.64,3.07
	c-1.98,3.36-11.64,6.02-14.45,3.87c-2.2-1.68-4.28-1.59-6.51-1.45c-4.76,0.3-9.51,0.84-14.87,1.33c0,2.82,0,5.49,0,8.16
	c-1.56-0.94-2.13-2.04-2.81-3.07c-1.3-1.97-3.08-3.1-5.51-2.43c-2.59,0.72-3.76,2.55-3.48,5.24c0.32,3.12,0.42,6.3,1.06,9.35
	c1.19,5.7,3.36,10.87,9.68,12.67c7.36,2.09,12.33,6.97,15.67,13.56c1.62,3.19,2.73,6.68,3.78,10.12c1.98,6.49,2.56,13.18,2.24,19.95
	l-0.09-0.08c-10.14-1.63-20.31-3.04-30.39-4.95c-7.8-1.48-15.39-3.87-22-8.54c-4.4-3.11-8.95-6.08-12.95-9.66
	c-4.66-4.17-8.8-8.93-13.28-13.56c0.85-1.61,1.62-3.05,2.39-4.49c3.15-0.51,2.99-3.68,4.45-5.55c0.67-0.69,1.35-1.37,2.02-2.06
	c3.36-1.5-0.19-3.46,0.35-5.15c0.67-0.96,1.33-1.93,2-2.89c2.02-0.06,4.62,0.66,4.07-2.96l0.03-0.03c0.35-0.64,0.69-1.29,1.04-1.93
	c0.16-0.19,0.33-0.39,0.49-0.58c-0.19,0.16-0.39,0.33-0.58,0.49c-0.32,0.04-0.64,0.06-0.96,0.05l-0.29-0.29
	c2.75-5.04,5.87-9.92,8.16-15.16c2.76-6.32,4.65-13.02,7.23-19.43c3.63-9.02,6.33-18.65,12.67-26.22
	c9.47-11.29,21.87-17.99,36.3-20.99c8.8-1.83,17.68-2.52,26.62-1.89c6.65,0.47,12.58,3.34,18.32,6.54c1.86,1.04,3.54,2.37,5.37,3.46
	c9.02,5.37,16.25,12.48,21.57,21.58c9.38,16.07,15.61,33.43,21.25,51.04c-2.2,3.09,0.35,5.64,1.13,8.33
	c0.16,0.53,1.94,0.59,2.98,0.87c0.6,1.14,1.19,2.27,1.79,3.41c-0.5,1.09-1.71,2.51-1.39,3.23c1.87,4.13,4.11,8.1,6.22,12.12
	c5.76,8.65,5.79,8.71-3.05,14.04c-5.36,3.23-10.76,6.42-16.31,9.31c-7.47,3.89-15.89,4.87-23.92,6.96
	C326.87,143.43,321.54,143.69,316.33,144.42z M203.69,91.95c0.38,0.29,0.73,0.57,1.09,0.81c0.01,0.01,0.3-0.29,0.28-0.34
	c-0.19-0.36-0.43-0.68-0.65-1.02C204.2,91.56,204,91.72,203.69,91.95z"/>
<path class="st20" d="M383.25,372.22c4.96-1.06,9.91-2.12,14.87-3.19c7.75-0.62,15.54-0.94,23.25-1.95
	c6.63-0.86,13.15-1.38,19.73,0.06c3.17,0.69,5.83,1.99,8.12,4.44c9,9.65,10.77,20.9,7.73,33.29c-2.29,9.32-8.45,15.53-17.06,18.74
	c-9.45,3.52-19.31,5.98-29.02,8.79c-1.88,0.55-3.91,0.6-5.87,0.88c-10.97,2.32-22,4.4-32.9,7.03c-11.02,2.65-21.92,5.83-32.87,8.78
	c-19.54,3.59-39.08,7.2-58.63,10.73c-4.06,0.73-8.17,1.16-12.25,1.73c-2.9,0.41-4.72-0.85-5.58-3.6c-0.84-2.68-1.69-5.36-2.54-8.04
	c-1.18-5.61-2.28-11.25-3.55-16.84c-1.42-6.25-2.98-12.46-4.48-18.69c0.02-0.66,0.13-1.33,0.06-1.98c-0.4-3.36,0.65-5.15,4.41-5.56
	c3.2-0.34,6.31-1.62,9.42-2.6c8.42-2.65,16.84-5.33,25.23-8.09c1.77-0.58,3.41-1.59,5.11-2.4c1.31,0.07,2.69,0.45,3.91,0.15
	c5.1-1.26,10.15-2.72,15.21-4.11c5.49-1.51,10.99-3.01,16.48-4.52c2.79-0.97,5.58-1.94,8.37-2.91c2.11-0.31,4.26-0.44,6.32-0.95
	c9.11-2.25,18.2-4.59,27.28-6.92c2.51-0.64,4.99-1.38,7.48-2.08C382.07,372.36,382.66,372.29,383.25,372.22z"/>
<path class="st21" d="M296.43,393.77c-1.7,0.81-3.34,1.81-5.11,2.4c-8.39,2.77-16.8,5.44-25.23,8.09c-3.11,0.98-6.22,2.25-9.42,2.6
	c-3.76,0.4-4.82,2.19-4.41,5.56c0.08,0.65-0.03,1.32-0.06,1.98c-12.11,3.16-24.2,6.37-36.33,9.46c-7.82,1.99-15.69,3.8-23.54,5.69
	c-11.71-3.4-22.83-8.1-32.79-15.23c-10.37-7.44-14.27-17.31-11.51-29.97c2.39-10.98,7.85-16.11,18.57-18.33
	c10.23-2.12,19.72,0.51,29.39,2.76c5.97,1.39,11.97,2.62,17.96,3.92c1.75,0.26,3.49,0.51,5.24,0.77c1.03,0.23,2.06,0.47,3.09,0.7
	c0.28,0.07,0.55,0.13,0.84,0.16c0.38,0.26,0.77,0.52,1.15,0.78c1.46,0.24,2.94,0.39,4.38,0.73c9.15,2.17,18.29,4.37,27.43,6.57
	c2.54,0.64,5.08,1.28,7.62,1.91C274.61,387.47,285.52,390.62,296.43,393.77z"/>
<path class="st22" d="M192.33,429.54c7.85-1.89,15.72-3.7,23.54-5.69c12.13-3.09,24.22-6.3,36.33-9.46
	c1.5,6.23,3.07,12.44,4.48,18.69c1.27,5.59,2.37,11.22,3.55,16.84c-18.61,2.68-37.23,5.38-55.85,8.03
	c-5.72,0.81-11.45,1.47-17.18,2.21c-1.8-0.17-3.69-0.79-5.39-0.44c-5.07,1.04-9.86,0.65-14.44-1.76c-4.45-2.34-6.13-6.79-3.92-11.26
	c1.23-2.48,2.78-4.99,4.78-6.84c2.76-2.55,6.08-4.49,9.16-6.68C182.37,431.97,187.35,430.75,192.33,429.54z"/>
<path class="st22" d="M339.23,449.1c10.95-2.95,21.85-6.13,32.87-8.78c10.9-2.62,21.93-4.71,32.9-7.03
	c1.22,0.63,2.41,1.35,3.68,1.87c1.14,0.47,2.36,0.73,3.55,1.09c2.22,1.37,4.47,2.68,6.65,4.11c4.14,2.72,8.63,5.08,12.24,8.39
	c4.18,3.84,3.22,9.77-1.7,12.48c-5.86,3.22-12.03,5.13-18.94,3.14c-2.97-0.86-6.22-0.76-9.34-1.09c-9.94-2.89-19.78-6.21-29.85-8.54
	c-8.95-2.07-18.16-3.04-27.25-4.54C342.42,449.93,340.83,449.47,339.23,449.1z"/>
<path class="st23" d="M177.4,433.18c-3.08,2.2-6.4,4.14-9.16,6.68c-2,1.85-3.55,4.36-4.78,6.84c-2.22,4.47-0.53,8.92,3.92,11.26
	c4.59,2.41,9.38,2.8,14.44,1.76c1.69-0.35,3.58,0.27,5.39,0.44c-2.83,2.29-5.67,4.57-8.5,6.86c-4.82,3.9-10.51,5.52-16.33,4.01
	c-4.81-1.25-9.69-3.41-13.69-6.33c-4.27-3.11-5.39-8.53-4.12-13.52c1.08-4.23,3.3-8.28,5.61-12.05c1.09-1.77,3.41-3.43,5.45-3.85
	c6.52-1.35,13.16-2.13,19.77-3.02C176.01,432.18,176.73,432.85,177.4,433.18z"/>
<path class="st23" d="M401.14,463.28c3.12,0.33,6.37,0.23,9.34,1.09c6.91,1.99,13.08,0.08,18.94-3.14c4.92-2.71,5.88-8.64,1.7-12.48
	c-3.61-3.31-8.1-5.67-12.24-8.39c-2.18-1.43-4.43-2.74-6.65-4.11c7.42,1.79,15.05,2.4,22.31,5.35c3.49,1.42,7.15,2.32,9.98,4.88
	c2.15,1.94,4.41,4.02,5.76,6.51c4.34,8.05-0.98,18.36-10.11,19.17c-13.56,1.21-26.45-1.63-38.47-8.12
	C401.44,463.91,401.32,463.54,401.14,463.28z"/>
<path class="st24" d="M375.2,111.81c-2.11-4.02-4.35-7.99-6.22-12.12c-0.33-0.72,0.89-2.14,1.39-3.23
	c4.47,6.69,8.95,13.38,13.81,20.66c-3.1-0.04-3.45-2.42-4.7-3.61C378.27,112.35,377.57,110.02,375.2,111.81z"/>
<path class="st25" d="M201.2,93.05c-0.53,1.69,3.01,3.65-0.35,5.15c-2.34-0.95-2.34,0.39-2.02,2.06c-1.46,1.87-1.3,5.03-4.45,5.55
	c-1.53-0.29-3.06-0.58-4.53-0.86C193.56,101.05,197.38,97.05,201.2,93.05z"/>
<path class="st24" d="M368.58,93.05c-1.03-0.28-2.82-0.34-2.98-0.87c-0.78-2.69-3.34-5.23-1.13-8.33
	C365.84,86.92,367.21,89.99,368.58,93.05z"/>
<path class="st25" d="M207.26,87.21c0.55,3.61-2.04,2.89-4.07,2.96c1-1.37,2-2.74,2.99-4.11C206.54,86.43,206.9,86.82,207.26,87.21z
	"/>
<path class="st19" d="M207.26,87.21c-0.36-0.39-0.72-0.77-1.07-1.16c0.27-0.38,0.54-0.76,0.8-1.14l0.29,0.29
	c0,0.66,0.01,1.32,0.01,1.97L207.26,87.21z"/>
<path class="st26" d="M270.69,147.09c0.32-6.77-0.26-13.46-2.24-19.95c-1.05-3.44-2.16-6.93-3.78-10.12
	c-3.34-6.58-8.31-11.47-15.67-13.56c-6.33-1.8-8.5-6.97-9.68-12.67c-0.64-3.06-0.74-6.23-1.06-9.35c-0.28-2.69,0.89-4.51,3.48-5.24
	c2.42-0.68,4.2,0.45,5.51,2.43c0.68,1.03,1.25,2.13,2.81,3.07c0-2.67,0-5.34,0-8.16c5.36-0.5,10.11-1.03,14.87-1.33
	c2.23-0.14,4.31-0.23,6.51,1.45c2.81,2.14,12.47-0.51,14.45-3.87c1.21-2.05,2.75-2.49,4.64-3.07c5.38-1.66,10.74-3.39,16.08-5.18
	c7.86-2.64,14.63-7.06,20.63-12.73c1.68-1.59,3.49-3.03,5.59-4.84c2.93,6.22,4.79,12.5,5.31,19c0.72,8.93,1.42,17.94,1.03,26.87
	c-0.47,10.75-5.57,19.74-13.88,26.52c-4.22,3.44-9.16,6-13.77,8.95c-0.41,0.32-0.81,0.64-1.22,0.95c0,0,0.04-0.03,0.04-0.03
	c-8.13,0.55-16.25,1.09-25.24,1.69c1.9,1.24,3.16,2.23,4.56,2.95c4.4,2.26,8.8,4.55,13.31,6.58c2.58,1.16,5.39,1.83,8.09,2.73
	c0.17,0.89,0.34,1.79,0.51,2.68c-4.43,3.46-9.61,5.03-15.08,5.27c-6.14,0.27-12.31,0.15-18.46,0
	C275.57,148.07,273.13,147.46,270.69,147.09z M317.23,92.24c-6.03,5.61-12.93,4.77-19.45,6.34
	C307.23,103.36,313.88,101.9,317.23,92.24z M334.97,63.99c-3.96-3.83-7.56-5.33-11.98-4.84c-3.44,0.38-3.73,0.71-3.05,4.84
	C324.59,63.99,329.27,63.99,334.97,63.99z M282.84,104.98c3.86,6.1,9.32,8.62,12.83,6.72C291.76,109.66,287.75,107.56,282.84,104.98
	z M329.49,81.1c-1.53-1.65-0.73-2.69-1.82-3.86c-0.8,0.85-2.02,1.59-2.32,2.59c-0.52,1.75,1.55,4.64,2.92,4.27
	C329.24,83.85,328.06,82.49,329.49,81.1z M283.15,83.11c-2.49,2.98-2.49,2.98-0.91,7.56c1.08-0.68,2.6-1.1,2.84-1.91
	C285.68,86.79,286,84.53,283.15,83.11z"/>
<path class="st27" d="M366.25,271.04c-1.98,0-3.96-0.01-5.95-0.01c-0.35-9.1-0.61-18.2-1.07-27.3c-0.21-4.04-0.8-8.07-1.25-12.34
	c4.36,0.06,4.1,2.67,4.28,4.86c0.38,4.77,0.51,9.56,1.05,14.31c0.54,4.73,1.5,9.41,2.22,14.12
	C365.85,266.79,366.01,268.92,366.25,271.04z"/>
<path class="st28" d="M233.23,271.94c-1.64,0.04-3.29,0.08-4.93,0.11c0.59-12.82,1.17-25.64,1.77-38.7
	c3.71,0.59,3.18,2.83,3.19,4.68C233.27,249.34,233.24,260.64,233.23,271.94z"/>
<path class="st29" d="M311.06,140.18c-2.7-0.89-5.51-1.56-8.09-2.73c-4.51-2.03-8.91-4.32-13.31-6.58c-1.4-0.72-2.66-1.71-4.56-2.95
	c8.99-0.6,17.11-1.15,25.24-1.69C310.58,130.88,310.82,135.53,311.06,140.18z"/>
<path class="st25" d="M203.69,91.95c0.31-0.24,0.51-0.39,0.71-0.54c0.22,0.34,0.46,0.66,0.65,1.02c0.03,0.05-0.26,0.35-0.28,0.34
	C204.42,92.52,204.07,92.25,203.69,91.95z"/>
<path class="st30" d="M198.83,100.26c-0.32-1.66-0.32-3.01,2.02-2.06C200.18,98.89,199.5,99.57,198.83,100.26z"/>
<path class="st25" d="M207.29,87.18c0-0.66-0.01-1.32-0.01-1.97c0.32,0.01,0.64,0,0.96-0.05c0,0,0.09,0.09,0.09,0.09
	C207.98,85.89,207.63,86.53,207.29,87.18z"/>
<path class="st31" d="M310.29,126.26c0.41-0.32,0.81-0.64,1.22-0.95C311.11,125.63,310.7,125.95,310.29,126.26z"/>
<path class="st25" d="M208.24,85.16c0.19-0.16,0.39-0.33,0.58-0.49c-0.16,0.19-0.33,0.39-0.49,0.58
	C208.33,85.25,208.24,85.16,208.24,85.16z"/>
<path class="st32" d="M222.28,374.17c-0.34-4.78-0.91-9.55-0.97-14.33c-0.14-11.82,0.07-23.65-0.09-35.48
	c-0.19-14.44-0.66-28.88-0.93-43.32c-0.09-5.15,0.18-5.22,5.12-5.86c12.51-1.63,25.07-2.03,37.68-2
	c36.64,0.08,73.29,0.03,109.93,0.03c1.33,0,2.66,0.01,4,0.01c2.3,0,3.19,1.21,3.27,3.45c0.27,7.45,0.88,14.89,0.93,22.34
	c0.13,22.65,0.05,45.3,0.06,67.96c0,1.83,0.13,3.65,0.2,5.48c-2.49,0.7-4.97,1.43-7.48,2.08c-9.09,2.33-18.17,4.68-27.28,6.92
	c-2.06,0.51-4.21,0.64-6.32,0.95c-19.3-0.06-38.59-0.15-57.89-0.16c-8.81-0.01-17.63,0.13-26.44,0.2
	c-9.14-2.19-18.28-4.4-27.43-6.57c-1.44-0.34-2.92-0.49-4.38-0.73c-0.38-0.26-0.77-0.52-1.15-0.78
	C222.83,374.29,222.55,374.24,222.28,374.17z M301.63,316.19c-8.39-0.02-14.54,5.08-14.29,12.4c0.32,9.33,5.65,13.79,13.91,14.47
	c6.51,0.53,12.96-6.64,13.03-13.67C314.36,321.41,309.73,315.79,301.63,316.19z"/>
<path class="st33" d="M296.43,393.77c-10.91-3.15-21.82-6.29-32.73-9.44c10.29,0.26,20.58,0.63,30.87,0.77
	c12.49,0.17,24.98,0.14,37.47,0.2c-5.49,1.51-10.99,3.02-16.48,4.52c-5.07,1.39-10.11,2.85-15.21,4.11
	C299.12,394.22,297.74,393.83,296.43,393.77z"/>
<path class="st34" d="M332.03,385.29c-12.49-0.06-24.98-0.03-37.47-0.2c-10.29-0.14-20.58-0.5-30.87-0.77
	c-2.54-0.64-5.08-1.28-7.62-1.91c8.81-0.07,17.63-0.21,26.44-0.2c19.3,0.02,38.59,0.1,57.89,0.16
	C337.61,383.35,334.82,384.32,332.03,385.29z"/>
<path class="st35" d="M223.11,374.33c0.38,0.26,0.77,0.52,1.15,0.78C223.88,374.85,223.5,374.59,223.11,374.33z"/>
<path class="st29" d="M317.23,92.24c-3.35,9.67-10,11.13-19.45,6.34C304.29,97.01,311.2,97.85,317.23,92.24z"/>
<path class="st36" d="M334.97,63.99c-5.7,0-10.38,0-15.04,0c-0.68-4.13-0.39-4.45,3.05-4.84C327.41,58.66,331.01,60.16,334.97,63.99
	z"/>
<path class="st37" d="M282.84,104.98c4.91,2.57,8.93,4.68,12.83,6.72C292.16,113.6,286.69,111.09,282.84,104.98z"/>
<path class="st38" d="M329.71,80.69c-1.43,1.39-0.47,3.16-1.43,3.42c-1.38,0.37-3.44-2.52-2.92-4.27c0.3-1,1.51-1.74,2.32-2.59
	C328.76,78.42,328.19,79.04,329.71,80.69z"/>
<path class="st39" d="M283.15,83.11c2.84,1.43,2.53,3.68,1.93,5.65c-0.24,0.81-1.77,1.23-2.84,1.91
	C280.66,86.09,280.66,86.09,283.15,83.11z"/>
<path class="st30" d="M301.63,316.19c8.11-0.4,12.73,5.22,12.65,13.2c-0.07,7.02-6.52,14.2-13.03,13.67
	c-8.26-0.67-13.59-5.13-13.91-14.47C287.09,321.27,293.23,316.17,301.63,316.19z"/>
<path class="st40" d="M222.28,374.17c-1.03-0.23-2.06-0.47-3.09-0.7c0-17.96,0.11-35.92-0.05-53.87
	c-0.11-12.93-0.64-25.87-0.87-38.8c-0.12-6.77-0.02-6.79,6.57-8.31c1.12-0.26,2.3-0.29,3.45-0.43c1.64-0.04,3.29-0.08,4.93-0.11
	c28.89-0.25,57.78-0.53,86.67-0.75c13.47-0.1,26.93-0.11,40.4-0.16c1.98,0,3.96,0.01,5.95,0.01c3.98,0.05,7.97,0.2,11.95,0.12
	c2.93-0.05,4.11,1.06,4.15,4.1c0.17,11.9,0.72,23.8,0.81,35.7c0.16,20.42,0.08,40.84,0.09,61.25c-0.59,0.07-1.18,0.14-1.76,0.21
	c-0.07-1.83-0.2-3.65-0.2-5.48c-0.02-22.65,0.07-45.3-0.06-67.96c-0.04-7.45-0.66-14.89-0.93-22.34c-0.08-2.24-0.97-3.44-3.27-3.45
	c-1.33,0-2.66-0.01-4-0.01c-36.64,0-73.29,0.06-109.93-0.03c-12.6-0.03-25.16,0.38-37.68,2c-4.95,0.64-5.22,0.71-5.12,5.86
	c0.27,14.44,0.73,28.88,0.93,43.32c0.16,11.82-0.05,23.65,0.09,35.48C221.37,364.61,221.94,369.39,222.28,374.17z"/>
<ellipse transform="matrix(0.9935 -0.114 0.114 0.9935 -8.0602 32.802)" class="st39" cx="282.84" cy="86.89" rx="2.49" ry="3.99"/>
<ellipse transform="matrix(0.9935 -0.114 0.114 0.9935 -7.0009 37.8814)" class="st39" cx="327.79" cy="80.17" rx="2.49" ry="3.99"/>
</svg>
