<?xml version="1.0" encoding="utf-8"?>
<!-- Generator: Adobe Illustrator 23.0.4, SVG Export Plug-In . SVG Version: 6.00 Build 0)  -->
<svg version="1.1" id="Layer_1" xmlns="http://www.w3.org/2000/svg" xmlns:xlink="http://www.w3.org/1999/xlink" x="0px" y="0px"
	 viewBox="0 0 490.97 472.75" style="enable-background:new 0 0 490.97 472.75;" xml:space="preserve">
<style type="text/css">
	.st0{fill:#ABF47E;}
	.st1{fill:#EEEEEA;}
	.st2{fill:#ACF47F;}
	.st3{fill:#A0E476;}
	.st4{fill:#A0E475;}
	.st5{fill:#0D2837;}
	.st6{fill:#EEECE8;}
	.st7{fill:#102B39;}
	.st8{fill:#E78765;}
	.st9{fill:#16343A;}
	.st10{fill:#E3FBD4;}
	.st11{fill:#ECD0C4;}
	.st12{fill:#C8CED1;}
	.st13{fill:#122F38;}
	.st14{fill:#FAFCFA;}
	.st15{fill:#F8F9F8;}
	.st16{fill:#ECCFC2;}
	.st17{fill:#AAF47D;}
	.st18{fill:#E78662;}
	.st19{fill:#113347;}
	.st20{fill:#67C5A5;}
	.st21{fill:#59B896;}
	.st22{fill:#F2B980;}
	.st23{fill:#133448;}
	.st24{fill:#143448;}
	.st25{fill:#2B495A;}
	.st26{fill:#324E60;}
	.st27{fill:#F1B881;}
	.st28{fill:#DA7753;stroke:#D97652;stroke-miterlimit:10;}
	.st29{fill:#D97652;stroke:#D97652;stroke-miterlimit:10;}
	.st30{fill:#ECA863;stroke:#ECA863;stroke-miterlimit:10;}
	.st31{fill:#FEFEFE;}
	.st32{fill:#ECA863;}
	.st33{fill:#E2E2DE;}
	.st34{fill:#D57A57;}
	.st35{fill:#C4C2BA;}
	.st36{fill:#C5C1B8;}
	.st37{fill:#193748;}
	.st38{fill:#343E40;}
	.st39{fill:#142B37;}
	.st40{fill:#132A37;}
</style>
<g>
	<path class="st0" d="M165.1,349.4c0.44,2.96,0.87,5.92,1.31,8.88c0.22,0.71,0.44,1.42,0.66,2.12c0.13,0.96,0.26,1.91,0.39,2.87
		c0.21,0.71,0.43,1.42,0.64,2.13c0.35,5,0.7,10,1.05,15c0.26,4.67,0.52,9.35,0.79,14.02c0,1.66,0,3.32,0.01,4.97
		c-2.63,0.66-5.26,1.32-7.9,1.99c-0.34-4.12-0.93-8.24-0.98-12.36c-0.18-12.98-1.66-25.79-5.27-38.26
		c-1.05-3.62-3.15-6.94-4.77-10.4c-3.77-7.25-6.85-14.99-11.54-21.59c-3.12-4.39-8.81-6.87-12.87-10.7
		c-5.3-5-9.86-10.79-15.25-15.68c-6.18-5.6-8.36-12.44-8.34-20.4c0.03-9.32-0.01-18.64-0.03-27.96c3.72-3.22,2.81-7.68,1.21-10.81
		c-3.2-6.24-7.27-12.12-11.65-17.62c-2.85-3.57-4.98-7.02-4.51-11.62c0.88-8.7,2.04-17.37,2.79-26.07
		c0.78-9.11,0.92-18.07-4.68-26.25c-3.53-5.16-7.23-10.69-8.83-16.6c-2.77-10.2-2.7-20.91,2.9-30.35
		c4.41-7.43,4.74-14.22,1.16-22.01c-5.05-11.01-3.09-23.25,5.18-30.07c7.53-6.22,17.03-7.98,26.26-5.45
		c6.36,1.75,10.26,7.63,11,14.39c1.56,14.21,6.68,26.81,15.04,38.36c6.64,9.17,8.92,19.95,8.93,31.07
		c0.01,7.06,1.66,12.62,6.22,18.61c7.4,9.74,12.43,21.46,13.71,33.73c1.23,11.78,0.01,23.8,0.4,35.7c0.1,3.17,1.42,6.93,3.47,9.3
		c7.99,9.27,10.56,20.52,12.19,31.98c0.95,6.7,1.02,13.76,0.02,20.44c-0.86,5.77-3.4,11.41-5.91,16.78
		c-2.59,5.55-6.36,10.55-8.99,16.09c-1.56,3.29-1.92,7.16-2.82,10.77c-0.22,1.37-0.43,2.75-0.65,4.12
		c-0.11,5.96-0.21,11.92-0.32,17.89C165.1,347.42,165.1,348.41,165.1,349.4z M149.31,320.81c0.66-0.31,1.32-0.62,1.99-0.94
		c-0.75-4.66-1.99-9.31-2.15-13.99c-0.4-11.8,0.29-23.65-0.62-35.4c-0.66-8.47-1.93-17.3-5.13-25.07
		c-7.94-19.29-13.07-38.83-12.59-59.89c0.16-6.96-1.12-14.48-3.8-20.88c-5.99-14.28-11.87-28.42-12.41-44.22
		c-0.7,3.4-2.02,6.96-1.37,10.1c2,9.66,3.78,19.56,7.48,28.62c4.11,10.07,6.34,20.13,6.28,30.87c-0.04,5.99-1.13,12.28,0.29,17.92
		c3.26,12.96,7.76,25.6,11.77,38.36c1.29,4.11,3.47,8.15,3.8,12.33c0.82,10.39,0.54,20.87,1.2,31.28
		c0.56,8.85,1.73,17.66,2.87,26.46C147.1,317.93,148.48,319.33,149.31,320.81z"/>
	<path class="st0" d="M213.24,364.5c-8.18,10.93-9.05,24.31-12.38,36.87c-1.94,0-3.87,0.01-5.81,0.01c1-8.61,2-17.22,3-25.83
		c3.06-4.04,2.57-8.44,1.08-12.8c-1.66-4.87-4.31-9.52-5.26-14.51c-1.63-8.56-4.22-17.61-2.89-25.89
		c2.17-13.53,9.4-25.42,18.58-35.85c4.84-5.5,7.47-11.81,8.71-19.18c2.56-15.22,6.99-29.62,22.78-36.96
		c5.66-2.63,7.12-7.64,5.7-13.44c-1.68-6.91-0.41-13.43,3.38-19.09c4.51-6.71,9.84-12.87,14.82-19.26
		c7.19-2.33,10.59-7.48,12.18-14.72c3.21-14.62,13.45-23.58,26.18-29.81c6.96-3.4,20.79,1.73,25.61,8.05
		c6.82,8.96,7.08,18.78,5.11,29.25c-1.7,9.05-3.95,17.75-10.32,24.83c-4.63,5.15-9.06,10.5-13.77,15.58
		c-3.17,3.42-4.02,7.37-4.16,11.87c-0.46,14.77-2.87,29.07-12.52,41c-3.53,4.36-7.06,9.17-11.65,12.11
		c-8.98,5.76-10.99,14.24-12.89,23.76c-2.41,12.1-5.2,24.4-10.06,35.65c-4.67,10.81-13.93,18.13-25.96,21.11
		c-5.99,1.48-11.86,3.41-17.79,5.13c0.1-0.82,0.03-1.69,0.31-2.44c4.47-12.24,11.19-23.22,18.77-33.75
		c3.67-5.1,7.7-10.17,10.2-15.85c4.2-9.56,7.54-19.53,10.82-29.46c3.57-10.8,8.04-20.97,14.88-30.25c3.66-4.97,5.46-11.3,8.1-17.01
		c-0.48-0.22-0.96-0.44-1.43-0.65c-1.92,3.22-3.6,6.61-5.79,9.63c-6.92,9.55-14.2,18.8-17.91,30.31
		c-3.41,10.59-7.25,21.05-11.2,31.45c-1.51,4-3.32,8.08-5.87,11.46c-7.83,10.38-15.38,20.89-19.2,33.51
		C215.12,354.27,214.34,359.44,213.24,364.5z"/>
	<path class="st1" d="M266.09,425.55c-5.62,5.25-10.97,10.82-16.91,15.68c-8.17,6.68-17.43,11.47-28.02,13.14
		c-2.98,0.47-4.2,1.82-4.2,4.96c0,6.02-2.26,8.53-8.06,9.02c-6.26,0.53-12.55,0.81-18.83,1.05c-10.27,0.38-20.55,1-30.81,0.84
		c-9.9-0.16-19.79-1.14-29.68-1.82c-4.2-0.29-6.32-2.79-7.66-6.69c-0.6-1.76-2.45-3.82-4.17-4.37
		c-16.41-5.29-29.34-15.76-41.58-27.32c-0.47-0.44-0.77-1.07-1.15-1.61c0.35-0.68,0.69-1.35,1.04-2.03
		c33.32-0.33,66.64-0.67,99.97-1c0.67-0.04,1.35-0.07,2.02-0.11c27.33-0.19,54.66-0.37,81.99-0.56
		C262.05,424.99,264.07,425.27,266.09,425.55z"/>
	<path class="st2" d="M74.07,319.51c-7.88-4.6-10.76-12.23-11.97-20.59c-0.78-5.38-0.36-10.94-1.19-16.31
		c-0.85-5.53-4.35-9.73-9.42-12.01c-8.02-3.61-15.5-7.91-20.13-15.59c-2.92-4.84-5.76-10.03-7.11-15.44
		c-2.05-8.24-5.59-15.19-11.03-21.76C4.1,206.78-1.34,194.1,2.25,179.37c1.26-5.2,3.49-10.46,9.78-11.95
		c0.57,3.03,0.19,6.8,1.88,8.94c4.51,5.71,9.73,10.86,17.08,13.2c12.79,4.08,21.08,12.56,24.49,25.68
		c1.41,5.44,3.03,10.84,4.55,16.25c3.54,12.62,10.23,23.48,19.98,32.01c5.35,4.68,9.25,9.61,11.38,16.37
		c2.68,8.5,4.88,17.45,9.27,25.05c6.77,11.72,15.29,22.43,22.96,33.63c3.22,4.71,6.19,9.6,9.27,14.4c-2.23-1.44-4.58-2.72-6.65-4.36
		c-4.66-3.68-10.28-6.77-13.5-11.48c-5.19-7.59-8.81-16.25-12.99-24.52c-2.75-5.44-5.31-10.98-7.95-16.47
		c-0.47,0.21-0.93,0.42-1.4,0.63c5.19,12.51,10.38,25.01,15.84,38.18c-4.74-2.31-9.14-4.48-13.56-6.6
		C86.49,325.38,80.28,322.45,74.07,319.51z"/>
	<path class="st3" d="M201.88,229.92c-2.27-8.87-4.7-17.7-6.77-26.62c-3.65-15.73,1.1-29.6,9.43-42.82
		c4.47-7.1,9.13-14.38,11.81-22.22c2.29-6.68,2.28-14.27,2.58-21.49c0.56-13.26,14.17-24.17,26.66-20.05
		c8.35,2.76,13.98,9.59,17.15,17.69c3.19,8.18,2.45,16.77,1.47,25.48c-1.01,8.98-0.43,18.14-0.53,27.21
		c-0.02,1.82,0.07,3.64,0.11,5.46c-1.21,1.32-2.26,2.86-3.67,3.93c-9.82,7.49-16.4,17.4-22.2,28.13
		c-2.76,5.12-7.17,9.34-10.84,13.97c-0.21-9.88,1.33-19.4,5.03-28.64c1.46-3.64,2.22-7.62,2.85-11.51
		c2.39-14.64,4.65-29.31,6.83-43.99c0.36-2.44,0.05-4.98,0.05-7.47c-0.47-0.03-0.94-0.06-1.4-0.09c-1.48,5.84-3.24,11.62-4.37,17.53
		c-2.82,14.73-4.56,29.72-8.26,44.21c-2.77,10.85-5.31,21.5-4.79,32.73C215.98,224.22,208.93,227.07,201.88,229.92z"/>
	<path class="st4" d="M132.9,352.97c-3.08-4.81-6.05-9.69-9.27-14.4c-7.67-11.21-16.19-21.91-22.96-33.63
		c-4.4-7.6-6.59-16.55-9.27-25.05c-2.13-6.76-6.04-11.69-11.38-16.37c-9.75-8.53-16.44-19.39-19.98-32.01
		c-1.52-5.42-3.14-10.81-4.55-16.25c-3.41-13.13-11.7-21.6-24.49-25.68c-7.34-2.34-12.57-7.5-17.08-13.2
		c-1.69-2.14-1.31-5.91-1.88-8.94c5.92-3.29,12.46-4.45,18.41-1.46c7.14,3.58,13.59,8.56,20.35,12.91c3.03,1.95,5.91,4.27,9.18,5.68
		c9.59,4.15,17.39,9.61,20.87,20.31c3.15,9.69,7.48,19,11.17,28.52c2.05,5.29,5.8,8.67,10.99,10.65c0.01,9.32,0.05,18.64,0.03,27.96
		c-0.02,7.96,2.16,14.8,8.34,20.4c5.39,4.88,9.95,10.68,15.25,15.68c4.07,3.83,9.75,6.31,12.87,10.7
		c4.69,6.59,7.77,14.34,11.54,21.59c-2.82,4.87-5.64,9.74-8.46,14.61C139.34,354.31,136.12,353.64,132.9,352.97z"/>
	<path class="st5" d="M201.88,229.92c7.05-2.85,14.1-5.71,21.15-8.56c1.35-0.92,2.71-1.85,4.06-2.77
		c3.66-4.63,8.07-8.86,10.84-13.97c5.8-10.74,12.39-20.64,22.2-28.13c1.4-1.07,2.45-2.61,3.67-3.93c0.38,2,0.77,4,1.15,6.01
		c-4.98,6.4-10.31,12.55-14.82,19.26c-3.8,5.66-5.07,12.18-3.38,19.09c1.41,5.8-0.04,10.81-5.7,13.44
		c-15.79,7.34-20.22,21.73-22.78,36.96c-1.24,7.38-3.86,13.68-8.71,19.18c-9.17,10.43-16.4,22.31-18.58,35.85
		c-1.33,8.28,1.26,17.34,2.89,25.89c0.95,4.99,3.59,9.63,5.26,14.51c1.49,4.36,1.98,8.77-1.08,12.81
		c-7.8,7.21-15.34,14.59-17.05,25.81c-2.61,0-5.22,0.01-7.83,0.01c1.31-6.29,2.61-12.57,3.92-18.86c0.49-1.07,0.99-2.14,1.48-3.21
		c0-7.59,0-15.19,0-22.78c-0.47-1.11-0.94-2.21-1.41-3.32c-0.88-4.25-1.49-8.58-2.69-12.74c-2.59-8.96-2.55-18.1,0.15-26.72
		c1.69-5.4,5.6-10.38,9.45-14.73c3.44-3.89,5.36-7.59,5.03-12.85c-1.18-18.54,3.15-36.11,10.04-53.16c0.36-0.9,0.93-1.72,1.4-2.57
		c0.22-0.08,0.44-0.15,0.66-0.23C201.46,230.21,201.69,230.12,201.88,229.92z"/>
	<path class="st6" d="M173.17,401.37c2.61,0,5.22-0.01,7.83-0.01c4.68,0.01,9.37,0.01,14.05,0.02c1.94,0,3.87,0,5.81-0.01
		c25.1,0,50.2,0,75.3,0c0.44,0.64,0.88,1.28,1.32,1.91c-0.82,2.04-1.64,4.09-2.46,6.13c-4.94-0.28-9.89-0.8-14.83-0.8
		c-8.32,0-16.64,0.53-24.96,0.5c-36.8-0.15-73.6-0.48-110.41-0.6c-8.98-0.03-17.95,0.49-26.93,0.67c-5.8,0.12-11.61-0.12-17.39,0.2
		c-4.59,0.25-9.15,1.1-13.72,1.68c-0.01,0.64-0.02,1.27-0.03,1.91c3.45,0.38,6.91,1.15,10.34,1.06c15.63-0.37,31.25-1.26,46.87-1.41
		c13.64-0.13,27.28,0.65,40.92,0.69c29.66,0.09,59.31,0.04,88.97-0.13c6.96-0.04,13.92-0.78,20.88-1.2
		c-1.97,3.16-3.94,6.31-5.9,9.47c-2.26-0.35-4.53-1.01-6.79-0.99c-28.26,0.25-56.52,0.63-84.77,0.92
		c-13.32,0.14-26.64,0.08-39.95,0.25c-10.31,0.13-20.62,0.67-30.93,0.65c-9.11-0.02-18.22-0.78-27.33-0.72
		c-2.35,0.01-4.69,1.86-7.03,2.86c-4.94-5.12-8.97-10.76-9.97-18.04c-0.53-3.84,1.73-5.01,5.05-4.95
		c18.54,0.3,37.09,0.76,55.63,0.86c7.59,0.04,15.18-0.66,22.77-1.02c2.16,0.04,4.31,0.08,6.47,0.12c3.36,0,6.72,0,10.07,0
		c2.63-0.66,5.26-1.32,7.9-1.99C171.02,400.06,172.09,400.71,173.17,401.37z"/>
	<path class="st7" d="M151.97,401.39c-2.16-0.04-4.31-0.08-6.47-0.12c-3.07-7.24-5.67-14.73-9.35-21.64
		c-2.78-5.21-8.99-4.36-13.9-5.17c-10.07-1.67-19.3-5.04-25.68-13.25c-3.49-4.49-6.76-9.72-8.16-15.12
		c-1.9-7.36-5.32-13.41-10.08-19.08c-1.82-2.17-2.87-4.98-4.26-7.5c6.21,2.95,12.42,5.88,18.62,8.85c4.42,2.12,8.82,4.29,13.56,6.6
		c-5.46-13.17-10.65-25.67-15.84-38.18c0.47-0.21,0.93-0.42,1.4-0.63c2.64,5.49,5.2,11.03,7.95,16.47
		c4.18,8.26,7.8,16.93,12.99,24.52c3.22,4.71,8.84,7.81,13.5,11.48c2.07,1.64,4.43,2.92,6.65,4.36c3.22,0.67,6.44,1.34,9.65,2.01
		c0.13,0.47,0.51,1.03,0.37,1.4c-3.59,9.14-1.96,17.27,2.98,25.77C149.2,387.82,150.03,394.93,151.97,401.39z"/>
	<path class="st8" d="M274.74,411.98c-6.96,0.42-13.92,1.17-20.88,1.2c-29.66,0.17-59.31,0.22-88.97,0.13
		c-13.64-0.04-27.29-0.83-40.92-0.69c-15.63,0.15-31.25,1.04-46.87,1.41c-3.44,0.08-6.89-0.69-10.34-1.06
		c0.01-0.64,0.02-1.27,0.03-1.91c4.57-0.58,9.13-1.43,13.72-1.68c5.78-0.31,11.6-0.08,17.39-0.2c8.98-0.18,17.95-0.7,26.93-0.67
		c36.8,0.13,73.6,0.46,110.41,0.6c8.32,0.03,16.64-0.49,24.96-0.5c4.94,0,9.89,0.52,14.83,0.8
		C274.93,410.27,274.83,411.13,274.74,411.98z"/>
	<path class="st8" d="M72.02,424.42c2.34-1,4.68-2.84,7.03-2.86c9.11-0.05,18.22,0.71,27.33,0.72c10.31,0.02,20.62-0.52,30.93-0.65
		c13.32-0.17,26.64-0.12,39.95-0.25c28.26-0.29,56.52-0.67,84.77-0.92c2.26-0.02,4.53,0.65,6.79,0.99
		c-0.31,0.94-0.61,1.87-0.92,2.81c-2.63,0.15-5.26,0.31-7.89,0.46c-27.33,0.19-54.66,0.37-81.99,0.56
		c-0.67,0.04-1.35,0.07-2.02,0.11c-33.32,0.33-66.64,0.67-99.97,1c-0.99-0.37-1.98-0.75-2.97-1.12
		C72.73,424.99,72.38,424.7,72.02,424.42z"/>
	<path class="st9" d="M213.24,364.5c1.1-5.07,1.87-10.23,3.37-15.18c3.82-12.61,11.36-23.12,19.2-33.51
		c2.55-3.38,4.35-7.46,5.87-11.46c3.94-10.41,7.78-20.87,11.2-31.45c3.71-11.51,10.98-20.76,17.91-30.31
		c2.19-3.02,3.88-6.41,5.79-9.63c0.48,0.22,0.96,0.44,1.43,0.65c-2.64,5.71-4.45,12.04-8.1,17.01
		c-6.83,9.28-11.31,19.45-14.88,30.25c-3.28,9.93-6.62,19.9-10.82,29.46c-2.5,5.68-6.53,10.75-10.2,15.85
		c-7.57,10.53-14.29,21.51-18.77,33.75c-0.27,0.75-0.21,1.62-0.31,2.44c0,0,0.06-0.02,0.06-0.02c-0.27,0.45-0.53,0.9-0.8,1.35
		C213.87,363.97,213.56,364.23,213.24,364.5z"/>
	<path class="st6" d="M169.93,394.43c-0.26-4.67-0.52-9.35-0.79-14.02C172.74,384.89,171.11,389.67,169.93,394.43z"/>
	<path class="st10" d="M165.43,328.54c0.22-1.37,0.43-2.75,0.65-4.12C165.86,325.79,165.65,327.16,165.43,328.54z"/>
	<path class="st11" d="M260.03,424.72c2.63-0.15,5.26-0.3,7.89-0.46c-0.61,0.43-1.22,0.86-1.83,1.29
		C264.07,425.27,262.05,424.99,260.03,424.72z"/>
	<path class="st10" d="M165.1,349.4c0-0.99,0.01-1.98,0.01-2.98C165.1,347.42,165.1,348.41,165.1,349.4z"/>
	<path class="st12" d="M177.16,353.2c0.47,1.11,0.94,2.21,1.41,3.32C178.09,355.41,177.62,354.31,177.16,353.2z"/>
	<path class="st6" d="M73.08,425.27c0.99,0.37,1.98,0.75,2.97,1.12c-0.34,0.68-0.69,1.35-1.04,2.03
		C74.37,427.37,73.73,426.32,73.08,425.27z"/>
	<path class="st12" d="M178.57,379.3c-0.49,1.07-0.99,2.14-1.48,3.21C177.58,381.44,178.07,380.37,178.57,379.3z"/>
	<path class="st10" d="M167.06,360.4c-0.22-0.71-0.44-1.41-0.66-2.12C166.62,358.99,166.84,359.7,167.06,360.4z"/>
	<path class="st10" d="M168.1,365.4c-0.22-0.71-0.43-1.42-0.64-2.13C167.67,363.98,167.88,364.69,168.1,365.4z"/>
	<path class="st3" d="M201.19,230.2c-0.22,0.08-0.44,0.16-0.66,0.23C200.75,230.36,200.97,230.28,201.19,230.2z"/>
	<path class="st0" d="M214.19,363.7c0.27-0.45,0.53-0.9,0.8-1.35C214.72,362.8,214.45,363.25,214.19,363.7z"/>
	<path class="st13" d="M149.31,320.81c-0.83-1.47-2.21-2.88-2.41-4.43c-1.14-8.8-2.31-17.61-2.87-26.46
		c-0.66-10.41-0.39-20.89-1.2-31.28c-0.33-4.18-2.5-8.21-3.8-12.33c-4.01-12.77-8.51-25.41-11.77-38.36
		c-1.42-5.64-0.32-11.93-0.29-17.92c0.07-10.74-2.16-20.8-6.28-30.87c-3.7-9.06-5.48-18.96-7.48-28.62
		c-0.65-3.15,0.67-6.7,1.37-10.1c0.55,15.8,6.43,29.94,12.41,44.22c2.68,6.4,3.96,13.92,3.8,20.88
		c-0.48,21.06,4.66,40.6,12.59,59.89c3.2,7.77,4.47,16.61,5.13,25.07c0.91,11.74,0.22,23.6,0.62,35.4c0.16,4.68,1.4,9.33,2.15,13.99
		C150.64,320.18,149.97,320.5,149.31,320.81z"/>
	<path class="st14" d="M151.97,401.39c-1.94-6.47-2.77-13.57-6.07-19.25c-4.94-8.5-6.57-16.63-2.98-25.77
		c0.14-0.36-0.24-0.93-0.37-1.4c2.82-4.87,5.64-9.74,8.46-14.61c1.62,3.46,3.73,6.77,4.77,10.4c3.61,12.47,5.09,25.28,5.27,38.26
		c0.06,4.12,0.64,8.24,0.98,12.36C158.69,401.39,155.33,401.39,151.97,401.39z"/>
	<path class="st15" d="M195.05,401.38c-4.68-0.01-9.37-0.01-14.05-0.02c1.71-11.23,9.25-18.61,17.05-25.81
		C197.05,384.16,196.05,392.77,195.05,401.38z"/>
	<path class="st16" d="M176.02,425.39c0.67-0.04,1.35-0.07,2.02-0.11C177.37,425.32,176.69,425.35,176.02,425.39z"/>
	<path class="st17" d="M227.09,218.59c-1.35,0.92-2.71,1.85-4.06,2.77c-0.52-11.23,2.02-21.87,4.79-32.73
		c3.7-14.49,5.44-29.48,8.26-44.21c1.13-5.91,2.9-11.69,4.37-17.53c0.47,0.03,0.94,0.06,1.4,0.09c0,2.49,0.31,5.03-0.05,7.47
		c-2.17,14.68-4.43,29.35-6.83,43.99c-0.64,3.9-1.4,7.87-2.85,11.51C228.43,199.19,226.89,208.71,227.09,218.59z"/>
</g>
<path class="st18" d="M348.99,144.42c0.64,9.99,5.54,17.34,14.52,21.45c11.01,5.05,22.19,9.75,33.47,14.15
	c11.19,4.36,18.37,12.08,21.96,23.45c3.55,11.23,6.19,22.6,7.1,34.4c0.53,6.91,2.01,13.74,3.04,20.61
	c1.28,8.5,2.79,16.98,3.75,25.51c1.26,11.18,2.06,22.4,3.1,33.6c0.29,3.11,0.96,6.2,1.03,9.31c0.32,13.37-1.72,26.43-5.61,39.21
	c-0.29,0.95-0.39,1.95-0.58,2.93c-4.96,1.06-9.91,2.12-14.87,3.19c-0.02-20.42,0.06-40.84-0.09-61.25
	c-0.09-11.9-0.64-23.8-0.81-35.7c-0.04-3.04-1.22-4.16-4.15-4.1c-3.98,0.07-7.96-0.07-11.95-0.12c-0.23-2.12-0.4-4.25-0.72-6.36
	c-0.71-4.71-1.67-9.39-2.22-14.12c-0.55-4.75-0.67-9.54-1.05-14.31c-0.17-2.19,0.08-4.8-4.28-4.86c0.45,4.28,1.04,8.3,1.25,12.34
	c0.46,9.09,0.73,18.2,1.07,27.3c-13.47,0.05-26.93,0.06-40.4,0.16c-28.89,0.22-57.78,0.5-86.67,0.75c0.01-11.3,0.04-22.6,0.03-33.91
	c0-1.85,0.52-4.09-3.19-4.68c-0.6,13.06-1.18,25.88-1.77,38.7c-1.15,0.14-2.33,0.17-3.45,0.43c-6.6,1.52-6.69,1.54-6.57,8.31
	c0.23,12.93,0.76,25.86,0.87,38.8c0.16,17.96,0.05,35.92,0.05,53.87c-1.75-0.26-3.49-0.51-5.24-0.77
	c-3.15-5.09-6.57-10.03-9.35-15.32c-1.9-3.62-3.81-7.65-4.11-11.62c-0.84-11.41-1.27-22.88-1.1-34.32
	c0.18-11.59,1.21-23.17,1.98-34.75c0.91-13.57,1.55-27.17,3.05-40.68c1.2-10.81,1.96-21.77,5.83-32.15
	c2.79-7.48,7.35-13.3,14.63-16.84c8.37-4.06,16.87-7.88,25.04-12.31c9.67-5.25,17.34-12.29,18.42-24.27
	c0.11-1.2,1.48-2.29,2.26-3.43l0.09,0.08c2.44,0.37,4.88,0.98,7.33,1.05c6.15,0.16,12.32,0.28,18.46,0
	c5.48-0.24,10.65-1.81,15.08-5.27C345.81,143.38,347.4,143.9,348.99,144.42z"/>
<path class="st19" d="M348.99,144.42c-1.59-0.52-3.18-1.04-4.77-1.56c-0.17-0.89-0.34-1.79-0.51-2.68
	c-0.24-4.65-0.48-9.3-0.72-13.95c0,0-0.04,0.03-0.04,0.03c0.41-0.32,0.81-0.64,1.22-0.95c4.61-2.96,9.55-5.51,13.77-8.95
	c8.31-6.78,13.41-15.77,13.88-26.52c0.39-8.93-0.31-17.94-1.03-26.87c-0.52-6.5-2.38-12.78-5.31-19c-2.1,1.81-3.91,3.26-5.59,4.84
	c-6,5.67-12.77,10.09-20.63,12.73c-5.34,1.79-10.7,3.53-16.08,5.18c-1.89,0.58-3.43,1.02-4.64,3.07
	c-1.98,3.36-11.64,6.02-14.45,3.87c-2.2-1.68-4.28-1.59-6.51-1.45c-4.76,0.3-9.51,0.84-14.87,1.33c0,2.82,0,5.49,0,8.16
	c-1.56-0.94-2.13-2.04-2.81-3.07c-1.3-1.97-3.08-3.1-5.51-2.43c-2.59,0.72-3.76,2.55-3.48,5.24c0.32,3.12,0.42,6.3,1.06,9.35
	c1.19,5.7,3.36,10.87,9.68,12.67c7.36,2.09,12.33,6.97,15.67,13.56c1.62,3.19,2.73,6.68,3.78,10.12c1.98,6.49,2.56,13.18,2.24,19.95
	l-0.09-0.08c-10.14-1.63-20.31-3.04-30.39-4.95c-7.8-1.48-15.39-3.87-22-8.54c-4.4-3.11-8.95-6.08-12.95-9.66
	c-4.66-4.17-8.8-8.93-13.28-13.56c0.85-1.61,1.62-3.05,2.39-4.49c3.15-0.51,2.99-3.68,4.45-5.55c0.67-0.69,1.35-1.37,2.02-2.06
	c3.36-1.5-0.19-3.46,0.35-5.15c0.67-0.96,1.33-1.93,2-2.89c2.02-0.06,4.62,0.66,4.07-2.96l0.03-0.03c0.35-0.64,0.69-1.29,1.04-1.93
	c0.16-0.19,0.33-0.39,0.49-0.58c-0.19,0.16-0.39,0.33-0.58,0.49c-0.32,0.04-0.64,0.06-0.96,0.05l-0.29-0.29
	c2.75-5.04,5.87-9.92,8.16-15.16c2.76-6.32,4.65-13.02,7.23-19.43c3.63-9.02,6.33-18.65,12.67-26.22
	c9.47-11.29,21.87-17.99,36.3-20.99c8.8-1.83,17.68-2.52,26.62-1.89c6.65,0.47,12.58,3.34,18.32,6.54c1.86,1.04,3.54,2.37,5.37,3.46
	c9.02,5.37,16.25,12.48,21.57,21.58c9.38,16.07,15.61,33.43,21.25,51.04c-2.2,3.09,0.35,5.64,1.13,8.33
	c0.16,0.53,1.94,0.59,2.98,0.87c0.6,1.14,1.19,2.27,1.79,3.41c-0.5,1.09-1.71,2.51-1.39,3.23c1.87,4.13,4.11,8.1,6.22,12.12
	c5.76,8.65,5.79,8.71-3.05,14.04c-5.36,3.23-10.76,6.42-16.31,9.31c-7.47,3.89-15.89,4.87-23.92,6.96
	C359.53,143.43,354.2,143.69,348.99,144.42z M236.35,91.95c0.38,0.29,0.73,0.57,1.09,0.81c0.01,0.01,0.3-0.29,0.28-0.34
	c-0.19-0.36-0.43-0.68-0.65-1.02C236.86,91.56,236.66,91.72,236.35,91.95z"/>
<path class="st20" d="M415.91,372.22c4.96-1.06,9.91-2.12,14.87-3.19c7.75-0.62,15.54-0.94,23.25-1.95
	c6.63-0.86,13.15-1.38,19.73,0.06c3.17,0.69,5.83,1.99,8.12,4.44c9,9.65,10.77,20.9,7.73,33.29c-2.29,9.32-8.45,15.53-17.06,18.74
	c-9.45,3.52-19.31,5.98-29.02,8.79c-1.88,0.55-3.91,0.6-5.87,0.88c-10.97,2.32-22,4.4-32.9,7.03c-11.02,2.65-21.92,5.83-32.87,8.78
	c-19.54,3.59-39.08,7.2-58.63,10.73c-4.06,0.73-8.17,1.16-12.25,1.73c-2.9,0.41-4.72-0.85-5.58-3.6c-0.84-2.68-1.69-5.36-2.54-8.04
	c-1.18-5.61-2.28-11.25-3.55-16.84c-1.42-6.25-2.98-12.46-4.48-18.69c0.02-0.66,0.13-1.33,0.06-1.98c-0.4-3.36,0.65-5.15,4.41-5.56
	c3.2-0.34,6.31-1.62,9.42-2.6c8.42-2.65,16.84-5.33,25.23-8.09c1.77-0.58,3.41-1.59,5.11-2.4c1.31,0.07,2.69,0.45,3.91,0.15
	c5.1-1.26,10.15-2.72,15.21-4.11c5.49-1.51,10.99-3.01,16.48-4.52c2.79-0.97,5.58-1.94,8.37-2.91c2.11-0.31,4.26-0.44,6.32-0.95
	c9.11-2.25,18.2-4.59,27.28-6.92c2.51-0.64,4.99-1.38,7.48-2.08C414.73,372.36,415.32,372.29,415.91,372.22z"/>
<path class="st21" d="M329.09,393.77c-1.7,0.81-3.34,1.81-5.11,2.4c-8.39,2.77-16.8,5.44-25.23,8.09c-3.11,0.98-6.22,2.25-9.42,2.6
	c-3.76,0.4-4.82,2.19-4.41,5.56c0.08,0.65-0.03,1.32-0.06,1.98c-12.11,3.16-24.2,6.37-36.33,9.46c-7.82,1.99-15.69,3.8-23.54,5.69
	c-11.71-3.4-22.83-8.1-32.79-15.23c-10.37-7.44-14.27-17.31-11.51-29.97c2.39-10.98,7.85-16.11,18.57-18.33
	c10.23-2.12,19.72,0.51,29.39,2.76c5.97,1.39,11.97,2.62,17.96,3.92c1.75,0.26,3.49,0.51,5.24,0.77c1.03,0.23,2.06,0.47,3.09,0.7
	c0.28,0.07,0.55,0.13,0.84,0.16c0.38,0.26,0.77,0.52,1.15,0.78c1.46,0.24,2.94,0.39,4.38,0.73c9.15,2.17,18.29,4.37,27.43,6.57
	c2.54,0.64,5.08,1.28,7.62,1.91C307.26,387.47,318.17,390.62,329.09,393.77z"/>
<path class="st22" d="M224.98,429.54c7.85-1.89,15.72-3.7,23.54-5.69c12.13-3.09,24.22-6.3,36.33-9.46
	c1.5,6.23,3.07,12.44,4.48,18.69c1.27,5.59,2.37,11.22,3.55,16.84c-18.61,2.68-37.23,5.38-55.85,8.03
	c-5.72,0.81-11.45,1.47-17.18,2.21c-1.8-0.17-3.69-0.79-5.39-0.44c-5.07,1.04-9.86,0.65-14.44-1.76c-4.45-2.34-6.13-6.79-3.92-11.26
	c1.23-2.48,2.78-4.99,4.78-6.84c2.76-2.55,6.08-4.49,9.16-6.68C215.03,431.97,220.01,430.75,224.98,429.54z"/>
<path class="st22" d="M371.89,449.1c10.95-2.95,21.85-6.13,32.87-8.78c10.9-2.62,21.93-4.71,32.9-7.03
	c1.22,0.63,2.41,1.35,3.68,1.87c1.14,0.47,2.36,0.73,3.55,1.09c2.22,1.37,4.47,2.68,6.65,4.11c4.14,2.72,8.63,5.08,12.24,8.39
	c4.18,3.84,3.22,9.77-1.7,12.48c-5.86,3.22-12.03,5.13-18.94,3.14c-2.97-0.86-6.22-0.76-9.34-1.09c-9.94-2.89-19.78-6.21-29.85-8.54
	c-8.95-2.07-18.16-3.04-27.25-4.54C375.08,449.93,373.49,449.47,371.89,449.1z"/>
<path class="st23" d="M210.06,433.18c-3.08,2.2-6.4,4.14-9.16,6.68c-2,1.85-3.55,4.36-4.78,6.84c-2.22,4.47-0.53,8.92,3.92,11.26
	c4.59,2.41,9.38,2.8,14.44,1.76c1.69-0.35,3.58,0.27,5.39,0.44c-2.83,2.29-5.67,4.57-8.5,6.86c-4.82,3.9-10.51,5.52-16.33,4.01
	c-4.81-1.25-9.69-3.41-13.69-6.33c-4.27-3.11-5.39-8.53-4.12-13.52c1.08-4.23,3.3-8.28,5.61-12.05c1.09-1.77,3.41-3.43,5.45-3.85
	c6.52-1.35,13.16-2.13,19.77-3.02C208.67,432.18,209.39,432.85,210.06,433.18z"/>
<path class="st24" d="M433.79,463.28c3.12,0.33,6.37,0.23,9.34,1.09c6.91,1.99,13.08,0.08,18.94-3.14c4.92-2.71,5.88-8.64,1.7-12.48
	c-3.61-3.31-8.1-5.67-12.24-8.39c-2.18-1.43-4.43-2.74-6.65-4.11c7.42,1.79,15.05,2.4,22.31,5.35c3.49,1.42,7.15,2.32,9.98,4.88
	c2.15,1.94,4.41,4.02,5.76,6.51c4.34,8.05-0.98,18.36-10.11,19.17c-13.56,1.21-26.45-1.63-38.47-8.12
	C434.09,463.91,433.97,463.54,433.79,463.28z"/>
<path class="st25" d="M407.86,111.81c-2.11-4.02-4.35-7.99-6.22-12.12c-0.33-0.72,0.89-2.14,1.39-3.23
	c4.47,6.69,8.95,13.38,13.81,20.66c-3.1-0.04-3.45-2.42-4.7-3.61C410.93,112.35,410.23,110.02,407.86,111.81z"/>
<path class="st26" d="M233.85,93.05c-0.53,1.69,3.01,3.65-0.35,5.15c-2.34-0.95-2.34,0.39-2.02,2.06c-1.46,1.87-1.3,5.03-4.45,5.55
	c-1.53-0.29-3.06-0.58-4.53-0.86C226.21,101.05,230.03,97.05,233.85,93.05z"/>
<path class="st25" d="M401.24,93.05c-1.03-0.28-2.82-0.34-2.98-0.87c-0.78-2.69-3.34-5.23-1.13-8.33
	C398.5,86.92,399.87,89.99,401.24,93.05z"/>
<path class="st26" d="M239.92,87.21c0.55,3.61-2.04,2.89-4.07,2.96c1-1.37,2-2.74,2.99-4.11C239.2,86.43,239.56,86.82,239.92,87.21z
	"/>
<path class="st19" d="M239.92,87.21c-0.36-0.39-0.72-0.77-1.07-1.16c0.27-0.38,0.54-0.76,0.8-1.14l0.29,0.29
	c0,0.66,0.01,1.32,0.01,1.97L239.92,87.21z"/>
<path class="st27" d="M303.35,147.09c0.32-6.77-0.26-13.46-2.24-19.95c-1.05-3.44-2.16-6.93-3.78-10.12
	c-3.34-6.58-8.31-11.47-15.67-13.56c-6.33-1.8-8.5-6.97-9.68-12.67c-0.64-3.06-0.74-6.23-1.06-9.35c-0.28-2.69,0.89-4.51,3.48-5.24
	c2.42-0.68,4.2,0.45,5.51,2.43c0.68,1.03,1.25,2.13,2.81,3.07c0-2.67,0-5.34,0-8.16c5.36-0.5,10.11-1.03,14.87-1.33
	c2.23-0.14,4.31-0.23,6.51,1.45c2.81,2.14,12.47-0.51,14.45-3.87c1.21-2.05,2.75-2.49,4.64-3.07c5.38-1.66,10.74-3.39,16.08-5.18
	c7.86-2.64,14.63-7.06,20.63-12.73c1.68-1.59,3.49-3.03,5.59-4.84c2.93,6.22,4.79,12.5,5.31,19c0.72,8.93,1.42,17.94,1.03,26.87
	c-0.47,10.75-5.57,19.74-13.88,26.52c-4.22,3.44-9.16,6-13.77,8.95c-0.41,0.32-0.81,0.64-1.22,0.95c0,0,0.04-0.03,0.04-0.03
	c-8.13,0.55-16.25,1.09-25.24,1.69c1.9,1.24,3.16,2.23,4.56,2.95c4.4,2.26,8.8,4.55,13.31,6.58c2.58,1.16,5.39,1.83,8.09,2.73
	c0.17,0.89,0.34,1.79,0.51,2.68c-4.43,3.46-9.61,5.03-15.08,5.27c-6.14,0.27-12.31,0.15-18.46,0
	C308.23,148.07,305.79,147.46,303.35,147.09z M349.88,92.24c-6.03,5.61-12.93,4.77-19.45,6.34
	C339.89,103.36,346.53,101.9,349.88,92.24z M367.63,63.99c-3.96-3.83-7.56-5.33-11.98-4.84c-3.44,0.38-3.73,0.71-3.05,4.84
	C357.25,63.99,361.93,63.99,367.63,63.99z M315.49,104.98c3.86,6.1,9.32,8.62,12.83,6.72C324.42,109.66,320.4,107.56,315.49,104.98z
	 M364.03,81.24c-1.53-1.65-2.61-2.82-3.7-4c-0.8,0.85-2.02,1.59-2.32,2.59c-0.52,1.75,1.55,4.64,2.92,4.27
	C361.9,83.85,362.6,82.63,364.03,81.24z M315.81,83.11c-2.49,2.98-2.49,2.98-0.91,7.56c1.08-0.68,2.6-1.1,2.84-1.91
	C318.34,86.79,318.65,84.53,315.81,83.11z"/>
<path class="st28" d="M398.9,271.04c-1.98,0-3.96-0.01-5.95-0.01c-0.35-9.1-0.61-18.2-1.07-27.3c-0.21-4.04-0.8-8.07-1.25-12.34
	c4.36,0.06,4.1,2.67,4.28,4.86c0.38,4.77,0.51,9.56,1.05,14.31c0.54,4.73,1.5,9.41,2.22,14.12
	C398.51,266.79,398.67,268.92,398.9,271.04z"/>
<path class="st29" d="M265.89,271.94c-1.64,0.04-3.29,0.08-4.93,0.11c0.59-12.82,1.17-25.64,1.77-38.7
	c3.71,0.59,3.18,2.83,3.19,4.68C265.93,249.34,265.9,260.64,265.89,271.94z"/>
<path class="st30" d="M343.71,140.18c-2.7-0.89-5.51-1.56-8.09-2.73c-4.51-2.03-8.91-4.32-13.31-6.58c-1.4-0.72-2.66-1.71-4.56-2.95
	c8.99-0.6,17.11-1.15,25.24-1.69C343.23,130.88,343.47,135.53,343.71,140.18z"/>
<path class="st26" d="M236.35,91.95c0.31-0.24,0.51-0.39,0.71-0.54c0.22,0.34,0.46,0.66,0.65,1.02c0.03,0.05-0.26,0.35-0.28,0.34
	C237.08,92.52,236.73,92.25,236.35,91.95z"/>
<path class="st31" d="M231.48,100.26c-0.32-1.66-0.32-3.01,2.02-2.06C232.83,98.89,232.16,99.57,231.48,100.26z"/>
<path class="st26" d="M239.94,87.18c0-0.66-0.01-1.32-0.01-1.97c0.32,0.01,0.64,0,0.96-0.05c0,0,0.09,0.09,0.09,0.09
	C240.64,85.89,240.29,86.53,239.94,87.18z"/>
<path class="st32" d="M342.95,126.26c0.41-0.32,0.81-0.64,1.22-0.95C343.77,125.63,343.36,125.95,342.95,126.26z"/>
<path class="st26" d="M240.89,85.16c0.19-0.16,0.39-0.33,0.58-0.49c-0.16,0.19-0.33,0.39-0.49,0.58
	C240.98,85.25,240.89,85.16,240.89,85.16z"/>
<path class="st33" d="M254.93,374.17c-0.34-4.78-0.91-9.55-0.97-14.33c-0.14-11.82,0.07-23.65-0.09-35.48
	c-0.19-14.44-0.66-28.88-0.93-43.32c-0.09-5.15,0.18-5.22,5.12-5.86c12.51-1.63,25.07-2.03,37.68-2
	c36.64,0.08,73.29,0.03,109.93,0.03c1.33,0,2.66,0.01,4,0.01c2.3,0,3.19,1.21,3.27,3.45c0.27,7.45,0.88,14.89,0.93,22.34
	c0.13,22.65,0.05,45.3,0.06,67.96c0,1.83,0.13,3.65,0.2,5.48c-2.49,0.7-4.97,1.43-7.48,2.08c-9.09,2.33-18.17,4.68-27.28,6.92
	c-2.06,0.51-4.21,0.64-6.32,0.95c-19.3-0.06-38.59-0.15-57.89-0.16c-8.81-0.01-17.63,0.13-26.44,0.2
	c-9.14-2.19-18.28-4.4-27.43-6.57c-1.44-0.34-2.92-0.49-4.38-0.73c-0.38-0.26-0.77-0.52-1.15-0.78
	C255.49,374.29,255.21,374.24,254.93,374.17z M334.28,316.19c-8.39-0.02-14.54,5.08-14.29,12.4c0.32,9.33,5.65,13.79,13.91,14.47
	c6.51,0.53,12.96-6.64,13.03-13.67C347.01,321.41,342.39,315.79,334.28,316.19z"/>
<path class="st34" d="M329.09,393.77c-10.91-3.15-21.82-6.29-32.73-9.44c10.29,0.26,20.58,0.63,30.87,0.77
	c12.49,0.17,24.98,0.14,37.47,0.2c-5.49,1.51-10.99,3.02-16.48,4.52c-5.07,1.39-10.11,2.85-15.21,4.11
	C331.78,394.22,330.39,393.83,329.09,393.77z"/>
<path class="st35" d="M364.69,385.29c-12.49-0.06-24.98-0.03-37.47-0.2c-10.29-0.14-20.58-0.5-30.87-0.77
	c-2.54-0.64-5.08-1.28-7.62-1.91c8.81-0.07,17.63-0.21,26.44-0.2c19.3,0.02,38.59,0.1,57.89,0.16
	C370.27,383.35,367.48,384.32,364.69,385.29z"/>
<path class="st36" d="M255.77,374.33c0.38,0.26,0.77,0.52,1.15,0.78C256.54,374.85,256.16,374.59,255.77,374.33z"/>
<path class="st30" d="M349.88,92.24c-3.35,9.67-10,11.13-19.45,6.34C336.95,97.01,343.85,97.85,349.88,92.24z"/>
<path class="st37" d="M367.63,63.99c-5.7,0-10.38,0-15.04,0c-0.68-4.13-0.39-4.45,3.05-4.84C360.06,58.66,363.66,60.16,367.63,63.99
	z"/>
<path class="st38" d="M315.49,104.98c4.91,2.57,8.93,4.68,12.83,6.72C324.81,113.6,319.35,111.09,315.49,104.98z"/>
<path class="st39" d="M364.03,81.24c-1.43,1.39-2.13,2.61-3.09,2.87c-1.38,0.37-3.44-2.52-2.92-4.27c0.3-1,1.51-1.74,2.32-2.59
	C361.42,78.42,362.51,79.59,364.03,81.24z"/>
<path class="st40" d="M315.81,83.11c2.84,1.43,2.53,3.68,1.93,5.65c-0.24,0.81-1.77,1.23-2.84,1.91
	C313.32,86.09,313.32,86.09,315.81,83.11z"/>
<path class="st31" d="M334.28,316.19c8.11-0.4,12.73,5.22,12.65,13.2c-0.07,7.02-6.52,14.2-13.03,13.67
	c-8.26-0.67-13.59-5.13-13.91-14.47C319.74,321.27,325.89,316.17,334.28,316.19z"/>
<path class="st36" d="M254.93,374.17c-1.03-0.23-2.06-0.47-3.09-0.7c0-17.96,0.11-35.92-0.05-53.87
	c-0.11-12.93-0.64-25.87-0.87-38.8c-0.12-6.77-0.02-6.79,6.57-8.31c1.12-0.26,2.3-0.29,3.45-0.43c1.64-0.04,3.29-0.08,4.93-0.11
	c28.89-0.25,57.78-0.53,86.67-0.75c13.47-0.1,26.93-0.11,40.4-0.16c1.98,0,3.96,0.01,5.95,0.01c3.98,0.05,7.97,0.2,11.95,0.12
	c2.93-0.05,4.11,1.06,4.15,4.1c0.17,11.9,0.72,23.8,0.81,35.7c0.16,20.42,0.08,40.84,0.09,61.25c-0.59,0.07-1.18,0.14-1.76,0.21
	c-0.07-1.83-0.2-3.65-0.2-5.48c-0.02-22.65,0.07-45.3-0.06-67.96c-0.04-7.45-0.66-14.89-0.93-22.34c-0.08-2.24-0.97-3.44-3.27-3.45
	c-1.33,0-2.66-0.01-4-0.01c-36.64,0-73.29,0.06-109.93-0.03c-12.6-0.03-25.16,0.38-37.68,2c-4.95,0.64-5.22,0.71-5.12,5.86
	c0.27,14.44,0.73,28.88,0.93,43.32c0.16,11.82-0.05,23.65,0.09,35.48C254.03,364.61,254.6,369.39,254.93,374.17z"/>
<ellipse transform="matrix(0.9935 -0.114 0.114 0.9935 -7.8474 36.5239)" class="st40" cx="315.49" cy="86.89" rx="2.49" ry="3.99"/>
<ellipse transform="matrix(0.9935 -0.114 0.114 0.9935 -6.7881 41.6034)" class="st40" cx="360.44" cy="80.17" rx="2.49" ry="3.99"/>
</svg>
