<svg xmlns="http://www.w3.org/2000/svg" viewBox="0 0 681.69 845.54"><defs><style>.a{fill:#63c5a9;}.b{fill:#133447;}.c{fill:#d6d5cf;}.d{fill:#c4c2b9;}.e{fill:#efb882;}.f{fill:#e78663;}.g{fill:#e78664;}.h{fill:#e68563;}.i{fill:#f2b980;}.j{fill:#133448;}.k{fill:#a5e77b;}.l{fill:#a5eb7a;}.m{fill:#a3e579;}.n{fill:#a2e578;}.o{fill:#153548;}.p{fill:#f2bb83;}.q{fill:#a0e377;}.r{fill:#59717f;}.s{fill:#efefec;}.t{fill:#334750;}.u{fill:#c4c3ba;}.v{fill:#e2e2de;}.w{fill:#f9f9f9;}.x{fill:#fefefe;}.y{fill:#f5f5f3;}.z{fill:#abf57d;}.aa{fill:#c7c6be;}</style></defs><title>profile_4</title><path class="a" d="M273.86,462c1.94,15.79,3.92,31.57,5.82,47.37,1.78,14.82,3.39,29.66,5.25,44.48.87,6.89,2.27,13.72,3.25,20.61,1.63,11.49,3.08,23,4.7,34.5.88,6.23,2,12.43,3,18.64,1.66,10.64,3.18,21.31,5,31.93,2.38,14.21,4.93,28.4,7.43,42.6,2.12,12.07,4.31,24.14,6.38,36.22.63,3.7.13,4.17-3.65,4.85s-7.45,1.42-11.17,2.14l-28,4.08c-2,.14-4,.23-5.94.4-5.83.54-7.62-1.29-8.27-7.07-1.54-13.83-3.35-27.63-5.17-41.42q-1.57-12.07-3.52-24.09c-1.66-10.14-3.55-20.23-5.28-30.36-2-11.58-3.86-23.19-5.85-34.78-2.54-14.86-5.22-29.7-7.69-44.57-1.25-7.51-2.11-15.09-3.3-22.61-1-6.22-2.33-12.37-3.27-18.59-.76-5.07-1.08-10.21-1.73-15.3-.81-6.4-1.48-12.84-2.75-19.15-1-5.18-1.94-5.59-7.12-5.55-7.3.06-14.61.3-21.91.28-3.8,0-6.48,2.26-7.1,5.57-2.77,14.81-5.62,29.61-8.13,44.46-2.15,12.74-4,25.53-5.77,38.32-1.26,9-2.1,18.1-3.27,27.13-1,7.87-2.3,15.71-3.39,23.58-1.22,8.84-2.51,17.68-3.52,26.56-1.44,12.49-2.7,25-3.94,37.51-.79,7.92-1.28,15.86-2.16,23.76-1.05,9.37-2.36,18.72-3.59,28.07-.34,2.62-1.11,5.22-1.17,7.85-.08,3.54-2.11,4.16-4.92,3.94-4.8-.37-9.59-.83-14.38-1.25-2.72-.36-5.43-.82-8.16-1.07-6.53-.61-13.08-1.12-19.62-1.67l-.49-.08c-8.25-1.07-8.23-1.46-6.91-9.73,1.75-10.94,3.14-22,4.28-33,1.52-14.67,2.49-29.4,4-44.07,1.44-14,3.33-27.92,4.93-41.89,1.12-9.87,1.85-19.79,3.16-29.63,1.66-12.44,3.77-24.81,5.62-37.23.56-3.76.91-7.55,1.32-11.34.74-6.91,1.43-13.83,2.2-20.73.47-4.11,1.15-8.19,1.58-12.3,1.44-13.67,2.82-27.35,4.22-41,.07-.66,0-1.33,0-2,7.43-1.38,14.89-2.61,22.26-4.24,2.12-.47,5.8-.25,5.44-3.72s-3.62-1.88-5.72-2.17c-4.66-.66-9.34-1.25-14-1.86,13.1-.32,26.21-.6,39.31-1,11.11-.31,22.22-.78,33.33-1,16.43-.39,32.86-.66,49.29-1l-8,2.32c0,.41,0,.82-.07,1.22a15.94,15.94,0,0,0,3.58,2.19c3,.91,6,1.59,9.11,2.21C264.19,460.25,269,461.08,273.86,462Z"/><path class="b" d="M226,76.35,236.32,71c3.17-2.6,7.69-3.89,8.69-8.71-3.36-3.12-6.57-6.24-9.93-9.21-11.39-10.06-24-18-39.24-20.5-10.57-1.74-21.18-1.19-31.73.35a67.82,67.82,0,0,0-38.17,18.73l-3.73,3.73-3.47,3.79L116,62.36l-.1.13-5.78,7.87a.84.84,0,0,0-.5.68l-3.54,6.3a1.19,1.19,0,0,0-.36.83,35.39,35.39,0,0,1-1.44,4C101,89,97.24,95.7,94.28,102.68c-1.74,4.1-3.11,8.44-4.82,12.54-3.27,7.84-7.42,15.32-11.53,23.61,3.24,2.1,6.84,4.33,10.31,6.74A55.2,55.2,0,0,1,93,149.66l2.53,1.78c4.4,2.77,9,5.26,13.16,8.35,7.73,5.77,15.61,11.24,24.83,14.27,4.36,1.44,9,2.14,13.44,3.23a26.09,26.09,0,0,1,3,1.17l1.89.25,11,.2c7.84-1,15.7-2,23.53-3.11,4.08-.59,8.13-1.41,12.14-2.38,1.48-.36,2.78-1.45,4.17-2.21-1.3-4.43-2.46-8.9-3.93-13.27-2-6.13-5.94-11-10.73-15.28-8-7.2-15.72-14.69-23.53-22.09-4.41-4.18-4.36-9.5-3.3-14.84.38-2,1.08-4.61,3.89-4.46s3.08,2.66,3.52,4.77c.27,1.29-.06,2.81.5,3.91.67,1.32,2,2.3,3.06,3.43a42.68,42.68,0,0,0,3.11-3.35,3.18,3.18,0,0,0,.25-2c-.34-6.82,3.11-10.36,9.35-12.85C195.73,91,206.16,85.77,216.74,81Z"/><path class="c" d="M306,304.2c3.12-.3,6.24-.59,9.36-.91,6.2-.61,7.53,1.55,7.47,6.31-.23,15.48-.08,31-.08,46.45,0,6.06,0,6.05-6,6.19-.83,0-1.66.07-2.49.11l-26.4-.1c-37.93.53-75.85-.94-113.78.82-18.11.84-36.3.11-54.45.09q-.51-28.93-1-57.86L175,304.15l13.47-.07c6.2,1,12.34-.53,18.62-.09,14.5,1,29.08.93,43.63,1.19q9.95.19,19.91,0a83.2,83.2,0,0,0,8.29-1,12.48,12.48,0,0,0,2.89.63C289.85,304.66,297.93,304.42,306,304.2Zm-157.23,34c.28,1.46.57,2.92.85,4.38l-.71.25-3.5-3.82c-.31,1.15-.75,1.83-.58,2.3.81,2.25,1.71,4.28.34,6.83-.43.8,1.17,2.68,2.06,4.51l2.64-2.85,2.53,1.15c0-2.64-.35-4.92.08-7,.68-3.36-.56-5.05-3.73-5.69l3.82-3.23L148,330.17l4.33-1.5-2-4.95c3.5-1.26.27-4.84,2.27-6.74.37-.35-.22-1.71-.37-2.63-1.95.47-3.6.73-5.15,1.27-2,.69-3,2-1.86,4.17.28.53.84,1,.85,1.56.06,5.5,0,11,0,16.68Zm134.1,9.27c1.61-.28,3.4-.2,4.78-.92,4.86-2.55,8-10,7-15.93-1.14-6.87-5.37-12.2-11-13.19-1.75-.31-4.46,0-5.47,1.13-4.75,5.39-7.44,11.74-6.32,19.12A11.54,11.54,0,0,0,282.89,347.47Zm-126.78,2.14c2.64-4.29,1.44-8,1.62-11.43.21-3.81.06-7.63.06-11.45,0-8.13,0-8.13-1.68-10.49Z"/><path class="d" d="M236.62,195.37l27-7.57c6-1.68,12-3.25,18-5.08,1.91-.58,3.39-.59,4,1.42,2.58,8.28,5,16.61,7.59,25.11L280.91,214c-1.61.36-3.23.65-4.82,1.08-8.91,2.38-17.85,4.66-26.71,7.22-17.84,5.17-35.63,10.5-53.44,15.77l-7.24,2.24a27.76,27.76,0,0,0-3.89.5c-13.85,3.8-27.72,7.54-41.52,11.53-8.21,2.37-16.31,5.16-24.46,7.76-1.18.38-2.35.83-3.55,1.11-3.19.73-6.4,1.38-9.6,2.06l-12.87,4c-.9-.81-2.32-1.47-2.61-2.46C88,257.22,86,249.6,83.81,241.4l20.52-8.19a52.56,52.56,0,0,0,6.8-1c9-2.59,18-5.36,27-8q21.8-6.45,43.61-12.82c12-3.48,24.09-6.81,36.11-10.29C224.14,199.25,230.37,197.27,236.62,195.37ZM120.74,245.69l10-3.74c-2.75-6.46-4-6.93-9.42-3.91a22.66,22.66,0,0,1-6.76,2.55c-3.11.63-7.21,1.14-7,6.21-2.66-2.55-5.86-2.66-8.32-.51-2,1.78-1.92,3.14.67,6.92l18.88-5.51c-.38-2.15-.64-3.63-.89-5.1l1-.33ZM265.45,207.9c4.82,1.52,9.16-.14,10.22-3.88,1.13-4-2.14-7.8-8.33-9.53C262.55,198.13,262.54,202.61,265.45,207.9Z"/><path class="e" d="M226,76.35,236.32,71a25.8,25.8,0,0,0,1.07,3.29c2.92,6.11,5.79,12.25,8.92,18.25a29.78,29.78,0,0,0,4.6,6.26c1.75,1.91,4,3.37,5.78,5.26,1.94,2.06,1.24,4.53-.23,6.39a40.73,40.73,0,0,1-6,5.83c-3.8,3.14-8.23,5.75-7.94,11.9L226,125.23c-.71,6.32,4.71,8.67,7.85,12.86-3.16,6.22-8.52,10.1-14.72,13-2.85,1.34-5.87,2.31-8.69,3.68-3.06,1.48-4,3.6-3.49,6.9.39,2.78.66,5.58,1,8.37l-5.18,1.15c-1.3-4.43-2.46-8.9-3.93-13.27-2-6.13-5.94-11-10.73-15.28-8-7.2-15.72-14.69-23.53-22.09-4.41-4.18-4.36-9.5-3.3-14.84.38-2,1.08-4.61,3.89-4.46s3.08,2.66,3.52,4.77c.27,1.29-.06,2.81.5,3.91.67,1.32,2,2.3,3.06,3.43a42.68,42.68,0,0,0,3.11-3.35,3.18,3.18,0,0,0,.25-2c-.34-6.82,3.11-10.36,9.35-12.85C195.73,91,206.16,85.77,216.74,81Zm-6.86,5.38a56.27,56.27,0,0,0-3.49,4.68c-1.27,2.1-1.86,4.24.69,5.29,3.09-1.84,5.81-3.29,8.34-5,1.4-1,3.14-2.21,3.53-3.66.67-2.41-2-2.44-3.48-3.29Zm5.09,14.74c-3.5,3.87-3.49,5.41-.11,9.34C227.91,102.74,228,100.16,224.26,96.47Z"/><path class="f" d="M92.81,267.23l12.87-4c0,11.43,0,22.86.15,34.29a45.46,45.46,0,0,0,.79,6l12,1.74q.51,28.93,1,57.86c-6.5,0-13,0-19.5.07-3.86,0-4.37.47-4.26,4.34.1,3.64.8,7.25.86,10.88.13,8.33,0,16.67,0,25,0,10.11-.68,8.62,8.89,8.8l-.06,32.89-19-.81-10.88-2.57c.46-7.67.84-15.25,1.38-22.82q.75-10.43,1.77-20.81c.84-8.74,1.81-17.47,2.68-26.21.79-7.91,1.48-15.83,2.28-23.74.91-8.9,2-17.78,2.8-26.69.57-6.44.56-12.94,1.26-19.37.92-8.55,2.26-17.05,3.46-25.56C91.78,273.44,92.32,270.34,92.81,267.23Z"/><path class="g" d="M195.94,238.06c17.81-5.27,35.6-10.6,53.44-15.77,8.86-2.56,17.8-4.84,26.71-7.22,1.59-.43,3.21-.72,4.82-1.08,5.75,3.63,9.2,9,11.6,15.19a163.42,163.42,0,0,1,10.24,41.34C304,281.73,304.94,293,306,304.2c-8.09.22-16.17.46-24.26.62a12.48,12.48,0,0,1-2.89-.63q-.06-29.46-.11-58.92c0-7.28.74-7.2-7.43-7.19C246.2,238.12,221.07,238.07,195.94,238.06Z"/><path class="h" d="M202.75,171.21l5.18-1.15c3.17-.4,4.23,1.82,4.48,4.19.84,7.71,5.84,12,12.08,15.35,3.95,2.09,8.08,3.86,12.13,5.77-6.25,1.9-12.48,3.88-18.76,5.69-12,3.48-24.09,6.81-36.11,10.29q-21.83,6.33-43.61,12.82c-9,2.66-18,5.43-27,8a52.56,52.56,0,0,1-6.8,1c3.75-6.64,10.73-9.16,16.65-13,12.52-8.14,25-16.39,37.7-24.17,5.68-3.47,5.92-8.23,5.07-13.71a18.45,18.45,0,0,0-.9-2.85,1.78,1.78,0,0,1,.06-.56c7.84-1,15.7-2,23.53-3.11,4.08-.59,8.13-1.41,12.14-2.38C200.06,173.06,201.36,172,202.75,171.21Z"/><path class="i" d="M100.88,749.34c6.54.55,13.09,1.06,19.62,1.67,2.73.25,5.44.71,8.16,1.07-1.74,13.21-5.92,26.06-6,39.53a23.73,23.73,0,0,1-1,4.84c-.67,1.44-1.42,2.84-2,4.31-3.89,9.92-9,18.84-19.38,23.31-6.64,2.85-8,.9-9.24-6.08a5.65,5.65,0,0,1,.3-2q1.64-8.16,3.3-16.33c.86-5,1.86-10,2.57-15q1.47-10.5,2.58-21C100.27,758.89,100.52,754.11,100.88,749.34Z"/><path class="f" d="M287.84,362.25l26.4.1c.83,7.4,1.62,14.8,2.51,22.2.8,6.73,1.75,13.45,2.56,20.19q1.8,14.81,3.46,29.64a20.35,20.35,0,0,1-.19,3.29l-8.76,1.58-7.9.9c-.05-8.91,0-17.82-.17-26.73a49.61,49.61,0,0,0-.91-6.25h-17Q287.83,384.7,287.84,362.25Z"/><path class="i" d="M271.8,749.39l28-4.08c1.65,11.17,3.33,22.34,5,33.52,1.39,9.57,8,14.66,15.94,18.57.89.43,1.73,1,2.59,1.44l-.22,0,1.49.4c2.36,1.42,4.72,2.86,7.09,4.27,2.55,1.52,5.22,2.89,7.63,4.61.85.62,1.1,2.08,1.72,3.36-9.25,1.73-21.65-.22-27.2-2.94-7.88-3.86-15.66-7.93-23.35-12.15-3.75-2.06-7.5-4.33-9.57-8.43-.21-.43-1.12-.5-1.71-.74Z"/><path class="j" d="M279.15,787.19c.59.24,1.5.31,1.71.74,2.07,4.1,5.82,6.37,9.57,8.43,7.69,4.22,15.47,8.29,23.35,12.15,5.55,2.72,18,4.67,27.2,2.94-.62-1.28-.87-2.74-1.72-3.36-2.41-1.72-5.08-3.09-7.63-4.61-2.37-1.41-4.73-2.85-7.09-4.27,7.48,2.85,15,5.58,22.42,8.59a31.71,31.71,0,0,1,12.46,8.84,24,24,0,0,1,2.39,3.13c2,3.41,1.78,4.68-1.48,7.06a23.31,23.31,0,0,1-13.51,4.24A80.19,80.19,0,0,1,332,830c-13.73-2.37-27-6.09-39.35-12.93-5.11-2.83-10.27-5.32-14.27-9.69-2.63-2.88-4-6-2.66-9.94Q277.43,792.32,279.15,787.19Z"/><path class="k" d="M491.07,140.41c-.93-1.82-1.85-3.35-2.52-5-3.05-7.35-6-14.75-9.05-22.1-1.57-3.76-2.29-4-6-2.26-4.51,2.09-9,4.31-13.54,6.22-1.74.73-3.77.75-6.33,1.21-7.06-18.62-14-36.84-21.07-55.52,8.07-3.49,15.56-6.79,23.1-10,9-3.8,18-7.47,27-11.3,3.61-1.54,4.79-.94,6.57,2.89,2.56,5.53,5.49,10.88,8.16,16.35,1.35,2.77,2.49,5.65,3.89,8.85,2.18-.77,3.89-1.28,5.53-2,4-1.69,7.86-3.55,11.85-5.21,4.6-1.9,6-1.28,8,3.31,2.62,6.09,5.19,12.22,7.85,18.3s5.54,11.94,8,18c2,4.86,3.44,9.91,5.37,15.58C529.2,125.5,511,134.08,491.07,140.41Zm2.58-3.06c8.49-3.53,16.32-6.77,24.13-10s15.77-6.62,23.64-10c2.28-1,3.05-2.34,1.41-4.66a21.54,21.54,0,0,1-2.13-4.43Q536,96.82,531.37,85.35c-.91-2.26-1.68-4.59-2.68-6.81-2-4.45-4.13-8.86-6.28-13.43-3.17,1.14-6,2-8.75,3.17-12.67,5.31-25.3,10.7-37.95,16-3.17,1.34-3.75,2.45-2.41,5.82,1.68,4.28,3.63,8.45,5.32,12.72,2.18,5.49,4,11.13,6.38,16.54C487.63,125.43,490.69,131.27,493.65,137.35Zm3.85-67.14c0-.85.11-1.23,0-1.49-3.66-7.67-7.32-15.33-9.85-23.48-.62-2-2-2.34-3.94-1.48-4.62,2.06-9.3,4-13.9,6.07-9.45,4.3-18.85,8.69-28.29,13-3.62,1.64-4.57,2.78-3.56,6.24,1.33,4.57,3.05,9,4.74,13.49,2.16,5.65,4.49,11.24,6.69,16.88,1.94,5,3.8,9.94,5.86,15.34,7.06-3.2,14.27-4,19.83-9.25-2.27-6.2-4.36-12.1-6.6-17.94-.78-2-1.36-4.07,1-5.11,6-2.59,12.13-4.83,18.13-7.4C491.06,73.61,494.34,71.78,497.5,70.21Z"/><path class="l" d="M0,337.12c14.07-4.24,21.37-13.86,26.66-25.85C43,313.13,58.08,308.77,72.81,300a28.06,28.06,0,0,1-5.64,12.67c-6.85,8.8-14.11,17.3-24.09,22.81a34.06,34.06,0,0,1-8.64,3.64C23.31,341.66,12.2,341.71,0,337.12Z"/><path class="m" d="M416.77,382.49a47.83,47.83,0,0,0,.26,5.21c.81,4.88,1.82,9.74,2.6,14.63.57,3.63-.21,4.85-3.95,5.53-8.64,1.56-17.32,2.9-26,4.35-4.55.76-9.09,1.65-13.66,2.33-5.21.77-10.45,1.38-16.5,2.16-.83-4.19-1.8-8.47-2.51-12.78q-2.65-16.16-5.09-32.35c-.56-3.76-.64-7.59-1.14-11.37-.41-3.07.64-4.65,3.81-5.06,6.58-.84,13.14-1.83,19.69-2.86,3.08-.48,6.13-1.21,9.95-2-1.07-5.82-2.07-11.29-3.09-16.76-.16-.81-.48-1.59-.69-2.39-1-3.89-.19-5.65,3.73-6.38,5.68-1,11.43-1.79,17.16-2.52,9.53-1.2,19.07-2.3,28.61-3.4,3-.33,5.92-.52,9.4-.81,4.14,19.42,6.72,38.82,9.6,58.39Zm-.35,21.92c-.62-5.73-1-11-1.8-16.16-1.83-11.53-4-23-5.77-34.55-.44-2.91-1.78-3.79-4.29-3.43-7,1-14,2-21,3.15-9.24,1.52-18.45,3.27-27.71,4.76-2.66.43-3.36,1.82-2.91,4.15.77,4,1.73,8,2.4,12.09,1.23,7.47,2.29,15,3.45,22.45.7,4.55,1.34,9.13,2.25,13.64.47,2.29,2,3.18,4.51,2.37a44.24,44.24,0,0,1,7.21-1.62c11.73-1.74,23.47-3.35,35.19-5.1C410.8,405.74,413.6,405,416.42,404.41Zm-5.21-58.19c2,11.51,3.9,22.15,5.83,33.09l29.7-4.75c-1-5.52-2-10.82-3-16.13-2-11.31-4-22.64-6.11-33.94-.29-1.6-.88-3.3-3.09-3.26-3,0-6-.14-9,.19q-15.44,1.75-30.81,3.84c-2.92.4-5.77,1.3-8.64,2-2.38.56-2.53,2.26-2.2,4.26.63,3.88,1.27,7.77,1.82,11.66.52,3.71,1.75,5.06,5.39,5,3.12-.06,6.23-.47,9.34-.78C404.06,347,407.6,346.62,411.21,346.22Z"/><path class="n" d="M23,447.41c.34.95.76,2.14,1.21,3.43a6.56,6.56,0,0,0,1.34.36c7.29.43,13-3.54,18.8-7,1.7-1,3.14-2.45,4.76-3.62,2.68-1.95,4.2-1.3,4.58,2s.6,6.9,1,10.35C56.26,467,63.37,477.32,75.82,484a46.74,46.74,0,0,1,4.2,2.89,8.54,8.54,0,0,1-1.18,2.31c-8.41,7.88-17.57,14.66-28.4,18.87-11,4.29-20.47,2.32-28.16-7A75.91,75.91,0,0,1,6.39,470.47a35.83,35.83,0,0,1,1.27-20.58Zm-1,6.75c-.56,11.22-.69,21.63,2.2,31.76a118.39,118.39,0,0,0,5.43,14.78,9.77,9.77,0,0,0,7.42,5.84c5.22,1.16,9.87-.2,14.28-2.27A149.51,149.51,0,0,0,67.8,495.1c3-1.87,5.89-4.18,7.07-7.88a14,14,0,0,0-1.34-1.06c-13-7.61-20.7-18.6-21.82-33.89A69,69,0,0,0,50.09,444C41.61,450.51,33.14,455.46,22,454.16Z"/><path class="o" d="M94.61,799.71Q93,807.87,91.31,816a5.65,5.65,0,0,0-.3,2c1.28,7,2.6,8.93,9.24,6.08,10.42-4.47,15.49-13.39,19.38-23.31.58-1.47,1.33-2.87,2-4.31a57,57,0,0,1-3.86,26.8,38.67,38.67,0,0,1-20.15,21.14c-9.08,4-16-3.22-16.67-11.38A24.32,24.32,0,0,1,83.1,821.5c3-6.61,6.78-12.84,10.24-19.24C93.79,801.43,94.18,800.56,94.61,799.71Z"/><path class="n" d="M631.46,0c5.32,1.71,10.22,3.18,15,4.87,6.57,2.3,13,5,19.65,7.08a9.92,9.92,0,0,1,6.8,6q4.35,10.86,8.41,21.84a5.62,5.62,0,0,1,.13,3.39c-3.35,10.57-6.79,21.11-10.24,31.65-.14.43-.58.77-1.23,1.61-6-1.93-12-4-18.13-5.87q-18.46-5.73-37-11.34c-3.27-1-3.62-1.49-2.45-5q3.56-10.89,7.31-21.72c3.3-9.56,6.68-19.09,10-28.62C630.19,2.75,630.71,1.72,631.46,0ZM669.6,16.7a27.53,27.53,0,0,0-2.81-1.37c-9.85-3.33-19.74-6.53-29.55-10-4.3-1.51-4.38-1.66-5.91,2.76q-6.24,18-12.42,36.05c-1.26,3.68-2.31,7.44-3.5,11.32l53,17c3.13-9.86,6.26-19.37,9.05-29,.3-1-1.06-3-2.13-4-2.31-2.1-5-3.82-7.42-5.76a4.54,4.54,0,0,1-1.66-5.68C667.53,24.58,668.4,20.88,669.6,16.7Z"/><path class="m" d="M337.52,523.88l56.84,19.82c-4.5,19.51-12.5,37.51-17.51,56.95-8.9-2.83-17-5.46-25.21-8-10.26-3.2-20.53-6.38-30.83-9.42-2.7-.79-3.5-2-2.57-4.7,2.25-6.43,4.31-12.92,6.54-19.35q5.46-15.75,11-31.45C336.2,526.66,336.74,525.65,337.52,523.88Zm-16.18,55.59,52.9,17L391,546.23c-6.51-2.44-12.46-4.82-18.5-6.92-9.5-3.29-19.11-6.27-28.6-9.6-5.21-1.83-5.13-2-6.88,3.1-3.72,10.92-7.48,21.83-11.18,32.76C324.3,570.07,322.9,574.61,321.34,579.47Z"/><path class="p" d="M86.59,444.33l19,.81c.15,2.91.31,5.82.49,9.19H132.8c4.67.61,9.35,1.2,14,1.86,2.1.29,5.38-1.16,5.72,2.17s-3.32,3.25-5.44,3.72c-7.37,1.63-14.83,2.86-22.26,4.24-6,0-11.91.05-17.86-.14A32.76,32.76,0,0,1,98.71,465a7.31,7.31,0,0,1-4-3.26C91.79,456,89.26,450.15,86.59,444.33Z"/><path class="q" d="M414.33,223.2c-14.52,0-28.64.05-42.77-.07a4.7,4.7,0,0,1-3.21-1.8c-4.66-6.46-9.25-13-13.66-19.61a9.82,9.82,0,0,1-1.53-5.16c.1-10.63.4-21.25.66-31.88,0-.29.25-.58.54-1.21h60Zm-2.05-2.43V166.83c-4.39-1.81-50.51-2.47-56.5-.69,0,9.38,0,18.85,0,28.32,0,5.17.5,5.67,5.72,5.74,3.93.06,7.87,0,12,0v20.56Z"/><path class="p" d="M305.92,440.15l7.9-.9c-1.66,5.52-3.28,11.06-5,16.57-1.23,4-3.68,5.64-8.15,5.55-8.94-.18-17.89.36-26.83.6-4.83-.89-9.67-1.72-14.48-2.68-3.06-.62-6.13-1.3-9.11-2.21a15.94,15.94,0,0,1-3.58-2.19c0-.4,0-.81.07-1.22l8-2.32,44.74-1.14c.83,0,1.67.05,2.49,0,2.41-.25,4-1.19,3.85-4.06C305.67,444.14,305.87,442.14,305.92,440.15Z"/><path class="r" d="M105.75,78.17a35.39,35.39,0,0,1-1.44,4C101,89,97.24,95.7,94.28,102.68c-1.74,4.1-3.11,8.44-4.82,12.54-3.27,7.84-7.42,15.32-11.53,23.61,3.24,2.1,6.84,4.33,10.31,6.74A55.2,55.2,0,0,1,93,149.66c-5.16-3.22-10.37-6.35-15.42-9.73-.81-.54-.61-2.45-1.37-3.23s-2-.61-3.56-1c2.91-4.59,5.19-9.06,8.29-12.85,5.77-7.07,9.23-15.37,13.34-23.33,3.35-6.5,6.57-13.07,9.89-19.59A8.9,8.9,0,0,1,105.75,78.17Z"/><path class="r" d="M95.5,151.44c4.4,2.77,9,5.26,13.16,8.35,7.73,5.77,15.61,11.24,24.83,14.27,4.36,1.44,9,2.14,13.44,3.23a26.09,26.09,0,0,1,3,1.17c-7.54.71-14.49-1.75-21.15-4.64a103,103,0,0,1-14.63-8.43c-5.14-3.34-10.07-7-15-10.65A43.65,43.65,0,0,1,95.5,151.44Z"/><path class="r" d="M162.91,178.91a1.78,1.78,0,0,0-.06.56l-11-.76Z"/><path class="r" d="M115.93,62.49l-5.78,7.87Z"/><path class="r" d="M109.65,71l-3.54,6.3Z"/><path class="r" d="M125.94,51.64l-3.73,3.73Z"/><path class="r" d="M118.74,59.16,116,62.36Z"/><path class="j" d="M323.05,798.81l.22,0Z"/><path class="s" d="M305.92,440.15c-.05,2-.25,4-.11,6,.19,2.87-1.44,3.81-3.85,4.06-.82.08-1.66,0-2.49,0l-44.74,1.14c-16.43.32-32.86.59-49.29,1-11.11.26-22.22.73-33.33,1-13.1.36-26.21.64-39.31,1H106.06c-.18-3.37-.34-6.28-.49-9.19l.06-32.89,182.22-5.08h17a49.61,49.61,0,0,1,.91,6.25C305.88,422.33,305.87,431.24,305.92,440.15Zm-186.14,4.23c3.68-.37,7.59-1.22,11.45-1.07,10,.39,20.13-1.77,30.88,2.18-.45-10.16-.87-19.6-1.29-29-1.71-.12-2.53-.25-3.35-.23-10.75.32-21.5.6-32.24,1-4.15.16-5.42,1.67-5.44,5.94C119.75,430,119.78,436.73,119.78,444.38Zm103.91-9.88c.63,2.86,1.14,5.15,1.82,8.23,1-1.63,1.56-2.5,1.77-2.82,3.08-.76,5.64,3.11,7.82.2,1.52-2,1.73-5,2.52-7.63l6.84-.71-.12-1.09c-7.86-2.46-15.79-1.09-23.82-.64s-16.31-.75-24.47-.71c-8,0-15.89.72-23.83,1.12,0,.45,0,.89,0,1.33,9.63,1.67,19.63-1.6,29.35,1-1.06,3-5.49-1.78-5.36,3.28,3.09-.16,5.88.25,7,4.57.49-2,.72-2.9.92-3.7l5.56-2.31-.33-1.05h-5.22v-1l30.25-1.1v6.26C229.84,439.57,228.13,434,223.69,434.5Z"/><path class="t" d="M224.76,79.72c1.47.85,4.15.88,3.48,3.29-.39,1.45-2.13,2.7-3.53,3.66-2.53,1.74-5.25,3.19-8.34,5-2.55-1-2-3.19-.69-5.29a56.27,56.27,0,0,1,3.49-4.68s3.2-1.66,4-1.92A2.85,2.85,0,0,1,224.76,79.72Z"/><path class="u" d="M287.85,407.17l-182.22,5.08c-9.57-.18-8.9,1.31-8.89-8.8,0-8.33.1-16.67,0-25-.06-3.63-.76-7.24-.86-10.88-.11-3.87.4-4.29,4.26-4.34,6.5-.08,13-.05,19.5-.07,18.15,0,36.34.75,54.45-.09,37.93-1.76,75.85-.29,113.78-.82Q287.84,384.71,287.85,407.17ZM157.94,391.1c7.88,1.76,15.57,3,22.95,5.25s14.3,3.65,21.24-.78a5.5,5.5,0,0,1,1.45-.35l20.95-5.39V378.88c-9.55-1.58-18.94-3.24-28.36-4.64-9.21-1.37-17.63,1.94-26,4.91-4.17,1.46-8.25,3.15-12.18,4.67Z"/><path class="s" d="M195.94,238.06c25.13,0,50.26.06,75.39,0,8.17,0,7.42-.09,7.43,7.19q0,29.46.11,58.92a83.2,83.2,0,0,1-8.29,1q-10,.21-19.91,0c-14.55-.26-29.13-.19-43.63-1.19-6.28-.44-12.42,1.09-18.62.1.1-2,.27-4,.28-6q0-28.92,0-57.83Zm75.74,11.26a32.91,32.91,0,0,0-5.74-1.06c-21.31-.07-42.61,0-63.92,0-.83,0-1.82-.26-2.46.1-1,.58-2.57,1.54-2.6,2.39-.22,6.07-.12,12.15-.12,18,16,.52,31.24,1.17,46.49,1.44,7.93.13,15.88-.43,23.82-.66,3.71-.1,3.37-.05,3.05-3.67C269.74,260.52,268.56,255.07,271.68,249.32Zm-46.54,44.56a25.16,25.16,0,0,0,4.46.87c4.07.12,8.15-.14,12.21.06,1.65.08,2.82-.2,2.64-1.83-.33-3-.26-6.62-1.91-8.81-1-1.4-4.88-.71-7.46-.95-.33,0-.66,0-1,0C224.1,283.21,224.1,283.21,225.14,293.88Zm21.64,1.64c6.32-1.19,12,.94,17.57-.57-.67-2-1.4-3.3-1.52-4.66-.63-7.06-.58-7.07-7.91-7.07a37.13,37.13,0,0,0-4.48.06c-2.43.3-3.92,1.45-3.7,4.25C246.92,289.82,246.78,292.14,246.78,295.52Z"/><path class="v" d="M118.58,305.3l-12-1.74a45.46,45.46,0,0,1-.79-6c-.12-11.43-.11-22.86-.15-34.29,3.2-.68,6.41-1.33,9.6-2.06,1.2-.28,2.37-.73,3.55-1.11H175v44.06Zm18.89-24.53c-4.65-.44-9-.89-13.37-1.25-.87-.07-2,.57-2.61.22a3.34,3.34,0,0,0-4.75,1.15c-.51.7-.89,2.46-.66,2.59a11,11,0,0,0,4.29,1.66c2.44.24,4.72-.27,7.39.54s6.19-.12,9.16,1.46a2.26,2.26,0,0,0,1.85-.47c3.34-2.54,7.54-1.44,10.73-1.05a74.5,74.5,0,0,1,12.07,1.94,12.39,12.39,0,0,0,3.81.26c.29,0,.58-.64.91-1.05l-1.62-.92a46.62,46.62,0,0,0,.37-5.62c0-.32-1.87-1-2-.82-1.17,1.49-2.14,3.14-3.2,4.78-.34-.77.63-3.37-2.34-2.55-1.44.4-2.76-2.8-4.73-.49a2.68,2.68,0,0,1-2.06.47c-3.43-.46-6.84-1-10.29-1.57l-2.94,6Z"/><path class="g" d="M175,304.15V260.09H118.83c8.15-2.6,16.25-5.39,24.46-7.76,13.8-4,27.67-7.73,41.52-11.53a27.76,27.76,0,0,1,3.89-.5q0,28.9,0,57.83c0,2-.18,4-.28,5.95Z"/><path class="w" d="M282.89,347.47a11.54,11.54,0,0,1-11-9.79c-1.12-7.38,1.57-13.73,6.32-19.12,1-1.14,3.72-1.44,5.47-1.13,5.66,1,9.89,6.32,11,13.19,1,6-2.16,13.38-7,15.93C286.29,347.27,284.5,347.19,282.89,347.47ZM292.34,335c-.59-3.23-.82-5.54-1.45-7.72-1.23-4.26-4.44-6.46-8.44-7.11-4.73-.78-5,3.26-6.22,5.65-2.39,4.78-3.59,9.88-.63,15.12s10.13,6.17,13.51,1.31C290.71,339.89,291.45,337,292.34,335Z"/><path class="w" d="M148.79,338.2l-2.66-.17c0-5.69,0-11.18,0-16.68,0-.52-.57-1-.85-1.56-1.16-2.18-.12-3.48,1.86-4.17,1.55-.54,3.2-.8,5.15-1.27.15.92.74,2.28.37,2.63-2,1.9,1.23,5.48-2.27,6.74l2,4.95-4.33,1.5,4.62,4.82-3.82,3.23Z"/><path class="w" d="M148.77,338.22c3.17.64,4.41,2.33,3.73,5.69-.43,2.12-.08,4.4-.08,7l-2.53-1.15-2.64,2.85c-.89-1.83-2.49-3.71-2.06-4.51,1.37-2.55.47-4.58-.34-6.83-.17-.47.27-1.15.58-2.3l3.5,3.82.71-.25c-.28-1.46-.57-2.92-.85-4.38Zm.53,8.37c-.17-.25-.28-.58-.51-.71s-.48.06-.73.11l.58,1Z"/><path class="x" d="M156.11,349.61V316.24c1.69,2.36,1.69,2.36,1.68,10.49,0,3.82.15,7.64-.06,11.45C157.55,341.64,158.75,345.32,156.11,349.61Z"/><path class="y" d="M120.74,245.69l-1.87-3.42-1,.33c.25,1.47.51,3,.89,5.1l-18.88,5.51c-2.59-3.78-2.71-5.14-.67-6.92,2.46-2.15,5.66-2,8.32.51-.25-5.07,3.85-5.58,7-6.21a22.66,22.66,0,0,0,6.76-2.55c5.44-3,6.67-2.55,9.42,3.91Z"/><path class="y" d="M265.45,207.9c-2.91-5.29-2.9-9.77,1.89-13.41,6.19,1.73,9.46,5.51,8.33,9.53C274.61,207.76,270.27,209.42,265.45,207.9Zm8.75-6L269.07,197c-3.52,3.1-4.15,6.15-2.15,8.4C268.57,207.21,270.22,206.54,274.2,201.87Z"/><path class="b" d="M224.26,96.47c3.75,3.69,3.65,6.27-.11,9.34C220.77,101.88,220.76,100.34,224.26,96.47Z"/><path class="z" d="M493.65,137.35c-3-6.08-6-11.92-8.65-17.94-2.37-5.41-4.2-11-6.38-16.54-1.69-4.27-3.64-8.44-5.32-12.72-1.34-3.37-.76-4.48,2.41-5.82,12.65-5.35,25.28-10.74,37.95-16,2.73-1.14,5.58-2,8.75-3.17,2.15,4.57,4.28,9,6.28,13.43,1,2.22,1.77,4.55,2.68,6.81q4.65,11.46,9.33,22.91a21.54,21.54,0,0,0,2.13,4.43c1.64,2.32.87,3.69-1.41,4.66q-11.8,5-23.64,10C510,130.58,502.14,133.82,493.65,137.35Z"/><path class="z" d="M497.5,70.21c-3.16,1.57-6.44,3.4-9.87,4.87-6,2.57-12.14,4.81-18.13,7.4-2.4,1-1.82,3.07-1,5.11,2.24,5.84,4.33,11.74,6.6,17.94-5.56,5.24-12.77,6-19.83,9.25-2.06-5.4-3.92-10.38-5.86-15.34-2.2-5.64-4.53-11.23-6.69-16.88-1.69-4.46-3.41-8.92-4.74-13.49-1-3.46-.06-4.6,3.56-6.24,9.44-4.31,18.84-8.7,28.29-13,4.6-2.09,9.28-4,13.9-6.07,1.9-.86,3.32-.53,3.94,1.48,2.53,8.15,6.19,15.81,9.85,23.48C497.61,69,497.5,69.36,497.5,70.21Z"/><path class="z" d="M416.42,404.41c-2.82.59-5.62,1.33-8.47,1.75-11.72,1.75-23.46,3.36-35.19,5.1a44.24,44.24,0,0,0-7.21,1.62c-2.51.81-4-.08-4.51-2.37-.91-4.51-1.55-9.09-2.25-13.64-1.16-7.48-2.22-15-3.45-22.45-.67-4.05-1.63-8.05-2.4-12.09-.45-2.33.25-3.72,2.91-4.15,9.26-1.49,18.47-3.24,27.71-4.76,7-1.16,14-2.17,21-3.15,2.51-.36,3.85.52,4.29,3.43,1.77,11.54,3.94,23,5.77,34.55C415.44,393.43,415.8,398.68,416.42,404.41Z"/><path class="z" d="M411.21,346.22c-3.61.4-7.15.82-10.7,1.17-3.11.31-6.22.72-9.34.78-3.64.06-4.87-1.29-5.39-5-.55-3.89-1.19-7.78-1.82-11.66-.33-2-.18-3.7,2.2-4.26,2.87-.69,5.72-1.59,8.64-2q15.38-2.08,30.81-3.84c2.95-.33,6-.14,9-.19,2.21,0,2.8,1.66,3.09,3.26,2.09,11.3,4.08,22.63,6.11,33.94,1,5.31,2,10.61,3,16.13L417,379.31C415.11,368.37,413.24,357.73,411.21,346.22Z"/><path class="z" d="M22,454.16c11.12,1.3,19.59-3.65,28.07-10.13a69,69,0,0,1,1.62,8.24c1.12,15.29,8.8,26.28,21.82,33.89a14,14,0,0,1,1.34,1.06c-1.18,3.7-4.11,6-7.07,7.88a149.51,149.51,0,0,1-16.45,9.17c-4.41,2.07-9.06,3.43-14.28,2.27a9.77,9.77,0,0,1-7.42-5.84,118.39,118.39,0,0,1-5.43-14.78C21.33,475.79,21.46,465.38,22,454.16Z"/><path class="z" d="M669.6,16.7c-1.2,4.18-2.07,7.88-3.36,11.44a4.54,4.54,0,0,0,1.66,5.68c2.46,1.94,5.11,3.66,7.42,5.76,1.07,1,2.43,2.91,2.13,4-2.79,9.61-5.92,19.12-9.05,29l-53-17c1.19-3.88,2.24-7.64,3.5-11.32q6.15-18,12.42-36.05c1.53-4.42,1.61-4.27,5.91-2.76,9.81,3.44,19.7,6.64,29.55,10A27.53,27.53,0,0,1,669.6,16.7Z"/><path class="z" d="M321.34,579.47c1.56-4.86,3-9.4,4.48-13.9,3.7-10.93,7.46-21.84,11.18-32.76,1.75-5.12,1.67-4.93,6.88-3.1,9.49,3.33,19.1,6.31,28.6,9.6,6,2.1,12,4.48,18.5,6.92l-16.74,50.24Z"/><path class="z" d="M412.28,220.77H373.53V200.21c-4.16,0-8.1,0-12,0-5.22-.07-5.71-.57-5.72-5.74,0-9.47,0-18.94,0-28.32,6-1.78,52.11-1.12,56.5.69Z"/><path class="y" d="M119.78,444.38c0-7.65,0-14.42,0-21.19,0-4.27,1.29-5.78,5.44-5.94,10.74-.43,21.49-.71,32.24-1,.82,0,1.64.11,3.35.23.42,9.44.84,18.88,1.29,29-10.75-3.95-20.89-1.79-30.88-2.18C127.37,443.16,123.46,444,119.78,444.38Z"/><path class="x" d="M223.69,434.5c4.44-.49,6.15,5.07,10.69,3.22v-6.26l-30.25,1.1v1h5.22l.33,1.05-5.56,2.31c-.2.8-.43,1.74-.92,3.7-1.09-4.32-3.88-4.73-7-4.57-.13-5.06,4.3-.26,5.36-3.28-9.72-2.6-19.72.67-29.35-1,0-.44,0-.88,0-1.33,7.94-.4,15.88-1.09,23.83-1.12,8.16,0,16.35,1.17,24.47.71s16-1.82,23.82.64l.12,1.09-6.84.71c-.79,2.59-1,5.6-2.52,7.63-2.18,2.91-4.74-1-7.82-.2-.21.32-.75,1.19-1.77,2.82C224.83,439.65,224.32,437.36,223.69,434.5Z"/><path class="w" d="M157.94,391.1v-7.28c3.93-1.52,8-3.21,12.18-4.67,8.42-3,16.84-6.28,26-4.91,9.42,1.4,18.81,3.06,28.36,4.64v10.95l-20.95,5.39a5.5,5.5,0,0,0-1.45.35c-6.94,4.43-13.9,3-21.24.78S165.82,392.86,157.94,391.1ZM192,376.3c-.54.19-1.16.44-1.79.61-8.86,2.5-17.73,4.95-26.58,7.51a2.38,2.38,0,0,0-.75,4.31,8.23,8.23,0,0,0,3.16,1.37c5.77,1.34,11.63,2.34,17.34,3.91a26.73,26.73,0,0,0,17.66-.82c4.86-1.92,10.15-2.73,15.25-4.06,1.44-.37,2.85-.86,4.27-1.3,2-.61,2.36-2.05,2.17-3.9s-1.14-2.58-2.91-2.74c-1.3-.12-2.55-.59-3.85-.82C208,379,200.08,377.67,192,376.3Z"/><path class="y" d="M271.68,249.32c-3.12,5.75-1.94,11.2-1.48,16.5.32,3.62.66,3.57-3.05,3.67-7.94.23-15.89.79-23.82.66-15.25-.27-30.49-.92-46.49-1.44,0-5.86-.1-11.94.12-18,0-.85,1.57-1.81,2.6-2.39.64-.36,1.63-.1,2.46-.1,21.31,0,42.61,0,63.92,0A32.91,32.91,0,0,1,271.68,249.32Z"/><path class="w" d="M225.14,293.88c-1-10.67-1-10.67,9-10.67.33,0,.66,0,1,0,2.58.24,6.41-.45,7.46.95,1.65,2.19,1.58,5.77,1.91,8.81.18,1.63-1,1.91-2.64,1.83-4.06-.2-8.14.06-12.21-.06A25.16,25.16,0,0,1,225.14,293.88Z"/><path class="w" d="M246.78,295.52c0-3.38.14-5.7,0-8-.22-2.8,1.27-3.95,3.7-4.25a37.13,37.13,0,0,1,4.48-.06c7.33,0,7.28,0,7.91,7.07.12,1.36.85,2.67,1.52,4.66C258.82,296.46,253.1,294.33,246.78,295.52Z"/><path class="w" d="M137.47,280.77v5.31l2.94-6c3.45.54,6.86,1.11,10.29,1.57a2.68,2.68,0,0,0,2.06-.47c2-2.31,3.29.89,4.73.49,3-.82,2,1.78,2.34,2.55,1.06-1.64,2-3.29,3.2-4.78.14-.18,2,.5,2,.82a46.62,46.62,0,0,1-.37,5.62l1.62.92c-.33.41-.62,1.05-.91,1.05a12.39,12.39,0,0,1-3.81-.26,74.5,74.5,0,0,0-12.07-1.94c-3.19-.39-7.39-1.49-10.73,1.05a2.26,2.26,0,0,1-1.85.47c-3-1.58-6.4-.61-9.16-1.46s-5-.3-7.39-.54a11,11,0,0,1-4.29-1.66c-.23-.13.15-1.89.66-2.59a3.34,3.34,0,0,1,4.75-1.15c.64.35,1.74-.29,2.61-.22C128.46,279.88,132.82,280.33,137.47,280.77Z"/><path class="c" d="M292.34,335c-.89,2.05-1.63,4.94-3.23,7.25-3.38,4.86-10.54,3.94-13.51-1.31s-1.76-10.34.63-15.12c1.19-2.39,1.49-6.43,6.22-5.65,4,.65,7.21,2.85,8.44,7.11C291.52,329.41,291.75,331.72,292.34,335Z"/><path class="c" d="M149.3,346.59l-.66.38-.58-1c.25-.05.57-.21.73-.11S149.13,346.34,149.3,346.59Z"/><path class="aa" d="M274.2,201.87c-4,4.67-5.63,5.34-7.28,3.49-2-2.25-1.37-5.3,2.15-8.4Z"/><path class="aa" d="M192,376.3c8.07,1.37,16,2.71,24,4.07,1.3.23,2.55.7,3.85.82,1.77.16,2.72.94,2.91,2.74s-.21,3.29-2.17,3.9c-1.42.44-2.83.93-4.27,1.3-5.1,1.33-10.39,2.14-15.25,4.06a26.73,26.73,0,0,1-17.66.82c-5.71-1.57-11.57-2.57-17.34-3.91a8.23,8.23,0,0,1-3.16-1.37,2.38,2.38,0,0,1,.75-4.31c8.85-2.56,17.72-5,26.58-7.51C190.85,376.74,191.47,376.49,192,376.3Zm-2.72,6.35h-6.16c4.86,3-.35,4.34,1.25,7.41l7.16-1.16.67-.93C188.05,387.47,190.49,384.5,189.29,382.65Zm14.13-1.38-1.27.5c-.75,2.64-1,5.43,1.79,6.89,2.37,1.26,4.56-.26,6.4-2.59h-4.78Zm-22,6.4c1.41-3.24-1.54-4-3.6-6.28-1.27,2.72-2.29,4.88-3.53,7.53Zm18.39-5.9c-.88,1.92-1.42,3.12-2,4.4l-3.76-3c.59,4.06,2.14,6,4,5.72C200.25,388.56,201,386.09,199.82,381.77Z"/><path class="w" d="M189.29,382.65c1.2,1.85-1.24,4.82,2.92,5.32l-.67.93-7.16,1.16c-1.6-3.07,3.61-4.38-1.25-7.41Z"/><path class="w" d="M203.42,381.27l2.14,4.8h4.78c-1.84,2.33-4,3.85-6.4,2.59-2.77-1.46-2.54-4.25-1.79-6.89Z"/><path class="y" d="M181.43,387.67l-7.13,1.25c1.24-2.65,2.26-4.81,3.53-7.53C179.89,383.7,182.84,384.43,181.43,387.67Z"/><path class="w" d="M199.82,381.77c1.19,4.32.43,6.79-1.74,7.16-1.88.32-3.43-1.66-4-5.72l3.76,3C198.4,384.89,198.94,383.69,199.82,381.77Z"/></svg>