<svg xmlns="http://www.w3.org/2000/svg" viewBox="0 0 333.97 424.19"><defs><style>.a{fill:#abf47e;}.b{fill:#eeeeea;}.c{fill:#acf47f;}.d{fill:#a0e476;}.e{fill:#a0e475;}.f{fill:#0d2837;}.g{fill:#eeece8;}.h{fill:#102b39;}.i{fill:#e78765;}.j{fill:#16343a;}.k{fill:#e3fbd4;}.l{fill:#ecd0c4;}.m{fill:#c8ced1;}.n{fill:#122f38;}.o{fill:#fafcfa;}.p{fill:#f8f9f8;}.q{fill:#eccfc2;}.r{fill:#aaf47d;}</style></defs><title>spot-illo-plant</title><path class="a" d="M164.92,303.33q.66,4.44,1.31,8.88l.66,2.12.39,2.87c.22.71.43,1.42.65,2.13l1,15,.78,14c0,1.65,0,3.31,0,5l-7.9,2c-.34-4.12-.92-8.24-1-12.37a144,144,0,0,0-5.27-38.26c-1.05-3.62-3.15-6.94-4.78-10.39-3.76-7.26-6.84-15-11.53-21.59-3.13-4.39-8.81-6.87-12.88-10.71-5.3-5-9.85-10.79-15.24-15.68-6.18-5.59-8.37-12.43-8.34-20.39,0-9.32,0-18.64,0-28,3.72-3.22,2.81-7.68,1.21-10.81a106.08,106.08,0,0,0-11.66-17.62c-2.85-3.57-5-7-4.51-11.62.88-8.7,2-17.37,2.79-26.07.78-9.12.92-18.07-4.68-26.25-3.53-5.17-7.22-10.69-8.83-16.6-2.77-10.21-2.7-20.91,2.9-30.35,4.41-7.43,4.74-14.22,1.16-22-5-11-3.09-23.25,5.19-30.07a28.56,28.56,0,0,1,26.25-5.46c6.37,1.75,10.26,7.64,11,14.4a78.91,78.91,0,0,0,15,38.36c6.64,9.18,8.92,19.95,8.93,31.07a28.52,28.52,0,0,0,6.22,18.62,68.08,68.08,0,0,1,13.72,33.73c1.23,11.78,0,23.8.4,35.7a16,16,0,0,0,3.46,9.3c8,9.27,10.57,20.53,12.2,32a72.15,72.15,0,0,1,0,20.44c-.87,5.77-3.41,11.41-5.91,16.78-2.6,5.55-6.37,10.55-9,16.09-1.57,3.3-1.93,7.16-2.83,10.77-.21,1.37-.43,2.74-.64,4.12q-.16,8.94-.32,17.88C164.93,301.35,164.93,302.34,164.92,303.33Zm-15.78-28.59,2-.94c-.75-4.66-2-9.31-2.16-14-.39-11.79.3-23.65-.61-35.39-.66-8.47-1.93-17.31-5.13-25.08-7.94-19.29-13.07-38.82-12.59-59.88a52.42,52.42,0,0,0-3.81-20.88c-6-14.28-11.86-28.42-12.41-44.22-.7,3.4-2,7-1.38,10.11,2,9.65,3.79,19.55,7.49,28.61A79,79,0,0,1,126.8,144c0,6-1.13,12.28.29,17.92,3.26,13,7.76,25.6,11.77,38.37,1.3,4.11,3.47,8.14,3.8,12.32.82,10.4.54,20.87,1.2,31.29.56,8.84,1.73,17.66,2.87,26.45C146.93,271.86,148.31,273.26,149.14,274.74Z" transform="translate(-0.96)"/><path class="a" d="M213.07,318.43c-8.18,10.93-9,24.31-12.38,36.87h-5.81l3-25.83c3.05-4,2.56-8.45,1.08-12.81-1.67-4.87-4.31-9.52-5.26-14.51-1.63-8.55-4.22-17.61-2.89-25.89,2.17-13.53,9.4-25.42,18.58-35.85,4.84-5.5,7.46-11.81,8.7-19.18,2.56-15.23,7-29.62,22.79-37,5.66-2.63,7.11-7.64,5.7-13.43A23.36,23.36,0,0,1,250,151.76c4.51-6.71,9.85-12.87,14.82-19.26,7.19-2.33,10.6-7.49,12.18-14.73,3.21-14.61,13.45-23.58,26.19-29.81,7-3.4,20.79,1.73,25.61,8.05,6.82,9,7.08,18.79,5.11,29.25-1.71,9-4,17.75-10.33,24.83-4.63,5.16-9.06,10.5-13.76,15.58-3.17,3.43-4,7.38-4.17,11.87-.46,14.78-2.87,29.07-12.51,41-3.53,4.36-7.06,9.16-11.66,12.11-9,5.76-11,14.24-12.89,23.76-2.4,12.1-5.19,24.4-10.05,35.65-4.67,10.81-13.93,18.13-26,21.1-6,1.48-11.86,3.41-17.79,5.14a11.39,11.39,0,0,1,.31-2.44c4.48-12.24,11.2-23.22,18.77-33.75,3.67-5.11,7.7-10.17,10.2-15.85,4.2-9.57,7.54-19.53,10.82-29.47,3.56-10.8,8-21,14.87-30.25,3.66-5,5.47-11.29,8.11-17l-1.44-.65c-1.91,3.22-3.6,6.61-5.79,9.63-6.92,9.55-14.2,18.8-17.9,30.31-3.41,10.59-7.26,21-11.2,31.46a45.93,45.93,0,0,1-5.86,11.46c-7.84,10.38-15.38,20.89-19.2,33.5C214.94,308.2,214.17,313.37,213.07,318.43Z" transform="translate(-0.96)"/><path class="b" d="M265.92,379.48c-5.62,5.25-11,10.82-16.91,15.68-8.17,6.68-17.43,11.47-28,13.13-3,.47-4.21,1.83-4.21,5,0,6-2.26,8.53-8.06,9-6.26.53-12.55.81-18.83,1-10.26.38-20.54,1-30.8.84-9.9-.16-19.79-1.14-29.68-1.82-4.2-.29-6.33-2.79-7.66-6.69a7.73,7.73,0,0,0-4.17-4.37C101.17,406,88.24,395.52,76,384a10.42,10.42,0,0,1-1.15-1.61l1-2,100-1,2-.11,82-.56Z" transform="translate(-0.96)"/><path class="c" d="M73.9,273.44c-7.88-4.6-10.76-12.23-12-20.6-.78-5.38-.36-10.94-1.19-16.31a15.59,15.59,0,0,0-9.42-12c-8-3.6-15.5-7.91-20.13-15.59-2.91-4.84-5.76-10-7.11-15.43a53.19,53.19,0,0,0-11-21.76c-9.13-11-14.57-23.71-11-38.44,1.27-5.2,3.5-10.46,9.78-12,.57,3,.19,6.8,1.88,8.94,4.52,5.71,9.74,10.86,17.08,13.2,12.8,4.08,21.09,12.56,24.49,25.69,1.42,5.44,3,10.83,4.56,16.25a65.24,65.24,0,0,0,20,32c5.35,4.68,9.25,9.62,11.38,16.37,2.69,8.51,4.88,17.45,9.27,25.06,6.78,11.71,15.29,22.42,23,33.63,3.22,4.71,6.18,9.59,9.27,14.4-2.23-1.44-4.58-2.72-6.65-4.36-4.66-3.68-10.29-6.77-13.51-11.48-5.18-7.59-8.81-16.25-13-24.52-2.75-5.44-5.31-11-8-16.47l-1.39.63c5.19,12.5,10.37,25,15.84,38.18-4.74-2.31-9.14-4.48-13.56-6.6C86.32,279.31,80.11,276.38,73.9,273.44Z" transform="translate(-0.96)"/><path class="d" d="M201.71,183.85c-2.27-8.87-4.7-17.7-6.78-26.62-3.65-15.72,1.11-29.59,9.43-42.82,4.47-7.1,9.13-14.38,11.82-22.22,2.29-6.68,2.28-14.27,2.58-21.49.56-13.26,14.18-24.18,26.66-20.05,8.36,2.75,14,9.59,17.15,17.69S265,85.11,264,93.82c-1,9-.43,18.13-.52,27.21,0,1.82.07,3.64.11,5.46a30.48,30.48,0,0,1-3.67,3.93c-9.81,7.49-16.4,17.39-22.2,28.13-2.77,5.11-7.17,9.34-10.84,14a72.24,72.24,0,0,1,5-28.64,54.77,54.77,0,0,0,2.86-11.51q3.58-22,6.82-44a51.69,51.69,0,0,0,.05-7.47l-1.4-.08c-1.48,5.84-3.24,11.62-4.37,17.52-2.82,14.73-4.57,29.72-8.27,44.22-2.77,10.85-5.31,21.49-4.78,32.72Z" transform="translate(-0.96)"/><path class="e" d="M132.73,306.9c-3.09-4.81-6-9.69-9.27-14.4-7.68-11.21-16.19-21.92-23-33.63-4.39-7.61-6.58-16.55-9.27-25.06-2.13-6.75-6-11.69-11.38-16.37a65.24,65.24,0,0,1-20-32c-1.52-5.42-3.14-10.81-4.56-16.25-3.4-13.13-11.69-21.61-24.49-25.69-7.34-2.34-12.56-7.49-17.08-13.2-1.69-2.14-1.31-5.91-1.88-8.94,5.93-3.29,12.46-4.44,18.41-1.46,7.15,3.58,13.59,8.56,20.35,12.91,3,1.95,5.92,4.26,9.18,5.68,9.59,4.15,17.4,9.61,20.87,20.31,3.14,9.7,7.48,19,11.17,28.52a17.92,17.92,0,0,0,11,10.65c0,9.33.06,18.65,0,28,0,8,2.16,14.8,8.34,20.39,5.39,4.89,9.94,10.69,15.24,15.68,4.07,3.84,9.75,6.32,12.88,10.71,4.69,6.59,7.77,14.33,11.53,21.59l-8.46,14.61Z" transform="translate(-0.96)"/><path class="f" d="M201.71,183.85l21.15-8.56,4.06-2.77c3.67-4.63,8.07-8.86,10.84-14,5.8-10.74,12.39-20.64,22.2-28.13a30.48,30.48,0,0,0,3.67-3.93c.38,2,.77,4,1.15,6-5,6.4-10.31,12.56-14.82,19.27a23.36,23.36,0,0,0-3.38,19.09c1.41,5.79,0,10.8-5.7,13.43-15.79,7.34-20.23,21.73-22.79,37-1.24,7.37-3.86,13.68-8.7,19.18-9.18,10.43-16.41,22.32-18.58,35.85-1.33,8.28,1.26,17.34,2.89,25.89,1,5,3.59,9.64,5.26,14.51,1.48,4.36,2,8.77-1.09,12.81-7.8,7.2-15.33,14.58-17,25.81H173q2-9.44,3.92-18.86l1.47-3.21V310.45L177,307.13c-.88-4.25-1.49-8.58-2.69-12.74a46,46,0,0,1,.15-26.72c1.69-5.39,5.6-10.38,9.45-14.73,3.45-3.88,5.36-7.59,5-12.85-1.18-18.54,3.15-36.11,10-53.16a24.55,24.55,0,0,1,1.4-2.56l.66-.24A.86.86,0,0,0,201.71,183.85Z" transform="translate(-0.96)"/><path class="g" d="M173,355.3h7.83l14,0H276l1.33,1.91-2.46,6.14c-4.94-.29-9.89-.8-14.83-.8-8.32,0-16.64.53-25,.5-36.8-.15-73.61-.48-110.41-.61-9,0-18,.49-26.93.67-5.8.12-11.61-.12-17.39.2-4.59.25-9.15,1.09-13.72,1.68l0,1.9c3.45.38,6.91,1.15,10.34,1.07,15.63-.37,31.25-1.26,46.87-1.41,13.64-.14,27.29.65,40.93.69q44.49.13,89-.12c7,0,13.92-.79,20.88-1.21q-3,4.74-5.9,9.47a43.23,43.23,0,0,0-6.8-1c-28.26.25-56.52.63-84.77.92-13.32.13-26.64.08-40,.25-10.31.13-20.62.67-30.93.65-9.11,0-18.22-.78-27.33-.72-2.35,0-4.68,1.85-7,2.86-4.94-5.12-9-10.76-10-18-.53-3.84,1.73-5,5.05-5,18.54.3,37.09.76,55.63.87,7.59,0,15.18-.66,22.77-1l6.47.12h10.07l7.9-2Z" transform="translate(-0.96)"/><path class="h" d="M151.8,355.32l-6.47-.12c-3.07-7.24-5.67-14.73-9.35-21.65-2.78-5.21-9-4.35-13.9-5.17-10.07-1.67-19.3-5-25.68-13.25-3.49-4.48-6.76-9.71-8.16-15.12a47.34,47.34,0,0,0-10.07-19.07c-1.82-2.17-2.87-5-4.27-7.5,6.21,2.94,12.42,5.87,18.62,8.84,4.42,2.12,8.82,4.29,13.56,6.6-5.47-13.17-10.65-25.68-15.84-38.18l1.39-.63c2.65,5.5,5.21,11,8,16.47,4.17,8.27,7.8,16.93,13,24.52,3.22,4.71,8.85,7.8,13.51,11.48,2.07,1.64,4.42,2.92,6.65,4.36l9.65,2c.13.46.51,1,.37,1.39-3.59,9.14-2,17.27,3,25.77C149,341.75,149.86,348.86,151.8,355.32Z" transform="translate(-0.96)"/><path class="i" d="M274.57,365.91c-7,.42-13.92,1.17-20.88,1.21q-44.49.24-89,.12c-13.64,0-27.29-.83-40.93-.69-15.62.15-31.24,1-46.87,1.41-3.43.08-6.89-.69-10.34-1.07l0-1.9c4.57-.59,9.13-1.43,13.72-1.68,5.78-.32,11.59-.08,17.39-.2,9-.18,18-.7,26.93-.67,36.8.13,73.61.46,110.41.61,8.32,0,16.64-.5,25-.5,4.94,0,9.89.51,14.83.8C274.76,364.2,274.66,365.06,274.57,365.91Z" transform="translate(-0.96)"/><path class="i" d="M71.85,378.35c2.35-1,4.68-2.85,7-2.86,9.11-.06,18.22.7,27.33.72,10.31,0,20.62-.52,30.93-.65,13.32-.17,26.64-.12,40-.25,28.25-.29,56.51-.67,84.77-.92a43.23,43.23,0,0,1,6.8,1c-.31.94-.62,1.87-.92,2.81l-7.89.46-82,.56-2,.11-100,1-3-1.12Z" transform="translate(-0.96)"/><path class="j" d="M213.07,318.43c1.1-5.06,1.87-10.23,3.37-15.18,3.82-12.61,11.36-23.12,19.2-33.5a45.93,45.93,0,0,0,5.86-11.46c3.94-10.41,7.79-20.87,11.2-31.46,3.7-11.51,11-20.76,17.9-30.31,2.19-3,3.88-6.41,5.79-9.63l1.44.65c-2.64,5.72-4.45,12.05-8.11,17-6.83,9.29-11.31,19.45-14.87,30.25-3.28,9.94-6.62,19.9-10.82,29.47-2.5,5.68-6.53,10.74-10.2,15.85-7.57,10.53-14.29,21.51-18.77,33.75a11.39,11.39,0,0,0-.31,2.44l.06,0-.8,1.35C213.7,317.9,213.39,318.17,213.07,318.43Z" transform="translate(-0.96)"/><path class="g" d="M169.76,348.36l-.78-14C172.57,338.82,170.94,343.6,169.76,348.36Z" transform="translate(-0.96)"/><path class="k" d="M165.26,282.47c.21-1.38.43-2.75.64-4.12C165.69,279.72,165.47,281.09,165.26,282.47Z" transform="translate(-0.96)"/><path class="l" d="M259.86,378.65l7.89-.46-1.83,1.29Z" transform="translate(-0.96)"/><path class="k" d="M164.92,303.33c0-1,0-2,0-3C164.93,301.35,164.93,302.34,164.92,303.33Z" transform="translate(-0.96)"/><path class="m" d="M177,307.13l1.41,3.32Z" transform="translate(-0.96)"/><path class="g" d="M72.91,379.2l3,1.12-1,2Z" transform="translate(-0.96)"/><path class="m" d="M178.39,333.23l-1.47,3.21Z" transform="translate(-0.96)"/><path class="k" d="M166.89,314.33l-.66-2.12Z" transform="translate(-0.96)"/><path class="k" d="M167.93,319.33c-.22-.71-.43-1.42-.65-2.13C167.5,317.91,167.71,318.62,167.93,319.33Z" transform="translate(-0.96)"/><path class="d" d="M201,184.13l-.66.24Z" transform="translate(-0.96)"/><path class="a" d="M214,317.63c.27-.45.54-.9.8-1.35C214.55,316.73,214.28,317.18,214,317.63Z" transform="translate(-0.96)"/><path class="n" d="M149.14,274.74c-.83-1.48-2.21-2.88-2.41-4.44-1.14-8.79-2.31-17.61-2.87-26.45-.66-10.42-.38-20.89-1.2-31.29-.33-4.18-2.5-8.21-3.8-12.32-4-12.77-8.51-25.41-11.77-38.37-1.42-5.64-.32-11.93-.29-17.92a79,79,0,0,0-6.27-30.87c-3.7-9.06-5.48-19-7.49-28.61-.65-3.15.68-6.71,1.38-10.11.55,15.8,6.42,29.94,12.41,44.22a52.42,52.42,0,0,1,3.81,20.88c-.48,21.06,4.65,40.59,12.59,59.88,3.2,7.77,4.47,16.61,5.13,25.08.91,11.74.22,23.6.61,35.39.16,4.68,1.41,9.33,2.16,14Z" transform="translate(-0.96)"/><path class="o" d="M151.8,355.32c-1.94-6.46-2.77-13.57-6.07-19.25-4.94-8.5-6.57-16.63-3-25.77.14-.36-.24-.93-.37-1.39l8.46-14.61c1.63,3.45,3.73,6.77,4.78,10.39A144,144,0,0,1,160.89,343c.06,4.13.64,8.25,1,12.37Z" transform="translate(-0.96)"/><path class="p" d="M194.88,355.31l-14,0c1.71-11.23,9.24-18.61,17-25.81Q196.39,342.4,194.88,355.31Z" transform="translate(-0.96)"/><path class="q" d="M175.85,379.32l2-.11Z" transform="translate(-0.96)"/><path class="r" d="M226.92,172.52l-4.06,2.77c-.53-11.23,2-21.87,4.78-32.72,3.7-14.5,5.45-29.49,8.27-44.22,1.13-5.9,2.89-11.68,4.37-17.52l1.4.08a51.69,51.69,0,0,1-.05,7.47q-3.25,22-6.82,44A54.77,54.77,0,0,1,232,143.88,72.24,72.24,0,0,0,226.92,172.52Z" transform="translate(-0.96)"/></svg>