<svg xmlns="http://www.w3.org/2000/svg" viewBox="0 0 91.92 334.28"><defs><style>.a{fill:#a0e476;}.b{fill:#fdfefc;}</style></defs><title>spot-illo-tweet</title><path class="a" d="M22.43,100.29a73.43,73.43,0,0,1-4.56-6.82c-1.69-3.31-3.9-5-7.87-4.55a13.3,13.3,0,0,1-6.3-.83A5.32,5.32,0,0,1,.92,84.63a55.86,55.86,0,0,1-.28-8.4C.45,62.09.13,47.94.12,33.8.12,24.2.52,14.59.83,5A3.94,3.94,0,0,1,4.37.83,35.88,35.88,0,0,1,9.27.14Q47,0,84.76,0c5.12,0,6.94,2,6.95,7.47q.08,38,.08,76C91.8,88,90.88,89,86.26,89c-11.67.06-23.36.48-35-.18-7.68-.43-13.87,2.17-20,6.07C28.53,96.7,25.66,98.34,22.43,100.29ZM47.55,33.77c-3.65.23-6.9.71-9.92-1.3-3.86-2.56-7.79-5-11.61-7.64-1.36-.92-2.3-2.34-4.34-1.27-1.87,1-2.05,2.48-1.91,4.19.28,3.26.64,6.51,1,10-4.26,2.48-2.7,8.06,4.68,13.78-2.52,2-1.44,3.67.58,5.11s4.31,2.87,7.53,5L20,64.55c.7,2.82.74,2.71,3.1,3.69,9.69,4,19.26,3.74,29.11.24C65.53,63.75,72.73,53.69,73.8,39.74c.16-2.15-.4-4.48.23-6.45.58-1.77,2.34-3.16,3.61-4.76L72.74,27c1.69-1.7,2.92-2.95,4.15-4.2l-.69-.92c-.89.24-1.8.44-2.67.74-1.07.38-2.1.85-3,1.22C58.21,15.25,46.89,23.1,47.55,33.77Z" transform="translate(0 0)"/><path class="b" d="M47.55,33.77c-.66-10.67,10.66-18.52,23-9.94.91-.37,1.94-.84,3-1.22.87-.3,1.78-.5,2.67-.74l.69.92c-1.23,1.25-2.46,2.5-4.15,4.2l4.9,1.54c-1.27,1.6-3,3-3.61,4.76-.63,2-.07,4.3-.23,6.45-1.07,13.95-8.27,24-21.62,28.74-9.85,3.5-19.42,3.76-29.11-.24-2.36-1-2.4-.87-3.1-3.69L33.56,61.7c-3.22-2.14-5.42-3.51-7.53-5s-3.1-3.13-.58-5.11c-7.38-5.72-8.94-11.3-4.68-13.78-.36-3.54-.72-6.79-1-10-.14-1.71,0-3.21,1.91-4.19,2-1.07,3,.35,4.34,1.27,3.82,2.62,7.75,5.08,11.61,7.64C40.65,34.48,43.9,34,47.55,33.77Z" transform="translate(0 0)"/><path class="a" d="M22.43,216.29a73.13,73.13,0,0,1-4.55-6.82c-1.7-3.31-3.9-5.05-7.87-4.55a13.27,13.27,0,0,1-6.3-.83,5.27,5.27,0,0,1-2.78-3.46,54.53,54.53,0,0,1-.29-8.4C.45,178.09.13,164,.13,149.8c0-9.6.39-19.21.7-28.81a3.93,3.93,0,0,1,3.55-4.15,34.28,34.28,0,0,1,4.89-.7Q47,116,84.76,116c4.92,0,6.93,2,6.94,7q.1,38.49.09,77c0,4.07-1,5-5.53,5.07-11.66.05-23.36.48-35-.18-7.68-.43-13.88,2.17-20,6.07C28.53,212.7,25.67,214.34,22.43,216.29Zm48.24-76.56c-4.7-2.37-9.24-5-14.92-2.87-5.94,2.26-8.24,6.72-8.25,12.82-3.8.57-7.18.6-10.28-1.44-3.87-2.54-7.65-5.2-11.59-7.63-1.09-.67-2.85-1.31-3.8-.86a4.44,4.44,0,0,0-2,3.43c0,3.42.5,6.83.81,10.26-.49.73-1.67,1.73-1.84,2.87-.77,5.34,2.83,8.39,6.62,11.37-3.21,2.8-.47,4.16,1.27,5.52s3.95,2.62,6.94,4.55l-13.86,2.83c-.13.34-.27.68-.4,1a20.36,20.36,0,0,0,3.51,2.51c9.42,4.1,18.88,3.94,28.57.65,14.32-4.87,22-15.64,22.29-30.69.09-3.71-.19-7.29,4.56-9.13l-5.42-2.06,4-4.22-.81-.93Z" transform="translate(0 0)"/><path class="b" d="M70.67,139.73l5.41-2,.81.93-4,4.22L78.34,145c-4.75,1.84-4.47,5.42-4.56,9.13-.33,15-8,25.82-22.29,30.69-9.69,3.29-19.15,3.45-28.57-.65a20.36,20.36,0,0,1-3.51-2.51c.13-.35.27-.69.4-1l13.86-2.83c-3-1.93-5.09-3.09-6.94-4.55s-4.48-2.72-1.27-5.52c-3.79-3-7.39-6-6.62-11.37.17-1.14,1.35-2.14,1.84-2.87-.31-3.43-.81-6.84-.81-10.26a4.44,4.44,0,0,1,2-3.43c1-.45,2.71.19,3.8.86,3.94,2.43,7.72,5.09,11.59,7.63,3.1,2,6.48,2,10.28,1.44,0-6.1,2.31-10.56,8.25-12.82C61.43,134.68,66,137.36,70.67,139.73Z" transform="translate(0 0)"/><path class="a" d="M22.45,334.28c-2.06-3.2-3.83-5.78-5.44-8.46A5.25,5.25,0,0,0,11.72,323a32.93,32.93,0,0,1-6.94-.38c-2.62-.4-4-2-3.91-4.85.14-3.13,0-6.28,0-9.41,0-11.5.11-23,0-34.5C.75,267.34,0,260.88,0,254.4c0-5.11.56-10.23.94-15.34.16-2.17,1.1-3.83,3.49-4.2a36.7,36.7,0,0,1,5.39-.72q37.5-.13,75-.14c4.94,0,7,2,7,6.89q.11,38.49.09,77c0,4.13-1,5.12-5.46,5.14-11.49.07-23,.49-34.48-.16-8.19-.46-14.85,2.25-21.3,6.59C28.22,331.1,25.56,332.46,22.45,334.28Zm-2.18-35.81-.72,1.1A19.32,19.32,0,0,0,23,302.11c9.43,4.11,18.91,3.95,28.62.65,14.3-4.86,22-15.65,22.26-30.77.06-3.79.16-7.16,4.34-9.12l-5.35-2,4.23-3.93-.7-1.18-5.72,2c-4.67-2.72-9.3-5-15-2.85-6,2.28-8,7-8.23,13.67-3.67-.83-7.07-1-9.92-2.37-3.86-1.82-7.32-4.5-10.91-6.87-1.44-.94-2.3-2.92-4.66-1.86s-2.24,3.11-2.08,5.06c.25,3.06.72,6.09,1,8.36-.84,1.56-1.84,2.63-2,3.8-.59,5.18,3,8.07,6.34,10.75-.41,1-1.3,2.47-1.05,2.72,2.65,2.53,5.49,4.87,8.83,7.74Z" transform="translate(0 0)"/><path class="b" d="M20.27,298.47l12.8-2.57c-3.34-2.87-6.18-5.21-8.83-7.74-.25-.25.64-1.7,1.05-2.72-3.38-2.68-6.93-5.57-6.34-10.75.13-1.17,1.13-2.24,2-3.8-.28-2.27-.75-5.3-1-8.36-.16-1.95-.35-4,2.08-5.06s3.22.92,4.66,1.86c3.59,2.37,7.05,5.05,10.91,6.87,2.85,1.35,6.25,1.54,9.92,2.37.23-6.72,2.27-11.39,8.23-13.67,5.67-2.17,10.3.13,15,2.85l5.72-2,.7,1.18-4.23,3.93,5.35,2c-4.18,2-4.28,5.33-4.34,9.12-.24,15.12-8,25.91-22.26,30.77-9.71,3.3-19.19,3.46-28.62-.65a19.32,19.32,0,0,1-3.46-2.54Z" transform="translate(0 0)"/></svg>