<svg xmlns="http://www.w3.org/2000/svg" viewBox="0 0 291.65 275.98"><defs><style>.a{fill:#a0e475;}.b{fill:#9de46d;}.c{fill:#dbfeb8;}.d{fill:#e3feca;}.e{fill:#effddb;}.f{fill:#b9f492;}.g{fill:#83c15a;}.h{fill:#b7f38f;}.i{fill:#eefcd9;}.j{fill:#b9eb99;}.k{fill:#edfcd8;}.l{fill:#e1f6d3;}.m{fill:#ccf6ae;}.n{fill:#b8f28d;}.o{fill:#d4f9b0;}</style></defs><title>spot-illo-coffee</title><path class="a" d="M146.8,63.1l-.83-13c23.41-.35,46.83-.87,70.24-1,12.26-.06,24.52.75,36.79.87,5.6.06,11.21-.84,16.82-.84,5.27,0,10.54.61,15.82,1-.92,11.16-1.86,22.32-2.75,33.48-.39,4.91-.77,9.84-1,14.76-.41,7.9-.73,15.81-1.09,23.71l-1.21,4.62c-2.26,2.89-4,5.13-6.25,8a42.73,42.73,0,0,0-.79-5,4.61,4.61,0,0,0-4.64-3.69c-5-.23-5-.4-5-5.56,0-1.17,0-2.33,0-3.5,0-6.47-2.07-7.59-7.88-4.28-.57.32-1.1.7-1.89,1.21-5.13-4.8-10.59-7.82-16.44-1.48-3.9-2.18-10.33-3.29-14.29-2.25a11.66,11.66,0,0,0-8.34,7.24c-2.37,6.89.1,10.67,7.37,12.92.44.13.78.55,1.58,1.15a36.65,36.65,0,0,0-1.84,4.37c-1.5,5.38-3.24,10.73-4.15,16.21-.56,3.34,1.88,5.89,4.87,7.33,2.82,1.36,4.63-.83,6.52-2.4,3.21-2.64,4.72-6.09,5.64-10.14.77-3.38,1.59-7.24,5.63-8.66,1.95-.68,4-1.12,6.23-1.75-1.13,6.29-2,12.27-3.36,18.16-.58,2.59,0,4.14,2.2,5.35s4.19,1.26,6.32-.62c3.17-2.79,4.73-6.29,5.84-10.19.75-2.62,1.37-5.48,5-6.84,0,2.8-.11,5.24,0,7.67.42,7.47,5.66,11.36,12.85,9.67,1.44-.34,2.93-.46,4.39-.69-.13,3-.25,6.06-.38,9.08l-.75,2.06c-.4,11.42-.7,22.84-1.23,34.25-.54,11.88-1.3,23.75-2,35.62-.29,5.11-.57,10.22-.91,15.32-.39,6.06-.83,12.12-1.25,18.17-9.29,2.21-18.54,1.67-27.76,1.6-1.52-1.33-2.93-1.65-4.12.4l-6.95.33a41.14,41.14,0,0,0-5.24-.7q-33.33-.08-66.65,0c0-1.3,0-2.6-.07-3.9-.33-5.27-.67-10.53-1-15.79-.35-5.76-.68-11.53-1-17.29q-1-16-2-32.09c-.06-1,0-2,0-3-1-11.81-2-23.62-2.94-35.43-.41-5.09-.55-10.21-1.1-15.29-.33-3.07-1.22-6.07-1.86-9.11q-1-18.07-2-36.16c-.34-6.27-.55-12.54-1-18.81-.29-4.44-.8-8.87-1.21-13.3q-.36-3.93-.7-7.84C148.23,65.7,148.28,64.37,146.8,63.1Z" transform="translate(-1.76 -1.18)"/><path class="b" d="M114.87,270.17l-10-.07c-.79-.6-1.55-1.67-2.38-1.72-2.56-.17-5.15,0-7.73.11l-40.88-.44-5-1c.33-3.79.69-7.57,1-11.36.13-1.82-.19-3.72.18-5.48a130.49,130.49,0,0,0,2.87-28.07c.57-.29,1.62-.59,1.61-.86-.07-2.72-.32-5.44-.51-8.15.25-1.34.51-2.67.76-4,1.87-2.95,1.55-6,.22-9,0-1.64,0-3.27.08-4.9,2.66-.91,2.23-2.41.8-4.11.35-4.42.59-8.86,1.06-13.27,1.28-11.74,2.52-23.49,4.06-35.2.62-4.65,2-9.2,3-13.8,9.85,1.75,19.69,3.52,29.54,5.25,12.44,2.18,24.89,4.38,37.35,6.46,6.33,1.05,12.7,1.87,19.05,2.79a70.68,70.68,0,0,1,.9,7.34c.12,6.75,0,13.5,0,20.25q0,38,.07,76c-4.19.12-8.28.52-10.71,3.14-3.67-1.88-6.82-4-10.29-5.16-4.62-1.54-8.21,1.42-8,6.3.12,2.53.94,5,1.57,8.18-1.86.22-3.91.56-6,.68s-4.18,0-7.53,0c1.24,2.88,2,4.71,2.82,6.49C113.4,267.8,114.17,269,114.87,270.17Z" transform="translate(-1.76 -1.18)"/><path class="c" d="M54.73,209.1c-.25,1.34-.51,2.67-.76,4-.37,3-.73,6-1.1,9A130.49,130.49,0,0,1,50,250.19c-.37,1.76,0,3.66-.18,5.48-.27,3.79-.63,7.57-1,11.36,0,.67,0,1.35,0,2-.36,5.58-1.38,6.64-6.55,4.93-7.67-2.55-15.16-5.65-22.69-8.62-4.62-1.83-9.16-3.85-13.73-5.79-4-1.7-4.41-2.37-3.92-6.65.34-2.95.63-5.9,1-8.85.93-7.69,1.95-15.37,2.81-23.06.51-4.6.76-9.23,1.17-13.84q1.42-16.28,2.91-32.55c.66-7.23,1.25-14.47,2.12-21.68.77-6.37,2.36-12.68,2.69-19.06.25-4.84,3.47-5.79,6.72-6.59,12.63-3.11,25.35-5.94,38-8.86,3.09-.71,4.28.18,4.46,3.42.13,2.32.11,4.65.15,7-1,4.6-2.39,9.15-3,13.8-1.54,11.71-2.78,23.46-4.06,35.2-.47,4.41-.71,8.85-1.06,13.27-.27,1.37-.53,2.74-.8,4.11,0,1.63-.05,3.26-.08,4.9C53.1,203.06,53.41,206.07,54.73,209.1Z" transform="translate(-1.76 -1.18)"/><path class="d" d="M285.64,50.13c-5.28-.34-10.55-1-15.82-1-5.61,0-11.22.9-16.82.84-12.27-.12-24.53-.93-36.79-.87-23.41.1-46.83.62-70.24,1-7.27-.1-8.58-1.77-6.95-9.1.64-2.9,1.38-5.78,2.24-8.62,2.69-8.86,5.6-17.65,8.14-26.55.86-3,2.38-4,5.33-3.79,3.49.2,7,.08,10.5,0,27-.32,53.89-.8,80.84-.91,10.94,0,21.88.73,33.42,1.15,6.73,14.88,9.22,31.17,13.92,47.8Z" transform="translate(-1.76 -1.18)"/><path class="e" d="M279.09,159c-1.46.23-2.95.35-4.39.69-7.19,1.69-12.43-2.2-12.85-9.67-.13-2.43,0-4.87,0-7.67-3.61,1.36-4.23,4.22-5,6.84-1.11,3.9-2.67,7.4-5.84,10.19-2.13,1.88-4,1.87-6.32.62s-2.78-2.76-2.2-5.35c1.33-5.89,2.23-11.87,3.36-18.16-2.25.63-4.28,1.07-6.23,1.75-4,1.42-4.86,5.28-5.63,8.66-.92,4.05-2.43,7.5-5.64,10.14-1.89,1.57-3.7,3.76-6.52,2.4-3-1.44-5.43-4-4.87-7.33.91-5.48,2.65-10.83,4.15-16.21a36.65,36.65,0,0,1,1.84-4.37c-.8-.6-1.14-1-1.58-1.15-7.27-2.25-9.74-6-7.37-12.92a11.66,11.66,0,0,1,8.34-7.24c4-1,10.39.07,14.29,2.25,5.85-6.34,11.31-3.32,16.44,1.48.79-.51,1.32-.89,1.89-1.21,5.81-3.31,7.85-2.19,7.88,4.28,0,1.17,0,2.33,0,3.5,0,5.16,0,5.33,5,5.56a4.61,4.61,0,0,1,4.64,3.69,42.73,42.73,0,0,1,.79,5c2.25-2.9,4-5.14,6.25-8l1.21-4.62c.35,2.61,1.06,5.24.93,7.83-.11,2.33-1.15,4.61-1.78,6.91a24.55,24.55,0,0,0-3.16,3.3c-1.24,1.88-2.18,4-3.26,6-3.47-2.3-3.52-2.3-3.65-4.6-.08-1.5,0-3,0-4.5-.09-5.17-2.91-7.4-8.05-6.41-1.09.21-2.21.27-3.94.46V118c-1.74.7-2.8,1.06-3.81,1.54-2.08,1-3.94.76-5.32-1.12-1.85-2.52-4.14-2.65-6.53-1.18-4.06,2.49-8.17,2.13-12.42.75a10.28,10.28,0,0,0-3.36-.72c-2.59.09-3.65,1.65-3.67,4.29,0,3,2.5,3.26,4.31,4.09,4.53,2.06,4.72,2.41,2.19,6.8-1,1.72-2.21,3.33-3,5.13-2.15,4.81-4.48,9.64-3,15.11,2.28,1,3.48,0,4.76-1.61,3.58-4.66,4.46-10.3,5.8-15.72a4.68,4.68,0,0,1,3.37-3.82c4.14-1.29,8.32-2.47,13-3.84.19.84.87,2.12.69,3.27-.89,5.51-1.77,11-3.13,16.46-.58,2.3-1.14,4.32-.21,6.55,3.52-1,3.23-1.16,4.81-4.33a88.65,88.65,0,0,1,6.62-10.92,3.7,3.7,0,0,1,3.35-1.16c1.14.55,2.59,2.22,2.49,3.27-.4,4.24,1.88,7.59,3,11.34.66,2.31,2.28,3.71,4.15,3.64a7.75,7.75,0,0,0,4.87-2.66c1.45-1.67,2.17-4,3.21-6,.29.37.88.78.83,1.1C280.23,151.81,279.65,155.4,279.09,159Z" transform="translate(-1.76 -1.18)"/><path class="f" d="M279.88,147.1c-1,2-1.76,4.35-3.21,6a7.75,7.75,0,0,1-4.87,2.66c-1.87.07-3.49-1.33-4.15-3.64-1.08-3.75-3.36-7.1-3-11.34.1-1.05-1.35-2.72-2.49-3.27a3.7,3.7,0,0,0-3.35,1.16,88.65,88.65,0,0,0-6.62,10.92c-1.58,3.17-1.29,3.31-4.81,4.33-.93-2.23-.37-4.25.21-6.55,1.36-5.41,2.24-10.95,3.13-16.46.18-1.15-.5-2.43-.69-3.27-4.65,1.37-8.83,2.55-13,3.84a4.68,4.68,0,0,0-3.37,3.82c-1.34,5.42-2.22,11.06-5.8,15.72-1.28,1.66-2.48,2.61-4.76,1.61-1.44-5.47.89-10.3,3-15.11.81-1.8,2-3.41,3-5.13,2.53-4.39,2.34-4.74-2.19-6.8-1.81-.83-4.33-1.07-4.31-4.09,0-2.64,1.08-4.2,3.67-4.29a10.28,10.28,0,0,1,3.36.72c4.25,1.38,8.36,1.74,12.42-.75,2.39-1.47,4.68-1.34,6.53,1.18,1.38,1.88,3.24,2.11,5.32,1.12,1-.48,2.07-.84,3.81-1.54v13.1c1.73-.19,2.85-.25,3.94-.46,5.14-1,8,1.24,8.05,6.41,0,1.5-.06,3,0,4.5.13,2.3.18,2.3,3.65,4.6,1.08-2,2-4.11,3.26-6a24.55,24.55,0,0,1,3.16-3.3C279.91,140.25,279.89,143.67,279.88,147.1Z" transform="translate(-1.76 -1.18)"/><path class="g" d="M150.9,246.89q0-38-.07-76c0-6.75.09-13.5,0-20.25a70.68,70.68,0,0,0-.9-7.34l2-.13c.64,3,1.53,6,1.86,9.11.55,5.08.69,10.2,1.1,15.29.95,11.81,2,23.62,2.94,35.43.08,1,0,2,0,3q1,16.05,2,32.09c.35,5.76.68,11.53,1,17.29.32,5.26.66,10.52,1,15.79l-10.95-1c-2.08-1.95.07-3.08.87-4.47,2.49.92,3.61-.63,4.5-2.54,2.42-5.23.41-12.37-4.47-15.9Z" transform="translate(-1.76 -1.18)"/><path class="h" d="M142.78,271.05l-14-.85a34.36,34.36,0,0,0-3.55-2.09c-2.31-1-4.69-1.86-7-2.78.09-.41.18-.82.26-1.23h12.77c1.48-3.43-1.15-4.58-2.25-6.47s-3.23-4.13-1.35-6.71c1.15-1.56,5.76-1.2,7.84.56.85.72,1.3,1.91,2.11,2.7a26.68,26.68,0,0,0,3,2.17c5-7,5-7,11.29-5.18,1.11,3.67,3.75,7.35,0,11-.79.19-1.59.36-2.38.57-2.16.57-5.08.53-6.25,1.93S142.84,268.87,142.78,271.05Z" transform="translate(-1.76 -1.18)"/><path class="i" d="M151.84,251.17c-6.33-1.83-6.33-1.83-11.29,5.18a26.68,26.68,0,0,1-3-2.17c-.81-.79-1.26-2-2.11-2.7-2.08-1.76-6.69-2.12-7.84-.56-1.88,2.58.17,4.7,1.35,6.71s3.73,3,2.25,6.47H118.48c-.08.41-.17.82-.26,1.23,2.35.92,4.73,1.77,7,2.78a34.36,34.36,0,0,1,3.55,2.09,22.58,22.58,0,0,1-13.94,0c-.7-1.21-1.47-2.37-2.07-3.62-.85-1.78-1.58-3.61-2.82-6.49,3.35,0,5.45.1,7.53,0s4.11-.46,6-.68c-.63-3.16-1.45-5.65-1.57-8.18-.22-4.88,3.37-7.84,8-6.3,3.47,1.16,6.62,3.28,10.29,5.16,2.43-2.62,6.52-3,10.71-3.14l.86.41C151.78,248.59,151.81,249.88,151.84,251.17Z" transform="translate(-1.76 -1.18)"/><path class="j" d="M161.88,275.08q33.33,0,66.65,0a41.14,41.14,0,0,1,5.24.7,26.78,26.78,0,0,1-5.07,1c-17.46.08-34.92,0-52.37.07-3.49,0-7,.16-10.47.25C164.15,277.19,162.47,277.18,161.88,275.08Z" transform="translate(-1.76 -1.18)"/><path class="k" d="M142.78,271.05c.06-2.18-.69-5,.41-6.36s4.09-1.36,6.25-1.93c.79-.21,1.59-.38,2.38-.57l-.09,3.55c-.8,1.39-2.95,2.52-.87,4.47-.23,2.27-1.81,1.92-3.3,1.69S144.37,271.34,142.78,271.05Z" transform="translate(-1.76 -1.18)"/><path class="l" d="M94.73,268.49c2.58-.07,5.17-.28,7.73-.11.83.05,1.59,1.12,2.38,1.72-2.48,0-5,.12-7.44-.11C96.47,269.91,95.62,269,94.73,268.49Z" transform="translate(-1.76 -1.18)"/><path class="l" d="M48.81,269.05c0-.67,0-1.35,0-2l5,1Z" transform="translate(-1.76 -1.18)"/><path class="m" d="M146.8,63.1c1.48,1.27,1.43,2.6.17,4C145.44,65.82,145.49,64.49,146.8,63.1Z" transform="translate(-1.76 -1.18)"/><path class="j" d="M240.72,275.49c1.19-2.05,2.6-1.73,4.12-.4Z" transform="translate(-1.76 -1.18)"/><path class="e" d="M278,170.13l.75-2.06C280.65,169.56,279.28,169.84,278,170.13Z" transform="translate(-1.76 -1.18)"/><path class="n" d="M54.73,209.1c-1.32-3-1.63-6,.22-9C56.28,203.14,56.6,206.15,54.73,209.1Z" transform="translate(-1.76 -1.18)"/><path class="n" d="M52.87,222.12c.37-3,.73-6,1.1-9,.19,2.71.44,5.43.51,8.15C54.49,221.53,53.44,221.83,52.87,222.12Z" transform="translate(-1.76 -1.18)"/><path class="n" d="M55,195.21c.27-1.37.53-2.74.8-4.11C57.26,192.8,57.69,194.3,55,195.21Z" transform="translate(-1.76 -1.18)"/><path class="o" d="M151.73,265.74l.09-3.55c3.77-3.67,1.13-7.35,0-11,0-1.29-.06-2.58-.08-3.87,4.88,3.53,6.89,10.67,4.47,15.9C155.34,265.11,154.22,266.66,151.73,265.74Z" transform="translate(-1.76 -1.18)"/></svg>